  0
SECTION
  2
HEADER
  9
$ACADVER
  1
AC1006
  0
ENDSEC
  0
SECTION
  2
TABLES
  0
TABLE
  2
LAYER
  0
LAYER
  2
CHEMINEMENTS
 70
    64
 62
    1
  6
CONTINUOUS
  0
LAYER
  2
RADIALES
 70
    64
 62
    9
  6
CONTINUOUS
  0
LAYER
  2
POINTS
 70
    64
 62
    6
  6
CONTINUOUS
  0
LAYER
  2
STATIONS
 70
    64
 62
    7
  6
CONTINUOUS
  0
LAYER
  2
PROFONDEURS
 70
    64
 62
    2
  6
CONTINUOUS
  0
LAYER
  2
LARGEURS
 70
    64
 62
    4
  6
CONTINUOUS
  0
LAYER
  2
CONTOURS_LARGEURS
 70
    64
 62
    3
  6
CONTINUOUS
  0
LAYER
  2
ECHELLE
 70
    64
 62
    7
  6
CONTINUOUS
  0
ENDTAB
  0
ENDSEC
  0
SECTION
  2
ENTITIES
  0
LINE
  8
CHEMINEMENTS
 10
    0.00
 20
    0.00
 30
    0.00
 11
    0.00
 21
    0.00
 31
    0.00
  0
CIRCLE
  8
POINTS
 10
    0.00
 20
    0.00
 30
    0.00
 40
    0.2
  0
LINE
  8
LARGEURS
 10
    0.00
 20
    0.00
 30
    0.00
 11
    0.00
 21
    0.00
 31
    0.00
  0
LINE
  8
CONTOURS_LARGEURS
 10
    0.00
 20
    0.00
 30
    0.00
 11
    0.00
 21
    0.00
 31
    0.00
  0
LINE
  8
CONTOURS_LARGEURS
 10
    0.00
 20
    0.00
 30
    0.00
 11
    0.00
 21
    0.00
 31
    0.00
  0
TEXT
  8
STATIONS
 10
    0.00
 20
    0.00
 30
    0.00
 40
    0.4
  1
0
  0
TEXT
  8
PROFONDEURS
 10
    0.00
 20
    0.00
 30
    0.00
 40
    0.6
  1
+0
  0
LINE
  8
CHEMINEMENTS
 10
    0.00
 20
    0.00
 30
    0.00
 11
    0.33
 21
    -0.68
 31
    0.00
  0
CIRCLE
  8
POINTS
 10
    0.33
 20
    -0.68
 30
    0.00
 40
    0.2
  0
LINE
  8
LARGEURS
 10
    0.77
 20
    -0.23
 30
    0.00
 11
    -0.04
 21
    -1.06
 31
    0.00
  0
LINE
  8
CONTOURS_LARGEURS
 10
    0.00
 20
    0.00
 30
    0.00
 11
    0.77
 21
    -0.23
 31
    0.00
  0
LINE
  8
CONTOURS_LARGEURS
 10
    0.00
 20
    0.00
 30
    0.00
 11
    -0.04
 21
    -1.06
 31
    0.00
  0
TEXT
  8
STATIONS
 10
    0.33
 20
    -0.68
 30
    0.00
 40
    0.4
  1
0-1
  0
LINE
  8
CHEMINEMENTS
 10
    0.33
 20
    -0.68
 30
    0.00
 11
    2.18
 21
    -1.54
 31
    0.00
  0
CIRCLE
  8
POINTS
 10
    2.18
 20
    -1.54
 30
    0.00
 40
    0.2
  0
LINE
  8
LARGEURS
 10
    2.33
 20
    -0.69
 30
    0.00
 11
    2.07
 21
    -2.20
 31
    0.00
  0
LINE
  8
CONTOURS_LARGEURS
 10
    0.77
 20
    -0.23
 30
    0.00
 11
    2.33
 21
    -0.69
 31
    0.00
  0
LINE
  8
CONTOURS_LARGEURS
 10
    -0.04
 20
    -1.06
 30
    0.00
 11
    2.07
 21
    -2.20
 31
    0.00
  0
TEXT
  8
STATIONS
 10
    2.18
 20
    -1.54
 30
    0.00
 40
    0.4
  1
0_2
  0
LINE
  8
CHEMINEMENTS
 10
    2.18
 20
    -1.54
 30
    0.00
 11
    3.60
 21
    -1.42
 31
    0.00
  0
CIRCLE
  8
POINTS
 10
    3.60
 20
    -1.42
 30
    0.00
 40
    0.2
  0
LINE
  8
LARGEURS
 10
    3.89
 20
    -1.21
 30
    0.00
 11
    2.38
 21
    -2.31
 31
    0.00
  0
LINE
  8
CONTOURS_LARGEURS
 10
    2.33
 20
    -0.69
 30
    0.00
 11
    3.89
 21
    -1.21
 31
    0.00
  0
LINE
  8
CONTOURS_LARGEURS
 10
    2.07
 20
    -2.20
 30
    0.00
 11
    2.38
 21
    -2.31
 31
    0.00
  0
TEXT
  8
STATIONS
 10
    3.60
 20
    -1.42
 30
    0.00
 40
    0.4
  1
0_3
  0
LINE
  8
CHEMINEMENTS
 10
    3.60
 20
    -1.42
 30
    0.00
 11
    2.51
 21
    -4.00
 31
    0.00
  0
CIRCLE
  8
POINTS
 10
    2.51
 20
    -4.00
 30
    0.00
 40
    0.2
  0
LINE
  8
LARGEURS
 10
    3.20
 20
    -3.41
 30
    0.00
 11
    2.40
 21
    -4.10
 31
    0.00
  0
LINE
  8
CONTOURS_LARGEURS
 10
    3.89
 20
    -1.21
 30
    0.00
 11
    3.20
 21
    -3.41
 31
    0.00
  0
LINE
  8
CONTOURS_LARGEURS
 10
    2.38
 20
    -2.31
 30
    0.00
 11
    2.40
 21
    -4.10
 31
    0.00
  0
TEXT
  8
STATIONS
 10
    2.51
 20
    -4.00
 30
    0.00
 40
    0.4
  1
0_4
  0
LINE
  8
CHEMINEMENTS
 10
    2.51
 20
    -4.00
 30
    0.00
 11
    5.76
 21
    -3.20
 31
    0.00
  0
CIRCLE
  8
POINTS
 10
    5.76
 20
    -3.20
 30
    0.00
 40
    0.2
  0
LINE
  8
LARGEURS
 10
    5.76
 20
    -3.20
 30
    0.00
 11
    5.71
 21
    -4.47
 31
    0.00
  0
LINE
  8
CONTOURS_LARGEURS
 10
    3.20
 20
    -3.41
 30
    0.00
 11
    5.76
 21
    -3.20
 31
    0.00
  0
LINE
  8
CONTOURS_LARGEURS
 10
    2.40
 20
    -4.10
 30
    0.00
 11
    5.71
 21
    -4.47
 31
    0.00
  0
TEXT
  8
STATIONS
 10
    5.76
 20
    -3.20
 30
    0.00
 40
    0.4
  1
0_5
  0
LINE
  8
CHEMINEMENTS
 10
    5.76
 20
    -3.20
 30
    0.00
 11
    11.92
 21
    -5.20
 31
    0.00
  0
CIRCLE
  8
POINTS
 10
    11.92
 20
    -5.20
 30
    0.00
 40
    0.2
  0
LINE
  8
LARGEURS
 10
    19.26
 20
    0.51
 30
    0.00
 11
    2.77
 21
    -12.32
 31
    0.00
  0
LINE
  8
CONTOURS_LARGEURS
 10
    5.76
 20
    -3.20
 30
    0.00
 11
    19.26
 21
    0.51
 31
    0.00
  0
LINE
  8
CONTOURS_LARGEURS
 10
    5.71
 20
    -4.47
 30
    0.00
 11
    2.77
 21
    -12.32
 31
    0.00
  0
TEXT
  8
STATIONS
 10
    11.92
 20
    -5.20
 30
    0.00
 40
    0.4
  1
0_6
  0
LINE
  8
CHEMINEMENTS
 10
    11.92
 20
    -5.20
 30
    0.00
 11
    12.89
 21
    -20.20
 31
    0.00
  0
CIRCLE
  8
POINTS
 10
    12.89
 20
    -20.20
 30
    0.00
 40
    0.2
  0
LINE
  8
LARGEURS
 10
    25.66
 20
    -17.03
 30
    0.00
 11
    2.79
 21
    -22.71
 31
    0.00
  0
LINE
  8
CONTOURS_LARGEURS
 10
    19.26
 20
    0.51
 30
    0.00
 11
    25.66
 21
    -17.03
 31
    0.00
  0
LINE
  8
CONTOURS_LARGEURS
 10
    2.77
 20
    -12.32
 30
    0.00
 11
    2.79
 21
    -22.71
 31
    0.00
  0
TEXT
  8
STATIONS
 10
    12.89
 20
    -20.20
 30
    0.00
 40
    0.4
  1
0_7
  0
LINE
  8
CHEMINEMENTS
 10
    12.89
 20
    -20.20
 30
    0.00
 11
    20.42
 21
    -36.92
 31
    0.00
  0
CIRCLE
  8
POINTS
 10
    20.42
 20
    -36.92
 30
    0.00
 40
    0.2
  0
LINE
  8
LARGEURS
 10
    20.42
 20
    -36.92
 30
    0.00
 11
    18.27
 21
    -39.96
 31
    0.00
  0
LINE
  8
CONTOURS_LARGEURS
 10
    25.66
 20
    -17.03
 30
    0.00
 11
    20.42
 21
    -36.92
 31
    0.00
  0
LINE
  8
CONTOURS_LARGEURS
 10
    2.79
 20
    -22.71
 30
    0.00
 11
    18.27
 21
    -39.96
 31
    0.00
  0
TEXT
  8
STATIONS
 10
    20.42
 20
    -36.92
 30
    0.00
 40
    0.4
  1
0_8
  0
LINE
  8
CHEMINEMENTS
 10
    20.42
 20
    -36.92
 30
    0.00
 11
    35.35
 21
    -38.20
 31
    0.00
  0
CIRCLE
  8
POINTS
 10
    35.35
 20
    -38.20
 30
    0.00
 40
    0.2
  0
LINE
  8
LARGEURS
 10
    36.71
 20
    -31.19
 30
    0.00
 11
    35.22
 21
    -38.92
 31
    0.00
  0
LINE
  8
CONTOURS_LARGEURS
 10
    20.42
 20
    -36.92
 30
    0.00
 11
    36.71
 21
    -31.19
 31
    0.00
  0
LINE
  8
CONTOURS_LARGEURS
 10
    18.27
 20
    -39.96
 30
    0.00
 11
    35.22
 21
    -38.92
 31
    0.00
  0
TEXT
  8
STATIONS
 10
    35.35
 20
    -38.20
 30
    0.00
 40
    0.4
  1
0_9
  0
LINE
  8
CHEMINEMENTS
 10
    35.35
 20
    -38.20
 30
    0.00
 11
    42.47
 21
    -40.38
 31
    0.00
  0
CIRCLE
  8
POINTS
 10
    42.47
 20
    -40.38
 30
    0.00
 40
    0.2
  0
LINE
  8
LARGEURS
 10
    42.47
 20
    -40.38
 30
    0.00
 11
    42.57
 21
    -40.74
 31
    0.00
  0
LINE
  8
CONTOURS_LARGEURS
 10
    36.71
 20
    -31.19
 30
    0.00
 11
    42.47
 21
    -40.38
 31
    0.00
  0
LINE
  8
CONTOURS_LARGEURS
 10
    35.22
 20
    -38.92
 30
    0.00
 11
    42.57
 21
    -40.74
 31
    0.00
  0
TEXT
  8
STATIONS
 10
    42.47
 20
    -40.38
 30
    0.00
 40
    0.4
  1
0_10
  0
LINE
  8
CHEMINEMENTS
 10
    42.47
 20
    -40.38
 30
    0.00
 11
    45.32
 21
    -37.17
 31
    0.00
  0
CIRCLE
  8
POINTS
 10
    45.32
 20
    -37.17
 30
    0.00
 40
    0.2
  0
LINE
  8
LARGEURS
 10
    44.98
 20
    -36.58
 30
    0.00
 11
    46.04
 21
    -38.40
 31
    0.00
  0
LINE
  8
CONTOURS_LARGEURS
 10
    42.47
 20
    -40.38
 30
    0.00
 11
    44.98
 21
    -36.58
 31
    0.00
  0
LINE
  8
CONTOURS_LARGEURS
 10
    42.57
 20
    -40.74
 30
    0.00
 11
    46.04
 21
    -38.40
 31
    0.00
  0
TEXT
  8
STATIONS
 10
    45.32
 20
    -37.17
 30
    0.00
 40
    0.4
  1
0_11
  0
LINE
  8
CHEMINEMENTS
 10
    45.32
 20
    -37.17
 30
    0.00
 11
    48.67
 21
    -36.46
 31
    0.00
  0
CIRCLE
  8
POINTS
 10
    48.67
 20
    -36.46
 30
    0.00
 40
    0.2
  0
LINE
  8
LARGEURS
 10
    49.22
 20
    -30.78
 30
    0.00
 11
    48.03
 21
    -43.05
 31
    0.00
  0
LINE
  8
CONTOURS_LARGEURS
 10
    44.98
 20
    -36.58
 30
    0.00
 11
    49.22
 21
    -30.78
 31
    0.00
  0
LINE
  8
CONTOURS_LARGEURS
 10
    46.04
 20
    -38.40
 30
    0.00
 11
    48.03
 21
    -43.05
 31
    0.00
  0
TEXT
  8
STATIONS
 10
    48.67
 20
    -36.46
 30
    0.00
 40
    0.4
  1
0_12
  0
LINE
  8
CHEMINEMENTS
 10
    48.67
 20
    -36.46
 30
    0.00
 11
    62.83
 21
    -42.49
 31
    0.00
  0
CIRCLE
  8
POINTS
 10
    62.83
 20
    -42.49
 30
    0.00
 40
    0.2
  0
LINE
  8
LARGEURS
 10
    60.09
 20
    -26.59
 30
    0.00
 11
    63.53
 21
    -46.59
 31
    0.00
  0
LINE
  8
CONTOURS_LARGEURS
 10
    49.22
 20
    -30.78
 30
    0.00
 11
    60.09
 21
    -26.59
 31
    0.00
  0
LINE
  8
CONTOURS_LARGEURS
 10
    48.03
 20
    -43.05
 30
    0.00
 11
    63.53
 21
    -46.59
 31
    0.00
  0
TEXT
  8
STATIONS
 10
    62.83
 20
    -42.49
 30
    0.00
 40
    0.4
  1
0_13
  0
LINE
  8
CHEMINEMENTS
 10
    62.83
 20
    -42.49
 30
    0.00
 11
    76.37
 21
    -30.03
 31
    0.00
  0
CIRCLE
  8
POINTS
 10
    76.37
 20
    -30.03
 30
    0.00
 40
    0.2
  0
LINE
  8
LARGEURS
 10
    76.37
 20
    -30.03
 30
    0.00
 11
    75.73
 21
    -49.33
 31
    0.00
  0
LINE
  8
CONTOURS_LARGEURS
 10
    60.09
 20
    -26.59
 30
    0.00
 11
    76.37
 21
    -30.03
 31
    0.00
  0
LINE
  8
CONTOURS_LARGEURS
 10
    63.53
 20
    -46.59
 30
    0.00
 11
    75.73
 21
    -49.33
 31
    0.00
  0
TEXT
  8
STATIONS
 10
    76.37
 20
    -30.03
 30
    0.00
 40
    0.4
  1
0_14
  0
LINE
  8
CHEMINEMENTS
 10
    76.37
 20
    -30.03
 30
    0.00
 11
    94.38
 21
    -48.94
 31
    0.00
  0
CIRCLE
  8
POINTS
 10
    94.38
 20
    -48.94
 30
    0.00
 40
    0.2
  0
LINE
  8
LARGEURS
 10
    104.71
 20
    -39.45
 30
    0.00
 11
    88.12
 21
    -54.69
 31
    0.00
  0
LINE
  8
CONTOURS_LARGEURS
 10
    76.37
 20
    -30.03
 30
    0.00
 11
    104.71
 21
    -39.45
 31
    0.00
  0
LINE
  8
CONTOURS_LARGEURS
 10
    75.73
 20
    -49.33
 30
    0.00
 11
    88.12
 21
    -54.69
 31
    0.00
  0
TEXT
  8
STATIONS
 10
    94.38
 20
    -48.94
 30
    0.00
 40
    0.4
  1
0_15
  0
LINE
  8
CHEMINEMENTS
 10
    94.38
 20
    -48.94
 30
    0.00
 11
    108.82
 21
    -65.23
 31
    0.00
  0
CIRCLE
  8
POINTS
 10
    108.82
 20
    -65.23
 30
    0.00
 40
    0.2
  0
LINE
  8
LARGEURS
 10
    108.82
 20
    -65.23
 30
    0.00
 11
    89.53
 21
    -68.68
 31
    0.00
  0
LINE
  8
CONTOURS_LARGEURS
 10
    104.71
 20
    -39.45
 30
    0.00
 11
    108.82
 21
    -65.23
 31
    0.00
  0
LINE
  8
CONTOURS_LARGEURS
 10
    88.12
 20
    -54.69
 30
    0.00
 11
    89.53
 21
    -68.68
 31
    0.00
  0
TEXT
  8
STATIONS
 10
    108.82
 20
    -65.23
 30
    0.00
 40
    0.4
  1
0_16
  0
LINE
  8
CHEMINEMENTS
 10
    108.82
 20
    -65.23
 30
    0.00
 11
    105.01
 21
    -75.01
 31
    0.00
  0
CIRCLE
  8
POINTS
 10
    105.01
 20
    -75.01
 30
    0.00
 40
    0.2
  0
LINE
  8
LARGEURS
 10
    109.63
 20
    -67.57
 30
    0.00
 11
    81.19
 21
    -113.37
 31
    0.00
  0
LINE
  8
CONTOURS_LARGEURS
 10
    108.82
 20
    -65.23
 30
    0.00
 11
    109.63
 21
    -67.57
 31
    0.00
  0
LINE
  8
CONTOURS_LARGEURS
 10
    89.53
 20
    -68.68
 30
    0.00
 11
    81.19
 21
    -113.37
 31
    0.00
  0
TEXT
  8
STATIONS
 10
    105.01
 20
    -75.01
 30
    0.00
 40
    0.4
  1
0_17
  0
LINE
  8
CHEMINEMENTS
 10
    105.01
 20
    -75.01
 30
    0.00
 11
    110.26
 21
    -69.25
 31
    0.00
  0
CIRCLE
  8
POINTS
 10
    110.26
 20
    -69.25
 30
    0.00
 40
    0.2
  0
LINE
  8
LARGEURS
 10
    107.16
 20
    -66.43
 30
    0.00
 11
    110.26
 21
    -69.25
 31
    0.00
  0
LINE
  8
CONTOURS_LARGEURS
 10
    109.63
 20
    -67.57
 30
    0.00
 11
    107.16
 21
    -66.43
 31
    0.00
  0
LINE
  8
CONTOURS_LARGEURS
 10
    81.19
 20
    -113.37
 30
    0.00
 11
    110.26
 21
    -69.25
 31
    0.00
  0
LINE
  8
CONTOURS_LARGEURS
 10
    107.16
 20
    -66.43
 30
    0.00
 11
    110.26
 21
    -69.25
 31
    0.00
  0
TEXT
  8
STATIONS
 10
    110.26
 20
    -69.25
 30
    0.00
 40
    0.4
  1
0_18
  0
TEXT
  8
PROFONDEURS
 10
    110.26
 20
    -69.25
 30
    0.00
 40
    0.6
  1
-33
  0
LINE
  8
CHEMINEMENTS
 10
    108.82
 20
    -65.23
 30
    0.00
 11
    95.56
 21
    -69.56
 31
    0.00
  0
CIRCLE
  8
POINTS
 10
    95.56
 20
    -69.56
 30
    0.00
 40
    0.2
  0
LINE
  8
LARGEURS
 10
    88.04
 20
    -76.51
 30
    0.00
 11
    95.56
 21
    -69.56
 31
    0.00
  0
LINE
  8
CONTOURS_LARGEURS
 10
    108.82
 20
    -65.23
 30
    0.00
 11
    88.04
 21
    -76.51
 31
    0.00
  0
LINE
  8
CONTOURS_LARGEURS
 10
    89.53
 20
    -68.68
 30
    0.00
 11
    95.56
 21
    -69.56
 31
    0.00
  0
TEXT
  8
STATIONS
 10
    95.56
 20
    -69.56
 30
    0.00
 40
    0.4
  1
0_19
  0
LINE
  8
CHEMINEMENTS
 10
    95.56
 20
    -69.56
 30
    0.00
 11
    109.67
 21
    -35.76
 31
    0.00
  0
CIRCLE
  8
POINTS
 10
    109.67
 20
    -35.76
 30
    0.00
 40
    0.2
  0
LINE
  8
LARGEURS
 10
    109.67
 20
    -35.76
 30
    0.00
 11
    106.56
 21
    -60.92
 31
    0.00
  0
LINE
  8
CONTOURS_LARGEURS
 10
    88.04
 20
    -76.51
 30
    0.00
 11
    109.67
 21
    -35.76
 31
    0.00
  0
LINE
  8
CONTOURS_LARGEURS
 10
    95.56
 20
    -69.56
 30
    0.00
 11
    106.56
 21
    -60.92
 31
    0.00
  0
TEXT
  8
STATIONS
 10
    109.67
 20
    -35.76
 30
    0.00
 40
    0.4
  1
0_20
  0
LINE
  8
CHEMINEMENTS
 10
    109.67
 20
    -35.76
 30
    0.00
 11
    112.32
 21
    -53.35
 31
    0.00
  0
CIRCLE
  8
POINTS
 10
    112.32
 20
    -53.35
 30
    0.00
 40
    0.2
  0
LINE
  8
LARGEURS
 10
    118.74
 20
    -25.59
 30
    0.00
 11
    109.86
 21
    -64.03
 31
    0.00
  0
LINE
  8
CONTOURS_LARGEURS
 10
    109.67
 20
    -35.76
 30
    0.00
 11
    118.74
 21
    -25.59
 31
    0.00
  0
LINE
  8
CONTOURS_LARGEURS
 10
    106.56
 20
    -60.92
 30
    0.00
 11
    109.86
 21
    -64.03
 31
    0.00
  0
TEXT
  8
STATIONS
 10
    112.32
 20
    -53.35
 30
    0.00
 40
    0.4
  1
0_21
  0
LINE
  8
CHEMINEMENTS
 10
    112.32
 20
    -53.35
 30
    0.00
 11
    115.76
 21
    -48.37
 31
    0.00
  0
CIRCLE
  8
POINTS
 10
    115.76
 20
    -48.37
 30
    0.00
 40
    0.2
  0
LINE
  8
LARGEURS
 10
    115.76
 20
    -48.37
 30
    0.00
 11
    115.76
 21
    -48.37
 31
    0.00
  0
LINE
  8
CONTOURS_LARGEURS
 10
    118.74
 20
    -25.59
 30
    0.00
 11
    115.76
 21
    -48.37
 31
    0.00
  0
LINE
  8
CONTOURS_LARGEURS
 10
    109.86
 20
    -64.03
 30
    0.00
 11
    115.76
 21
    -48.37
 31
    0.00
  0
LINE
  8
CONTOURS_LARGEURS
 10
    115.76
 20
    -48.37
 30
    0.00
 11
    115.76
 21
    -48.37
 31
    0.00
  0
TEXT
  8
STATIONS
 10
    115.76
 20
    -48.37
 30
    0.00
 40
    0.4
  1
0_22
  0
LINE
  8
CHEMINEMENTS
 10
    112.32
 20
    -53.35
 30
    0.00
 11
    115.54
 21
    -44.28
 31
    0.00
  0
CIRCLE
  8
POINTS
 10
    115.54
 20
    -44.28
 30
    0.00
 40
    0.2
  0
LINE
  8
LARGEURS
 10
    114.21
 20
    -43.78
 30
    0.00
 11
    115.54
 21
    -44.28
 31
    0.00
  0
LINE
  8
CONTOURS_LARGEURS
 10
    118.74
 20
    -25.59
 30
    0.00
 11
    114.21
 21
    -43.78
 31
    0.00
  0
LINE
  8
CONTOURS_LARGEURS
 10
    109.86
 20
    -64.03
 30
    0.00
 11
    115.54
 21
    -44.28
 31
    0.00
  0
TEXT
  8
STATIONS
 10
    115.54
 20
    -44.28
 30
    0.00
 40
    0.4
  1
0_23
  0
LINE
  8
CHEMINEMENTS
 10
    115.54
 20
    -44.28
 30
    0.00
 11
    118.77
 21
    -36.24
 31
    0.00
  0
CIRCLE
  8
POINTS
 10
    118.77
 20
    -36.24
 30
    0.00
 40
    0.2
  0
LINE
  8
LARGEURS
 10
    118.77
 20
    -36.24
 30
    0.00
 11
    118.77
 21
    -36.24
 31
    0.00
  0
LINE
  8
CONTOURS_LARGEURS
 10
    114.21
 20
    -43.78
 30
    0.00
 11
    118.77
 21
    -36.24
 31
    0.00
  0
LINE
  8
CONTOURS_LARGEURS
 10
    115.54
 20
    -44.28
 30
    0.00
 11
    118.77
 21
    -36.24
 31
    0.00
  0
TEXT
  8
STATIONS
 10
    118.77
 20
    -36.24
 30
    0.00
 40
    0.4
  1
0_24
  0
LINE
  8
CHEMINEMENTS
 10
    118.77
 20
    -36.24
 30
    0.00
 11
    123.37
 21
    -39.89
 31
    0.00
  0
CIRCLE
  8
POINTS
 10
    123.37
 20
    -39.89
 30
    0.00
 40
    0.2
  0
LINE
  8
LARGEURS
 10
    127.51
 20
    -38.22
 30
    0.00
 11
    114.18
 21
    -43.61
 31
    0.00
  0
LINE
  8
CONTOURS_LARGEURS
 10
    118.77
 20
    -36.24
 30
    0.00
 11
    127.51
 21
    -38.22
 31
    0.00
  0
LINE
  8
CONTOURS_LARGEURS
 10
    118.77
 20
    -36.24
 30
    0.00
 11
    114.18
 21
    -43.61
 31
    0.00
  0
TEXT
  8
STATIONS
 10
    123.37
 20
    -39.89
 30
    0.00
 40
    0.4
  1
0_25
  0
LINE
  8
CHEMINEMENTS
 10
    123.37
 20
    -39.89
 30
    0.00
 11
    120.91
 21
    -58.53
 31
    0.00
  0
CIRCLE
  8
POINTS
 10
    120.91
 20
    -58.53
 30
    0.00
 40
    0.2
  0
LINE
  8
LARGEURS
 10
    120.91
 20
    -58.53
 30
    0.00
 11
    103.37
 21
    -61.75
 31
    0.00
  0
LINE
  8
CONTOURS_LARGEURS
 10
    127.51
 20
    -38.22
 30
    0.00
 11
    120.91
 21
    -58.53
 31
    0.00
  0
LINE
  8
CONTOURS_LARGEURS
 10
    114.18
 20
    -43.61
 30
    0.00
 11
    103.37
 21
    -61.75
 31
    0.00
  0
TEXT
  8
STATIONS
 10
    120.91
 20
    -58.53
 30
    0.00
 40
    0.4
  1
0_26
  0
LINE
  8
CHEMINEMENTS
 10
    120.91
 20
    -58.53
 30
    0.00
 11
    131.42
 21
    -77.99
 31
    0.00
  0
CIRCLE
  8
POINTS
 10
    131.42
 20
    -77.99
 30
    0.00
 40
    0.2
  0
LINE
  8
LARGEURS
 10
    143.53
 20
    -75.57
 30
    0.00
 11
    118.64
 21
    -80.55
 31
    0.00
  0
LINE
  8
CONTOURS_LARGEURS
 10
    120.91
 20
    -58.53
 30
    0.00
 11
    143.53
 21
    -75.57
 31
    0.00
  0
LINE
  8
CONTOURS_LARGEURS
 10
    103.37
 20
    -61.75
 30
    0.00
 11
    118.64
 21
    -80.55
 31
    0.00
  0
TEXT
  8
STATIONS
 10
    131.42
 20
    -77.99
 30
    0.00
 40
    0.4
  1
0_27
  0
LINE
  8
CHEMINEMENTS
 10
    131.42
 20
    -77.99
 30
    0.00
 11
    128.66
 21
    -105.65
 31
    0.00
  0
CIRCLE
  8
POINTS
 10
    128.66
 20
    -105.65
 30
    0.00
 40
    0.2
  0
LINE
  8
LARGEURS
 10
    131.82
 20
    -105.96
 30
    0.00
 11
    127.45
 21
    -105.52
 31
    0.00
  0
LINE
  8
CONTOURS_LARGEURS
 10
    143.53
 20
    -75.57
 30
    0.00
 11
    131.82
 21
    -105.96
 31
    0.00
  0
LINE
  8
CONTOURS_LARGEURS
 10
    118.64
 20
    -80.55
 30
    0.00
 11
    127.45
 21
    -105.52
 31
    0.00
  0
LINE
  8
CONTOURS_LARGEURS
 10
    131.82
 20
    -105.96
 30
    0.00
 11
    127.45
 21
    -105.52
 31
    0.00
  0
TEXT
  8
STATIONS
 10
    128.66
 20
    -105.65
 30
    0.00
 40
    0.4
  1
0_28
  0
LINE
  8
CHEMINEMENTS
 10
    131.42
 20
    -77.99
 30
    0.00
 11
    131.12
 21
    -107.24
 31
    0.00
  0
CIRCLE
  8
POINTS
 10
    131.12
 20
    -107.24
 30
    0.00
 40
    0.2
  0
LINE
  8
LARGEURS
 10
    131.12
 20
    -107.24
 30
    0.00
 11
    131.12
 21
    -107.24
 31
    0.00
  0
LINE
  8
CONTOURS_LARGEURS
 10
    143.53
 20
    -75.57
 30
    0.00
 11
    131.12
 21
    -107.24
 31
    0.00
  0
LINE
  8
CONTOURS_LARGEURS
 10
    118.64
 20
    -80.55
 30
    0.00
 11
    131.12
 21
    -107.24
 31
    0.00
  0
LINE
  8
CONTOURS_LARGEURS
 10
    131.12
 20
    -107.24
 30
    0.00
 11
    131.12
 21
    -107.24
 31
    0.00
  0
TEXT
  8
STATIONS
 10
    131.12
 20
    -107.24
 30
    0.00
 40
    0.4
  1
0_29
  0
LINE
  8
CHEMINEMENTS
 10
    131.42
 20
    -77.99
 30
    0.00
 11
    124.30
 21
    -100.84
 31
    0.00
  0
CIRCLE
  8
POINTS
 10
    124.30
 20
    -100.84
 30
    0.00
 40
    0.2
  0
LINE
  8
LARGEURS
 10
    134.21
 20
    -104.02
 30
    0.00
 11
    115.40
 21
    -97.98
 31
    0.00
  0
LINE
  8
CONTOURS_LARGEURS
 10
    143.53
 20
    -75.57
 30
    0.00
 11
    134.21
 21
    -104.02
 31
    0.00
  0
LINE
  8
CONTOURS_LARGEURS
 10
    118.64
 20
    -80.55
 30
    0.00
 11
    115.40
 21
    -97.98
 31
    0.00
  0
TEXT
  8
STATIONS
 10
    124.30
 20
    -100.84
 30
    0.00
 40
    0.4
  1
0_30
  0
LINE
  8
CHEMINEMENTS
 10
    124.30
 20
    -100.84
 30
    0.00
 11
    122.05
 21
    -107.67
 31
    0.00
  0
CIRCLE
  8
POINTS
 10
    122.05
 20
    -107.67
 30
    0.00
 40
    0.2
  0
LINE
  8
LARGEURS
 10
    129.20
 20
    -111.09
 30
    0.00
 11
    116.40
 21
    -104.96
 31
    0.00
  0
LINE
  8
CONTOURS_LARGEURS
 10
    134.21
 20
    -104.02
 30
    0.00
 11
    129.20
 21
    -111.09
 31
    0.00
  0
LINE
  8
CONTOURS_LARGEURS
 10
    115.40
 20
    -97.98
 30
    0.00
 11
    116.40
 21
    -104.96
 31
    0.00
  0
TEXT
  8
STATIONS
 10
    122.05
 20
    -107.67
 30
    0.00
 40
    0.4
  1
0_31
  0
LINE
  8
CHEMINEMENTS
 10
    122.05
 20
    -107.67
 30
    0.00
 11
    111.40
 21
    -124.13
 31
    0.00
  0
CIRCLE
  8
POINTS
 10
    111.40
 20
    -124.13
 30
    0.00
 40
    0.2
  0
LINE
  8
LARGEURS
 10
    118.63
 20
    -128.28
 30
    0.00
 11
    105.73
 21
    -120.87
 31
    0.00
  0
LINE
  8
CONTOURS_LARGEURS
 10
    129.20
 20
    -111.09
 30
    0.00
 11
    118.63
 21
    -128.28
 31
    0.00
  0
LINE
  8
CONTOURS_LARGEURS
 10
    116.40
 20
    -104.96
 30
    0.00
 11
    105.73
 21
    -120.87
 31
    0.00
  0
TEXT
  8
STATIONS
 10
    111.40
 20
    -124.13
 30
    0.00
 40
    0.4
  1
0_32
  0
LINE
  8
CHEMINEMENTS
 10
    111.40
 20
    -124.13
 30
    0.00
 11
    105.37
 21
    -136.06
 31
    0.00
  0
CIRCLE
  8
POINTS
 10
    105.37
 20
    -136.06
 30
    0.00
 40
    0.2
  0
LINE
  8
LARGEURS
 10
    117.10
 20
    -139.98
 30
    0.00
 11
    100.93
 21
    -134.58
 31
    0.00
  0
LINE
  8
CONTOURS_LARGEURS
 10
    118.63
 20
    -128.28
 30
    0.00
 11
    117.10
 21
    -139.98
 31
    0.00
  0
LINE
  8
CONTOURS_LARGEURS
 10
    105.73
 20
    -120.87
 30
    0.00
 11
    100.93
 21
    -134.58
 31
    0.00
  0
TEXT
  8
STATIONS
 10
    105.37
 20
    -136.06
 30
    0.00
 40
    0.4
  1
0_33
  0
LINE
  8
CHEMINEMENTS
 10
    105.37
 20
    -136.06
 30
    0.00
 11
    102.67
 21
    -151.19
 31
    0.00
  0
CIRCLE
  8
POINTS
 10
    102.67
 20
    -151.19
 30
    0.00
 40
    0.2
  0
LINE
  8
LARGEURS
 10
    113.60
 20
    -153.55
 30
    0.00
 11
    91.42
 21
    -148.76
 31
    0.00
  0
LINE
  8
CONTOURS_LARGEURS
 10
    117.10
 20
    -139.98
 30
    0.00
 11
    113.60
 21
    -153.55
 31
    0.00
  0
LINE
  8
CONTOURS_LARGEURS
 10
    100.93
 20
    -134.58
 30
    0.00
 11
    91.42
 21
    -148.76
 31
    0.00
  0
TEXT
  8
STATIONS
 10
    102.67
 20
    -151.19
 30
    0.00
 40
    0.4
  1
0_34
  0
LINE
  8
CHEMINEMENTS
 10
    102.67
 20
    -151.19
 30
    0.00
 11
    101.84
 21
    -154.44
 31
    0.00
  0
CIRCLE
  8
POINTS
 10
    101.84
 20
    -154.44
 30
    0.00
 40
    0.2
  0
LINE
  8
LARGEURS
 10
    107.13
 20
    -156.62
 30
    0.00
 11
    96.18
 21
    -152.10
 31
    0.00
  0
LINE
  8
CONTOURS_LARGEURS
 10
    113.60
 20
    -153.55
 30
    0.00
 11
    107.13
 21
    -156.62
 31
    0.00
  0
LINE
  8
CONTOURS_LARGEURS
 10
    91.42
 20
    -148.76
 30
    0.00
 11
    96.18
 21
    -152.10
 31
    0.00
  0
TEXT
  8
STATIONS
 10
    101.84
 20
    -154.44
 30
    0.00
 40
    0.4
  1
0_35
  0
LINE
  8
CHEMINEMENTS
 10
    101.84
 20
    -154.44
 30
    0.00
 11
    95.03
 21
    -165.99
 31
    0.00
  0
CIRCLE
  8
POINTS
 10
    95.03
 20
    -165.99
 30
    0.00
 40
    0.2
  0
LINE
  8
LARGEURS
 10
    102.45
 20
    -166.83
 30
    0.00
 11
    89.66
 21
    -165.39
 31
    0.00
  0
LINE
  8
CONTOURS_LARGEURS
 10
    107.13
 20
    -156.62
 30
    0.00
 11
    102.45
 21
    -166.83
 31
    0.00
  0
LINE
  8
CONTOURS_LARGEURS
 10
    96.18
 20
    -152.10
 30
    0.00
 11
    89.66
 21
    -165.39
 31
    0.00
  0
TEXT
  8
STATIONS
 10
    95.03
 20
    -165.99
 30
    0.00
 40
    0.4
  1
0_36
  0
LINE
  8
CHEMINEMENTS
 10
    97.29
 20
    -173.08
 30
    0.00
 11
    99.81
 21
    -168.70
 31
    0.00
  0
CIRCLE
  8
POINTS
 10
    99.81
 20
    -168.70
 30
    0.00
 40
    0.2
  0
LINE
  8
LARGEURS
 10
    99.81
 20
    -168.70
 30
    0.00
 11
    99.81
 21
    -168.70
 31
    0.00
  0
LINE
  8
CONTOURS_LARGEURS
 10
    98.22
 20
    -164.33
 30
    0.00
 11
    99.81
 21
    -168.70
 31
    0.00
  0
LINE
  8
CONTOURS_LARGEURS
 10
    96.54
 20
    -180.09
 30
    0.00
 11
    99.81
 21
    -168.70
 31
    0.00
  0
LINE
  8
CONTOURS_LARGEURS
 10
    99.81
 20
    -168.70
 30
    0.00
 11
    99.81
 21
    -168.70
 31
    0.00
  0
TEXT
  8
STATIONS
 10
    99.81
 20
    -168.70
 30
    0.00
 40
    0.4
  1
0_50
  0
LINE
  8
CHEMINEMENTS
 10
    95.03
 20
    -165.99
 30
    0.00
 11
    97.29
 21
    -173.08
 31
    0.00
  0
CIRCLE
  8
POINTS
 10
    97.29
 20
    -173.08
 30
    0.00
 40
    0.2
  0
LINE
  8
LARGEURS
 10
    98.22
 20
    -164.33
 30
    0.00
 11
    96.54
 21
    -180.09
 31
    0.00
  0
LINE
  8
CONTOURS_LARGEURS
 10
    102.45
 20
    -166.83
 30
    0.00
 11
    98.22
 21
    -164.33
 31
    0.00
  0
LINE
  8
CONTOURS_LARGEURS
 10
    89.66
 20
    -165.39
 30
    0.00
 11
    96.54
 21
    -180.09
 31
    0.00
  0
TEXT
  8
STATIONS
 10
    97.29
 20
    -173.08
 30
    0.00
 40
    0.4
  1
0_37
  0
LINE
  8
CHEMINEMENTS
 10
    97.29
 20
    -173.08
 30
    0.00
 11
    92.99
 21
    -182.37
 31
    0.00
  0
CIRCLE
  8
POINTS
 10
    92.99
 20
    -182.37
 30
    0.00
 40
    0.2
  0
LINE
  8
LARGEURS
 10
    92.99
 20
    -182.37
 30
    0.00
 11
    82.89
 21
    -192.30
 31
    0.00
  0
LINE
  8
CONTOURS_LARGEURS
 10
    98.22
 20
    -164.33
 30
    0.00
 11
    92.99
 21
    -182.37
 31
    0.00
  0
LINE
  8
CONTOURS_LARGEURS
 10
    96.54
 20
    -180.09
 30
    0.00
 11
    82.89
 21
    -192.30
 31
    0.00
  0
TEXT
  8
STATIONS
 10
    92.99
 20
    -182.37
 30
    0.00
 40
    0.4
  1
0_38
  0
LINE
  8
CHEMINEMENTS
 10
    92.99
 20
    -182.37
 30
    0.00
 11
    106.30
 21
    -176.47
 31
    0.00
  0
CIRCLE
  8
POINTS
 10
    106.30
 20
    -176.47
 30
    0.00
 40
    0.2
  0
LINE
  8
LARGEURS
 10
    98.01
 20
    -177.57
 30
    0.00
 11
    107.80
 21
    -176.27
 31
    0.00
  0
LINE
  8
CONTOURS_LARGEURS
 10
    92.99
 20
    -182.37
 30
    0.00
 11
    98.01
 21
    -177.57
 31
    0.00
  0
LINE
  8
CONTOURS_LARGEURS
 10
    82.89
 20
    -192.30
 30
    0.00
 11
    107.80
 21
    -176.27
 31
    0.00
  0
TEXT
  8
STATIONS
 10
    106.30
 20
    -176.47
 30
    0.00
 40
    0.4
  1
0_39
  0
LINE
  8
CHEMINEMENTS
 10
    106.30
 20
    -176.47
 30
    0.00
 11
    103.67
 21
    -176.07
 31
    0.00
  0
CIRCLE
  8
POINTS
 10
    103.67
 20
    -176.07
 30
    0.00
 40
    0.2
  0
LINE
  8
LARGEURS
 10
    103.76
 20
    -177.00
 30
    0.00
 11
    103.53
 21
    -174.64
 31
    0.00
  0
LINE
  8
CONTOURS_LARGEURS
 10
    98.01
 20
    -177.57
 30
    0.00
 11
    103.76
 21
    -177.00
 31
    0.00
  0
LINE
  8
CONTOURS_LARGEURS
 10
    107.80
 20
    -176.27
 30
    0.00
 11
    103.53
 21
    -174.64
 31
    0.00
  0
TEXT
  8
STATIONS
 10
    103.67
 20
    -176.07
 30
    0.00
 40
    0.4
  1
0_40
  0
LINE
  8
CHEMINEMENTS
 10
    103.67
 20
    -176.07
 30
    0.00
 11
    93.62
 21
    -179.73
 31
    0.00
  0
CIRCLE
  8
POINTS
 10
    93.62
 20
    -179.73
 30
    0.00
 40
    0.2
  0
LINE
  8
LARGEURS
 10
    94.24
 20
    -180.52
 30
    0.00
 11
    93.62
 21
    -179.73
 31
    0.00
  0
LINE
  8
CONTOURS_LARGEURS
 10
    103.76
 20
    -177.00
 30
    0.00
 11
    94.24
 21
    -180.52
 31
    0.00
  0
LINE
  8
CONTOURS_LARGEURS
 10
    103.53
 20
    -174.64
 30
    0.00
 11
    93.62
 21
    -179.73
 31
    0.00
  0
TEXT
  8
STATIONS
 10
    93.62
 20
    -179.73
 30
    0.00
 40
    0.4
  1
0_41
  0
LINE
  8
CHEMINEMENTS
 10
    93.62
 20
    -179.73
 30
    0.00
 11
    87.06
 21
    -189.83
 31
    0.00
  0
CIRCLE
  8
POINTS
 10
    87.06
 20
    -189.83
 30
    0.00
 40
    0.2
  0
LINE
  8
LARGEURS
 10
    88.13
 20
    -190.52
 30
    0.00
 11
    84.96
 21
    -188.47
 31
    0.00
  0
LINE
  8
CONTOURS_LARGEURS
 10
    94.24
 20
    -180.52
 30
    0.00
 11
    88.13
 21
    -190.52
 31
    0.00
  0
LINE
  8
CONTOURS_LARGEURS
 10
    93.62
 20
    -179.73
 30
    0.00
 11
    84.96
 21
    -188.47
 31
    0.00
  0
LINE
  8
CONTOURS_LARGEURS
 10
    88.13
 20
    -190.52
 30
    0.00
 11
    84.96
 21
    -188.47
 31
    0.00
  0
TEXT
  8
STATIONS
 10
    87.06
 20
    -189.83
 30
    0.00
 40
    0.4
  1
0_42
  0
TEXT
  8
PROFONDEURS
 10
    87.06
 20
    -189.83
 30
    0.00
 40
    0.6
  1
-73
  0
LINE
  8
CHEMINEMENTS
 10
    105.37
 20
    -136.06
 30
    0.00
 11
    107.67
 21
    -144.33
 31
    0.00
  0
CIRCLE
  8
POINTS
 10
    107.67
 20
    -144.33
 30
    0.00
 40
    0.2
  0
LINE
  8
LARGEURS
 10
    111.91
 20
    -142.43
 30
    0.00
 11
    101.31
 21
    -147.17
 31
    0.00
  0
LINE
  8
CONTOURS_LARGEURS
 10
    117.10
 20
    -139.98
 30
    0.00
 11
    111.91
 21
    -142.43
 31
    0.00
  0
LINE
  8
CONTOURS_LARGEURS
 10
    100.93
 20
    -134.58
 30
    0.00
 11
    101.31
 21
    -147.17
 31
    0.00
  0
TEXT
  8
STATIONS
 10
    107.67
 20
    -144.33
 30
    0.00
 40
    0.4
  1
0_43
  0
LINE
  8
CHEMINEMENTS
 10
    107.67
 20
    -144.33
 30
    0.00
 11
    111.31
 21
    -150.02
 31
    0.00
  0
CIRCLE
  8
POINTS
 10
    111.31
 20
    -150.02
 30
    0.00
 40
    0.2
  0
LINE
  8
LARGEURS
 10
    121.37
 20
    -151.06
 30
    0.00
 11
    103.16
 21
    -149.18
 31
    0.00
  0
LINE
  8
CONTOURS_LARGEURS
 10
    111.91
 20
    -142.43
 30
    0.00
 11
    121.37
 21
    -151.06
 31
    0.00
  0
LINE
  8
CONTOURS_LARGEURS
 10
    101.31
 20
    -147.17
 30
    0.00
 11
    103.16
 21
    -149.18
 31
    0.00
  0
TEXT
  8
STATIONS
 10
    111.31
 20
    -150.02
 30
    0.00
 40
    0.4
  1
0_44
  0
LINE
  8
CHEMINEMENTS
 10
    111.31
 20
    -150.02
 30
    0.00
 11
    104.94
 21
    -156.53
 31
    0.00
  0
CIRCLE
  8
POINTS
 10
    104.94
 20
    -156.53
 30
    0.00
 40
    0.2
  0
LINE
  8
LARGEURS
 10
    110.23
 20
    -161.70
 30
    0.00
 11
    104.29
 21
    -155.89
 31
    0.00
  0
LINE
  8
CONTOURS_LARGEURS
 10
    121.37
 20
    -151.06
 30
    0.00
 11
    110.23
 21
    -161.70
 31
    0.00
  0
LINE
  8
CONTOURS_LARGEURS
 10
    103.16
 20
    -149.18
 30
    0.00
 11
    104.29
 21
    -155.89
 31
    0.00
  0
LINE
  8
CONTOURS_LARGEURS
 10
    110.23
 20
    -161.70
 30
    0.00
 11
    104.29
 21
    -155.89
 31
    0.00
  0
TEXT
  8
STATIONS
 10
    104.94
 20
    -156.53
 30
    0.00
 40
    0.4
  1
0_45
  0
LINE
  8
CHEMINEMENTS
 10
    111.31
 20
    -150.02
 30
    0.00
 11
    116.11
 21
    -155.14
 31
    0.00
  0
CIRCLE
  8
POINTS
 10
    116.11
 20
    -155.14
 30
    0.00
 40
    0.2
  0
LINE
  8
LARGEURS
 10
    117.74
 20
    -154.69
 30
    0.00
 11
    106.06
 21
    -157.89
 31
    0.00
  0
LINE
  8
CONTOURS_LARGEURS
 10
    121.37
 20
    -151.06
 30
    0.00
 11
    117.74
 21
    -154.69
 31
    0.00
  0
LINE
  8
CONTOURS_LARGEURS
 10
    103.16
 20
    -149.18
 30
    0.00
 11
    106.06
 21
    -157.89
 31
    0.00
  0
TEXT
  8
STATIONS
 10
    116.11
 20
    -155.14
 30
    0.00
 40
    0.4
  1
0_46
  0
LINE
  8
CHEMINEMENTS
 10
    116.11
 20
    -155.14
 30
    0.00
 11
    114.69
 21
    -161.54
 31
    0.00
  0
CIRCLE
  8
POINTS
 10
    114.69
 20
    -161.54
 30
    0.00
 40
    0.2
  0
LINE
  8
LARGEURS
 10
    116.58
 20
    -163.41
 30
    0.00
 11
    109.30
 21
    -156.22
 31
    0.00
  0
LINE
  8
CONTOURS_LARGEURS
 10
    117.74
 20
    -154.69
 30
    0.00
 11
    116.58
 21
    -163.41
 31
    0.00
  0
LINE
  8
CONTOURS_LARGEURS
 10
    106.06
 20
    -157.89
 30
    0.00
 11
    109.30
 21
    -156.22
 31
    0.00
  0
TEXT
  8
STATIONS
 10
    114.69
 20
    -161.54
 30
    0.00
 40
    0.4
  1
0_47
  0
LINE
  8
CHEMINEMENTS
 10
    114.69
 20
    -161.54
 30
    0.00
 11
    106.39
 21
    -163.50
 31
    0.00
  0
CIRCLE
  8
POINTS
 10
    106.39
 20
    -163.50
 30
    0.00
 40
    0.2
  0
LINE
  8
LARGEURS
 10
    109.49
 20
    -173.76
 30
    0.00
 11
    105.09
 21
    -159.18
 31
    0.00
  0
LINE
  8
CONTOURS_LARGEURS
 10
    116.58
 20
    -163.41
 30
    0.00
 11
    109.49
 21
    -173.76
 31
    0.00
  0
LINE
  8
CONTOURS_LARGEURS
 10
    109.30
 20
    -156.22
 30
    0.00
 11
    105.09
 21
    -159.18
 31
    0.00
  0
TEXT
  8
STATIONS
 10
    106.39
 20
    -163.50
 30
    0.00
 40
    0.4
  1
0_48
  0
LINE
  8
CHEMINEMENTS
 10
    106.39
 20
    -163.50
 30
    0.00
 11
    100.87
 21
    -165.55
 31
    0.00
  0
CIRCLE
  8
POINTS
 10
    100.87
 20
    -165.55
 30
    0.00
 40
    0.2
  0
LINE
  8
LARGEURS
 10
    100.87
 20
    -165.55
 30
    0.00
 11
    94.89
 21
    -159.76
 31
    0.00
  0
LINE
  8
CONTOURS_LARGEURS
 10
    109.49
 20
    -173.76
 30
    0.00
 11
    100.87
 21
    -165.55
 31
    0.00
  0
LINE
  8
CONTOURS_LARGEURS
 10
    105.09
 20
    -159.18
 30
    0.00
 11
    94.89
 21
    -159.76
 31
    0.00
  0
TEXT
  8
STATIONS
 10
    100.87
 20
    -165.55
 30
    0.00
 40
    0.4
  1
0_49
  0
LINE
  8
CHEMINEMENTS
 10
    100.87
 20
    -165.55
 30
    0.00
 11
    99.81
 21
    -168.70
 31
    0.00
  0
CIRCLE
  8
POINTS
 10
    99.81
 20
    -168.70
 30
    0.00
 40
    0.2
  0
LINE
  8
LARGEURS
 10
    116.23
 20
    -174.21
 30
    0.00
 11
    99.81
 21
    -168.70
 31
    0.00
  0
LINE
  8
CONTOURS_LARGEURS
 10
    100.87
 20
    -165.55
 30
    0.00
 11
    116.23
 21
    -174.21
 31
    0.00
  0
LINE
  8
CONTOURS_LARGEURS
 10
    94.89
 20
    -159.76
 30
    0.00
 11
    99.81
 21
    -168.70
 31
    0.00
  0
LINE
  8
CONTOURS_LARGEURS
 10
    116.23
 20
    -174.21
 30
    0.00
 11
    99.81
 21
    -168.70
 31
    0.00
  0
TEXT
  8
STATIONS
 10
    99.81
 20
    -168.70
 30
    0.00
 40
    0.4
  1
0_50
  0
TEXT
  8
PROFONDEURS
 10
    99.81
 20
    -168.70
 30
    0.00
 40
    0.6
  1
-62
  0
TEXT
  8
ECHELLE
 10
    -0.04
 20
    -206.76
 30
    0.00
 40
    4.8
  1
0
  0
TEXT
  8
ECHELLE
 10
    57.19
 20
    -206.76
 30
    0.00
 40
    4.8
  1
50 m
  0
LINE
  8
ECHELLE
 10
    4.78
 20
    -201.94
 30
    0.00
 11
    54.78
 21
    -201.94
 31
    0.00
  0
LINE
  8
ECHELLE
 10
    54.78
 20
    -201.94
 30
    0.00
 11
    54.78
 21
    -206.76
 31
    0.00
  0
LINE
  8
ECHELLE
 10
    54.78
 20
    -206.76
 30
    0.00
 11
    4.78
 21
    -206.76
 31
    0.00
  0
LINE
  8
ECHELLE
 10
    4.78
 20
    -206.76
 30
    0.00
 11
    4.78
 21
    -201.94
 31
    0.00
  0
SOLID
  8
ECHELLE
 10
    4.78
 20
    -201.94
 30
    0.00
 11
    9.78
 21
    -201.94
 31
    0.00
 12
    4.78
 22
    -204.35
 32
    0.00
 13
    9.78
 23
    -204.35
 33
    0.00
  0
SOLID
  8
ECHELLE
 10
    9.78
 20
    -204.35
 30
    0.00
 11
    14.78
 21
    -204.35
 31
    0.00
 12
    9.78
 22
    -206.76
 32
    0.00
 13
    14.78
 23
    -206.76
 33
    0.00
  0
SOLID
  8
ECHELLE
 10
    14.78
 20
    -201.94
 30
    0.00
 11
    19.78
 21
    -201.94
 31
    0.00
 12
    14.78
 22
    -204.35
 32
    0.00
 13
    19.78
 23
    -204.35
 33
    0.00
  0
SOLID
  8
ECHELLE
 10
    19.78
 20
    -204.35
 30
    0.00
 11
    24.78
 21
    -204.35
 31
    0.00
 12
    19.78
 22
    -206.76
 32
    0.00
 13
    24.78
 23
    -206.76
 33
    0.00
  0
SOLID
  8
ECHELLE
 10
    24.78
 20
    -201.94
 30
    0.00
 11
    29.78
 21
    -201.94
 31
    0.00
 12
    24.78
 22
    -204.35
 32
    0.00
 13
    29.78
 23
    -204.35
 33
    0.00
  0
SOLID
  8
ECHELLE
 10
    29.78
 20
    -204.35
 30
    0.00
 11
    54.78
 21
    -204.35
 31
    0.00
 12
    29.78
 22
    -206.76
 32
    0.00
 13
    54.78
 23
    -206.76
 33
    0.00
  0
ENDSEC
  0
EOF
