  0
SECTION
  2
HEADER
  9
$ACADVER
  1
AC1006
  0
ENDSEC
  0
SECTION
  2
TABLES
  0
TABLE
  2
LAYER
  0
LAYER
  2
CHEMINEMENTS
 70
    64
 62
    1
  6
CONTINUOUS
  0
LAYER
  2
RADIALES
 70
    64
 62
    9
  6
CONTINUOUS
  0
LAYER
  2
POINTS
 70
    64
 62
    6
  6
CONTINUOUS
  0
LAYER
  2
STATIONS
 70
    64
 62
    7
  6
CONTINUOUS
  0
LAYER
  2
PROFONDEURS
 70
    64
 62
    2
  6
CONTINUOUS
  0
LAYER
  2
LARGEURS
 70
    64
 62
    4
  6
CONTINUOUS
  0
LAYER
  2
CONTOURS_LARGEURS
 70
    64
 62
    3
  6
CONTINUOUS
  0
LAYER
  2
ECHELLE
 70
    64
 62
    7
  6
CONTINUOUS
  0
ENDTAB
  0
ENDSEC
  0
SECTION
  2
ENTITIES
  0
LINE
  8
CHEMINEMENTS
 10
    0.00
 20
    0.00
 30
    0.00
 11
    0.00
 21
    0.00
 31
    0.00
  0
CIRCLE
  8
POINTS
 10
    0.00
 20
    0.00
 30
    0.00
 40
    0.2
  0
LINE
  8
LARGEURS
 10
    0.00
 20
    0.00
 30
    0.00
 11
    0.00
 21
    0.00
 31
    0.00
  0
LINE
  8
CONTOURS_LARGEURS
 10
    0.00
 20
    0.00
 30
    0.00
 11
    0.00
 21
    0.00
 31
    0.00
  0
LINE
  8
CONTOURS_LARGEURS
 10
    0.00
 20
    0.00
 30
    0.00
 11
    0.00
 21
    0.00
 31
    0.00
  0
TEXT
  8
STATIONS
 10
    0.00
 20
    0.00
 30
    0.00
 40
    0.4
  1
0
  0
TEXT
  8
PROFONDEURS
 10
    0.00
 20
    0.00
 30
    0.00
 40
    0.6
  1
+0
  0
LINE
  8
CHEMINEMENTS
 10
    0.00
 20
    0.00
 30
    0.00
 11
    0.00
 21
    0.00
 31
    0.00
  0
CIRCLE
  8
POINTS
 10
    0.00
 20
    0.00
 30
    0.00
 40
    0.2
  0
LINE
  8
LARGEURS
 10
    0.00
 20
    0.00
 30
    0.00
 11
    0.00
 21
    0.00
 31
    0.00
  0
LINE
  8
CONTOURS_LARGEURS
 10
    0.00
 20
    0.00
 30
    0.00
 11
    0.00
 21
    0.00
 31
    0.00
  0
LINE
  8
CONTOURS_LARGEURS
 10
    0.00
 20
    0.00
 30
    0.00
 11
    0.00
 21
    0.00
 31
    0.00
  0
TEXT
  8
STATIONS
 10
    0.00
 20
    0.00
 30
    0.00
 40
    0.4
  1
1
  0
LINE
  8
CHEMINEMENTS
 10
    0.00
 20
    0.00
 30
    0.00
 11
    1.83
 21
    -0.81
 31
    0.00
  0
CIRCLE
  8
POINTS
 10
    1.83
 20
    -0.81
 30
    0.00
 40
    0.2
  0
LINE
  8
LARGEURS
 10
    2.23
 20
    0.10
 30
    0.00
 11
    1.83
 21
    -0.81
 31
    0.00
  0
LINE
  8
CONTOURS_LARGEURS
 10
    0.00
 20
    0.00
 30
    0.00
 11
    2.23
 21
    0.10
 31
    0.00
  0
LINE
  8
CONTOURS_LARGEURS
 10
    0.00
 20
    0.00
 30
    0.00
 11
    1.83
 21
    -0.81
 31
    0.00
  0
TEXT
  8
STATIONS
 10
    1.83
 20
    -0.81
 30
    0.00
 40
    0.4
  1
2
  0
LINE
  8
CHEMINEMENTS
 10
    1.83
 20
    -0.81
 30
    0.00
 11
    2.65
 21
    -0.74
 31
    0.00
  0
CIRCLE
  8
POINTS
 10
    2.65
 20
    -0.74
 30
    0.00
 40
    0.2
  0
LINE
  8
LARGEURS
 10
    2.65
 20
    -0.74
 30
    0.00
 11
    2.74
 21
    -1.74
 31
    0.00
  0
LINE
  8
CONTOURS_LARGEURS
 10
    2.23
 20
    0.10
 30
    0.00
 11
    2.65
 21
    -0.74
 31
    0.00
  0
LINE
  8
CONTOURS_LARGEURS
 10
    1.83
 20
    -0.81
 30
    0.00
 11
    2.74
 21
    -1.74
 31
    0.00
  0
TEXT
  8
STATIONS
 10
    2.65
 20
    -0.74
 30
    0.00
 40
    0.4
  1
3
  0
LINE
  8
CHEMINEMENTS
 10
    2.65
 20
    -0.74
 30
    0.00
 11
    1.88
 21
    -2.55
 31
    0.00
  0
CIRCLE
  8
POINTS
 10
    1.88
 20
    -2.55
 30
    0.00
 40
    0.2
  0
LINE
  8
LARGEURS
 10
    2.80
 20
    -2.94
 30
    0.00
 11
    1.88
 21
    -2.55
 31
    0.00
  0
LINE
  8
CONTOURS_LARGEURS
 10
    2.74
 20
    -1.74
 30
    0.00
 11
    2.80
 21
    -2.94
 31
    0.00
  0
LINE
  8
CONTOURS_LARGEURS
 10
    2.65
 20
    -0.74
 30
    0.00
 11
    1.88
 21
    -2.55
 31
    0.00
  0
TEXT
  8
STATIONS
 10
    1.88
 20
    -2.55
 30
    0.00
 40
    0.4
  1
4
  0
LINE
  8
CHEMINEMENTS
 10
    1.88
 20
    -2.55
 30
    0.00
 11
    4.94
 21
    -1.79
 31
    0.00
  0
CIRCLE
  8
POINTS
 10
    4.94
 20
    -1.79
 30
    0.00
 40
    0.2
  0
LINE
  8
LARGEURS
 10
    4.94
 20
    -1.79
 30
    0.00
 11
    5.18
 21
    -2.76
 31
    0.00
  0
LINE
  8
CONTOURS_LARGEURS
 10
    1.88
 20
    -2.55
 30
    0.00
 11
    4.94
 21
    -1.79
 31
    0.00
  0
LINE
  8
CONTOURS_LARGEURS
 10
    2.80
 20
    -2.94
 30
    0.00
 11
    5.18
 21
    -2.76
 31
    0.00
  0
TEXT
  8
STATIONS
 10
    4.94
 20
    -1.79
 30
    0.00
 40
    0.4
  1
5
  0
LINE
  8
CHEMINEMENTS
 10
    4.94
 20
    -1.79
 30
    0.00
 11
    10.23
 21
    -3.51
 31
    0.00
  0
CIRCLE
  8
POINTS
 10
    10.23
 20
    -3.51
 30
    0.00
 40
    0.2
  0
LINE
  8
LARGEURS
 10
    13.32
 20
    6.00
 30
    0.00
 11
    6.83
 21
    -13.97
 31
    0.00
  0
LINE
  8
CONTOURS_LARGEURS
 10
    4.94
 20
    -1.79
 30
    0.00
 11
    13.32
 21
    6.00
 31
    0.00
  0
LINE
  8
CONTOURS_LARGEURS
 10
    5.18
 20
    -2.76
 30
    0.00
 11
    6.83
 21
    -13.97
 31
    0.00
  0
TEXT
  8
STATIONS
 10
    10.23
 20
    -3.51
 30
    0.00
 40
    0.4
  1
6
  0
LINE
  8
CHEMINEMENTS
 10
    10.23
 20
    -3.51
 30
    0.00
 11
    11.01
 21
    -18.43
 31
    0.00
  0
CIRCLE
  8
POINTS
 10
    11.01
 20
    -18.43
 30
    0.00
 40
    0.2
  0
LINE
  8
LARGEURS
 10
    24.00
 20
    -17.75
 30
    0.00
 11
    1.03
 21
    -18.95
 31
    0.00
  0
LINE
  8
CONTOURS_LARGEURS
 10
    13.32
 20
    6.00
 30
    0.00
 11
    24.00
 21
    -17.75
 31
    0.00
  0
LINE
  8
CONTOURS_LARGEURS
 10
    6.83
 20
    -13.97
 30
    0.00
 11
    1.03
 21
    -18.95
 31
    0.00
  0
TEXT
  8
STATIONS
 10
    11.01
 20
    -18.43
 30
    0.00
 40
    0.4
  1
7
  0
LINE
  8
CHEMINEMENTS
 10
    11.01
 20
    -18.43
 30
    0.00
 11
    18.12
 21
    -34.38
 31
    0.00
  0
CIRCLE
  8
POINTS
 10
    18.12
 20
    -34.38
 30
    0.00
 40
    0.2
  0
LINE
  8
LARGEURS
 10
    30.91
 20
    -28.69
 30
    0.00
 11
    13.55
 21
    -36.42
 31
    0.00
  0
LINE
  8
CONTOURS_LARGEURS
 10
    24.00
 20
    -17.75
 30
    0.00
 11
    30.91
 21
    -28.69
 31
    0.00
  0
LINE
  8
CONTOURS_LARGEURS
 10
    1.03
 20
    -18.95
 30
    0.00
 11
    13.55
 21
    -36.42
 31
    0.00
  0
TEXT
  8
STATIONS
 10
    18.12
 20
    -34.38
 30
    0.00
 40
    0.4
  1
8
  0
LINE
  8
CHEMINEMENTS
 10
    18.12
 20
    -34.38
 30
    0.00
 11
    30.21
 21
    -35.44
 31
    0.00
  0
CIRCLE
  8
POINTS
 10
    30.21
 20
    -35.44
 30
    0.00
 40
    0.2
  0
LINE
  8
LARGEURS
 10
    30.99
 20
    -26.47
 30
    0.00
 11
    30.21
 21
    -35.44
 31
    0.00
  0
LINE
  8
CONTOURS_LARGEURS
 10
    30.91
 20
    -28.69
 30
    0.00
 11
    30.99
 21
    -26.47
 31
    0.00
  0
LINE
  8
CONTOURS_LARGEURS
 10
    13.55
 20
    -36.42
 30
    0.00
 11
    30.21
 21
    -35.44
 31
    0.00
  0
TEXT
  8
STATIONS
 10
    30.21
 20
    -35.44
 30
    0.00
 40
    0.4
  1
9
  0
LINE
  8
CHEMINEMENTS
 10
    30.21
 20
    -35.44
 30
    0.00
 11
    37.08
 21
    -37.54
 31
    0.00
  0
CIRCLE
  8
POINTS
 10
    37.08
 20
    -37.54
 30
    0.00
 40
    0.2
  0
LINE
  8
LARGEURS
 10
    38.25
 20
    -33.72
 30
    0.00
 11
    37.08
 21
    -37.54
 31
    0.00
  0
LINE
  8
CONTOURS_LARGEURS
 10
    30.99
 20
    -26.47
 30
    0.00
 11
    38.25
 21
    -33.72
 31
    0.00
  0
LINE
  8
CONTOURS_LARGEURS
 10
    30.21
 20
    -35.44
 30
    0.00
 11
    37.08
 21
    -37.54
 31
    0.00
  0
TEXT
  8
STATIONS
 10
    37.08
 20
    -37.54
 30
    0.00
 40
    0.4
  1
10
  0
LINE
  8
CHEMINEMENTS
 10
    37.08
 20
    -37.54
 30
    0.00
 11
    39.87
 21
    -34.34
 31
    0.00
  0
CIRCLE
  8
POINTS
 10
    39.87
 20
    -34.34
 30
    0.00
 40
    0.2
  0
LINE
  8
LARGEURS
 10
    39.11
 20
    -33.69
 30
    0.00
 11
    40.62
 21
    -35.00
 31
    0.00
  0
LINE
  8
CONTOURS_LARGEURS
 10
    38.25
 20
    -33.72
 30
    0.00
 11
    39.11
 21
    -33.69
 31
    0.00
  0
LINE
  8
CONTOURS_LARGEURS
 10
    37.08
 20
    -37.54
 30
    0.00
 11
    40.62
 21
    -35.00
 31
    0.00
  0
TEXT
  8
STATIONS
 10
    39.87
 20
    -34.34
 30
    0.00
 40
    0.4
  1
11
  0
LINE
  8
CHEMINEMENTS
 10
    39.87
 20
    -34.34
 30
    0.00
 11
    43.07
 21
    -33.66
 31
    0.00
  0
CIRCLE
  8
POINTS
 10
    43.07
 20
    -33.66
 30
    0.00
 40
    0.2
  0
LINE
  8
LARGEURS
 10
    41.82
 20
    -27.79
 30
    0.00
 11
    44.32
 21
    -39.53
 31
    0.00
  0
LINE
  8
CONTOURS_LARGEURS
 10
    39.11
 20
    -33.69
 30
    0.00
 11
    41.82
 21
    -27.79
 31
    0.00
  0
LINE
  8
CONTOURS_LARGEURS
 10
    40.62
 20
    -35.00
 30
    0.00
 11
    44.32
 21
    -39.53
 31
    0.00
  0
TEXT
  8
STATIONS
 10
    43.07
 20
    -33.66
 30
    0.00
 40
    0.4
  1
12
  0
LINE
  8
CHEMINEMENTS
 10
    43.07
 20
    -33.66
 30
    0.00
 11
    56.91
 21
    -39.54
 31
    0.00
  0
CIRCLE
  8
POINTS
 10
    56.91
 20
    -39.54
 30
    0.00
 40
    0.2
  0
LINE
  8
LARGEURS
 10
    63.16
 20
    -24.81
 30
    0.00
 11
    54.57
 21
    -45.06
 31
    0.00
  0
LINE
  8
CONTOURS_LARGEURS
 10
    41.82
 20
    -27.79
 30
    0.00
 11
    63.16
 21
    -24.81
 31
    0.00
  0
LINE
  8
CONTOURS_LARGEURS
 10
    44.32
 20
    -39.53
 30
    0.00
 11
    54.57
 21
    -45.06
 31
    0.00
  0
TEXT
  8
STATIONS
 10
    56.91
 20
    -39.54
 30
    0.00
 40
    0.4
  1
13
  0
LINE
  8
CHEMINEMENTS
 10
    56.91
 20
    -39.54
 30
    0.00
 11
    70.04
 21
    -27.29
 31
    0.00
  0
CIRCLE
  8
POINTS
 10
    70.04
 20
    -27.29
 30
    0.00
 40
    0.2
  0
LINE
  8
LARGEURS
 10
    59.81
 20
    -16.32
 30
    0.00
 11
    93.91
 21
    -52.89
 31
    0.00
  0
LINE
  8
CONTOURS_LARGEURS
 10
    63.16
 20
    -24.81
 30
    0.00
 11
    59.81
 21
    -16.32
 31
    0.00
  0
LINE
  8
CONTOURS_LARGEURS
 10
    54.57
 20
    -45.06
 30
    0.00
 11
    93.91
 21
    -52.89
 31
    0.00
  0
TEXT
  8
STATIONS
 10
    70.04
 20
    -27.29
 30
    0.00
 40
    0.4
  1
14
  0
LINE
  8
CHEMINEMENTS
 10
    70.04
 20
    -27.29
 30
    0.00
 11
    87.88
 21
    -45.76
 31
    0.00
  0
CIRCLE
  8
POINTS
 10
    87.88
 20
    -45.76
 30
    0.00
 40
    0.2
  0
LINE
  8
LARGEURS
 10
    98.67
 20
    -35.34
 30
    0.00
 11
    81.41
 21
    -52.01
 31
    0.00
  0
LINE
  8
CONTOURS_LARGEURS
 10
    59.81
 20
    -16.32
 30
    0.00
 11
    98.67
 21
    -35.34
 31
    0.00
  0
LINE
  8
CONTOURS_LARGEURS
 10
    93.91
 20
    -52.89
 30
    0.00
 11
    81.41
 21
    -52.01
 31
    0.00
  0
TEXT
  8
STATIONS
 10
    87.88
 20
    -45.76
 30
    0.00
 40
    0.4
  1
15
  0
LINE
  8
CHEMINEMENTS
 10
    87.88
 20
    -45.76
 30
    0.00
 11
    101.92
 21
    -61.36
 31
    0.00
  0
CIRCLE
  8
POINTS
 10
    101.92
 20
    -61.36
 30
    0.00
 40
    0.2
  0
LINE
  8
LARGEURS
 10
    113.07
 20
    -51.32
 30
    0.00
 11
    87.06
 21
    -74.74
 31
    0.00
  0
LINE
  8
CONTOURS_LARGEURS
 10
    98.67
 20
    -35.34
 30
    0.00
 11
    113.07
 21
    -51.32
 31
    0.00
  0
LINE
  8
CONTOURS_LARGEURS
 10
    81.41
 20
    -52.01
 30
    0.00
 11
    87.06
 21
    -74.74
 31
    0.00
  0
TEXT
  8
STATIONS
 10
    101.92
 20
    -61.36
 30
    0.00
 40
    0.4
  1
16
  0
LINE
  8
CHEMINEMENTS
 10
    101.92
 20
    -61.36
 30
    0.00
 11
    98.18
 21
    -70.62
 31
    0.00
  0
CIRCLE
  8
POINTS
 10
    98.18
 20
    -70.62
 30
    0.00
 40
    0.2
  0
LINE
  8
LARGEURS
 10
    106.53
 20
    -73.99
 30
    0.00
 11
    56.46
 21
    -53.76
 31
    0.00
  0
LINE
  8
CONTOURS_LARGEURS
 10
    113.07
 20
    -51.32
 30
    0.00
 11
    106.53
 21
    -73.99
 31
    0.00
  0
LINE
  8
CONTOURS_LARGEURS
 10
    87.06
 20
    -74.74
 30
    0.00
 11
    56.46
 21
    -53.76
 31
    0.00
  0
TEXT
  8
STATIONS
 10
    98.18
 20
    -70.62
 30
    0.00
 40
    0.4
  1
17
  0
LINE
  8
CHEMINEMENTS
 10
    98.18
 20
    -70.62
 30
    0.00
 11
    103.38
 21
    -64.85
 31
    0.00
  0
CIRCLE
  8
POINTS
 10
    103.38
 20
    -64.85
 30
    0.00
 40
    0.2
  0
LINE
  8
LARGEURS
 10
    99.66
 20
    -61.50
 30
    0.00
 11
    106.35
 21
    -67.53
 31
    0.00
  0
LINE
  8
CONTOURS_LARGEURS
 10
    56.46
 20
    -53.76
 30
    0.00
 11
    99.66
 21
    -61.50
 31
    0.00
  0
LINE
  8
CONTOURS_LARGEURS
 10
    106.53
 20
    -73.99
 30
    0.00
 11
    106.35
 21
    -67.53
 31
    0.00
  0
LINE
  8
CONTOURS_LARGEURS
 10
    99.66
 20
    -61.50
 30
    0.00
 11
    106.35
 21
    -67.53
 31
    0.00
  0
TEXT
  8
STATIONS
 10
    103.38
 20
    -64.85
 30
    0.00
 40
    0.4
  1
18
  0
TEXT
  8
PROFONDEURS
 10
    103.38
 20
    -64.85
 30
    0.00
 40
    0.6
  1
-39
  0
LINE
  8
CHEMINEMENTS
 10
    101.92
 20
    -61.36
 30
    0.00
 11
    89.72
 21
    -65.80
 31
    0.00
  0
CIRCLE
  8
POINTS
 10
    89.72
 20
    -65.80
 30
    0.00
 40
    0.2
  0
LINE
  8
LARGEURS
 10
    95.19
 20
    -80.84
 30
    0.00
 11
    85.95
 21
    -55.47
 31
    0.00
  0
LINE
  8
CONTOURS_LARGEURS
 10
    113.07
 20
    -51.32
 30
    0.00
 11
    95.19
 21
    -80.84
 31
    0.00
  0
LINE
  8
CONTOURS_LARGEURS
 10
    87.06
 20
    -74.74
 30
    0.00
 11
    85.95
 21
    -55.47
 31
    0.00
  0
TEXT
  8
STATIONS
 10
    89.72
 20
    -65.80
 30
    0.00
 40
    0.4
  1
19
  0
LINE
  8
CHEMINEMENTS
 10
    89.72
 20
    -65.80
 30
    0.00
 11
    69.41
 21
    -95.91
 31
    0.00
  0
CIRCLE
  8
POINTS
 10
    69.41
 20
    -95.91
 30
    0.00
 40
    0.2
  0
LINE
  8
LARGEURS
 10
    79.35
 20
    -102.62
 30
    0.00
 11
    47.02
 21
    -80.82
 31
    0.00
  0
LINE
  8
CONTOURS_LARGEURS
 10
    95.19
 20
    -80.84
 30
    0.00
 11
    79.35
 21
    -102.62
 31
    0.00
  0
LINE
  8
CONTOURS_LARGEURS
 10
    85.95
 20
    -55.47
 30
    0.00
 11
    47.02
 21
    -80.82
 31
    0.00
  0
TEXT
  8
STATIONS
 10
    69.41
 20
    -95.91
 30
    0.00
 40
    0.4
  1
20
  0
LINE
  8
CHEMINEMENTS
 10
    69.41
 20
    -95.91
 30
    0.00
 11
    72.05
 21
    -112.61
 31
    0.00
  0
CIRCLE
  8
POINTS
 10
    72.05
 20
    -112.61
 30
    0.00
 40
    0.2
  0
LINE
  8
LARGEURS
 10
    103.66
 20
    -107.61
 30
    0.00
 11
    55.26
 21
    -115.27
 31
    0.00
  0
LINE
  8
CONTOURS_LARGEURS
 10
    79.35
 20
    -102.62
 30
    0.00
 11
    103.66
 21
    -107.61
 31
    0.00
  0
LINE
  8
CONTOURS_LARGEURS
 10
    47.02
 20
    -80.82
 30
    0.00
 11
    55.26
 21
    -115.27
 31
    0.00
  0
TEXT
  8
STATIONS
 10
    72.05
 20
    -112.61
 30
    0.00
 40
    0.4
  1
21
  0
LINE
  8
CHEMINEMENTS
 10
    72.05
 20
    -112.61
 30
    0.00
 11
    75.03
 21
    -108.36
 31
    0.00
  0
CIRCLE
  8
POINTS
 10
    75.03
 20
    -108.36
 30
    0.00
 40
    0.2
  0
LINE
  8
LARGEURS
 10
    75.03
 20
    -108.36
 30
    0.00
 11
    75.03
 21
    -108.36
 31
    0.00
  0
LINE
  8
CONTOURS_LARGEURS
 10
    103.66
 20
    -107.61
 30
    0.00
 11
    75.03
 21
    -108.36
 31
    0.00
  0
LINE
  8
CONTOURS_LARGEURS
 10
    55.26
 20
    -115.27
 30
    0.00
 11
    75.03
 21
    -108.36
 31
    0.00
  0
LINE
  8
CONTOURS_LARGEURS
 10
    75.03
 20
    -108.36
 30
    0.00
 11
    75.03
 21
    -108.36
 31
    0.00
  0
TEXT
  8
STATIONS
 10
    75.03
 20
    -108.36
 30
    0.00
 40
    0.4
  1
22
  0
LINE
  8
CHEMINEMENTS
 10
    72.05
 20
    -112.61
 30
    0.00
 11
    75.12
 21
    -104.19
 31
    0.00
  0
CIRCLE
  8
POINTS
 10
    75.12
 20
    -104.19
 30
    0.00
 40
    0.2
  0
LINE
  8
LARGEURS
 10
    68.54
 20
    -101.79
 30
    0.00
 11
    76.06
 21
    -104.53
 31
    0.00
  0
LINE
  8
CONTOURS_LARGEURS
 10
    103.66
 20
    -107.61
 30
    0.00
 11
    68.54
 21
    -101.79
 31
    0.00
  0
LINE
  8
CONTOURS_LARGEURS
 10
    55.26
 20
    -115.27
 30
    0.00
 11
    76.06
 21
    -104.53
 31
    0.00
  0
TEXT
  8
STATIONS
 10
    75.12
 20
    -104.19
 30
    0.00
 40
    0.4
  1
23
  0
LINE
  8
CHEMINEMENTS
 10
    75.12
 20
    -104.19
 30
    0.00
 11
    80.63
 21
    -89.05
 31
    0.00
  0
CIRCLE
  8
POINTS
 10
    80.63
 20
    -89.05
 30
    0.00
 40
    0.2
  0
LINE
  8
LARGEURS
 10
    79.69
 20
    -88.70
 30
    0.00
 11
    84.39
 21
    -90.41
 31
    0.00
  0
LINE
  8
CONTOURS_LARGEURS
 10
    68.54
 20
    -101.79
 30
    0.00
 11
    79.69
 21
    -88.70
 31
    0.00
  0
LINE
  8
CONTOURS_LARGEURS
 10
    76.06
 20
    -104.53
 30
    0.00
 11
    84.39
 21
    -90.41
 31
    0.00
  0
TEXT
  8
STATIONS
 10
    80.63
 20
    -89.05
 30
    0.00
 40
    0.4
  1
24
  0
LINE
  8
CHEMINEMENTS
 10
    80.63
 20
    -89.05
 30
    0.00
 11
    84.67
 21
    -92.32
 31
    0.00
  0
CIRCLE
  8
POINTS
 10
    84.67
 20
    -92.32
 30
    0.00
 40
    0.2
  0
LINE
  8
LARGEURS
 10
    87.19
 20
    -89.21
 30
    0.00
 11
    77.75
 21
    -100.87
 31
    0.00
  0
LINE
  8
CONTOURS_LARGEURS
 10
    79.69
 20
    -88.70
 30
    0.00
 11
    87.19
 21
    -89.21
 31
    0.00
  0
LINE
  8
CONTOURS_LARGEURS
 10
    84.39
 20
    -90.41
 30
    0.00
 11
    77.75
 21
    -100.87
 31
    0.00
  0
TEXT
  8
STATIONS
 10
    84.67
 20
    -92.32
 30
    0.00
 40
    0.4
  1
25
  0
LINE
  8
CHEMINEMENTS
 10
    84.67
 20
    -92.32
 30
    0.00
 11
    82.42
 21
    -110.62
 31
    0.00
  0
CIRCLE
  8
POINTS
 10
    82.42
 20
    -110.62
 30
    0.00
 40
    0.2
  0
LINE
  8
LARGEURS
 10
    90.36
 20
    -111.59
 30
    0.00
 11
    63.57
 21
    -108.30
 31
    0.00
  0
LINE
  8
CONTOURS_LARGEURS
 10
    87.19
 20
    -89.21
 30
    0.00
 11
    90.36
 21
    -111.59
 31
    0.00
  0
LINE
  8
CONTOURS_LARGEURS
 10
    77.75
 20
    -100.87
 30
    0.00
 11
    63.57
 21
    -108.30
 31
    0.00
  0
TEXT
  8
STATIONS
 10
    82.42
 20
    -110.62
 30
    0.00
 40
    0.4
  1
26
  0
LINE
  8
CHEMINEMENTS
 10
    82.42
 20
    -110.62
 30
    0.00
 11
    91.34
 21
    -130.64
 31
    0.00
  0
CIRCLE
  8
POINTS
 10
    91.34
 20
    -130.64
 30
    0.00
 40
    0.2
  0
LINE
  8
LARGEURS
 10
    107.78
 20
    -123.32
 30
    0.00
 11
    79.46
 21
    -135.93
 31
    0.00
  0
LINE
  8
CONTOURS_LARGEURS
 10
    90.36
 20
    -111.59
 30
    0.00
 11
    107.78
 21
    -123.32
 31
    0.00
  0
LINE
  8
CONTOURS_LARGEURS
 10
    63.57
 20
    -108.30
 30
    0.00
 11
    79.46
 21
    -135.93
 31
    0.00
  0
TEXT
  8
STATIONS
 10
    91.34
 20
    -130.64
 30
    0.00
 40
    0.4
  1
27
  0
LINE
  8
CHEMINEMENTS
 10
    91.34
 20
    -130.64
 30
    0.00
 11
    88.05
 21
    -157.44
 31
    0.00
  0
CIRCLE
  8
POINTS
 10
    88.05
 20
    -157.44
 30
    0.00
 40
    0.2
  0
LINE
  8
LARGEURS
 10
    91.03
 20
    -157.80
 30
    0.00
 11
    87.06
 21
    -157.32
 31
    0.00
  0
LINE
  8
CONTOURS_LARGEURS
 10
    107.78
 20
    -123.32
 30
    0.00
 11
    91.03
 21
    -157.80
 31
    0.00
  0
LINE
  8
CONTOURS_LARGEURS
 10
    79.46
 20
    -135.93
 30
    0.00
 11
    87.06
 21
    -157.32
 31
    0.00
  0
TEXT
  8
STATIONS
 10
    88.05
 20
    -157.44
 30
    0.00
 40
    0.4
  1
28
  0
LINE
  8
CHEMINEMENTS
 10
    91.34
 20
    -130.64
 30
    0.00
 11
    90.83
 21
    -159.62
 31
    0.00
  0
CIRCLE
  8
POINTS
 10
    90.83
 20
    -159.62
 30
    0.00
 40
    0.2
  0
LINE
  8
LARGEURS
 10
    96.83
 20
    -159.72
 30
    0.00
 11
    80.83
 21
    -159.44
 31
    0.00
  0
LINE
  8
CONTOURS_LARGEURS
 10
    107.78
 20
    -123.32
 30
    0.00
 11
    96.83
 21
    -159.72
 31
    0.00
  0
LINE
  8
CONTOURS_LARGEURS
 10
    79.46
 20
    -135.93
 30
    0.00
 11
    80.83
 21
    -159.44
 31
    0.00
  0
LINE
  8
CONTOURS_LARGEURS
 10
    96.83
 20
    -159.72
 30
    0.00
 11
    80.83
 21
    -159.44
 31
    0.00
  0
TEXT
  8
STATIONS
 10
    90.83
 20
    -159.62
 30
    0.00
 40
    0.4
  1
29
  0
LINE
  8
CHEMINEMENTS
 10
    91.34
 20
    -130.64
 30
    0.00
 11
    84.34
 21
    -153.53
 31
    0.00
  0
CIRCLE
  8
POINTS
 10
    84.34
 20
    -153.53
 30
    0.00
 40
    0.2
  0
LINE
  8
LARGEURS
 10
    94.86
 20
    -156.75
 30
    0.00
 11
    72.86
 21
    -150.03
 31
    0.00
  0
LINE
  8
CONTOURS_LARGEURS
 10
    107.78
 20
    -123.32
 30
    0.00
 11
    94.86
 21
    -156.75
 31
    0.00
  0
LINE
  8
CONTOURS_LARGEURS
 10
    79.46
 20
    -135.93
 30
    0.00
 11
    72.86
 21
    -150.03
 31
    0.00
  0
TEXT
  8
STATIONS
 10
    84.34
 20
    -153.53
 30
    0.00
 40
    0.4
  1
30
  0
LINE
  8
CHEMINEMENTS
 10
    84.34
 20
    -153.53
 30
    0.00
 11
    82.19
 21
    -160.16
 31
    0.00
  0
CIRCLE
  8
POINTS
 10
    82.19
 20
    -160.16
 30
    0.00
 40
    0.2
  0
LINE
  8
LARGEURS
 10
    93.60
 20
    -163.86
 30
    0.00
 11
    75.53
 21
    -157.99
 31
    0.00
  0
LINE
  8
CONTOURS_LARGEURS
 10
    94.86
 20
    -156.75
 30
    0.00
 11
    93.60
 21
    -163.86
 31
    0.00
  0
LINE
  8
CONTOURS_LARGEURS
 10
    72.86
 20
    -150.03
 30
    0.00
 11
    75.53
 21
    -157.99
 31
    0.00
  0
TEXT
  8
STATIONS
 10
    82.19
 20
    -160.16
 30
    0.00
 40
    0.4
  1
31
  0
LINE
  8
CHEMINEMENTS
 10
    82.19
 20
    -160.16
 30
    0.00
 11
    71.90
 21
    -176.61
 31
    0.00
  0
CIRCLE
  8
POINTS
 10
    71.90
 20
    -176.61
 30
    0.00
 40
    0.2
  0
LINE
  8
LARGEURS
 10
    79.54
 20
    -181.38
 30
    0.00
 11
    64.27
 21
    -171.84
 31
    0.00
  0
LINE
  8
CONTOURS_LARGEURS
 10
    93.60
 20
    -163.86
 30
    0.00
 11
    79.54
 21
    -181.38
 31
    0.00
  0
LINE
  8
CONTOURS_LARGEURS
 10
    75.53
 20
    -157.99
 30
    0.00
 11
    64.27
 21
    -171.84
 31
    0.00
  0
TEXT
  8
STATIONS
 10
    71.90
 20
    -176.61
 30
    0.00
 40
    0.4
  1
32
  0
LINE
  8
CHEMINEMENTS
 10
    71.90
 20
    -176.61
 30
    0.00
 11
    66.09
 21
    -188.02
 31
    0.00
  0
CIRCLE
  8
POINTS
 10
    66.09
 20
    -188.02
 30
    0.00
 40
    0.2
  0
LINE
  8
LARGEURS
 10
    76.78
 20
    -193.47
 30
    0.00
 11
    62.53
 21
    -186.20
 31
    0.00
  0
LINE
  8
CONTOURS_LARGEURS
 10
    79.54
 20
    -181.38
 30
    0.00
 11
    76.78
 21
    -193.47
 31
    0.00
  0
LINE
  8
CONTOURS_LARGEURS
 10
    64.27
 20
    -171.84
 30
    0.00
 11
    62.53
 21
    -186.20
 31
    0.00
  0
TEXT
  8
STATIONS
 10
    66.09
 20
    -188.02
 30
    0.00
 40
    0.4
  1
33
  0
LINE
  8
CHEMINEMENTS
 10
    66.09
 20
    -188.02
 30
    0.00
 11
    65.22
 21
    -197.93
 31
    0.00
  0
CIRCLE
  8
POINTS
 10
    65.22
 20
    -197.93
 30
    0.00
 40
    0.2
  0
LINE
  8
LARGEURS
 10
    76.18
 20
    -198.89
 30
    0.00
 11
    54.27
 21
    -196.97
 31
    0.00
  0
LINE
  8
CONTOURS_LARGEURS
 10
    76.78
 20
    -193.47
 30
    0.00
 11
    76.18
 21
    -198.89
 31
    0.00
  0
LINE
  8
CONTOURS_LARGEURS
 10
    62.53
 20
    -186.20
 30
    0.00
 11
    54.27
 21
    -196.97
 31
    0.00
  0
TEXT
  8
STATIONS
 10
    65.22
 20
    -197.93
 30
    0.00
 40
    0.4
  1
34
  0
LINE
  8
CHEMINEMENTS
 10
    65.22
 20
    -197.93
 30
    0.00
 11
    64.85
 21
    -200.05
 31
    0.00
  0
CIRCLE
  8
POINTS
 10
    64.85
 20
    -200.05
 30
    0.00
 40
    0.2
  0
LINE
  8
LARGEURS
 10
    72.73
 20
    -201.44
 30
    0.00
 11
    58.94
 21
    -199.01
 31
    0.00
  0
LINE
  8
CONTOURS_LARGEURS
 10
    76.18
 20
    -198.89
 30
    0.00
 11
    72.73
 21
    -201.44
 31
    0.00
  0
LINE
  8
CONTOURS_LARGEURS
 10
    54.27
 20
    -196.97
 30
    0.00
 11
    58.94
 21
    -199.01
 31
    0.00
  0
TEXT
  8
STATIONS
 10
    64.85
 20
    -200.05
 30
    0.00
 40
    0.4
  1
35
  0
LINE
  8
CHEMINEMENTS
 10
    64.85
 20
    -200.05
 30
    0.00
 11
    60.00
 21
    -208.46
 31
    0.00
  0
CIRCLE
  8
POINTS
 10
    60.00
 20
    -208.46
 30
    0.00
 40
    0.2
  0
LINE
  8
LARGEURS
 10
    66.06
 20
    -211.96
 30
    0.00
 11
    54.80
 21
    -205.46
 31
    0.00
  0
LINE
  8
CONTOURS_LARGEURS
 10
    72.73
 20
    -201.44
 30
    0.00
 11
    66.06
 21
    -211.96
 31
    0.00
  0
LINE
  8
CONTOURS_LARGEURS
 10
    58.94
 20
    -199.01
 30
    0.00
 11
    54.80
 21
    -205.46
 31
    0.00
  0
TEXT
  8
STATIONS
 10
    60.00
 20
    -208.46
 30
    0.00
 40
    0.4
  1
36
  0
LINE
  8
CHEMINEMENTS
 10
    60.00
 20
    -208.46
 30
    0.00
 11
    62.57
 21
    -213.51
 31
    0.00
  0
CIRCLE
  8
POINTS
 10
    62.57
 20
    -213.51
 30
    0.00
 40
    0.2
  0
LINE
  8
LARGEURS
 10
    81.28
 20
    -203.98
 30
    0.00
 11
    54.55
 21
    -217.60
 31
    0.00
  0
LINE
  8
CONTOURS_LARGEURS
 10
    66.06
 20
    -211.96
 30
    0.00
 11
    81.28
 21
    -203.98
 31
    0.00
  0
LINE
  8
CONTOURS_LARGEURS
 10
    54.80
 20
    -205.46
 30
    0.00
 11
    54.55
 21
    -217.60
 31
    0.00
  0
TEXT
  8
STATIONS
 10
    62.57
 20
    -213.51
 30
    0.00
 40
    0.4
  1
37
  0
LINE
  8
CHEMINEMENTS
 10
    62.57
 20
    -213.51
 30
    0.00
 11
    58.57
 21
    -222.51
 31
    0.00
  0
CIRCLE
  8
POINTS
 10
    58.57
 20
    -222.51
 30
    0.00
 40
    0.2
  0
LINE
  8
LARGEURS
 10
    67.70
 20
    -226.57
 30
    0.00
 11
    42.12
 21
    -215.19
 31
    0.00
  0
LINE
  8
CONTOURS_LARGEURS
 10
    81.28
 20
    -203.98
 30
    0.00
 11
    67.70
 21
    -226.57
 31
    0.00
  0
LINE
  8
CONTOURS_LARGEURS
 10
    54.55
 20
    -217.60
 30
    0.00
 11
    42.12
 21
    -215.19
 31
    0.00
  0
TEXT
  8
STATIONS
 10
    58.57
 20
    -222.51
 30
    0.00
 40
    0.4
  1
38
  0
LINE
  8
CHEMINEMENTS
 10
    58.57
 20
    -222.51
 30
    0.00
 11
    71.71
 21
    -216.66
 31
    0.00
  0
CIRCLE
  8
POINTS
 10
    71.71
 20
    -216.66
 30
    0.00
 40
    0.2
  0
LINE
  8
LARGEURS
 10
    70.89
 20
    -214.83
 30
    0.00
 11
    75.37
 21
    -224.88
 31
    0.00
  0
LINE
  8
CONTOURS_LARGEURS
 10
    42.12
 20
    -215.19
 30
    0.00
 11
    70.89
 21
    -214.83
 31
    0.00
  0
LINE
  8
CONTOURS_LARGEURS
 10
    67.70
 20
    -226.57
 30
    0.00
 11
    75.37
 21
    -224.88
 31
    0.00
  0
TEXT
  8
STATIONS
 10
    71.71
 20
    -216.66
 30
    0.00
 40
    0.4
  1
39
  0
LINE
  8
CHEMINEMENTS
 10
    71.71
 20
    -216.66
 30
    0.00
 11
    69.81
 21
    -216.39
 31
    0.00
  0
CIRCLE
  8
POINTS
 10
    69.81
 20
    -216.39
 30
    0.00
 40
    0.2
  0
LINE
  8
LARGEURS
 10
    69.67
 20
    -217.38
 30
    0.00
 11
    70.09
 21
    -214.41
 31
    0.00
  0
LINE
  8
CONTOURS_LARGEURS
 10
    75.37
 20
    -224.88
 30
    0.00
 11
    69.67
 21
    -217.38
 31
    0.00
  0
LINE
  8
CONTOURS_LARGEURS
 10
    70.89
 20
    -214.83
 30
    0.00
 11
    70.09
 21
    -214.41
 31
    0.00
  0
TEXT
  8
STATIONS
 10
    69.81
 20
    -216.39
 30
    0.00
 40
    0.4
  1
40
  0
LINE
  8
CHEMINEMENTS
 10
    69.81
 20
    -216.39
 30
    0.00
 11
    60.56
 21
    -219.76
 31
    0.00
  0
CIRCLE
  8
POINTS
 10
    60.56
 20
    -219.76
 30
    0.00
 40
    0.2
  0
LINE
  8
LARGEURS
 10
    60.90
 20
    -220.70
 30
    0.00
 11
    60.22
 21
    -218.82
 31
    0.00
  0
LINE
  8
CONTOURS_LARGEURS
 10
    69.67
 20
    -217.38
 30
    0.00
 11
    60.90
 21
    -220.70
 31
    0.00
  0
LINE
  8
CONTOURS_LARGEURS
 10
    70.09
 20
    -214.41
 30
    0.00
 11
    60.22
 21
    -218.82
 31
    0.00
  0
TEXT
  8
STATIONS
 10
    60.56
 20
    -219.76
 30
    0.00
 40
    0.4
  1
41
  0
LINE
  8
CHEMINEMENTS
 10
    60.56
 20
    -219.76
 30
    0.00
 11
    54.77
 21
    -230.20
 31
    0.00
  0
CIRCLE
  8
POINTS
 10
    54.77
 20
    -230.20
 30
    0.00
 40
    0.2
  0
LINE
  8
LARGEURS
 10
    55.65
 20
    -230.68
 30
    0.00
 11
    53.02
 21
    -229.23
 31
    0.00
  0
LINE
  8
CONTOURS_LARGEURS
 10
    60.90
 20
    -220.70
 30
    0.00
 11
    55.65
 21
    -230.68
 31
    0.00
  0
LINE
  8
CONTOURS_LARGEURS
 10
    60.22
 20
    -218.82
 30
    0.00
 11
    53.02
 21
    -229.23
 31
    0.00
  0
LINE
  8
CONTOURS_LARGEURS
 10
    55.65
 20
    -230.68
 30
    0.00
 11
    53.02
 21
    -229.23
 31
    0.00
  0
TEXT
  8
STATIONS
 10
    54.77
 20
    -230.20
 30
    0.00
 40
    0.4
  1
42
  0
TEXT
  8
PROFONDEURS
 10
    54.77
 20
    -230.20
 30
    0.00
 40
    0.6
  1
-81
  0
LINE
  8
CHEMINEMENTS
 10
    66.09
 20
    -188.02
 30
    0.00
 11
    66.47
 21
    -198.88
 31
    0.00
  0
CIRCLE
  8
POINTS
 10
    66.47
 20
    -198.88
 30
    0.00
 40
    0.2
  0
LINE
  8
LARGEURS
 10
    73.47
 20
    -198.63
 30
    0.00
 11
    59.47
 21
    -199.12
 31
    0.00
  0
LINE
  8
CONTOURS_LARGEURS
 10
    76.78
 20
    -193.47
 30
    0.00
 11
    73.47
 21
    -198.63
 31
    0.00
  0
LINE
  8
CONTOURS_LARGEURS
 10
    62.53
 20
    -186.20
 30
    0.00
 11
    59.47
 21
    -199.12
 31
    0.00
  0
TEXT
  8
STATIONS
 10
    66.47
 20
    -198.88
 30
    0.00
 40
    0.4
  1
43
  0
LINE
  8
CHEMINEMENTS
 10
    66.47
 20
    -198.88
 30
    0.00
 11
    68.64
 21
    -206.43
 31
    0.00
  0
CIRCLE
  8
POINTS
 10
    68.64
 20
    -206.43
 30
    0.00
 40
    0.2
  0
LINE
  8
LARGEURS
 10
    78.25
 20
    -203.67
 30
    0.00
 11
    59.98
 21
    -208.91
 31
    0.00
  0
LINE
  8
CONTOURS_LARGEURS
 10
    73.47
 20
    -198.63
 30
    0.00
 11
    78.25
 21
    -203.67
 31
    0.00
  0
LINE
  8
CONTOURS_LARGEURS
 10
    59.47
 20
    -199.12
 30
    0.00
 11
    59.98
 21
    -208.91
 31
    0.00
  0
TEXT
  8
STATIONS
 10
    68.64
 20
    -206.43
 30
    0.00
 40
    0.4
  1
44
  0
LINE
  8
CHEMINEMENTS
 10
    68.64
 20
    -206.43
 30
    0.00
 11
    62.27
 21
    -212.79
 31
    0.00
  0
CIRCLE
  8
POINTS
 10
    62.27
 20
    -212.79
 30
    0.00
 40
    0.2
  0
LINE
  8
LARGEURS
 10
    69.34
 20
    -219.86
 30
    0.00
 11
    62.27
 21
    -212.79
 31
    0.00
  0
LINE
  8
CONTOURS_LARGEURS
 10
    78.25
 20
    -203.67
 30
    0.00
 11
    69.34
 21
    -219.86
 31
    0.00
  0
LINE
  8
CONTOURS_LARGEURS
 10
    59.98
 20
    -208.91
 30
    0.00
 11
    62.27
 21
    -212.79
 31
    0.00
  0
LINE
  8
CONTOURS_LARGEURS
 10
    69.34
 20
    -219.86
 30
    0.00
 11
    62.27
 21
    -212.79
 31
    0.00
  0
TEXT
  8
STATIONS
 10
    62.27
 20
    -212.79
 30
    0.00
 40
    0.4
  1
45
  0
LINE
  8
CHEMINEMENTS
 10
    68.64
 20
    -206.43
 30
    0.00
 11
    71.97
 21
    -213.59
 31
    0.00
  0
CIRCLE
  8
POINTS
 10
    71.97
 20
    -213.59
 30
    0.00
 40
    0.2
  0
LINE
  8
LARGEURS
 10
    73.79
 20
    -212.74
 30
    0.00
 11
    62.00
 21
    -218.24
 31
    0.00
  0
LINE
  8
CONTOURS_LARGEURS
 10
    78.25
 20
    -203.67
 30
    0.00
 11
    73.79
 21
    -212.74
 31
    0.00
  0
LINE
  8
CONTOURS_LARGEURS
 10
    59.98
 20
    -208.91
 30
    0.00
 11
    62.00
 21
    -218.24
 31
    0.00
  0
TEXT
  8
STATIONS
 10
    71.97
 20
    -213.59
 30
    0.00
 40
    0.4
  1
46
  0
LINE
  8
CHEMINEMENTS
 10
    71.97
 20
    -213.59
 30
    0.00
 11
    69.20
 21
    -222.12
 31
    0.00
  0
CIRCLE
  8
POINTS
 10
    69.20
 20
    -222.12
 30
    0.00
 40
    0.2
  0
LINE
  8
LARGEURS
 10
    71.11
 20
    -222.73
 30
    0.00
 11
    61.60
 21
    -219.64
 31
    0.00
  0
LINE
  8
CONTOURS_LARGEURS
 10
    73.79
 20
    -212.74
 30
    0.00
 11
    71.11
 21
    -222.73
 31
    0.00
  0
LINE
  8
CONTOURS_LARGEURS
 10
    62.00
 20
    -218.24
 30
    0.00
 11
    61.60
 21
    -219.64
 31
    0.00
  0
TEXT
  8
STATIONS
 10
    69.20
 20
    -222.12
 30
    0.00
 40
    0.4
  1
47
  0
LINE
  8
CHEMINEMENTS
 10
    69.20
 20
    -222.12
 30
    0.00
 11
    59.54
 21
    -227.25
 31
    0.00
  0
CIRCLE
  8
POINTS
 10
    59.54
 20
    -227.25
 30
    0.00
 40
    0.2
  0
LINE
  8
LARGEURS
 10
    64.71
 20
    -236.96
 30
    0.00
 11
    57.67
 21
    -223.72
 31
    0.00
  0
LINE
  8
CONTOURS_LARGEURS
 10
    71.11
 20
    -222.73
 30
    0.00
 11
    64.71
 21
    -236.96
 31
    0.00
  0
LINE
  8
CONTOURS_LARGEURS
 10
    61.60
 20
    -219.64
 30
    0.00
 11
    57.67
 21
    -223.72
 31
    0.00
  0
TEXT
  8
STATIONS
 10
    59.54
 20
    -227.25
 30
    0.00
 40
    0.4
  1
48
  0
LINE
  8
CHEMINEMENTS
 10
    59.54
 20
    -227.25
 30
    0.00
 11
    52.89
 21
    -231.58
 31
    0.00
  0
CIRCLE
  8
POINTS
 10
    52.89
 20
    -231.58
 30
    0.00
 40
    0.2
  0
LINE
  8
LARGEURS
 10
    57.24
 20
    -238.28
 30
    0.00
 11
    43.08
 21
    -216.48
 31
    0.00
  0
LINE
  8
CONTOURS_LARGEURS
 10
    64.71
 20
    -236.96
 30
    0.00
 11
    57.24
 21
    -238.28
 31
    0.00
  0
LINE
  8
CONTOURS_LARGEURS
 10
    57.67
 20
    -223.72
 30
    0.00
 11
    43.08
 21
    -216.48
 31
    0.00
  0
TEXT
  8
STATIONS
 10
    52.89
 20
    -231.58
 30
    0.00
 40
    0.4
  1
49
  0
LINE
  8
CHEMINEMENTS
 10
    52.89
 20
    -231.58
 30
    0.00
 11
    51.31
 21
    -235.46
 31
    0.00
  0
CIRCLE
  8
POINTS
 10
    51.31
 20
    -235.46
 30
    0.00
 40
    0.2
  0
LINE
  8
LARGEURS
 10
    62.44
 20
    -239.96
 30
    0.00
 11
    35.55
 21
    -229.10
 31
    0.00
  0
LINE
  8
CONTOURS_LARGEURS
 10
    57.24
 20
    -238.28
 30
    0.00
 11
    62.44
 21
    -239.96
 31
    0.00
  0
LINE
  8
CONTOURS_LARGEURS
 10
    43.08
 20
    -216.48
 30
    0.00
 11
    35.55
 21
    -229.10
 31
    0.00
  0
TEXT
  8
STATIONS
 10
    51.31
 20
    -235.46
 30
    0.00
 40
    0.4
  1
50
  0
LINE
  8
CHEMINEMENTS
 10
    51.31
 20
    -235.46
 30
    0.00
 11
    47.92
 21
    -241.35
 31
    0.00
  0
CIRCLE
  8
POINTS
 10
    47.92
 20
    -241.35
 30
    0.00
 40
    0.2
  0
LINE
  8
LARGEURS
 10
    59.18
 20
    -247.85
 30
    0.00
 11
    36.66
 21
    -234.85
 31
    0.00
  0
LINE
  8
CONTOURS_LARGEURS
 10
    62.44
 20
    -239.96
 30
    0.00
 11
    59.18
 21
    -247.85
 31
    0.00
  0
LINE
  8
CONTOURS_LARGEURS
 10
    35.55
 20
    -229.10
 30
    0.00
 11
    36.66
 21
    -234.85
 31
    0.00
  0
LINE
  8
CONTOURS_LARGEURS
 10
    59.18
 20
    -247.85
 30
    0.00
 11
    36.66
 21
    -234.85
 31
    0.00
  0
TEXT
  8
STATIONS
 10
    47.92
 20
    -241.35
 30
    0.00
 40
    0.4
  1
37
  0
TEXT
  8
PROFONDEURS
 10
    47.92
 20
    -241.35
 30
    0.00
 40
    0.6
  1
-70
  0
LINE
  8
CHEMINEMENTS
 10
    88.05
 20
    -157.44
 30
    0.00
 11
    94.99
 21
    -158.79
 31
    0.00
  0
CIRCLE
  8
POINTS
 10
    94.99
 20
    -158.79
 30
    0.00
 40
    0.2
  0
LINE
  8
LARGEURS
 10
    95.56
 20
    -155.84
 30
    0.00
 11
    94.42
 21
    -161.73
 31
    0.00
  0
LINE
  8
CONTOURS_LARGEURS
 10
    91.03
 20
    -157.80
 30
    0.00
 11
    95.56
 21
    -155.84
 31
    0.00
  0
LINE
  8
CONTOURS_LARGEURS
 10
    87.06
 20
    -157.32
 30
    0.00
 11
    94.42
 21
    -161.73
 31
    0.00
  0
TEXT
  8
STATIONS
 10
    94.99
 20
    -158.79
 30
    0.00
 40
    0.4
  1
52
  0
LINE
  8
CHEMINEMENTS
 10
    94.99
 20
    -158.79
 30
    0.00
 11
    104.00
 21
    -162.99
 31
    0.00
  0
CIRCLE
  8
POINTS
 10
    104.00
 20
    -162.99
 30
    0.00
 40
    0.2
  0
LINE
  8
LARGEURS
 10
    106.96
 20
    -156.65
 30
    0.00
 11
    101.47
 21
    -168.43
 31
    0.00
  0
LINE
  8
CONTOURS_LARGEURS
 10
    95.56
 20
    -155.84
 30
    0.00
 11
    106.96
 21
    -156.65
 31
    0.00
  0
LINE
  8
CONTOURS_LARGEURS
 10
    94.42
 20
    -161.73
 30
    0.00
 11
    101.47
 21
    -168.43
 31
    0.00
  0
TEXT
  8
STATIONS
 10
    104.00
 20
    -162.99
 30
    0.00
 40
    0.4
  1
53
  0
LINE
  8
CHEMINEMENTS
 10
    104.00
 20
    -162.99
 30
    0.00
 11
    115.11
 21
    -174.10
 31
    0.00
  0
CIRCLE
  8
POINTS
 10
    115.11
 20
    -174.10
 30
    0.00
 40
    0.2
  0
LINE
  8
LARGEURS
 10
    122.18
 20
    -167.03
 30
    0.00
 11
    113.69
 21
    -175.51
 31
    0.00
  0
LINE
  8
CONTOURS_LARGEURS
 10
    106.96
 20
    -156.65
 30
    0.00
 11
    122.18
 21
    -167.03
 31
    0.00
  0
LINE
  8
CONTOURS_LARGEURS
 10
    101.47
 20
    -168.43
 30
    0.00
 11
    113.69
 21
    -175.51
 31
    0.00
  0
TEXT
  8
STATIONS
 10
    115.11
 20
    -174.10
 30
    0.00
 40
    0.4
  1
54
  0
LINE
  8
CHEMINEMENTS
 10
    115.11
 20
    -174.10
 30
    0.00
 11
    124.94
 21
    -180.98
 31
    0.00
  0
CIRCLE
  8
POINTS
 10
    124.94
 20
    -180.98
 30
    0.00
 40
    0.2
  0
LINE
  8
LARGEURS
 10
    133.54
 20
    -168.69
 30
    0.00
 11
    122.07
 21
    -185.07
 31
    0.00
  0
LINE
  8
CONTOURS_LARGEURS
 10
    122.18
 20
    -167.03
 30
    0.00
 11
    133.54
 21
    -168.69
 31
    0.00
  0
LINE
  8
CONTOURS_LARGEURS
 10
    113.69
 20
    -175.51
 30
    0.00
 11
    122.07
 21
    -185.07
 31
    0.00
  0
TEXT
  8
STATIONS
 10
    124.94
 20
    -180.98
 30
    0.00
 40
    0.4
  1
55
  0
LINE
  8
CHEMINEMENTS
 10
    124.94
 20
    -180.98
 30
    0.00
 11
    135.05
 21
    -185.27
 31
    0.00
  0
CIRCLE
  8
POINTS
 10
    135.05
 20
    -185.27
 30
    0.00
 40
    0.2
  0
LINE
  8
LARGEURS
 10
    136.22
 20
    -182.51
 30
    0.00
 11
    132.70
 21
    -190.79
 31
    0.00
  0
LINE
  8
CONTOURS_LARGEURS
 10
    133.54
 20
    -168.69
 30
    0.00
 11
    136.22
 21
    -182.51
 31
    0.00
  0
LINE
  8
CONTOURS_LARGEURS
 10
    122.07
 20
    -185.07
 30
    0.00
 11
    132.70
 21
    -190.79
 31
    0.00
  0
LINE
  8
CONTOURS_LARGEURS
 10
    136.22
 20
    -182.51
 30
    0.00
 11
    132.70
 21
    -190.79
 31
    0.00
  0
TEXT
  8
STATIONS
 10
    135.05
 20
    -185.27
 30
    0.00
 40
    0.4
  1
56
  0
TEXT
  8
PROFONDEURS
 10
    135.05
 20
    -185.27
 30
    0.00
 40
    0.6
  1
-70
  0
LINE
  8
CHEMINEMENTS
 10
    104.00
 20
    -162.99
 30
    0.00
 11
    107.00
 21
    -157.80
 31
    0.00
  0
CIRCLE
  8
POINTS
 10
    107.00
 20
    -157.80
 30
    0.00
 40
    0.2
  0
LINE
  8
LARGEURS
 10
    100.07
 20
    -153.80
 30
    0.00
 11
    109.60
 21
    -159.30
 31
    0.00
  0
LINE
  8
CONTOURS_LARGEURS
 10
    106.96
 20
    -156.65
 30
    0.00
 11
    100.07
 21
    -153.80
 31
    0.00
  0
LINE
  8
CONTOURS_LARGEURS
 10
    101.47
 20
    -168.43
 30
    0.00
 11
    109.60
 21
    -159.30
 31
    0.00
  0
TEXT
  8
STATIONS
 10
    107.00
 20
    -157.80
 30
    0.00
 40
    0.4
  1
57
  0
LINE
  8
CHEMINEMENTS
 10
    107.00
 20
    -157.80
 30
    0.00
 11
    110.68
 21
    -148.70
 31
    0.00
  0
CIRCLE
  8
POINTS
 10
    110.68
 20
    -148.70
 30
    0.00
 40
    0.2
  0
LINE
  8
LARGEURS
 10
    91.21
 20
    -140.83
 30
    0.00
 11
    121.80
 21
    -153.19
 31
    0.00
  0
LINE
  8
CONTOURS_LARGEURS
 10
    100.07
 20
    -153.80
 30
    0.00
 11
    91.21
 21
    -140.83
 31
    0.00
  0
LINE
  8
CONTOURS_LARGEURS
 10
    109.60
 20
    -159.30
 30
    0.00
 11
    121.80
 21
    -153.19
 31
    0.00
  0
TEXT
  8
STATIONS
 10
    110.68
 20
    -148.70
 30
    0.00
 40
    0.4
  1
58
  0
LINE
  8
CHEMINEMENTS
 10
    110.68
 20
    -148.70
 30
    0.00
 11
    108.10
 21
    -139.09
 31
    0.00
  0
CIRCLE
  8
POINTS
 10
    108.10
 20
    -139.09
 30
    0.00
 40
    0.2
  0
LINE
  8
LARGEURS
 10
    86.85
 20
    -144.78
 30
    0.00
 11
    118.73
 21
    -136.24
 31
    0.00
  0
LINE
  8
CONTOURS_LARGEURS
 10
    91.21
 20
    -140.83
 30
    0.00
 11
    86.85
 21
    -144.78
 31
    0.00
  0
LINE
  8
CONTOURS_LARGEURS
 10
    121.80
 20
    -153.19
 30
    0.00
 11
    118.73
 21
    -136.24
 31
    0.00
  0
TEXT
  8
STATIONS
 10
    108.10
 20
    -139.09
 30
    0.00
 40
    0.4
  1
59
  0
LINE
  8
CHEMINEMENTS
 10
    108.10
 20
    -139.09
 30
    0.00
 11
    113.96
 21
    -133.82
 31
    0.00
  0
CIRCLE
  8
POINTS
 10
    113.96
 20
    -133.82
 30
    0.00
 40
    0.2
  0
LINE
  8
LARGEURS
 10
    113.96
 20
    -133.82
 30
    0.00
 11
    115.97
 21
    -136.05
 31
    0.00
  0
LINE
  8
CONTOURS_LARGEURS
 10
    86.85
 20
    -144.78
 30
    0.00
 11
    113.96
 21
    -133.82
 31
    0.00
  0
LINE
  8
CONTOURS_LARGEURS
 10
    118.73
 20
    -136.24
 30
    0.00
 11
    115.97
 21
    -136.05
 31
    0.00
  0
TEXT
  8
STATIONS
 10
    113.96
 20
    -133.82
 30
    0.00
 40
    0.4
  1
60
  0
LINE
  8
CHEMINEMENTS
 10
    113.96
 20
    -133.82
 30
    0.00
 11
    112.03
 21
    -128.52
 31
    0.00
  0
CIRCLE
  8
POINTS
 10
    112.03
 20
    -128.52
 30
    0.00
 40
    0.2
  0
LINE
  8
LARGEURS
 10
    95.12
 20
    -134.68
 30
    0.00
 11
    127.06
 21
    -123.05
 31
    0.00
  0
LINE
  8
CONTOURS_LARGEURS
 10
    113.96
 20
    -133.82
 30
    0.00
 11
    95.12
 21
    -134.68
 31
    0.00
  0
LINE
  8
CONTOURS_LARGEURS
 10
    115.97
 20
    -136.05
 30
    0.00
 11
    127.06
 21
    -123.05
 31
    0.00
  0
TEXT
  8
STATIONS
 10
    112.03
 20
    -128.52
 30
    0.00
 40
    0.4
  1
61
  0
LINE
  8
CHEMINEMENTS
 10
    112.03
 20
    -128.52
 30
    0.00
 11
    98.58
 21
    -117.63
 31
    0.00
  0
CIRCLE
  8
POINTS
 10
    98.58
 20
    -117.63
 30
    0.00
 40
    0.2
  0
LINE
  8
LARGEURS
 10
    81.59
 20
    -138.61
 30
    0.00
 11
    115.57
 21
    -96.65
 31
    0.00
  0
LINE
  8
CONTOURS_LARGEURS
 10
    95.12
 20
    -134.68
 30
    0.00
 11
    81.59
 21
    -138.61
 31
    0.00
  0
LINE
  8
CONTOURS_LARGEURS
 10
    127.06
 20
    -123.05
 30
    0.00
 11
    115.57
 21
    -96.65
 31
    0.00
  0
TEXT
  8
STATIONS
 10
    98.58
 20
    -117.63
 30
    0.00
 40
    0.4
  1
62
  0
LINE
  8
CHEMINEMENTS
 10
    98.58
 20
    -117.63
 30
    0.00
 11
    95.48
 21
    -106.04
 31
    0.00
  0
CIRCLE
  8
POINTS
 10
    95.48
 20
    -106.04
 30
    0.00
 40
    0.2
  0
LINE
  8
LARGEURS
 10
    75.19
 20
    -111.47
 30
    0.00
 11
    105.14
 21
    -103.45
 31
    0.00
  0
LINE
  8
CONTOURS_LARGEURS
 10
    81.59
 20
    -138.61
 30
    0.00
 11
    75.19
 21
    -111.47
 31
    0.00
  0
LINE
  8
CONTOURS_LARGEURS
 10
    115.57
 20
    -96.65
 30
    0.00
 11
    105.14
 21
    -103.45
 31
    0.00
  0
TEXT
  8
STATIONS
 10
    95.48
 20
    -106.04
 30
    0.00
 40
    0.4
  1
63
  0
LINE
  8
CHEMINEMENTS
 10
    95.48
 20
    -106.04
 30
    0.00
 11
    84.24
 21
    -97.26
 31
    0.00
  0
CIRCLE
  8
POINTS
 10
    84.24
 20
    -97.26
 30
    0.00
 40
    0.2
  0
LINE
  8
LARGEURS
 10
    78.69
 20
    -104.35
 30
    0.00
 11
    87.93
 21
    -92.53
 31
    0.00
  0
LINE
  8
CONTOURS_LARGEURS
 10
    75.19
 20
    -111.47
 30
    0.00
 11
    78.69
 21
    -104.35
 31
    0.00
  0
LINE
  8
CONTOURS_LARGEURS
 10
    105.14
 20
    -103.45
 30
    0.00
 11
    87.93
 21
    -92.53
 31
    0.00
  0
TEXT
  8
STATIONS
 10
    84.24
 20
    -97.26
 30
    0.00
 40
    0.4
  1
64
  0
LINE
  8
CHEMINEMENTS
 10
    84.24
 20
    -97.26
 30
    0.00
 11
    84.24
 21
    -84.29
 31
    0.00
  0
CIRCLE
  8
POINTS
 10
    84.24
 20
    -84.29
 30
    0.00
 40
    0.2
  0
LINE
  8
LARGEURS
 10
    84.24
 20
    -84.29
 30
    0.00
 11
    84.24
 21
    -84.29
 31
    0.00
  0
LINE
  8
CONTOURS_LARGEURS
 10
    78.69
 20
    -104.35
 30
    0.00
 11
    84.24
 21
    -84.29
 31
    0.00
  0
LINE
  8
CONTOURS_LARGEURS
 10
    87.93
 20
    -92.53
 30
    0.00
 11
    84.24
 21
    -84.29
 31
    0.00
  0
TEXT
  8
STATIONS
 10
    84.24
 20
    -84.29
 30
    0.00
 40
    0.4
  1
65
  0
LINE
  8
CHEMINEMENTS
 10
    84.24
 20
    -84.29
 30
    0.00
 11
    81.95
 21
    -82.74
 31
    0.00
  0
CIRCLE
  8
POINTS
 10
    81.95
 20
    -82.74
 30
    0.00
 40
    0.2
  0
LINE
  8
LARGEURS
 10
    81.95
 20
    -82.74
 30
    0.00
 11
    81.95
 21
    -82.74
 31
    0.00
  0
LINE
  8
CONTOURS_LARGEURS
 10
    84.24
 20
    -84.29
 30
    0.00
 11
    81.95
 21
    -82.74
 31
    0.00
  0
LINE
  8
CONTOURS_LARGEURS
 10
    84.24
 20
    -84.29
 30
    0.00
 11
    81.95
 21
    -82.74
 31
    0.00
  0
TEXT
  8
STATIONS
 10
    81.95
 20
    -82.74
 30
    0.00
 40
    0.4
  1
66
  0
LINE
  8
CHEMINEMENTS
 10
    81.95
 20
    -82.74
 30
    0.00
 11
    80.80
 21
    -76.23
 31
    0.00
  0
CIRCLE
  8
POINTS
 10
    80.80
 20
    -76.23
 30
    0.00
 40
    0.2
  0
LINE
  8
LARGEURS
 10
    73.90
 20
    -77.44
 30
    0.00
 11
    88.68
 21
    -74.84
 31
    0.00
  0
LINE
  8
CONTOURS_LARGEURS
 10
    81.95
 20
    -82.74
 30
    0.00
 11
    73.90
 21
    -77.44
 31
    0.00
  0
LINE
  8
CONTOURS_LARGEURS
 10
    81.95
 20
    -82.74
 30
    0.00
 11
    88.68
 21
    -74.84
 31
    0.00
  0
TEXT
  8
STATIONS
 10
    80.80
 20
    -76.23
 30
    0.00
 40
    0.4
  1
67
  0
LINE
  8
CHEMINEMENTS
 10
    80.80
 20
    -76.23
 30
    0.00
 11
    89.99
 21
    -62.59
 31
    0.00
  0
CIRCLE
  8
POINTS
 10
    89.99
 20
    -62.59
 30
    0.00
 40
    0.2
  0
LINE
  8
LARGEURS
 10
    85.85
 20
    -59.80
 30
    0.00
 11
    97.45
 21
    -67.63
 31
    0.00
  0
LINE
  8
CONTOURS_LARGEURS
 10
    73.90
 20
    -77.44
 30
    0.00
 11
    85.85
 21
    -59.80
 31
    0.00
  0
LINE
  8
CONTOURS_LARGEURS
 10
    88.68
 20
    -74.84
 30
    0.00
 11
    97.45
 21
    -67.63
 31
    0.00
  0
TEXT
  8
STATIONS
 10
    89.99
 20
    -62.59
 30
    0.00
 40
    0.4
  1
68
  0
LINE
  8
CHEMINEMENTS
 10
    89.99
 20
    -62.59
 30
    0.00
 11
    118.88
 21
    -60.07
 31
    0.00
  0
CIRCLE
  8
POINTS
 10
    118.88
 20
    -60.07
 30
    0.00
 40
    0.2
  0
LINE
  8
LARGEURS
 10
    118.44
 20
    -55.09
 30
    0.00
 11
    119.66
 21
    -69.03
 31
    0.00
  0
LINE
  8
CONTOURS_LARGEURS
 10
    85.85
 20
    -59.80
 30
    0.00
 11
    118.44
 21
    -55.09
 31
    0.00
  0
LINE
  8
CONTOURS_LARGEURS
 10
    97.45
 20
    -67.63
 30
    0.00
 11
    119.66
 21
    -69.03
 31
    0.00
  0
TEXT
  8
STATIONS
 10
    118.88
 20
    -60.07
 30
    0.00
 40
    0.4
  1
69
  0
LINE
  8
CHEMINEMENTS
 10
    118.88
 20
    -60.07
 30
    0.00
 11
    123.81
 21
    -38.71
 31
    0.00
  0
CIRCLE
  8
POINTS
 10
    123.81
 20
    -38.71
 30
    0.00
 40
    0.2
  0
LINE
  8
LARGEURS
 10
    101.40
 20
    -33.54
 30
    0.00
 11
    129.65
 21
    -40.06
 31
    0.00
  0
LINE
  8
CONTOURS_LARGEURS
 10
    118.44
 20
    -55.09
 30
    0.00
 11
    101.40
 21
    -33.54
 31
    0.00
  0
LINE
  8
CONTOURS_LARGEURS
 10
    119.66
 20
    -69.03
 30
    0.00
 11
    129.65
 21
    -40.06
 31
    0.00
  0
TEXT
  8
STATIONS
 10
    123.81
 20
    -38.71
 30
    0.00
 40
    0.4
  1
70
  0
LINE
  8
CHEMINEMENTS
 10
    123.81
 20
    -38.71
 30
    0.00
 11
    144.52
 21
    -53.76
 31
    0.00
  0
CIRCLE
  8
POINTS
 10
    144.52
 20
    -53.76
 30
    0.00
 40
    0.2
  0
LINE
  8
LARGEURS
 10
    151.58
 20
    -44.05
 30
    0.00
 11
    142.76
 21
    -56.19
 31
    0.00
  0
LINE
  8
CONTOURS_LARGEURS
 10
    101.40
 20
    -33.54
 30
    0.00
 11
    151.58
 21
    -44.05
 31
    0.00
  0
LINE
  8
CONTOURS_LARGEURS
 10
    129.65
 20
    -40.06
 30
    0.00
 11
    142.76
 21
    -56.19
 31
    0.00
  0
TEXT
  8
STATIONS
 10
    144.52
 20
    -53.76
 30
    0.00
 40
    0.4
  1
71
  0
LINE
  8
CHEMINEMENTS
 10
    144.52
 20
    -53.76
 30
    0.00
 11
    156.85
 21
    -51.37
 31
    0.00
  0
CIRCLE
  8
POINTS
 10
    156.85
 20
    -51.37
 30
    0.00
 40
    0.2
  0
LINE
  8
LARGEURS
 10
    155.32
 20
    -43.51
 30
    0.00
 11
    157.42
 21
    -54.31
 31
    0.00
  0
LINE
  8
CONTOURS_LARGEURS
 10
    151.58
 20
    -44.05
 30
    0.00
 11
    155.32
 21
    -43.51
 31
    0.00
  0
LINE
  8
CONTOURS_LARGEURS
 10
    142.76
 20
    -56.19
 30
    0.00
 11
    157.42
 21
    -54.31
 31
    0.00
  0
TEXT
  8
STATIONS
 10
    156.85
 20
    -51.37
 30
    0.00
 40
    0.4
  1
72
  0
LINE
  8
CHEMINEMENTS
 10
    156.85
 20
    -51.37
 30
    0.00
 11
    153.02
 21
    -41.40
 31
    0.00
  0
CIRCLE
  8
POINTS
 10
    153.02
 20
    -41.40
 30
    0.00
 40
    0.2
  0
LINE
  8
LARGEURS
 10
    152.09
 20
    -41.76
 30
    0.00
 11
    160.49
 21
    -38.53
 31
    0.00
  0
LINE
  8
CONTOURS_LARGEURS
 10
    155.32
 20
    -43.51
 30
    0.00
 11
    152.09
 21
    -41.76
 31
    0.00
  0
LINE
  8
CONTOURS_LARGEURS
 10
    157.42
 20
    -54.31
 30
    0.00
 11
    160.49
 21
    -38.53
 31
    0.00
  0
TEXT
  8
STATIONS
 10
    153.02
 20
    -41.40
 30
    0.00
 40
    0.4
  1
73
  0
LINE
  8
CHEMINEMENTS
 10
    153.02
 20
    -41.40
 30
    0.00
 11
    151.12
 21
    -33.78
 31
    0.00
  0
CIRCLE
  8
POINTS
 10
    151.12
 20
    -33.78
 30
    0.00
 40
    0.2
  0
LINE
  8
LARGEURS
 10
    144.33
 20
    -35.48
 30
    0.00
 11
    168.59
 21
    -29.43
 31
    0.00
  0
LINE
  8
CONTOURS_LARGEURS
 10
    152.09
 20
    -41.76
 30
    0.00
 11
    144.33
 21
    -35.48
 31
    0.00
  0
LINE
  8
CONTOURS_LARGEURS
 10
    160.49
 20
    -38.53
 30
    0.00
 11
    168.59
 21
    -29.43
 31
    0.00
  0
LINE
  8
CONTOURS_LARGEURS
 10
    144.33
 20
    -35.48
 30
    0.00
 11
    168.59
 21
    -29.43
 31
    0.00
  0
TEXT
  8
STATIONS
 10
    151.12
 20
    -33.78
 30
    0.00
 40
    0.4
  1
74
  0
TEXT
  8
PROFONDEURS
 10
    151.12
 20
    -33.78
 30
    0.00
 40
    0.6
  1
-66
  0
LINE
  8
CHEMINEMENTS
 10
    156.85
 20
    -51.37
 30
    0.00
 11
    178.40
 21
    -70.77
 31
    0.00
  0
CIRCLE
  8
POINTS
 10
    178.40
 20
    -70.77
 30
    0.00
 40
    0.2
  0
LINE
  8
LARGEURS
 10
    179.07
 20
    -70.02
 30
    0.00
 11
    173.71
 21
    -75.97
 31
    0.00
  0
LINE
  8
CONTOURS_LARGEURS
 10
    155.32
 20
    -43.51
 30
    0.00
 11
    179.07
 21
    -70.02
 31
    0.00
  0
LINE
  8
CONTOURS_LARGEURS
 10
    157.42
 20
    -54.31
 30
    0.00
 11
    173.71
 21
    -75.97
 31
    0.00
  0
TEXT
  8
STATIONS
 10
    178.40
 20
    -70.77
 30
    0.00
 40
    0.4
  1
75
  0
LINE
  8
CHEMINEMENTS
 10
    178.40
 20
    -70.77
 30
    0.00
 11
    198.51
 21
    -86.48
 31
    0.00
  0
CIRCLE
  8
POINTS
 10
    198.51
 20
    -86.48
 30
    0.00
 40
    0.2
  0
LINE
  8
LARGEURS
 10
    200.97
 20
    -83.33
 30
    0.00
 11
    196.05
 21
    -89.63
 31
    0.00
  0
LINE
  8
CONTOURS_LARGEURS
 10
    179.07
 20
    -70.02
 30
    0.00
 11
    200.97
 21
    -83.33
 31
    0.00
  0
LINE
  8
CONTOURS_LARGEURS
 10
    173.71
 20
    -75.97
 30
    0.00
 11
    196.05
 21
    -89.63
 31
    0.00
  0
TEXT
  8
STATIONS
 10
    198.51
 20
    -86.48
 30
    0.00
 40
    0.4
  1
76
  0
LINE
  8
CHEMINEMENTS
 10
    198.51
 20
    -86.48
 30
    0.00
 11
    207.39
 21
    -94.48
 31
    0.00
  0
CIRCLE
  8
POINTS
 10
    207.39
 20
    -94.48
 30
    0.00
 40
    0.2
  0
LINE
  8
LARGEURS
 10
    209.40
 20
    -92.25
 30
    0.00
 11
    198.02
 21
    -104.88
 31
    0.00
  0
LINE
  8
CONTOURS_LARGEURS
 10
    200.97
 20
    -83.33
 30
    0.00
 11
    209.40
 21
    -92.25
 31
    0.00
  0
LINE
  8
CONTOURS_LARGEURS
 10
    196.05
 20
    -89.63
 30
    0.00
 11
    198.02
 21
    -104.88
 31
    0.00
  0
TEXT
  8
STATIONS
 10
    207.39
 20
    -94.48
 30
    0.00
 40
    0.4
  1
77
  0
LINE
  8
CHEMINEMENTS
 10
    207.39
 20
    -94.48
 30
    0.00
 11
    229.37
 21
    -105.20
 31
    0.00
  0
CIRCLE
  8
POINTS
 10
    229.37
 20
    -105.20
 30
    0.00
 40
    0.2
  0
LINE
  8
LARGEURS
 10
    231.12
 20
    -101.60
 30
    0.00
 11
    224.99
 21
    -114.19
 31
    0.00
  0
LINE
  8
CONTOURS_LARGEURS
 10
    209.40
 20
    -92.25
 30
    0.00
 11
    231.12
 21
    -101.60
 31
    0.00
  0
LINE
  8
CONTOURS_LARGEURS
 10
    198.02
 20
    -104.88
 30
    0.00
 11
    224.99
 21
    -114.19
 31
    0.00
  0
TEXT
  8
STATIONS
 10
    229.37
 20
    -105.20
 30
    0.00
 40
    0.4
  1
78
  0
LINE
  8
CHEMINEMENTS
 10
    229.37
 20
    -105.20
 30
    0.00
 11
    239.94
 21
    -108.23
 31
    0.00
  0
CIRCLE
  8
POINTS
 10
    239.94
 20
    -108.23
 30
    0.00
 40
    0.2
  0
LINE
  8
LARGEURS
 10
    242.69
 20
    -98.62
 30
    0.00
 11
    238.01
 21
    -114.96
 31
    0.00
  0
LINE
  8
CONTOURS_LARGEURS
 10
    231.12
 20
    -101.60
 30
    0.00
 11
    242.69
 21
    -98.62
 31
    0.00
  0
LINE
  8
CONTOURS_LARGEURS
 10
    224.99
 20
    -114.19
 30
    0.00
 11
    238.01
 21
    -114.96
 31
    0.00
  0
TEXT
  8
STATIONS
 10
    239.94
 20
    -108.23
 30
    0.00
 40
    0.4
  1
79
  0
LINE
  8
CHEMINEMENTS
 10
    239.94
 20
    -108.23
 30
    0.00
 11
    266.93
 21
    -108.23
 31
    0.00
  0
CIRCLE
  8
POINTS
 10
    266.93
 20
    -108.23
 30
    0.00
 40
    0.2
  0
LINE
  8
LARGEURS
 10
    266.93
 20
    -104.23
 30
    0.00
 11
    266.93
 21
    -115.23
 31
    0.00
  0
LINE
  8
CONTOURS_LARGEURS
 10
    242.69
 20
    -98.62
 30
    0.00
 11
    266.93
 21
    -104.23
 31
    0.00
  0
LINE
  8
CONTOURS_LARGEURS
 10
    238.01
 20
    -114.96
 30
    0.00
 11
    266.93
 21
    -115.23
 31
    0.00
  0
TEXT
  8
STATIONS
 10
    266.93
 20
    -108.23
 30
    0.00
 40
    0.4
  1
80
  0
LINE
  8
CHEMINEMENTS
 10
    266.93
 20
    -108.23
 30
    0.00
 11
    277.59
 21
    -127.46
 31
    0.00
  0
CIRCLE
  8
POINTS
 10
    277.59
 20
    -127.46
 30
    0.00
 40
    0.2
  0
LINE
  8
LARGEURS
 10
    284.59
 20
    -123.58
 30
    0.00
 11
    272.35
 21
    -130.37
 31
    0.00
  0
LINE
  8
CONTOURS_LARGEURS
 10
    266.93
 20
    -104.23
 30
    0.00
 11
    284.59
 21
    -123.58
 31
    0.00
  0
LINE
  8
CONTOURS_LARGEURS
 10
    266.93
 20
    -115.23
 30
    0.00
 11
    272.35
 21
    -130.37
 31
    0.00
  0
TEXT
  8
STATIONS
 10
    277.59
 20
    -127.46
 30
    0.00
 40
    0.4
  1
81
  0
LINE
  8
CHEMINEMENTS
 10
    277.59
 20
    -127.46
 30
    0.00
 11
    307.74
 21
    -140.88
 31
    0.00
  0
CIRCLE
  8
POINTS
 10
    307.74
 20
    -140.88
 30
    0.00
 40
    0.2
  0
LINE
  8
LARGEURS
 10
    311.40
 20
    -132.66
 30
    0.00
 11
    304.08
 21
    -149.10
 31
    0.00
  0
LINE
  8
CONTOURS_LARGEURS
 10
    284.59
 20
    -123.58
 30
    0.00
 11
    311.40
 21
    -132.66
 31
    0.00
  0
LINE
  8
CONTOURS_LARGEURS
 10
    272.35
 20
    -130.37
 30
    0.00
 11
    304.08
 21
    -149.10
 31
    0.00
  0
TEXT
  8
STATIONS
 10
    307.74
 20
    -140.88
 30
    0.00
 40
    0.4
  1
82
  0
LINE
  8
CHEMINEMENTS
 10
    307.74
 20
    -140.88
 30
    0.00
 11
    326.25
 21
    -145.15
 31
    0.00
  0
CIRCLE
  8
POINTS
 10
    326.25
 20
    -145.15
 30
    0.00
 40
    0.2
  0
LINE
  8
LARGEURS
 10
    327.82
 20
    -138.33
 30
    0.00
 11
    324.67
 21
    -151.97
 31
    0.00
  0
LINE
  8
CONTOURS_LARGEURS
 10
    311.40
 20
    -132.66
 30
    0.00
 11
    327.82
 21
    -138.33
 31
    0.00
  0
LINE
  8
CONTOURS_LARGEURS
 10
    304.08
 20
    -149.10
 30
    0.00
 11
    324.67
 21
    -151.97
 31
    0.00
  0
TEXT
  8
STATIONS
 10
    326.25
 20
    -145.15
 30
    0.00
 40
    0.4
  1
83
  0
LINE
  8
CHEMINEMENTS
 10
    326.25
 20
    -145.15
 30
    0.00
 11
    344.79
 21
    -174.82
 31
    0.00
  0
CIRCLE
  8
POINTS
 10
    344.79
 20
    -174.82
 30
    0.00
 40
    0.2
  0
LINE
  8
LARGEURS
 10
    348.18
 20
    -172.70
 30
    0.00
 11
    326.13
 21
    -186.48
 31
    0.00
  0
LINE
  8
CONTOURS_LARGEURS
 10
    327.82
 20
    -138.33
 30
    0.00
 11
    348.18
 21
    -172.70
 31
    0.00
  0
LINE
  8
CONTOURS_LARGEURS
 10
    324.67
 20
    -151.97
 30
    0.00
 11
    326.13
 21
    -186.48
 31
    0.00
  0
TEXT
  8
STATIONS
 10
    344.79
 20
    -174.82
 30
    0.00
 40
    0.4
  1
84
  0
LINE
  8
CHEMINEMENTS
 10
    344.79
 20
    -174.82
 30
    0.00
 11
    363.21
 21
    -186.78
 31
    0.00
  0
CIRCLE
  8
POINTS
 10
    363.21
 20
    -186.78
 30
    0.00
 40
    0.2
  0
LINE
  8
LARGEURS
 10
    365.39
 20
    -183.43
 30
    0.00
 11
    350.14
 21
    -206.91
 31
    0.00
  0
LINE
  8
CONTOURS_LARGEURS
 10
    348.18
 20
    -172.70
 30
    0.00
 11
    365.39
 21
    -183.43
 31
    0.00
  0
LINE
  8
CONTOURS_LARGEURS
 10
    326.13
 20
    -186.48
 30
    0.00
 11
    350.14
 21
    -206.91
 31
    0.00
  0
TEXT
  8
STATIONS
 10
    363.21
 20
    -186.78
 30
    0.00
 40
    0.4
  1
85
  0
LINE
  8
CHEMINEMENTS
 10
    363.21
 20
    -186.78
 30
    0.00
 11
    373.97
 21
    -185.27
 31
    0.00
  0
CIRCLE
  8
POINTS
 10
    373.97
 20
    -185.27
 30
    0.00
 40
    0.2
  0
LINE
  8
LARGEURS
 10
    372.86
 20
    -177.35
 30
    0.00
 11
    375.08
 21
    -193.19
 31
    0.00
  0
LINE
  8
CONTOURS_LARGEURS
 10
    365.39
 20
    -183.43
 30
    0.00
 11
    372.86
 21
    -177.35
 31
    0.00
  0
LINE
  8
CONTOURS_LARGEURS
 10
    350.14
 20
    -206.91
 30
    0.00
 11
    375.08
 21
    -193.19
 31
    0.00
  0
TEXT
  8
STATIONS
 10
    373.97
 20
    -185.27
 30
    0.00
 40
    0.4
  1
86
  0
LINE
  8
CHEMINEMENTS
 10
    373.97
 20
    -185.27
 30
    0.00
 11
    386.32
 21
    -178.70
 31
    0.00
  0
CIRCLE
  8
POINTS
 10
    386.32
 20
    -178.70
 30
    0.00
 40
    0.2
  0
LINE
  8
LARGEURS
 10
    380.69
 20
    -168.11
 30
    0.00
 11
    387.26
 21
    -180.47
 31
    0.00
  0
LINE
  8
CONTOURS_LARGEURS
 10
    372.86
 20
    -177.35
 30
    0.00
 11
    380.69
 21
    -168.11
 31
    0.00
  0
LINE
  8
CONTOURS_LARGEURS
 10
    375.08
 20
    -193.19
 30
    0.00
 11
    387.26
 21
    -180.47
 31
    0.00
  0
TEXT
  8
STATIONS
 10
    386.32
 20
    -178.70
 30
    0.00
 40
    0.4
  1
87
  0
LINE
  8
CHEMINEMENTS
 10
    386.32
 20
    -178.70
 30
    0.00
 11
    420.26
 21
    -187.16
 31
    0.00
  0
CIRCLE
  8
POINTS
 10
    420.26
 20
    -187.16
 30
    0.00
 40
    0.2
  0
LINE
  8
LARGEURS
 10
    423.65
 20
    -173.58
 30
    0.00
 11
    416.63
 21
    -201.72
 31
    0.00
  0
LINE
  8
CONTOURS_LARGEURS
 10
    380.69
 20
    -168.11
 30
    0.00
 11
    423.65
 21
    -173.58
 31
    0.00
  0
LINE
  8
CONTOURS_LARGEURS
 10
    387.26
 20
    -180.47
 30
    0.00
 11
    416.63
 21
    -201.72
 31
    0.00
  0
TEXT
  8
STATIONS
 10
    420.26
 20
    -187.16
 30
    0.00
 40
    0.4
  1
88
  0
LINE
  8
CHEMINEMENTS
 10
    420.26
 20
    -187.16
 30
    0.00
 11
    448.97
 21
    -208.80
 31
    0.00
  0
CIRCLE
  8
POINTS
 10
    448.97
 20
    -208.80
 30
    0.00
 40
    0.2
  0
LINE
  8
LARGEURS
 10
    464.02
 20
    -188.83
 30
    0.00
 11
    442.96
 21
    -216.79
 31
    0.00
  0
LINE
  8
CONTOURS_LARGEURS
 10
    423.65
 20
    -173.58
 30
    0.00
 11
    464.02
 21
    -188.83
 31
    0.00
  0
LINE
  8
CONTOURS_LARGEURS
 10
    416.63
 20
    -201.72
 30
    0.00
 11
    442.96
 21
    -216.79
 31
    0.00
  0
TEXT
  8
STATIONS
 10
    448.97
 20
    -208.80
 30
    0.00
 40
    0.4
  1
89
  0
LINE
  8
CHEMINEMENTS
 10
    448.97
 20
    -208.80
 30
    0.00
 11
    493.94
 21
    -207.23
 31
    0.00
  0
CIRCLE
  8
POINTS
 10
    493.94
 20
    -207.23
 30
    0.00
 40
    0.2
  0
LINE
  8
LARGEURS
 10
    493.80
 20
    -203.23
 30
    0.00
 11
    494.04
 21
    -210.23
 31
    0.00
  0
LINE
  8
CONTOURS_LARGEURS
 10
    464.02
 20
    -188.83
 30
    0.00
 11
    493.80
 21
    -203.23
 31
    0.00
  0
LINE
  8
CONTOURS_LARGEURS
 10
    442.96
 20
    -216.79
 30
    0.00
 11
    494.04
 21
    -210.23
 31
    0.00
  0
LINE
  8
CONTOURS_LARGEURS
 10
    493.80
 20
    -203.23
 30
    0.00
 11
    494.04
 21
    -210.23
 31
    0.00
  0
TEXT
  8
STATIONS
 10
    493.94
 20
    -207.23
 30
    0.00
 40
    0.4
  1
90
  0
TEXT
  8
PROFONDEURS
 10
    493.94
 20
    -207.23
 30
    0.00
 40
    0.6
  1
-70
  0
LINE
  8
CHEMINEMENTS
 10
    277.59
 20
    -127.46
 30
    0.00
 11
    281.02
 21
    -105.81
 31
    0.00
  0
CIRCLE
  8
POINTS
 10
    281.02
 20
    -105.81
 30
    0.00
 40
    0.2
  0
LINE
  8
LARGEURS
 10
    272.13
 20
    -104.41
 30
    0.00
 11
    290.90
 21
    -107.38
 31
    0.00
  0
LINE
  8
CONTOURS_LARGEURS
 10
    272.35
 20
    -130.37
 30
    0.00
 11
    272.13
 21
    -104.41
 31
    0.00
  0
LINE
  8
CONTOURS_LARGEURS
 10
    284.59
 20
    -123.58
 30
    0.00
 11
    290.90
 21
    -107.38
 31
    0.00
  0
TEXT
  8
STATIONS
 10
    281.02
 20
    -105.81
 30
    0.00
 40
    0.4
  1
91
  0
LINE
  8
CHEMINEMENTS
 10
    281.02
 20
    -105.81
 30
    0.00
 11
    267.59
 21
    -99.26
 31
    0.00
  0
CIRCLE
  8
POINTS
 10
    267.59
 20
    -99.26
 30
    0.00
 40
    0.2
  0
LINE
  8
LARGEURS
 10
    261.45
 20
    -111.85
 30
    0.00
 11
    270.22
 21
    -93.87
 31
    0.00
  0
LINE
  8
CONTOURS_LARGEURS
 10
    272.13
 20
    -104.41
 30
    0.00
 11
    261.45
 21
    -111.85
 31
    0.00
  0
LINE
  8
CONTOURS_LARGEURS
 10
    290.90
 20
    -107.38
 30
    0.00
 11
    270.22
 21
    -93.87
 31
    0.00
  0
TEXT
  8
STATIONS
 10
    267.59
 20
    -99.26
 30
    0.00
 40
    0.4
  1
92
  0
LINE
  8
CHEMINEMENTS
 10
    267.59
 20
    -99.26
 30
    0.00
 11
    251.23
 21
    -92.32
 31
    0.00
  0
CIRCLE
  8
POINTS
 10
    251.23
 20
    -92.32
 30
    0.00
 40
    0.2
  0
LINE
  8
LARGEURS
 10
    246.93
 20
    -102.44
 30
    0.00
 11
    252.01
 21
    -90.48
 31
    0.00
  0
LINE
  8
CONTOURS_LARGEURS
 10
    261.45
 20
    -111.85
 30
    0.00
 11
    246.93
 21
    -102.44
 31
    0.00
  0
LINE
  8
CONTOURS_LARGEURS
 10
    270.22
 20
    -93.87
 30
    0.00
 11
    252.01
 21
    -90.48
 31
    0.00
  0
TEXT
  8
STATIONS
 10
    251.23
 20
    -92.32
 30
    0.00
 40
    0.4
  1
93
  0
LINE
  8
CHEMINEMENTS
 10
    251.23
 20
    -92.32
 30
    0.00
 11
    232.73
 21
    -82.48
 31
    0.00
  0
CIRCLE
  8
POINTS
 10
    232.73
 20
    -82.48
 30
    0.00
 40
    0.2
  0
LINE
  8
LARGEURS
 10
    231.32
 20
    -85.13
 30
    0.00
 11
    236.95
 21
    -74.53
 31
    0.00
  0
LINE
  8
CONTOURS_LARGEURS
 10
    246.93
 20
    -102.44
 30
    0.00
 11
    231.32
 21
    -85.13
 31
    0.00
  0
LINE
  8
CONTOURS_LARGEURS
 10
    252.01
 20
    -90.48
 30
    0.00
 11
    236.95
 21
    -74.53
 31
    0.00
  0
LINE
  8
CONTOURS_LARGEURS
 10
    231.32
 20
    -85.13
 30
    0.00
 11
    236.95
 21
    -74.53
 31
    0.00
  0
TEXT
  8
STATIONS
 10
    232.73
 20
    -82.48
 30
    0.00
 40
    0.4
  1
94
  0
TEXT
  8
PROFONDEURS
 10
    232.73
 20
    -82.48
 30
    0.00
 40
    0.6
  1
-74
  0
LINE
  8
CHEMINEMENTS
 10
    84.24
 20
    -97.26
 30
    0.00
 11
    82.49
 21
    -101.81
 31
    0.00
  0
CIRCLE
  8
POINTS
 10
    82.49
 20
    -101.81
 30
    0.00
 40
    0.2
  0
LINE
  8
LARGEURS
 10
    85.29
 20
    -102.88
 30
    0.00
 11
    82.49
 21
    -101.81
 31
    0.00
  0
LINE
  8
CONTOURS_LARGEURS
 10
    78.69
 20
    -104.35
 30
    0.00
 11
    85.29
 21
    -102.88
 31
    0.00
  0
LINE
  8
CONTOURS_LARGEURS
 10
    87.93
 20
    -92.53
 30
    0.00
 11
    82.49
 21
    -101.81
 31
    0.00
  0
TEXT
  8
STATIONS
 10
    82.49
 20
    -101.81
 30
    0.00
 40
    0.4
  1
95
  0
LINE
  8
CHEMINEMENTS
 10
    82.49
 20
    -101.81
 30
    0.00
 11
    78.76
 21
    -101.21
 31
    0.00
  0
CIRCLE
  8
POINTS
 10
    78.76
 20
    -101.21
 30
    0.00
 40
    0.2
  0
LINE
  8
LARGEURS
 10
    77.98
 20
    -106.15
 30
    0.00
 11
    79.23
 21
    -98.25
 31
    0.00
  0
LINE
  8
CONTOURS_LARGEURS
 10
    85.29
 20
    -102.88
 30
    0.00
 11
    77.98
 21
    -106.15
 31
    0.00
  0
LINE
  8
CONTOURS_LARGEURS
 10
    82.49
 20
    -101.81
 30
    0.00
 11
    79.23
 21
    -98.25
 31
    0.00
  0
TEXT
  8
STATIONS
 10
    78.76
 20
    -101.21
 30
    0.00
 40
    0.4
  1
96
  0
LINE
  8
CHEMINEMENTS
 10
    78.76
 20
    -101.21
 30
    0.00
 11
    66.22
 21
    -107.33
 31
    0.00
  0
CIRCLE
  8
POINTS
 10
    66.22
 20
    -107.33
 30
    0.00
 40
    0.2
  0
LINE
  8
LARGEURS
 10
    68.42
 20
    -111.82
 30
    0.00
 11
    57.46
 21
    -89.35
 31
    0.00
  0
LINE
  8
CONTOURS_LARGEURS
 10
    77.98
 20
    -106.15
 30
    0.00
 11
    68.42
 21
    -111.82
 31
    0.00
  0
LINE
  8
CONTOURS_LARGEURS
 10
    79.23
 20
    -98.25
 30
    0.00
 11
    57.46
 21
    -89.35
 31
    0.00
  0
TEXT
  8
STATIONS
 10
    66.22
 20
    -107.33
 30
    0.00
 40
    0.4
  1
97
  0
LINE
  8
CHEMINEMENTS
 10
    66.22
 20
    -107.33
 30
    0.00
 11
    45.60
 21
    -117.39
 31
    0.00
  0
CIRCLE
  8
POINTS
 10
    45.60
 20
    -117.39
 30
    0.00
 40
    0.2
  0
LINE
  8
LARGEURS
 10
    49.11
 20
    -124.58
 30
    0.00
 11
    25.00
 21
    -75.14
 31
    0.00
  0
LINE
  8
CONTOURS_LARGEURS
 10
    68.42
 20
    -111.82
 30
    0.00
 11
    49.11
 21
    -124.58
 31
    0.00
  0
LINE
  8
CONTOURS_LARGEURS
 10
    57.46
 20
    -89.35
 30
    0.00
 11
    25.00
 21
    -75.14
 31
    0.00
  0
LINE
  8
CONTOURS_LARGEURS
 10
    49.11
 20
    -124.58
 30
    0.00
 11
    25.00
 21
    -75.14
 31
    0.00
  0
TEXT
  8
STATIONS
 10
    45.60
 20
    -117.39
 30
    0.00
 40
    0.4
  1
23
  0
TEXT
  8
PROFONDEURS
 10
    45.60
 20
    -117.39
 30
    0.00
 40
    0.6
  1
-56
  0
TEXT
  8
ECHELLE
 10
    0.00
 20
    -266.88
 30
    0.00
 40
    6.3
  1
0
  0
TEXT
  8
ECHELLE
 10
    209.52
 20
    -266.88
 30
    0.00
 40
    6.3
  1
200 m
  0
LINE
  8
ECHELLE
 10
    6.35
 20
    -260.54
 30
    0.00
 11
    206.35
 21
    -260.54
 31
    0.00
  0
LINE
  8
ECHELLE
 10
    206.35
 20
    -260.54
 30
    0.00
 11
    206.35
 21
    -266.88
 31
    0.00
  0
LINE
  8
ECHELLE
 10
    206.35
 20
    -266.88
 30
    0.00
 11
    6.35
 21
    -266.88
 31
    0.00
  0
LINE
  8
ECHELLE
 10
    6.35
 20
    -266.88
 30
    0.00
 11
    6.35
 21
    -260.54
 31
    0.00
  0
SOLID
  8
ECHELLE
 10
    6.35
 20
    -260.54
 30
    0.00
 11
    26.35
 21
    -260.54
 31
    0.00
 12
    6.35
 22
    -263.71
 32
    0.00
 13
    26.35
 23
    -263.71
 33
    0.00
  0
SOLID
  8
ECHELLE
 10
    26.35
 20
    -263.71
 30
    0.00
 11
    46.35
 21
    -263.71
 31
    0.00
 12
    26.35
 22
    -266.88
 32
    0.00
 13
    46.35
 23
    -266.88
 33
    0.00
  0
SOLID
  8
ECHELLE
 10
    46.35
 20
    -260.54
 30
    0.00
 11
    66.35
 21
    -260.54
 31
    0.00
 12
    46.35
 22
    -263.71
 32
    0.00
 13
    66.35
 23
    -263.71
 33
    0.00
  0
SOLID
  8
ECHELLE
 10
    66.35
 20
    -263.71
 30
    0.00
 11
    86.35
 21
    -263.71
 31
    0.00
 12
    66.35
 22
    -266.88
 32
    0.00
 13
    86.35
 23
    -266.88
 33
    0.00
  0
SOLID
  8
ECHELLE
 10
    86.35
 20
    -260.54
 30
    0.00
 11
    106.35
 21
    -260.54
 31
    0.00
 12
    86.35
 22
    -263.71
 32
    0.00
 13
    106.35
 23
    -263.71
 33
    0.00
  0
SOLID
  8
ECHELLE
 10
    106.35
 20
    -263.71
 30
    0.00
 11
    206.35
 21
    -263.71
 31
    0.00
 12
    106.35
 22
    -266.88
 32
    0.00
 13
    206.35
 23
    -266.88
 33
    0.00
  0
ENDSEC
  0
EOF
