  0
SECTION
  2
HEADER
  9
$ACADVER
  1
AC1006
  0
ENDSEC
  0
SECTION
  2
TABLES
  0
TABLE
  2
LAYER
  0
LAYER
  2
CHEMINEMENTS
 70
    64
 62
    1
  6
CONTINUOUS
  0
LAYER
  2
RADIALES
 70
    64
 62
    9
  6
CONTINUOUS
  0
LAYER
  2
POINTS
 70
    64
 62
    6
  6
CONTINUOUS
  0
LAYER
  2
STATIONS
 70
    64
 62
    7
  6
CONTINUOUS
  0
LAYER
  2
PROFONDEURS
 70
    64
 62
    2
  6
CONTINUOUS
  0
LAYER
  2
CONTOURS_HAUTEURS
 70
    64
 62
    3
  6
CONTINUOUS
  0
LAYER
  2
ECHELLE
 70
    64
 62
    7
  6
CONTINUOUS
  0
ENDTAB
  0
ENDSEC
  0
SECTION
  2
ENTITIES
  0
LINE
  8
CHEMINEMENTS
 10
    -49.02
 20
    -78.81
 30
    0.00
 11
    -49.02
 21
    -78.81
 31
    0.00
  0
CIRCLE
  8
POINTS
 10
    -49.02
 20
    -78.81
 30
    0.00
 40
    0.2
  0
LINE
  8
CONTOURS_HAUTEURS
 10
    -49.02
 20
    -78.81
 30
    0.00
 11
    -49.02
 21
    -78.81
 31
    0.00
  0
LINE
  8
CONTOURS_HAUTEURS
 10
    -49.02
 20
    -78.81
 30
    0.00
 11
    -49.02
 21
    -78.81
 31
    0.00
  0
TEXT
  8
STATIONS
 10
    -49.02
 20
    -78.81
 30
    0.00
 40
    0.4
  1
0
  0
TEXT
  8
PROFONDEURS
 10
    -49.02
 20
    -78.81
 30
    0.00
 40
    0.6
  1
-79
  0
LINE
  8
CHEMINEMENTS
 10
    -49.02
 20
    -78.81
 30
    0.00
 11
    -49.02
 21
    -78.81
 31
    0.00
  0
CIRCLE
  8
POINTS
 10
    -49.02
 20
    -78.81
 30
    0.00
 40
    0.2
  0
LINE
  8
CONTOURS_HAUTEURS
 10
    -49.02
 20
    -78.81
 30
    0.00
 11
    -49.02
 21
    -83.81
 31
    0.00
  0
LINE
  8
CONTOURS_HAUTEURS
 10
    -49.02
 20
    -78.81
 30
    0.00
 11
    -49.02
 21
    -77.81
 31
    0.00
  0
TEXT
  8
STATIONS
 10
    -49.02
 20
    -78.81
 30
    0.00
 40
    0.4
  1
2.0
  0
LINE
  8
CHEMINEMENTS
 10
    -49.02
 20
    -78.81
 30
    0.00
 11
    -46.54
 21
    -83.16
 31
    0.00
  0
CIRCLE
  8
POINTS
 10
    -46.54
 20
    -83.16
 30
    0.00
 40
    0.2
  0
LINE
  8
CONTOURS_HAUTEURS
 10
    -49.02
 20
    -83.81
 30
    0.00
 11
    -46.54
 21
    -83.16
 31
    0.00
  0
LINE
  8
CONTOURS_HAUTEURS
 10
    -49.02
 20
    -77.81
 30
    0.00
 11
    -46.54
 21
    -82.16
 31
    0.00
  0
LINE
  8
CONTOURS_HAUTEURS
 10
    -46.54
 20
    -83.16
 30
    0.00
 11
    -46.54
 21
    -82.16
 31
    0.00
  0
TEXT
  8
STATIONS
 10
    -46.54
 20
    -83.16
 30
    0.00
 40
    0.4
  1
2.1
  0
LINE
  8
CHEMINEMENTS
 10
    -49.02
 20
    -78.81
 30
    0.00
 11
    -49.02
 21
    -78.81
 31
    0.00
  0
CIRCLE
  8
POINTS
 10
    -49.02
 20
    -78.81
 30
    0.00
 40
    0.2
  0
LINE
  8
CONTOURS_HAUTEURS
 10
    -49.02
 20
    -83.81
 30
    0.00
 11
    -49.02
 21
    -79.81
 31
    0.00
  0
LINE
  8
CONTOURS_HAUTEURS
 10
    -49.02
 20
    -77.81
 30
    0.00
 11
    -49.02
 21
    -70.81
 31
    0.00
  0
TEXT
  8
STATIONS
 10
    -49.02
 20
    -78.81
 30
    0.00
 40
    0.4
  1
3.0
  0
LINE
  8
CHEMINEMENTS
 10
    -49.02
 20
    -78.81
 30
    0.00
 11
    -46.37
 21
    -64.13
 31
    0.00
  0
CIRCLE
  8
POINTS
 10
    -46.37
 20
    -64.13
 30
    0.00
 40
    0.2
  0
LINE
  8
CONTOURS_HAUTEURS
 10
    -49.02
 20
    -79.81
 30
    0.00
 11
    -46.37
 21
    -64.63
 31
    0.00
  0
LINE
  8
CONTOURS_HAUTEURS
 10
    -49.02
 20
    -70.81
 30
    0.00
 11
    -46.37
 21
    -63.63
 31
    0.00
  0
LINE
  8
CONTOURS_HAUTEURS
 10
    -46.37
 20
    -64.63
 30
    0.00
 11
    -46.37
 21
    -63.63
 31
    0.00
  0
TEXT
  8
STATIONS
 10
    -46.37
 20
    -64.13
 30
    0.00
 40
    0.4
  1
3.1
  0
TEXT
  8
PROFONDEURS
 10
    -46.37
 20
    -64.13
 30
    0.00
 40
    0.6
  1
-64
  0
LINE
  8
CHEMINEMENTS
 10
    -49.02
 20
    -78.81
 30
    0.00
 11
    -49.02
 21
    -78.81
 31
    0.00
  0
CIRCLE
  8
POINTS
 10
    -49.02
 20
    -78.81
 30
    0.00
 40
    0.2
  0
LINE
  8
CONTOURS_HAUTEURS
 10
    -49.02
 20
    -83.81
 30
    0.00
 11
    -49.02
 21
    -79.81
 31
    0.00
  0
LINE
  8
CONTOURS_HAUTEURS
 10
    -49.02
 20
    -77.81
 30
    0.00
 11
    -49.02
 21
    -70.81
 31
    0.00
  0
TEXT
  8
STATIONS
 10
    -49.02
 20
    -78.81
 30
    0.00
 40
    0.4
  1
4.0
  0
LINE
  8
CHEMINEMENTS
 10
    -49.02
 20
    -78.81
 30
    0.00
 11
    -45.66
 21
    -80.88
 31
    0.00
  0
CIRCLE
  8
POINTS
 10
    -45.66
 20
    -80.88
 30
    0.00
 40
    0.2
  0
LINE
  8
CONTOURS_HAUTEURS
 10
    -49.02
 20
    -79.81
 30
    0.00
 11
    -45.66
 21
    -80.88
 31
    0.00
  0
LINE
  8
CONTOURS_HAUTEURS
 10
    -49.02
 20
    -70.81
 30
    0.00
 11
    -45.66
 21
    -72.88
 31
    0.00
  0
TEXT
  8
STATIONS
 10
    -45.66
 20
    -80.88
 30
    0.00
 40
    0.4
  1
4.1
  0
LINE
  8
CHEMINEMENTS
 10
    -45.66
 20
    -80.88
 30
    0.00
 11
    -41.70
 21
    -85.76
 31
    0.00
  0
CIRCLE
  8
POINTS
 10
    -41.70
 20
    -85.76
 30
    0.00
 40
    0.2
  0
LINE
  8
CONTOURS_HAUTEURS
 10
    -45.66
 20
    -80.88
 30
    0.00
 11
    -41.70
 21
    -86.76
 31
    0.00
  0
LINE
  8
CONTOURS_HAUTEURS
 10
    -45.66
 20
    -72.88
 30
    0.00
 11
    -41.70
 21
    -70.76
 31
    0.00
  0
TEXT
  8
STATIONS
 10
    -41.70
 20
    -85.76
 30
    0.00
 40
    0.4
  1
4.2
  0
LINE
  8
CHEMINEMENTS
 10
    -41.70
 20
    -85.76
 30
    0.00
 11
    -41.70
 21
    -85.76
 31
    0.00
  0
CIRCLE
  8
POINTS
 10
    -41.70
 20
    -85.76
 30
    0.00
 40
    0.2
  0
LINE
  8
CONTOURS_HAUTEURS
 10
    -41.70
 20
    -86.76
 30
    0.00
 11
    -41.70
 21
    -87.76
 31
    0.00
  0
LINE
  8
CONTOURS_HAUTEURS
 10
    -41.70
 20
    -70.76
 30
    0.00
 11
    -41.70
 21
    -75.76
 31
    0.00
  0
TEXT
  8
STATIONS
 10
    -41.70
 20
    -85.76
 30
    0.00
 40
    0.4
  1
1.0
  0
LINE
  8
CHEMINEMENTS
 10
    -41.70
 20
    -85.76
 30
    0.00
 11
    -41.70
 21
    -85.76
 31
    0.00
  0
CIRCLE
  8
POINTS
 10
    -41.70
 20
    -85.76
 30
    0.00
 40
    0.2
  0
LINE
  8
CONTOURS_HAUTEURS
 10
    -41.70
 20
    -87.76
 30
    0.00
 11
    -41.70
 21
    -88.76
 31
    0.00
  0
LINE
  8
CONTOURS_HAUTEURS
 10
    -41.70
 20
    -75.76
 30
    0.00
 11
    -41.70
 21
    -84.76
 31
    0.00
  0
TEXT
  8
STATIONS
 10
    -41.70
 20
    -85.76
 30
    0.00
 40
    0.4
  1
M.0
  0
LINE
  8
CHEMINEMENTS
 10
    -41.70
 20
    -85.76
 30
    0.00
 11
    -38.27
 21
    -89.57
 31
    0.00
  0
CIRCLE
  8
POINTS
 10
    -38.27
 20
    -89.57
 30
    0.00
 40
    0.2
  0
LINE
  8
CONTOURS_HAUTEURS
 10
    -41.70
 20
    -88.76
 30
    0.00
 11
    -38.27
 21
    -90.07
 31
    0.00
  0
LINE
  8
CONTOURS_HAUTEURS
 10
    -41.70
 20
    -84.76
 30
    0.00
 11
    -38.27
 21
    -89.07
 31
    0.00
  0
LINE
  8
CONTOURS_HAUTEURS
 10
    -38.27
 20
    -90.07
 30
    0.00
 11
    -38.27
 21
    -89.07
 31
    0.00
  0
TEXT
  8
STATIONS
 10
    -38.27
 20
    -89.57
 30
    0.00
 40
    0.4
  1
M.1
  0
TEXT
  8
PROFONDEURS
 10
    -38.27
 20
    -89.57
 30
    0.00
 40
    0.6
  1
-90
  0
LINE
  8
CHEMINEMENTS
 10
    -41.70
 20
    -85.76
 30
    0.00
 11
    -37.85
 21
    -76.07
 31
    0.00
  0
CIRCLE
  8
POINTS
 10
    -37.85
 20
    -76.07
 30
    0.00
 40
    0.2
  0
LINE
  8
CONTOURS_HAUTEURS
 10
    -41.70
 20
    -87.76
 30
    0.00
 11
    -37.85
 21
    -76.07
 31
    0.00
  0
LINE
  8
CONTOURS_HAUTEURS
 10
    -41.70
 20
    -75.76
 30
    0.00
 11
    -37.85
 21
    -66.07
 31
    0.00
  0
TEXT
  8
STATIONS
 10
    -37.85
 20
    -76.07
 30
    0.00
 40
    0.4
  1
1.1
  0
LINE
  8
CHEMINEMENTS
 10
    -37.85
 20
    -76.07
 30
    0.00
 11
    -37.85
 21
    -76.07
 31
    0.00
  0
CIRCLE
  8
POINTS
 10
    -37.85
 20
    -76.07
 30
    0.00
 40
    0.2
  0
LINE
  8
CONTOURS_HAUTEURS
 10
    -37.85
 20
    -76.07
 30
    0.00
 11
    -37.85
 21
    -76.67
 31
    0.00
  0
LINE
  8
CONTOURS_HAUTEURS
 10
    -37.85
 20
    -66.07
 30
    0.00
 11
    -37.85
 21
    -75.47
 31
    0.00
  0
TEXT
  8
STATIONS
 10
    -37.85
 20
    -76.07
 30
    0.00
 40
    0.4
  1
5.0
  0
LINE
  8
CHEMINEMENTS
 10
    -37.85
 20
    -76.07
 30
    0.00
 11
    -35.68
 21
    -77.05
 31
    0.00
  0
CIRCLE
  8
POINTS
 10
    -35.68
 20
    -77.05
 30
    0.00
 40
    0.2
  0
LINE
  8
CONTOURS_HAUTEURS
 10
    -37.85
 20
    -76.67
 30
    0.00
 11
    -35.68
 21
    -77.85
 31
    0.00
  0
LINE
  8
CONTOURS_HAUTEURS
 10
    -37.85
 20
    -75.47
 30
    0.00
 11
    -35.68
 21
    -77.05
 31
    0.00
  0
TEXT
  8
STATIONS
 10
    -35.68
 20
    -77.05
 30
    0.00
 40
    0.4
  1
5.1
  0
LINE
  8
CHEMINEMENTS
 10
    -35.68
 20
    -77.05
 30
    0.00
 11
    -30.37
 21
    -80.13
 31
    0.00
  0
CIRCLE
  8
POINTS
 10
    -30.37
 20
    -80.13
 30
    0.00
 40
    0.2
  0
LINE
  8
CONTOURS_HAUTEURS
 10
    -35.68
 20
    -77.85
 30
    0.00
 11
    -30.37
 21
    -81.13
 31
    0.00
  0
LINE
  8
CONTOURS_HAUTEURS
 10
    -35.68
 20
    -77.05
 30
    0.00
 11
    -30.37
 21
    -77.13
 31
    0.00
  0
TEXT
  8
STATIONS
 10
    -30.37
 20
    -80.13
 30
    0.00
 40
    0.4
  1
5.2
  0
LINE
  8
CHEMINEMENTS
 10
    -30.37
 20
    -80.13
 30
    0.00
 11
    -28.63
 21
    -80.76
 31
    0.00
  0
CIRCLE
  8
POINTS
 10
    -28.63
 20
    -80.76
 30
    0.00
 40
    0.2
  0
LINE
  8
CONTOURS_HAUTEURS
 10
    -30.37
 20
    -81.13
 30
    0.00
 11
    -28.63
 21
    -82.76
 31
    0.00
  0
LINE
  8
CONTOURS_HAUTEURS
 10
    -30.37
 20
    -77.13
 30
    0.00
 11
    -28.63
 21
    -79.76
 31
    0.00
  0
TEXT
  8
STATIONS
 10
    -28.63
 20
    -80.76
 30
    0.00
 40
    0.4
  1
5.3
  0
LINE
  8
CHEMINEMENTS
 10
    -28.63
 20
    -80.76
 30
    0.00
 11
    -27.62
 21
    -82.23
 31
    0.00
  0
CIRCLE
  8
POINTS
 10
    -27.62
 20
    -82.23
 30
    0.00
 40
    0.2
  0
LINE
  8
CONTOURS_HAUTEURS
 10
    -28.63
 20
    -82.76
 30
    0.00
 11
    -27.62
 21
    -82.93
 31
    0.00
  0
LINE
  8
CONTOURS_HAUTEURS
 10
    -28.63
 20
    -79.76
 30
    0.00
 11
    -27.62
 21
    -81.73
 31
    0.00
  0
TEXT
  8
STATIONS
 10
    -27.62
 20
    -82.23
 30
    0.00
 40
    0.4
  1
5.4
  0
LINE
  8
CHEMINEMENTS
 10
    -27.62
 20
    -82.23
 30
    0.00
 11
    -25.00
 21
    -83.40
 31
    0.00
  0
CIRCLE
  8
POINTS
 10
    -25.00
 20
    -83.40
 30
    0.00
 40
    0.2
  0
LINE
  8
CONTOURS_HAUTEURS
 10
    -27.62
 20
    -82.93
 30
    0.00
 11
    -25.00
 21
    -84.60
 31
    0.00
  0
LINE
  8
CONTOURS_HAUTEURS
 10
    -27.62
 20
    -81.73
 30
    0.00
 11
    -25.00
 21
    -83.20
 31
    0.00
  0
TEXT
  8
STATIONS
 10
    -25.00
 20
    -83.40
 30
    0.00
 40
    0.4
  1
5.5
  0
LINE
  8
CHEMINEMENTS
 10
    -25.00
 20
    -83.40
 30
    0.00
 11
    -20.17
 21
    -106.36
 31
    0.00
  0
CIRCLE
  8
POINTS
 10
    -20.17
 20
    -106.36
 30
    0.00
 40
    0.2
  0
LINE
  8
CONTOURS_HAUTEURS
 10
    -25.00
 20
    -84.60
 30
    0.00
 11
    -20.17
 21
    -108.36
 31
    0.00
  0
LINE
  8
CONTOURS_HAUTEURS
 10
    -25.00
 20
    -83.20
 30
    0.00
 11
    -20.17
 21
    -104.36
 31
    0.00
  0
LINE
  8
CONTOURS_HAUTEURS
 10
    -20.17
 20
    -108.36
 30
    0.00
 11
    -20.17
 21
    -104.36
 31
    0.00
  0
TEXT
  8
STATIONS
 10
    -20.17
 20
    -106.36
 30
    0.00
 40
    0.4
  1
5.6old
  0
LINE
  8
CHEMINEMENTS
 10
    -37.85
 20
    -76.07
 30
    0.00
 11
    -33.54
 21
    -58.80
 31
    0.00
  0
CIRCLE
  8
POINTS
 10
    -33.54
 20
    -58.80
 30
    0.00
 40
    0.2
  0
LINE
  8
CONTOURS_HAUTEURS
 10
    -37.85
 20
    -76.07
 30
    0.00
 11
    -33.54
 21
    -59.80
 31
    0.00
  0
LINE
  8
CONTOURS_HAUTEURS
 10
    -37.85
 20
    -66.07
 30
    0.00
 11
    -33.54
 21
    -58.30
 31
    0.00
  0
TEXT
  8
STATIONS
 10
    -33.54
 20
    -58.80
 30
    0.00
 40
    0.4
  1
1.2
  0
LINE
  8
CHEMINEMENTS
 10
    -33.54
 20
    -58.80
 30
    0.00
 11
    -32.54
 21
    -58.80
 31
    0.00
  0
CIRCLE
  8
POINTS
 10
    -32.54
 20
    -58.80
 30
    0.00
 40
    0.2
  0
LINE
  8
CONTOURS_HAUTEURS
 10
    -33.54
 20
    -59.80
 30
    0.00
 11
    -32.54
 21
    -59.80
 31
    0.00
  0
LINE
  8
CONTOURS_HAUTEURS
 10
    -33.54
 20
    -58.30
 30
    0.00
 11
    -32.54
 21
    -58.30
 31
    0.00
  0
TEXT
  8
STATIONS
 10
    -32.54
 20
    -58.80
 30
    0.00
 40
    0.4
  1
1.3
  0
LINE
  8
CHEMINEMENTS
 10
    -32.54
 20
    -58.80
 30
    0.00
 11
    -32.00
 21
    -54.33
 31
    0.00
  0
CIRCLE
  8
POINTS
 10
    -32.00
 20
    -54.33
 30
    0.00
 40
    0.2
  0
LINE
  8
CONTOURS_HAUTEURS
 10
    -32.54
 20
    -59.80
 30
    0.00
 11
    -32.00
 21
    -55.33
 31
    0.00
  0
LINE
  8
CONTOURS_HAUTEURS
 10
    -32.54
 20
    -58.30
 30
    0.00
 11
    -32.00
 21
    -52.33
 31
    0.00
  0
TEXT
  8
STATIONS
 10
    -32.00
 20
    -54.33
 30
    0.00
 40
    0.4
  1
1.4
  0
LINE
  8
CHEMINEMENTS
 10
    -32.54
 20
    -58.80
 30
    0.00
 11
    -32.54
 21
    -58.80
 31
    0.00
  0
CIRCLE
  8
POINTS
 10
    -32.54
 20
    -58.80
 30
    0.00
 40
    0.2
  0
LINE
  8
CONTOURS_HAUTEURS
 10
    -32.54
 20
    -59.80
 30
    0.00
 11
    -32.54
 21
    -63.80
 31
    0.00
  0
LINE
  8
CONTOURS_HAUTEURS
 10
    -32.54
 20
    -58.30
 30
    0.00
 11
    -32.54
 21
    -56.80
 31
    0.00
  0
TEXT
  8
STATIONS
 10
    -32.54
 20
    -58.80
 30
    0.00
 40
    0.4
  1
6.0
  0
LINE
  8
CHEMINEMENTS
 10
    -32.54
 20
    -58.80
 30
    0.00
 11
    -30.76
 21
    -73.99
 31
    0.00
  0
CIRCLE
  8
POINTS
 10
    -30.76
 20
    -73.99
 30
    0.00
 40
    0.2
  0
LINE
  8
CONTOURS_HAUTEURS
 10
    -32.54
 20
    -63.80
 30
    0.00
 11
    -30.76
 21
    -75.99
 31
    0.00
  0
LINE
  8
CONTOURS_HAUTEURS
 10
    -32.54
 20
    -56.80
 30
    0.00
 11
    -30.76
 21
    -73.99
 31
    0.00
  0
LINE
  8
CONTOURS_HAUTEURS
 10
    -30.76
 20
    -75.99
 30
    0.00
 11
    -30.76
 21
    -73.99
 31
    0.00
  0
TEXT
  8
STATIONS
 10
    -30.76
 20
    -73.99
 30
    0.00
 40
    0.4
  1
6.1
  0
TEXT
  8
PROFONDEURS
 10
    -30.76
 20
    -73.99
 30
    0.00
 40
    0.6
  1
-74
  0
LINE
  8
CHEMINEMENTS
 10
    -32.00
 20
    -54.33
 30
    0.00
 11
    -27.51
 21
    -54.03
 31
    0.00
  0
CIRCLE
  8
POINTS
 10
    -27.51
 20
    -54.03
 30
    0.00
 40
    0.2
  0
LINE
  8
CONTOURS_HAUTEURS
 10
    -32.00
 20
    -55.33
 30
    0.00
 11
    -27.51
 21
    -55.03
 31
    0.00
  0
LINE
  8
CONTOURS_HAUTEURS
 10
    -32.00
 20
    -52.33
 30
    0.00
 11
    -27.51
 21
    -50.03
 31
    0.00
  0
TEXT
  8
STATIONS
 10
    -27.51
 20
    -54.03
 30
    0.00
 40
    0.4
  1
1.5
  0
LINE
  8
CHEMINEMENTS
 10
    -27.51
 20
    -54.03
 30
    0.00
 11
    -25.06
 21
    -48.86
 31
    0.00
  0
CIRCLE
  8
POINTS
 10
    -25.06
 20
    -48.86
 30
    0.00
 40
    0.2
  0
LINE
  8
CONTOURS_HAUTEURS
 10
    -27.51
 20
    -55.03
 30
    0.00
 11
    -25.06
 21
    -49.86
 31
    0.00
  0
LINE
  8
CONTOURS_HAUTEURS
 10
    -27.51
 20
    -50.03
 30
    0.00
 11
    -25.06
 21
    -48.86
 31
    0.00
  0
TEXT
  8
STATIONS
 10
    -25.06
 20
    -48.86
 30
    0.00
 40
    0.4
  1
1.6
  0
LINE
  8
CHEMINEMENTS
 10
    -25.06
 20
    -48.86
 30
    0.00
 11
    -23.53
 21
    -46.29
 31
    0.00
  0
CIRCLE
  8
POINTS
 10
    -23.53
 20
    -46.29
 30
    0.00
 40
    0.2
  0
LINE
  8
CONTOURS_HAUTEURS
 10
    -25.06
 20
    -49.86
 30
    0.00
 11
    -23.53
 21
    -47.09
 31
    0.00
  0
LINE
  8
CONTOURS_HAUTEURS
 10
    -25.06
 20
    -48.86
 30
    0.00
 11
    -23.53
 21
    -46.09
 31
    0.00
  0
TEXT
  8
STATIONS
 10
    -23.53
 20
    -46.29
 30
    0.00
 40
    0.4
  1
1.7
  0
LINE
  8
CHEMINEMENTS
 10
    -23.53
 20
    -46.29
 30
    0.00
 11
    -22.55
 21
    -39.16
 31
    0.00
  0
CIRCLE
  8
POINTS
 10
    -22.55
 20
    -39.16
 30
    0.00
 40
    0.2
  0
LINE
  8
CONTOURS_HAUTEURS
 10
    -23.53
 20
    -47.09
 30
    0.00
 11
    -22.55
 21
    -46.16
 31
    0.00
  0
LINE
  8
CONTOURS_HAUTEURS
 10
    -23.53
 20
    -46.09
 30
    0.00
 11
    -22.55
 21
    -32.16
 31
    0.00
  0
TEXT
  8
STATIONS
 10
    -22.55
 20
    -39.16
 30
    0.00
 40
    0.4
  1
1.8
  0
LINE
  8
CHEMINEMENTS
 10
    -22.55
 20
    -39.16
 30
    0.00
 11
    -20.71
 21
    -26.49
 31
    0.00
  0
CIRCLE
  8
POINTS
 10
    -20.71
 20
    -26.49
 30
    0.00
 40
    0.2
  0
LINE
  8
CONTOURS_HAUTEURS
 10
    -22.55
 20
    -46.16
 30
    0.00
 11
    -20.71
 21
    -29.49
 31
    0.00
  0
LINE
  8
CONTOURS_HAUTEURS
 10
    -22.55
 20
    -32.16
 30
    0.00
 11
    -20.71
 21
    -24.49
 31
    0.00
  0
TEXT
  8
STATIONS
 10
    -20.71
 20
    -26.49
 30
    0.00
 40
    0.4
  1
1.9
  0
LINE
  8
CHEMINEMENTS
 10
    -20.71
 20
    -26.49
 30
    0.00
 11
    -18.71
 21
    -26.66
 31
    0.00
  0
CIRCLE
  8
POINTS
 10
    -18.71
 20
    -26.66
 30
    0.00
 40
    0.2
  0
LINE
  8
CONTOURS_HAUTEURS
 10
    -20.71
 20
    -29.49
 30
    0.00
 11
    -18.71
 21
    -27.66
 31
    0.00
  0
LINE
  8
CONTOURS_HAUTEURS
 10
    -20.71
 20
    -24.49
 30
    0.00
 11
    -18.71
 21
    -20.66
 31
    0.00
  0
TEXT
  8
STATIONS
 10
    -18.71
 20
    -26.66
 30
    0.00
 40
    0.4
  1
1.10
  0
LINE
  8
CHEMINEMENTS
 10
    -18.71
 20
    -26.66
 30
    0.00
 11
    -16.10
 21
    -6.54
 31
    0.00
  0
CIRCLE
  8
POINTS
 10
    -16.10
 20
    -6.54
 30
    0.00
 40
    0.2
  0
LINE
  8
CONTOURS_HAUTEURS
 10
    -18.71
 20
    -27.66
 30
    0.00
 11
    -16.10
 21
    -11.54
 31
    0.00
  0
LINE
  8
CONTOURS_HAUTEURS
 10
    -18.71
 20
    -20.66
 30
    0.00
 11
    -16.10
 21
    -5.54
 31
    0.00
  0
TEXT
  8
STATIONS
 10
    -16.10
 20
    -6.54
 30
    0.00
 40
    0.4
  1
1.11
  0
LINE
  8
CHEMINEMENTS
 10
    -16.10
 20
    -6.54
 30
    0.00
 11
    -12.34
 21
    -3.96
 31
    0.00
  0
CIRCLE
  8
POINTS
 10
    -12.34
 20
    -3.96
 30
    0.00
 40
    0.2
  0
LINE
  8
CONTOURS_HAUTEURS
 10
    -16.10
 20
    -11.54
 30
    0.00
 11
    -12.34
 21
    -4.56
 31
    0.00
  0
LINE
  8
CONTOURS_HAUTEURS
 10
    -16.10
 20
    -5.54
 30
    0.00
 11
    -12.34
 21
    -3.36
 31
    0.00
  0
TEXT
  8
STATIONS
 10
    -12.34
 20
    -3.96
 30
    0.00
 40
    0.4
  1
1.12
  0
LINE
  8
CHEMINEMENTS
 10
    -12.34
 20
    -3.96
 30
    0.00
 11
    -0.63
 21
    -1.84
 31
    0.00
  0
CIRCLE
  8
POINTS
 10
    -0.63
 20
    -1.84
 30
    0.00
 40
    0.2
  0
LINE
  8
CONTOURS_HAUTEURS
 10
    -12.34
 20
    -4.56
 30
    0.00
 11
    -0.63
 21
    -2.84
 31
    0.00
  0
LINE
  8
CONTOURS_HAUTEURS
 10
    -12.34
 20
    -3.36
 30
    0.00
 11
    -0.63
 21
    -1.64
 31
    0.00
  0
TEXT
  8
STATIONS
 10
    -0.63
 20
    -1.84
 30
    0.00
 40
    0.4
  1
1.13
  0
LINE
  8
CHEMINEMENTS
 10
    -0.63
 20
    -1.84
 30
    0.00
 11
    0.00
 21
    0.00
 31
    0.00
  0
CIRCLE
  8
POINTS
 10
    0.00
 20
    0.00
 30
    0.00
 40
    0.2
  0
LINE
  8
CONTOURS_HAUTEURS
 10
    -0.63
 20
    -2.84
 30
    0.00
 11
    0.00
 21
    -3.00
 31
    0.00
  0
LINE
  8
CONTOURS_HAUTEURS
 10
    -0.63
 20
    -1.64
 30
    0.00
 11
    0.00
 21
    0.20
 31
    0.00
  0
LINE
  8
CONTOURS_HAUTEURS
 10
    0.00
 20
    -3.00
 30
    0.00
 11
    0.00
 21
    0.20
 31
    0.00
  0
TEXT
  8
STATIONS
 10
    0.00
 20
    0.00
 30
    0.00
 40
    0.4
  1
Z_510
  0
TEXT
  8
PROFONDEURS
 10
    0.00
 20
    0.00
 30
    0.00
 40
    0.6
  1
+0
  0
LINE
  8
CHEMINEMENTS
 10
    -12.34
 20
    -3.96
 30
    0.00
 11
    -12.34
 21
    -3.96
 31
    0.00
  0
CIRCLE
  8
POINTS
 10
    -12.34
 20
    -3.96
 30
    0.00
 40
    0.2
  0
LINE
  8
CONTOURS_HAUTEURS
 10
    -12.34
 20
    -4.56
 30
    0.00
 11
    -12.34
 21
    -5.96
 31
    0.00
  0
LINE
  8
CONTOURS_HAUTEURS
 10
    -12.34
 20
    -3.36
 30
    0.00
 11
    -12.34
 21
    -3.36
 31
    0.00
  0
TEXT
  8
STATIONS
 10
    -12.34
 20
    -3.96
 30
    0.00
 40
    0.4
  1
7.0
  0
LINE
  8
CHEMINEMENTS
 10
    -12.34
 20
    -3.96
 30
    0.00
 11
    -8.59
 21
    -3.30
 31
    0.00
  0
CIRCLE
  8
POINTS
 10
    -8.59
 20
    -3.30
 30
    0.00
 40
    0.2
  0
LINE
  8
CONTOURS_HAUTEURS
 10
    -12.34
 20
    -5.96
 30
    0.00
 11
    -8.59
 21
    -5.30
 31
    0.00
  0
LINE
  8
CONTOURS_HAUTEURS
 10
    -12.34
 20
    -3.36
 30
    0.00
 11
    -8.59
 21
    -2.70
 31
    0.00
  0
TEXT
  8
STATIONS
 10
    -8.59
 20
    -3.30
 30
    0.00
 40
    0.4
  1
7.1
  0
LINE
  8
CHEMINEMENTS
 10
    -8.59
 20
    -3.30
 30
    0.00
 11
    -7.74
 21
    -8.84
 31
    0.00
  0
CIRCLE
  8
POINTS
 10
    -7.74
 20
    -8.84
 30
    0.00
 40
    0.2
  0
LINE
  8
CONTOURS_HAUTEURS
 10
    -8.59
 20
    -5.30
 30
    0.00
 11
    -7.74
 21
    -8.84
 31
    0.00
  0
LINE
  8
CONTOURS_HAUTEURS
 10
    -8.59
 20
    -2.70
 30
    0.00
 11
    -7.74
 21
    -4.84
 31
    0.00
  0
LINE
  8
CONTOURS_HAUTEURS
 10
    -7.74
 20
    -8.84
 30
    0.00
 11
    -7.74
 21
    -4.84
 31
    0.00
  0
TEXT
  8
STATIONS
 10
    -7.74
 20
    -8.84
 30
    0.00
 40
    0.4
  1
7.2
  0
LINE
  8
CHEMINEMENTS
 10
    -8.59
 20
    -3.30
 30
    0.00
 11
    -8.59
 21
    -3.30
 31
    0.00
  0
CIRCLE
  8
POINTS
 10
    -8.59
 20
    -3.30
 30
    0.00
 40
    0.2
  0
LINE
  8
CONTOURS_HAUTEURS
 10
    -8.59
 20
    -5.30
 30
    0.00
 11
    -8.59
 21
    -5.30
 31
    0.00
  0
LINE
  8
CONTOURS_HAUTEURS
 10
    -8.59
 20
    -2.70
 30
    0.00
 11
    -8.59
 21
    -2.70
 31
    0.00
  0
TEXT
  8
STATIONS
 10
    -8.59
 20
    -3.30
 30
    0.00
 40
    0.4
  1
8.0
  0
LINE
  8
CHEMINEMENTS
 10
    -8.59
 20
    -3.30
 30
    0.00
 11
    -4.06
 21
    -2.50
 31
    0.00
  0
CIRCLE
  8
POINTS
 10
    -4.06
 20
    -2.50
 30
    0.00
 40
    0.2
  0
LINE
  8
CONTOURS_HAUTEURS
 10
    -8.59
 20
    -5.30
 30
    0.00
 11
    -4.06
 21
    -4.50
 31
    0.00
  0
LINE
  8
CONTOURS_HAUTEURS
 10
    -8.59
 20
    -2.70
 30
    0.00
 11
    -4.06
 21
    -1.90
 31
    0.00
  0
TEXT
  8
STATIONS
 10
    -4.06
 20
    -2.50
 30
    0.00
 40
    0.4
  1
8.1
  0
LINE
  8
CHEMINEMENTS
 10
    -4.06
 20
    -2.50
 30
    0.00
 11
    -0.06
 21
    -11.24
 31
    0.00
  0
CIRCLE
  8
POINTS
 10
    -0.06
 20
    -11.24
 30
    0.00
 40
    0.2
  0
LINE
  8
CONTOURS_HAUTEURS
 10
    -4.06
 20
    -4.50
 30
    0.00
 11
    -0.06
 21
    -11.24
 31
    0.00
  0
LINE
  8
CONTOURS_HAUTEURS
 10
    -4.06
 20
    -1.90
 30
    0.00
 11
    -0.06
 21
    -5.24
 31
    0.00
  0
LINE
  8
CONTOURS_HAUTEURS
 10
    -0.06
 20
    -11.24
 30
    0.00
 11
    -0.06
 21
    -5.24
 31
    0.00
  0
TEXT
  8
STATIONS
 10
    -0.06
 20
    -11.24
 30
    0.00
 40
    0.4
  1
8.2
  0
TEXT
  8
PROFONDEURS
 10
    -0.06
 20
    -11.24
 30
    0.00
 40
    0.6
  1
-11
  0
LINE
  8
CHEMINEMENTS
 10
    -25.00
 20
    -83.40
 30
    0.00
 11
    -25.00
 21
    -83.40
 31
    0.00
  0
CIRCLE
  8
POINTS
 10
    -25.00
 20
    -83.40
 30
    0.00
 40
    0.2
  0
LINE
  8
CONTOURS_HAUTEURS
 10
    -25.00
 20
    -84.60
 30
    0.00
 11
    -25.00
 21
    -84.50
 31
    0.00
  0
LINE
  8
CONTOURS_HAUTEURS
 10
    -25.00
 20
    -83.20
 30
    0.00
 11
    -25.00
 21
    -82.80
 31
    0.00
  0
TEXT
  8
STATIONS
 10
    -25.00
 20
    -83.40
 30
    0.00
 40
    0.4
  1
9.0
  0
LINE
  8
CHEMINEMENTS
 10
    -25.00
 20
    -83.40
 30
    0.00
 11
    -25.00
 21
    -84.20
 31
    0.00
  0
CIRCLE
  8
POINTS
 10
    -25.00
 20
    -84.20
 30
    0.00
 40
    0.2
  0
LINE
  8
CONTOURS_HAUTEURS
 10
    -25.00
 20
    -84.50
 30
    0.00
 11
    -25.00
 21
    -84.45
 31
    0.00
  0
LINE
  8
CONTOURS_HAUTEURS
 10
    -25.00
 20
    -82.80
 30
    0.00
 11
    -25.00
 21
    -83.40
 31
    0.00
  0
TEXT
  8
STATIONS
 10
    -25.00
 20
    -84.20
 30
    0.00
 40
    0.4
  1
9.1
  0
LINE
  8
CHEMINEMENTS
 10
    -25.00
 20
    -84.20
 30
    0.00
 11
    -22.44
 21
    -81.73
 31
    0.00
  0
CIRCLE
  8
POINTS
 10
    -22.44
 20
    -81.73
 30
    0.00
 40
    0.2
  0
LINE
  8
CONTOURS_HAUTEURS
 10
    -25.00
 20
    -84.45
 30
    0.00
 11
    -22.44
 21
    -83.23
 31
    0.00
  0
LINE
  8
CONTOURS_HAUTEURS
 10
    -25.00
 20
    -83.40
 30
    0.00
 11
    -22.44
 21
    -80.33
 31
    0.00
  0
TEXT
  8
STATIONS
 10
    -22.44
 20
    -81.73
 30
    0.00
 40
    0.4
  1
9.2
  0
LINE
  8
CHEMINEMENTS
 10
    -22.44
 20
    -81.73
 30
    0.00
 11
    -20.00
 21
    -79.75
 31
    0.00
  0
CIRCLE
  8
POINTS
 10
    -20.00
 20
    -79.75
 30
    0.00
 40
    0.2
  0
LINE
  8
CONTOURS_HAUTEURS
 10
    -22.44
 20
    -83.23
 30
    0.00
 11
    -20.00
 21
    -80.89
 31
    0.00
  0
LINE
  8
CONTOURS_HAUTEURS
 10
    -22.44
 20
    -80.33
 30
    0.00
 11
    -20.00
 21
    -78.25
 31
    0.00
  0
TEXT
  8
STATIONS
 10
    -20.00
 20
    -79.75
 30
    0.00
 40
    0.4
  1
9.3
  0
LINE
  8
CHEMINEMENTS
 10
    -20.00
 20
    -79.75
 30
    0.00
 11
    -14.74
 21
    -76.95
 31
    0.00
  0
CIRCLE
  8
POINTS
 10
    -14.74
 20
    -76.95
 30
    0.00
 40
    0.2
  0
LINE
  8
CONTOURS_HAUTEURS
 10
    -20.00
 20
    -80.89
 30
    0.00
 11
    -14.74
 21
    -78.05
 31
    0.00
  0
LINE
  8
CONTOURS_HAUTEURS
 10
    -20.00
 20
    -78.25
 30
    0.00
 11
    -14.74
 21
    -75.66
 31
    0.00
  0
TEXT
  8
STATIONS
 10
    -14.74
 20
    -76.95
 30
    0.00
 40
    0.4
  1
9.4
  0
LINE
  8
CHEMINEMENTS
 10
    -14.74
 20
    -76.95
 30
    0.00
 11
    -11.33
 21
    -76.35
 31
    0.00
  0
CIRCLE
  8
POINTS
 10
    -11.33
 20
    -76.35
 30
    0.00
 40
    0.2
  0
LINE
  8
CONTOURS_HAUTEURS
 10
    -14.74
 20
    -78.05
 30
    0.00
 11
    -11.33
 21
    -78.35
 31
    0.00
  0
LINE
  8
CONTOURS_HAUTEURS
 10
    -14.74
 20
    -75.66
 30
    0.00
 11
    -11.33
 21
    -72.75
 31
    0.00
  0
TEXT
  8
STATIONS
 10
    -11.33
 20
    -76.35
 30
    0.00
 40
    0.4
  1
9.5
  0
LINE
  8
CHEMINEMENTS
 10
    -11.33
 20
    -76.35
 30
    0.00
 11
    -4.16
 21
    -67.16
 31
    0.00
  0
CIRCLE
  8
POINTS
 10
    -4.16
 20
    -67.16
 30
    0.00
 40
    0.2
  0
LINE
  8
CONTOURS_HAUTEURS
 10
    -11.33
 20
    -78.35
 30
    0.00
 11
    -4.16
 21
    -77.16
 31
    0.00
  0
LINE
  8
CONTOURS_HAUTEURS
 10
    -11.33
 20
    -72.75
 30
    0.00
 11
    -4.16
 21
    -67.16
 31
    0.00
  0
LINE
  8
CONTOURS_HAUTEURS
 10
    -4.16
 20
    -77.16
 30
    0.00
 11
    -4.16
 21
    -67.16
 31
    0.00
  0
TEXT
  8
STATIONS
 10
    -4.16
 20
    -67.16
 30
    0.00
 40
    0.4
  1
9.6
  0
TEXT
  8
PROFONDEURS
 10
    -4.16
 20
    -67.16
 30
    0.00
 40
    0.6
  1
-67
  0
LINE
  8
CHEMINEMENTS
 10
    -25.00
 20
    -83.40
 30
    0.00
 11
    -21.90
 21
    -87.38
 31
    0.00
  0
CIRCLE
  8
POINTS
 10
    -21.90
 20
    -87.38
 30
    0.00
 40
    0.2
  0
LINE
  8
CONTOURS_HAUTEURS
 10
    -25.00
 20
    -84.60
 30
    0.00
 11
    -21.90
 21
    -87.68
 31
    0.00
  0
LINE
  8
CONTOURS_HAUTEURS
 10
    -25.00
 20
    -83.20
 30
    0.00
 11
    -21.90
 21
    -85.82
 31
    0.00
  0
TEXT
  8
STATIONS
 10
    -21.90
 20
    -87.38
 30
    0.00
 40
    0.4
  1
5.6
  0
LINE
  8
CHEMINEMENTS
 10
    -21.90
 20
    -87.38
 30
    0.00
 11
    -18.77
 21
    -102.10
 31
    0.00
  0
CIRCLE
  8
POINTS
 10
    -18.77
 20
    -102.10
 30
    0.00
 40
    0.2
  0
LINE
  8
CONTOURS_HAUTEURS
 10
    -21.90
 20
    -87.68
 30
    0.00
 11
    -18.77
 21
    -105.24
 31
    0.00
  0
LINE
  8
CONTOURS_HAUTEURS
 10
    -21.90
 20
    -85.82
 30
    0.00
 11
    -18.77
 21
    -87.10
 31
    0.00
  0
TEXT
  8
STATIONS
 10
    -18.77
 20
    -102.10
 30
    0.00
 40
    0.4
  1
5.7
  0
LINE
  8
CHEMINEMENTS
 10
    -18.77
 20
    -102.10
 30
    0.00
 11
    -14.09
 21
    -104.18
 31
    0.00
  0
CIRCLE
  8
POINTS
 10
    -14.09
 20
    -104.18
 30
    0.00
 40
    0.2
  0
LINE
  8
CONTOURS_HAUTEURS
 10
    -18.77
 20
    -105.24
 30
    0.00
 11
    -14.09
 21
    -119.18
 31
    0.00
  0
LINE
  8
CONTOURS_HAUTEURS
 10
    -18.77
 20
    -87.10
 30
    0.00
 11
    -14.09
 21
    -97.78
 31
    0.00
  0
TEXT
  8
STATIONS
 10
    -14.09
 20
    -104.18
 30
    0.00
 40
    0.4
  1
5.8
  0
LINE
  8
CHEMINEMENTS
 10
    -14.09
 20
    -104.18
 30
    0.00
 11
    -12.01
 21
    -118.96
 31
    0.00
  0
CIRCLE
  8
POINTS
 10
    -12.01
 20
    -118.96
 30
    0.00
 40
    0.2
  0
LINE
  8
CONTOURS_HAUTEURS
 10
    -14.09
 20
    -119.18
 30
    0.00
 11
    -12.01
 21
    -123.96
 31
    0.00
  0
LINE
  8
CONTOURS_HAUTEURS
 10
    -14.09
 20
    -97.78
 30
    0.00
 11
    -12.01
 21
    -108.96
 31
    0.00
  0
TEXT
  8
STATIONS
 10
    -12.01
 20
    -118.96
 30
    0.00
 40
    0.4
  1
5.9
  0
LINE
  8
CHEMINEMENTS
 10
    -12.01
 20
    -118.96
 30
    0.00
 11
    -9.69
 21
    -124.17
 31
    0.00
  0
CIRCLE
  8
POINTS
 10
    -9.69
 20
    -124.17
 30
    0.00
 40
    0.2
  0
LINE
  8
CONTOURS_HAUTEURS
 10
    -12.01
 20
    -123.96
 30
    0.00
 11
    -9.69
 21
    -125.21
 31
    0.00
  0
LINE
  8
CONTOURS_HAUTEURS
 10
    -12.01
 20
    -108.96
 30
    0.00
 11
    -9.69
 21
    -124.01
 31
    0.00
  0
TEXT
  8
STATIONS
 10
    -9.69
 20
    -124.17
 30
    0.00
 40
    0.4
  1
5.10
  0
LINE
  8
CHEMINEMENTS
 10
    -9.69
 20
    -124.17
 30
    0.00
 11
    -6.48
 21
    -129.73
 31
    0.00
  0
CIRCLE
  8
POINTS
 10
    -6.48
 20
    -129.73
 30
    0.00
 40
    0.2
  0
LINE
  8
CONTOURS_HAUTEURS
 10
    -9.69
 20
    -125.21
 30
    0.00
 11
    -6.48
 21
    -130.93
 31
    0.00
  0
LINE
  8
CONTOURS_HAUTEURS
 10
    -9.69
 20
    -124.01
 30
    0.00
 11
    -6.48
 21
    -128.23
 31
    0.00
  0
TEXT
  8
STATIONS
 10
    -6.48
 20
    -129.73
 30
    0.00
 40
    0.4
  1
5.11
  0
LINE
  8
CHEMINEMENTS
 10
    -6.48
 20
    -129.73
 30
    0.00
 11
    -4.65
 21
    -131.92
 31
    0.00
  0
CIRCLE
  8
POINTS
 10
    -4.65
 20
    -131.92
 30
    0.00
 40
    0.2
  0
LINE
  8
CONTOURS_HAUTEURS
 10
    -6.48
 20
    -130.93
 30
    0.00
 11
    -4.65
 21
    -131.92
 31
    0.00
  0
LINE
  8
CONTOURS_HAUTEURS
 10
    -6.48
 20
    -128.23
 30
    0.00
 11
    -4.65
 21
    -129.92
 31
    0.00
  0
TEXT
  8
STATIONS
 10
    -4.65
 20
    -131.92
 30
    0.00
 40
    0.4
  1
5.12
  0
LINE
  8
CHEMINEMENTS
 10
    -4.65
 20
    -131.92
 30
    0.00
 11
    -3.10
 21
    -135.74
 31
    0.00
  0
CIRCLE
  8
POINTS
 10
    -3.10
 20
    -135.74
 30
    0.00
 40
    0.2
  0
LINE
  8
CONTOURS_HAUTEURS
 10
    -4.65
 20
    -131.92
 30
    0.00
 11
    -3.10
 21
    -143.74
 31
    0.00
  0
LINE
  8
CONTOURS_HAUTEURS
 10
    -4.65
 20
    -129.92
 30
    0.00
 11
    -3.10
 21
    -131.04
 31
    0.00
  0
TEXT
  8
STATIONS
 10
    -3.10
 20
    -135.74
 30
    0.00
 40
    0.4
  1
5.13
  0
LINE
  8
CHEMINEMENTS
 10
    -3.10
 20
    -135.74
 30
    0.00
 11
    0.93
 21
    -143.31
 31
    0.00
  0
CIRCLE
  8
POINTS
 10
    0.93
 20
    -143.31
 30
    0.00
 40
    0.2
  0
LINE
  8
CONTOURS_HAUTEURS
 10
    -3.10
 20
    -143.74
 30
    0.00
 11
    0.93
 21
    -146.31
 31
    0.00
  0
LINE
  8
CONTOURS_HAUTEURS
 10
    -3.10
 20
    -131.04
 30
    0.00
 11
    0.93
 21
    -135.31
 31
    0.00
  0
TEXT
  8
STATIONS
 10
    0.93
 20
    -143.31
 30
    0.00
 40
    0.4
  1
5.14
  0
LINE
  8
CHEMINEMENTS
 10
    0.93
 20
    -143.31
 30
    0.00
 11
    3.24
 21
    -145.47
 31
    0.00
  0
CIRCLE
  8
POINTS
 10
    3.24
 20
    -145.47
 30
    0.00
 40
    0.2
  0
LINE
  8
CONTOURS_HAUTEURS
 10
    0.93
 20
    -146.31
 30
    0.00
 11
    3.24
 21
    -145.77
 31
    0.00
  0
LINE
  8
CONTOURS_HAUTEURS
 10
    0.93
 20
    -135.31
 30
    0.00
 11
    3.24
 21
    -144.47
 31
    0.00
  0
TEXT
  8
STATIONS
 10
    3.24
 20
    -145.47
 30
    0.00
 40
    0.4
  1
5.15
  0
LINE
  8
CHEMINEMENTS
 10
    3.24
 20
    -145.47
 30
    0.00
 11
    6.24
 21
    -150.67
 31
    0.00
  0
CIRCLE
  8
POINTS
 10
    6.24
 20
    -150.67
 30
    0.00
 40
    0.2
  0
LINE
  8
CONTOURS_HAUTEURS
 10
    3.24
 20
    -145.77
 30
    0.00
 11
    6.24
 21
    -150.67
 31
    0.00
  0
LINE
  8
CONTOURS_HAUTEURS
 10
    3.24
 20
    -144.47
 30
    0.00
 11
    6.24
 21
    -150.07
 31
    0.00
  0
TEXT
  8
STATIONS
 10
    6.24
 20
    -150.67
 30
    0.00
 40
    0.4
  1
5.16
  0
LINE
  8
CHEMINEMENTS
 10
    6.24
 20
    -150.67
 30
    0.00
 11
    7.31
 21
    -158.29
 31
    0.00
  0
CIRCLE
  8
POINTS
 10
    7.31
 20
    -158.29
 30
    0.00
 40
    0.2
  0
LINE
  8
CONTOURS_HAUTEURS
 10
    6.24
 20
    -150.67
 30
    0.00
 11
    7.31
 21
    -159.89
 31
    0.00
  0
LINE
  8
CONTOURS_HAUTEURS
 10
    6.24
 20
    -150.07
 30
    0.00
 11
    7.31
 21
    -151.29
 31
    0.00
  0
TEXT
  8
STATIONS
 10
    7.31
 20
    -158.29
 30
    0.00
 40
    0.4
  1
5.17
  0
LINE
  8
CHEMINEMENTS
 10
    7.31
 20
    -158.29
 30
    0.00
 11
    8.18
 21
    -159.63
 31
    0.00
  0
CIRCLE
  8
POINTS
 10
    8.18
 20
    -159.63
 30
    0.00
 40
    0.2
  0
LINE
  8
CONTOURS_HAUTEURS
 10
    7.31
 20
    -159.89
 30
    0.00
 11
    8.18
 21
    -164.63
 31
    0.00
  0
LINE
  8
CONTOURS_HAUTEURS
 10
    7.31
 20
    -151.29
 30
    0.00
 11
    8.18
 21
    -159.13
 31
    0.00
  0
TEXT
  8
STATIONS
 10
    8.18
 20
    -159.63
 30
    0.00
 40
    0.4
  1
5.18
  0
LINE
  8
CHEMINEMENTS
 10
    8.18
 20
    -159.63
 30
    0.00
 11
    11.34
 21
    -164.49
 31
    0.00
  0
CIRCLE
  8
POINTS
 10
    11.34
 20
    -164.49
 30
    0.00
 40
    0.2
  0
LINE
  8
CONTOURS_HAUTEURS
 10
    8.18
 20
    -164.63
 30
    0.00
 11
    11.34
 21
    -172.49
 31
    0.00
  0
LINE
  8
CONTOURS_HAUTEURS
 10
    8.18
 20
    -159.13
 30
    0.00
 11
    11.34
 21
    -163.89
 31
    0.00
  0
TEXT
  8
STATIONS
 10
    11.34
 20
    -164.49
 30
    0.00
 40
    0.4
  1
5.19
  0
LINE
  8
CHEMINEMENTS
 10
    11.34
 20
    -164.49
 30
    0.00
 11
    14.72
 21
    -171.74
 31
    0.00
  0
CIRCLE
  8
POINTS
 10
    14.72
 20
    -171.74
 30
    0.00
 40
    0.2
  0
LINE
  8
CONTOURS_HAUTEURS
 10
    11.34
 20
    -172.49
 30
    0.00
 11
    14.72
 21
    -173.74
 31
    0.00
  0
LINE
  8
CONTOURS_HAUTEURS
 10
    11.34
 20
    -163.89
 30
    0.00
 11
    14.72
 21
    -163.74
 31
    0.00
  0
TEXT
  8
STATIONS
 10
    14.72
 20
    -171.74
 30
    0.00
 40
    0.4
  1
5.20
  0
LINE
  8
CHEMINEMENTS
 10
    14.72
 20
    -171.74
 30
    0.00
 11
    16.29
 21
    -173.16
 31
    0.00
  0
CIRCLE
  8
POINTS
 10
    16.29
 20
    -173.16
 30
    0.00
 40
    0.2
  0
LINE
  8
CONTOURS_HAUTEURS
 10
    14.72
 20
    -173.74
 30
    0.00
 11
    16.29
 21
    -173.66
 31
    0.00
  0
LINE
  8
CONTOURS_HAUTEURS
 10
    14.72
 20
    -163.74
 30
    0.00
 11
    16.29
 21
    -165.16
 31
    0.00
  0
TEXT
  8
STATIONS
 10
    16.29
 20
    -173.16
 30
    0.00
 40
    0.4
  1
5.21
  0
LINE
  8
CHEMINEMENTS
 10
    16.29
 20
    -173.16
 30
    0.00
 11
    18.84
 21
    -174.75
 31
    0.00
  0
CIRCLE
  8
POINTS
 10
    18.84
 20
    -174.75
 30
    0.00
 40
    0.2
  0
LINE
  8
CONTOURS_HAUTEURS
 10
    16.29
 20
    -173.66
 30
    0.00
 11
    18.84
 21
    -174.75
 31
    0.00
  0
LINE
  8
CONTOURS_HAUTEURS
 10
    16.29
 20
    -165.16
 30
    0.00
 11
    18.84
 21
    -173.55
 31
    0.00
  0
LINE
  8
CONTOURS_HAUTEURS
 10
    18.84
 20
    -174.75
 30
    0.00
 11
    18.84
 21
    -173.55
 31
    0.00
  0
TEXT
  8
STATIONS
 10
    18.84
 20
    -174.75
 30
    0.00
 40
    0.4
  1
5.22
  0
LINE
  8
CHEMINEMENTS
 10
    -9.69
 20
    -124.17
 30
    0.00
 11
    -9.69
 21
    -124.17
 31
    0.00
  0
CIRCLE
  8
POINTS
 10
    -9.69
 20
    -124.17
 30
    0.00
 40
    0.2
  0
LINE
  8
CONTOURS_HAUTEURS
 10
    -9.69
 20
    -125.21
 30
    0.00
 11
    -9.69
 21
    -128.35
 31
    0.00
  0
LINE
  8
CONTOURS_HAUTEURS
 10
    -9.69
 20
    -124.01
 30
    0.00
 11
    -9.69
 21
    -119.53
 31
    0.00
  0
TEXT
  8
STATIONS
 10
    -9.69
 20
    -124.17
 30
    0.00
 40
    0.4
  1
00
  0
LINE
  8
RADIALES
 10
    -9.69
 20
    -124.17
 30
    0.00
 11
    -11.01
 21
    -124.09
 31
    0.00
  0
LINE
  8
RADIALES
 10
    -9.69
 20
    -124.17
 30
    0.00
 11
    -8.85
 21
    -124.07
 31
    0.00
  0
LINE
  8
RADIALES
 10
    -9.69
 20
    -124.17
 30
    0.00
 11
    -9.17
 21
    -119.52
 31
    0.00
  0
LINE
  8
RADIALES
 10
    -9.69
 20
    -124.17
 30
    0.00
 11
    -8.28
 21
    -128.34
 31
    0.00
  0
LINE
  8
CHEMINEMENTS
 10
    -9.69
 20
    -124.17
 30
    0.00
 11
    -6.58
 21
    -124.37
 31
    0.00
  0
CIRCLE
  8
POINTS
 10
    -6.58
 20
    -124.37
 30
    0.00
 40
    0.2
  0
LINE
  8
CONTOURS_HAUTEURS
 10
    -9.69
 20
    -128.35
 30
    0.00
 11
    -6.58
 21
    -126.40
 31
    0.00
  0
LINE
  8
CONTOURS_HAUTEURS
 10
    -9.69
 20
    -119.53
 30
    0.00
 11
    -6.58
 21
    -122.97
 31
    0.00
  0
TEXT
  8
STATIONS
 10
    -6.58
 20
    -124.37
 30
    0.00
 40
    0.4
  1
10.1
  0
LINE
  8
RADIALES
 10
    -6.58
 20
    -124.37
 30
    0.00
 11
    -6.17
 21
    -124.34
 31
    0.00
  0
LINE
  8
RADIALES
 10
    -6.58
 20
    -124.37
 30
    0.00
 11
    -6.37
 21
    -124.37
 31
    0.00
  0
LINE
  8
RADIALES
 10
    -6.58
 20
    -124.37
 30
    0.00
 11
    -6.52
 21
    -122.97
 31
    0.00
  0
LINE
  8
RADIALES
 10
    -6.58
 20
    -124.37
 30
    0.00
 11
    -6.23
 21
    -126.40
 31
    0.00
  0
LINE
  8
CHEMINEMENTS
 10
    -6.58
 20
    -124.37
 30
    0.00
 11
    -5.06
 21
    -125.57
 31
    0.00
  0
CIRCLE
  8
POINTS
 10
    -5.06
 20
    -125.57
 30
    0.00
 40
    0.2
  0
LINE
  8
CONTOURS_HAUTEURS
 10
    -6.58
 20
    -126.40
 30
    0.00
 11
    -5.06
 21
    -127.76
 31
    0.00
  0
LINE
  8
CONTOURS_HAUTEURS
 10
    -6.58
 20
    -122.97
 30
    0.00
 11
    -5.06
 21
    -124.61
 31
    0.00
  0
TEXT
  8
STATIONS
 10
    -5.06
 20
    -125.57
 30
    0.00
 40
    0.4
  1
10.2
  0
LINE
  8
RADIALES
 10
    -5.06
 20
    -125.57
 30
    0.00
 11
    -5.36
 21
    -125.58
 31
    0.00
  0
LINE
  8
RADIALES
 10
    -5.06
 20
    -125.57
 30
    0.00
 11
    -5.31
 21
    -125.62
 31
    0.00
  0
LINE
  8
RADIALES
 10
    -5.06
 20
    -125.57
 30
    0.00
 11
    -4.88
 21
    -124.61
 31
    0.00
  0
LINE
  8
RADIALES
 10
    -5.06
 20
    -125.57
 30
    0.00
 11
    -5.23
 21
    -127.77
 31
    0.00
  0
LINE
  8
CHEMINEMENTS
 10
    -5.06
 20
    -125.57
 30
    0.00
 11
    -3.39
 21
    -126.74
 31
    0.00
  0
CIRCLE
  8
POINTS
 10
    -3.39
 20
    -126.74
 30
    0.00
 40
    0.2
  0
LINE
  8
CONTOURS_HAUTEURS
 10
    -5.06
 20
    -127.76
 30
    0.00
 11
    -3.39
 21
    -127.96
 31
    0.00
  0
LINE
  8
CONTOURS_HAUTEURS
 10
    -5.06
 20
    -124.61
 30
    0.00
 11
    -3.39
 21
    -125.03
 31
    0.00
  0
TEXT
  8
STATIONS
 10
    -3.39
 20
    -126.74
 30
    0.00
 40
    0.4
  1
10.3
  0
LINE
  8
RADIALES
 10
    -3.39
 20
    -126.74
 30
    0.00
 11
    -3.77
 21
    -126.76
 31
    0.00
  0
LINE
  8
RADIALES
 10
    -3.39
 20
    -126.74
 30
    0.00
 11
    -3.05
 21
    -126.78
 31
    0.00
  0
LINE
  8
RADIALES
 10
    -3.39
 20
    -126.74
 30
    0.00
 11
    -3.29
 21
    -125.03
 31
    0.00
  0
LINE
  8
RADIALES
 10
    -3.39
 20
    -126.74
 30
    0.00
 11
    -3.44
 21
    -127.95
 31
    0.00
  0
LINE
  8
CHEMINEMENTS
 10
    -3.39
 20
    -126.74
 30
    0.00
 11
    -1.55
 21
    -129.30
 31
    0.00
  0
CIRCLE
  8
POINTS
 10
    -1.55
 20
    -129.30
 30
    0.00
 40
    0.2
  0
LINE
  8
CONTOURS_HAUTEURS
 10
    -3.39
 20
    -127.96
 30
    0.00
 11
    -1.55
 21
    -130.76
 31
    0.00
  0
LINE
  8
CONTOURS_HAUTEURS
 10
    -3.39
 20
    -125.03
 30
    0.00
 11
    -1.55
 21
    -125.93
 31
    0.00
  0
TEXT
  8
STATIONS
 10
    -1.55
 20
    -129.30
 30
    0.00
 40
    0.4
  1
10.4
  0
LINE
  8
RADIALES
 10
    -1.55
 20
    -129.30
 30
    0.00
 11
    -1.23
 21
    -129.22
 31
    0.00
  0
LINE
  8
RADIALES
 10
    -1.55
 20
    -129.30
 30
    0.00
 11
    -2.57
 21
    -129.23
 31
    0.00
  0
LINE
  8
RADIALES
 10
    -1.55
 20
    -129.30
 30
    0.00
 11
    -2.04
 21
    -125.92
 31
    0.00
  0
LINE
  8
RADIALES
 10
    -1.55
 20
    -129.30
 30
    0.00
 11
    -1.20
 21
    -130.76
 31
    0.00
  0
LINE
  8
CHEMINEMENTS
 10
    -1.55
 20
    -129.30
 30
    0.00
 11
    6.28
 21
    -140.78
 31
    0.00
  0
CIRCLE
  8
POINTS
 10
    6.28
 20
    -140.78
 30
    0.00
 40
    0.2
  0
LINE
  8
CONTOURS_HAUTEURS
 10
    -1.55
 20
    -130.76
 30
    0.00
 11
    6.28
 21
    -142.07
 31
    0.00
  0
LINE
  8
CONTOURS_HAUTEURS
 10
    -1.55
 20
    -125.93
 30
    0.00
 11
    6.28
 21
    -139.34
 31
    0.00
  0
TEXT
  8
STATIONS
 10
    6.28
 20
    -140.78
 30
    0.00
 40
    0.4
  1
10.5
  0
LINE
  8
RADIALES
 10
    6.28
 20
    -140.78
 30
    0.00
 11
    6.69
 21
    -140.75
 31
    0.00
  0
LINE
  8
RADIALES
 10
    6.28
 20
    -140.78
 30
    0.00
 11
    5.91
 21
    -140.82
 31
    0.00
  0
LINE
  8
RADIALES
 10
    6.28
 20
    -140.78
 30
    0.00
 11
    5.88
 21
    -139.34
 31
    0.00
  0
LINE
  8
RADIALES
 10
    6.28
 20
    -140.78
 30
    0.00
 11
    6.28
 21
    -142.07
 31
    0.00
  0
LINE
  8
CHEMINEMENTS
 10
    6.28
 20
    -140.78
 30
    0.00
 11
    9.78
 21
    -145.41
 31
    0.00
  0
CIRCLE
  8
POINTS
 10
    9.78
 20
    -145.41
 30
    0.00
 40
    0.2
  0
LINE
  8
CONTOURS_HAUTEURS
 10
    6.28
 20
    -142.07
 30
    0.00
 11
    9.78
 21
    -146.75
 31
    0.00
  0
LINE
  8
CONTOURS_HAUTEURS
 10
    6.28
 20
    -139.34
 30
    0.00
 11
    9.78
 21
    -142.34
 31
    0.00
  0
TEXT
  8
STATIONS
 10
    9.78
 20
    -145.41
 30
    0.00
 40
    0.4
  1
10.6
  0
LINE
  8
RADIALES
 10
    9.78
 20
    -145.41
 30
    0.00
 11
    10.51
 21
    -145.37
 31
    0.00
  0
LINE
  8
RADIALES
 10
    9.78
 20
    -145.41
 30
    0.00
 11
    7.88
 21
    -145.32
 31
    0.00
  0
LINE
  8
RADIALES
 10
    9.78
 20
    -145.41
 30
    0.00
 11
    8.17
 21
    -142.33
 31
    0.00
  0
LINE
  8
RADIALES
 10
    9.78
 20
    -145.41
 30
    0.00
 11
    9.74
 21
    -146.75
 31
    0.00
  0
LINE
  8
CHEMINEMENTS
 10
    9.78
 20
    -145.41
 30
    0.00
 11
    14.23
 21
    -152.05
 31
    0.00
  0
CIRCLE
  8
POINTS
 10
    14.23
 20
    -152.05
 30
    0.00
 40
    0.2
  0
LINE
  8
CONTOURS_HAUTEURS
 10
    9.78
 20
    -146.75
 30
    0.00
 11
    14.23
 21
    -153.41
 31
    0.00
  0
LINE
  8
CONTOURS_HAUTEURS
 10
    9.78
 20
    -142.34
 30
    0.00
 11
    14.23
 21
    -150.59
 31
    0.00
  0
TEXT
  8
STATIONS
 10
    14.23
 20
    -152.05
 30
    0.00
 40
    0.4
  1
10.7
  0
LINE
  8
RADIALES
 10
    14.23
 20
    -152.05
 30
    0.00
 11
    15.08
 21
    -151.84
 31
    0.00
  0
LINE
  8
RADIALES
 10
    14.23
 20
    -152.05
 30
    0.00
 11
    14.57
 21
    -152.05
 31
    0.00
  0
LINE
  8
RADIALES
 10
    14.23
 20
    -152.05
 30
    0.00
 11
    14.36
 21
    -150.59
 31
    0.00
  0
LINE
  8
RADIALES
 10
    14.23
 20
    -152.05
 30
    0.00
 11
    14.47
 21
    -153.41
 31
    0.00
  0
LINE
  8
CHEMINEMENTS
 10
    14.23
 20
    -152.05
 30
    0.00
 11
    15.32
 21
    -155.65
 31
    0.00
  0
CIRCLE
  8
POINTS
 10
    15.32
 20
    -155.65
 30
    0.00
 40
    0.2
  0
LINE
  8
CONTOURS_HAUTEURS
 10
    14.23
 20
    -153.41
 30
    0.00
 11
    15.32
 21
    -156.01
 31
    0.00
  0
LINE
  8
CONTOURS_HAUTEURS
 10
    14.23
 20
    -150.59
 30
    0.00
 11
    15.32
 21
    -152.44
 31
    0.00
  0
TEXT
  8
STATIONS
 10
    15.32
 20
    -155.65
 30
    0.00
 40
    0.4
  1
10.8
  0
LINE
  8
RADIALES
 10
    15.32
 20
    -155.65
 30
    0.00
 11
    16.22
 21
    -155.68
 31
    0.00
  0
LINE
  8
RADIALES
 10
    15.32
 20
    -155.65
 30
    0.00
 11
    14.71
 21
    -155.64
 31
    0.00
  0
LINE
  8
RADIALES
 10
    15.32
 20
    -155.65
 30
    0.00
 11
    14.83
 21
    -152.44
 31
    0.00
  0
LINE
  8
RADIALES
 10
    15.32
 20
    -155.65
 30
    0.00
 11
    15.34
 21
    -156.01
 31
    0.00
  0
LINE
  8
CHEMINEMENTS
 10
    15.32
 20
    -155.65
 30
    0.00
 11
    16.42
 21
    -154.46
 31
    0.00
  0
CIRCLE
  8
POINTS
 10
    16.42
 20
    -154.46
 30
    0.00
 40
    0.2
  0
LINE
  8
CONTOURS_HAUTEURS
 10
    15.32
 20
    -156.01
 30
    0.00
 11
    16.42
 21
    -155.86
 31
    0.00
  0
LINE
  8
CONTOURS_HAUTEURS
 10
    15.32
 20
    -152.44
 30
    0.00
 11
    16.42
 21
    -150.77
 31
    0.00
  0
TEXT
  8
STATIONS
 10
    16.42
 20
    -154.46
 30
    0.00
 40
    0.4
  1
10.9
  0
LINE
  8
RADIALES
 10
    16.42
 20
    -154.46
 30
    0.00
 11
    16.98
 21
    -154.40
 31
    0.00
  0
LINE
  8
RADIALES
 10
    16.42
 20
    -154.46
 30
    0.00
 11
    13.48
 21
    -154.95
 31
    0.00
  0
LINE
  8
RADIALES
 10
    16.42
 20
    -154.46
 30
    0.00
 11
    14.93
 21
    -150.77
 31
    0.00
  0
LINE
  8
RADIALES
 10
    16.42
 20
    -154.46
 30
    0.00
 11
    16.62
 21
    -155.85
 31
    0.00
  0
LINE
  8
CHEMINEMENTS
 10
    16.42
 20
    -154.46
 30
    0.00
 11
    21.30
 21
    -156.66
 31
    0.00
  0
CIRCLE
  8
POINTS
 10
    21.30
 20
    -156.66
 30
    0.00
 40
    0.2
  0
LINE
  8
CONTOURS_HAUTEURS
 10
    16.42
 20
    -155.86
 30
    0.00
 11
    21.30
 21
    -157.20
 31
    0.00
  0
LINE
  8
CONTOURS_HAUTEURS
 10
    16.42
 20
    -150.77
 30
    0.00
 11
    21.30
 21
    -155.79
 31
    0.00
  0
TEXT
  8
STATIONS
 10
    21.30
 20
    -156.66
 30
    0.00
 40
    0.4
  1
10.10
  0
LINE
  8
RADIALES
 10
    21.30
 20
    -156.66
 30
    0.00
 11
    20.94
 21
    -156.67
 31
    0.00
  0
LINE
  8
RADIALES
 10
    21.30
 20
    -156.66
 30
    0.00
 11
    22.02
 21
    -156.68
 31
    0.00
  0
LINE
  8
RADIALES
 10
    21.30
 20
    -156.66
 30
    0.00
 11
    21.40
 21
    -155.78
 31
    0.00
  0
LINE
  8
RADIALES
 10
    21.30
 20
    -156.66
 30
    0.00
 11
    21.37
 21
    -157.19
 31
    0.00
  0
LINE
  8
CHEMINEMENTS
 10
    21.30
 20
    -156.66
 30
    0.00
 11
    22.59
 21
    -160.74
 31
    0.00
  0
CIRCLE
  8
POINTS
 10
    22.59
 20
    -160.74
 30
    0.00
 40
    0.2
  0
LINE
  8
CONTOURS_HAUTEURS
 10
    21.30
 20
    -157.20
 30
    0.00
 11
    22.59
 21
    -162.00
 31
    0.00
  0
LINE
  8
CONTOURS_HAUTEURS
 10
    21.30
 20
    -155.79
 30
    0.00
 11
    22.59
 21
    -159.58
 31
    0.00
  0
TEXT
  8
STATIONS
 10
    22.59
 20
    -160.74
 30
    0.00
 40
    0.4
  1
10.11
  0
LINE
  8
RADIALES
 10
    22.59
 20
    -160.74
 30
    0.00
 11
    20.02
 21
    -160.56
 31
    0.00
  0
LINE
  8
RADIALES
 10
    22.59
 20
    -160.74
 30
    0.00
 11
    23.31
 21
    -160.67
 31
    0.00
  0
LINE
  8
RADIALES
 10
    22.59
 20
    -160.74
 30
    0.00
 11
    22.38
 21
    -159.58
 31
    0.00
  0
LINE
  8
RADIALES
 10
    22.59
 20
    -160.74
 30
    0.00
 11
    22.66
 21
    -162.00
 31
    0.00
  0
LINE
  8
CHEMINEMENTS
 10
    22.59
 20
    -160.74
 30
    0.00
 11
    24.69
 21
    -163.16
 31
    0.00
  0
CIRCLE
  8
POINTS
 10
    24.69
 20
    -163.16
 30
    0.00
 40
    0.2
  0
LINE
  8
CONTOURS_HAUTEURS
 10
    22.59
 20
    -162.00
 30
    0.00
 11
    24.69
 21
    -164.37
 31
    0.00
  0
LINE
  8
CONTOURS_HAUTEURS
 10
    22.59
 20
    -159.58
 30
    0.00
 11
    24.69
 21
    -161.31
 31
    0.00
  0
TEXT
  8
STATIONS
 10
    24.69
 20
    -163.16
 30
    0.00
 40
    0.4
  1
10.12
  0
LINE
  8
RADIALES
 10
    24.69
 20
    -163.16
 30
    0.00
 11
    24.33
 21
    -163.15
 31
    0.00
  0
LINE
  8
RADIALES
 10
    24.69
 20
    -163.16
 30
    0.00
 11
    25.22
 21
    -163.14
 31
    0.00
  0
LINE
  8
RADIALES
 10
    24.69
 20
    -163.16
 30
    0.00
 11
    24.07
 21
    -161.31
 31
    0.00
  0
LINE
  8
RADIALES
 10
    24.69
 20
    -163.16
 30
    0.00
 11
    24.49
 21
    -164.37
 31
    0.00
  0
LINE
  8
CHEMINEMENTS
 10
    24.69
 20
    -163.16
 30
    0.00
 11
    27.03
 21
    -167.95
 31
    0.00
  0
CIRCLE
  8
POINTS
 10
    27.03
 20
    -167.95
 30
    0.00
 40
    0.2
  0
LINE
  8
CONTOURS_HAUTEURS
 10
    24.69
 20
    -164.37
 30
    0.00
 11
    27.03
 21
    -168.81
 31
    0.00
  0
LINE
  8
CONTOURS_HAUTEURS
 10
    24.69
 20
    -161.31
 30
    0.00
 11
    27.03
 21
    -164.32
 31
    0.00
  0
TEXT
  8
STATIONS
 10
    27.03
 20
    -167.95
 30
    0.00
 40
    0.4
  1
10.13
  0
LINE
  8
RADIALES
 10
    27.03
 20
    -167.95
 30
    0.00
 11
    27.76
 21
    -167.95
 31
    0.00
  0
LINE
  8
RADIALES
 10
    27.03
 20
    -167.95
 30
    0.00
 11
    27.79
 21
    -168.00
 31
    0.00
  0
LINE
  8
RADIALES
 10
    27.03
 20
    -167.95
 30
    0.00
 11
    26.26
 21
    -164.32
 31
    0.00
  0
LINE
  8
RADIALES
 10
    27.03
 20
    -167.95
 30
    0.00
 11
    27.20
 21
    -168.81
 31
    0.00
  0
LINE
  8
CHEMINEMENTS
 10
    27.03
 20
    -167.95
 30
    0.00
 11
    28.92
 21
    -168.51
 31
    0.00
  0
CIRCLE
  8
POINTS
 10
    28.92
 20
    -168.51
 30
    0.00
 40
    0.2
  0
LINE
  8
CONTOURS_HAUTEURS
 10
    27.03
 20
    -168.81
 30
    0.00
 11
    28.92
 21
    -169.13
 31
    0.00
  0
LINE
  8
CONTOURS_HAUTEURS
 10
    27.03
 20
    -164.32
 30
    0.00
 11
    28.92
 21
    -167.64
 31
    0.00
  0
TEXT
  8
STATIONS
 10
    28.92
 20
    -168.51
 30
    0.00
 40
    0.4
  1
10.14
  0
LINE
  8
RADIALES
 10
    28.92
 20
    -168.51
 30
    0.00
 11
    29.20
 21
    -168.41
 31
    0.00
  0
LINE
  8
RADIALES
 10
    28.92
 20
    -168.51
 30
    0.00
 11
    27.92
 21
    -168.41
 31
    0.00
  0
LINE
  8
RADIALES
 10
    28.92
 20
    -168.51
 30
    0.00
 11
    28.73
 21
    -167.64
 31
    0.00
  0
LINE
  8
RADIALES
 10
    28.92
 20
    -168.51
 30
    0.00
 11
    28.89
 21
    -169.13
 31
    0.00
  0
LINE
  8
CHEMINEMENTS
 10
    28.92
 20
    -168.51
 30
    0.00
 11
    32.64
 21
    -169.85
 31
    0.00
  0
CIRCLE
  8
POINTS
 10
    32.64
 20
    -169.85
 30
    0.00
 40
    0.2
  0
LINE
  8
CONTOURS_HAUTEURS
 10
    28.92
 20
    -169.13
 30
    0.00
 11
    32.64
 21
    -171.50
 31
    0.00
  0
LINE
  8
CONTOURS_HAUTEURS
 10
    28.92
 20
    -167.64
 30
    0.00
 11
    32.64
 21
    -168.45
 31
    0.00
  0
TEXT
  8
STATIONS
 10
    32.64
 20
    -169.85
 30
    0.00
 40
    0.4
  1
10.15
  0
LINE
  8
RADIALES
 10
    32.64
 20
    -169.85
 30
    0.00
 11
    32.33
 21
    -169.84
 31
    0.00
  0
LINE
  8
RADIALES
 10
    32.64
 20
    -169.85
 30
    0.00
 11
    33.01
 21
    -169.87
 31
    0.00
  0
LINE
  8
RADIALES
 10
    32.64
 20
    -169.85
 30
    0.00
 11
    33.01
 21
    -168.45
 31
    0.00
  0
LINE
  8
RADIALES
 10
    32.64
 20
    -169.85
 30
    0.00
 11
    32.97
 21
    -171.50
 31
    0.00
  0
LINE
  8
CHEMINEMENTS
 10
    32.64
 20
    -169.85
 30
    0.00
 11
    33.43
 21
    -171.29
 31
    0.00
  0
CIRCLE
  8
POINTS
 10
    33.43
 20
    -171.29
 30
    0.00
 40
    0.2
  0
LINE
  8
CONTOURS_HAUTEURS
 10
    32.64
 20
    -171.50
 30
    0.00
 11
    33.43
 21
    -172.59
 31
    0.00
  0
LINE
  8
CONTOURS_HAUTEURS
 10
    32.64
 20
    -168.45
 30
    0.00
 11
    33.43
 21
    -169.45
 31
    0.00
  0
TEXT
  8
STATIONS
 10
    33.43
 20
    -171.29
 30
    0.00
 40
    0.4
  1
10.16
  0
LINE
  8
RADIALES
 10
    33.43
 20
    -171.29
 30
    0.00
 11
    33.14
 21
    -171.29
 31
    0.00
  0
LINE
  8
RADIALES
 10
    33.43
 20
    -171.29
 30
    0.00
 11
    33.68
 21
    -171.29
 31
    0.00
  0
LINE
  8
RADIALES
 10
    33.43
 20
    -171.29
 30
    0.00
 11
    32.98
 21
    -169.45
 31
    0.00
  0
LINE
  8
RADIALES
 10
    33.43
 20
    -171.29
 30
    0.00
 11
    33.38
 21
    -172.59
 31
    0.00
  0
LINE
  8
CHEMINEMENTS
 10
    33.43
 20
    -171.29
 30
    0.00
 11
    38.17
 21
    -172.46
 31
    0.00
  0
CIRCLE
  8
POINTS
 10
    38.17
 20
    -172.46
 30
    0.00
 40
    0.2
  0
LINE
  8
CONTOURS_HAUTEURS
 10
    33.43
 20
    -172.59
 30
    0.00
 11
    38.17
 21
    -172.86
 31
    0.00
  0
LINE
  8
CONTOURS_HAUTEURS
 10
    33.43
 20
    -169.45
 30
    0.00
 11
    38.17
 21
    -172.46
 31
    0.00
  0
LINE
  8
CONTOURS_HAUTEURS
 10
    38.17
 20
    -172.86
 30
    0.00
 11
    38.17
 21
    -172.46
 31
    0.00
  0
TEXT
  8
STATIONS
 10
    38.17
 20
    -172.46
 30
    0.00
 40
    0.4
  1
10.17
  0
LINE
  8
RADIALES
 10
    38.17
 20
    -172.46
 30
    0.00
 11
    38.45
 21
    -172.46
 31
    0.00
  0
LINE
  8
RADIALES
 10
    38.17
 20
    -172.46
 30
    0.00
 11
    38.44
 21
    -172.44
 31
    0.00
  0
LINE
  8
RADIALES
 10
    38.17
 20
    -172.46
 30
    0.00
 11
    38.53
 21
    -172.40
 31
    0.00
  0
LINE
  8
RADIALES
 10
    38.17
 20
    -172.46
 30
    0.00
 11
    37.51
 21
    -172.87
 31
    0.00
  0
LINE
  8
CHEMINEMENTS
 10
    16.29
 20
    -173.16
 30
    0.00
 11
    16.29
 21
    -173.16
 31
    0.00
  0
CIRCLE
  8
POINTS
 10
    16.29
 20
    -173.16
 30
    0.00
 40
    0.2
  0
LINE
  8
CONTOURS_HAUTEURS
 10
    16.29
 20
    -173.66
 30
    0.00
 11
    16.29
 21
    -174.13
 31
    0.00
  0
LINE
  8
CONTOURS_HAUTEURS
 10
    16.29
 20
    -165.16
 30
    0.00
 11
    16.29
 21
    -171.75
 31
    0.00
  0
TEXT
  8
STATIONS
 10
    16.29
 20
    -173.16
 30
    0.00
 40
    0.4
  1
5.27
  0
LINE
  8
RADIALES
 10
    16.29
 20
    -173.16
 30
    0.00
 11
    16.55
 21
    -173.10
 31
    0.00
  0
LINE
  8
RADIALES
 10
    16.29
 20
    -173.16
 30
    0.00
 11
    15.77
 21
    -173.13
 31
    0.00
  0
LINE
  8
RADIALES
 10
    16.29
 20
    -173.16
 30
    0.00
 11
    17.17
 21
    -171.75
 31
    0.00
  0
LINE
  8
RADIALES
 10
    16.29
 20
    -173.16
 30
    0.00
 11
    15.90
 21
    -174.13
 31
    0.00
  0
LINE
  8
CHEMINEMENTS
 10
    16.29
 20
    -173.16
 30
    0.00
 11
    17.72
 21
    -172.73
 31
    0.00
  0
CIRCLE
  8
POINTS
 10
    17.72
 20
    -172.73
 30
    0.00
 40
    0.2
  0
LINE
  8
CONTOURS_HAUTEURS
 10
    16.29
 20
    -174.13
 30
    0.00
 11
    17.72
 21
    -173.50
 31
    0.00
  0
LINE
  8
CONTOURS_HAUTEURS
 10
    16.29
 20
    -171.75
 30
    0.00
 11
    17.72
 21
    -171.81
 31
    0.00
  0
TEXT
  8
STATIONS
 10
    17.72
 20
    -172.73
 30
    0.00
 40
    0.4
  1
5.28
  0
LINE
  8
RADIALES
 10
    17.72
 20
    -172.73
 30
    0.00
 11
    17.46
 21
    -172.72
 31
    0.00
  0
LINE
  8
RADIALES
 10
    17.72
 20
    -172.73
 30
    0.00
 11
    18.18
 21
    -172.75
 31
    0.00
  0
LINE
  8
RADIALES
 10
    17.72
 20
    -172.73
 30
    0.00
 11
    17.86
 21
    -171.81
 31
    0.00
  0
LINE
  8
RADIALES
 10
    17.72
 20
    -172.73
 30
    0.00
 11
    17.63
 21
    -173.50
 31
    0.00
  0
LINE
  8
CHEMINEMENTS
 10
    17.72
 20
    -172.73
 30
    0.00
 11
    18.71
 21
    -173.85
 31
    0.00
  0
CIRCLE
  8
POINTS
 10
    18.71
 20
    -173.85
 30
    0.00
 40
    0.2
  0
LINE
  8
CONTOURS_HAUTEURS
 10
    17.72
 20
    -173.50
 30
    0.00
 11
    18.71
 21
    -174.54
 31
    0.00
  0
LINE
  8
CONTOURS_HAUTEURS
 10
    17.72
 20
    -171.81
 30
    0.00
 11
    18.71
 21
    -172.95
 31
    0.00
  0
TEXT
  8
STATIONS
 10
    18.71
 20
    -173.85
 30
    0.00
 40
    0.4
  1
5.29
  0
LINE
  8
RADIALES
 10
    18.71
 20
    -173.85
 30
    0.00
 11
    18.31
 21
    -173.84
 31
    0.00
  0
LINE
  8
RADIALES
 10
    18.71
 20
    -173.85
 30
    0.00
 11
    18.95
 21
    -173.83
 31
    0.00
  0
LINE
  8
RADIALES
 10
    18.71
 20
    -173.85
 30
    0.00
 11
    18.93
 21
    -172.95
 31
    0.00
  0
LINE
  8
RADIALES
 10
    18.71
 20
    -173.85
 30
    0.00
 11
    18.64
 21
    -174.54
 31
    0.00
  0
LINE
  8
CHEMINEMENTS
 10
    18.71
 20
    -173.85
 30
    0.00
 11
    21.29
 21
    -175.02
 31
    0.00
  0
CIRCLE
  8
POINTS
 10
    21.29
 20
    -175.02
 30
    0.00
 40
    0.2
  0
LINE
  8
CONTOURS_HAUTEURS
 10
    18.71
 20
    -174.54
 30
    0.00
 11
    21.29
 21
    -175.85
 31
    0.00
  0
LINE
  8
CONTOURS_HAUTEURS
 10
    18.71
 20
    -172.95
 30
    0.00
 11
    21.29
 21
    -174.23
 31
    0.00
  0
TEXT
  8
STATIONS
 10
    21.29
 20
    -175.02
 30
    0.00
 40
    0.4
  1
5.30
  0
LINE
  8
RADIALES
 10
    21.29
 20
    -175.02
 30
    0.00
 11
    21.05
 21
    -175.02
 31
    0.00
  0
LINE
  8
RADIALES
 10
    21.29
 20
    -175.02
 30
    0.00
 11
    21.61
 21
    -175.03
 31
    0.00
  0
LINE
  8
RADIALES
 10
    21.29
 20
    -175.02
 30
    0.00
 11
    21.54
 21
    -174.22
 31
    0.00
  0
LINE
  8
RADIALES
 10
    21.29
 20
    -175.02
 30
    0.00
 11
    21.40
 21
    -175.85
 31
    0.00
  0
LINE
  8
CHEMINEMENTS
 10
    21.29
 20
    -175.02
 30
    0.00
 11
    23.90
 21
    -176.15
 31
    0.00
  0
CIRCLE
  8
POINTS
 10
    23.90
 20
    -176.15
 30
    0.00
 40
    0.2
  0
LINE
  8
CONTOURS_HAUTEURS
 10
    21.29
 20
    -175.85
 30
    0.00
 11
    23.90
 21
    -176.15
 31
    0.00
  0
LINE
  8
CONTOURS_HAUTEURS
 10
    21.29
 20
    -174.23
 30
    0.00
 11
    23.90
 21
    -175.79
 31
    0.00
  0
TEXT
  8
STATIONS
 10
    23.90
 20
    -176.15
 30
    0.00
 40
    0.4
  1
5.31
  0
LINE
  8
RADIALES
 10
    23.90
 20
    -176.15
 30
    0.00
 11
    23.65
 21
    -176.13
 31
    0.00
  0
LINE
  8
RADIALES
 10
    23.90
 20
    -176.15
 30
    0.00
 11
    24.10
 21
    -176.12
 31
    0.00
  0
LINE
  8
RADIALES
 10
    23.90
 20
    -176.15
 30
    0.00
 11
    23.84
 21
    -175.79
 31
    0.00
  0
LINE
  8
CHEMINEMENTS
 10
    23.90
 20
    -176.15
 30
    0.00
 11
    26.55
 21
    -177.94
 31
    0.00
  0
CIRCLE
  8
POINTS
 10
    26.55
 20
    -177.94
 30
    0.00
 40
    0.2
  0
LINE
  8
CONTOURS_HAUTEURS
 10
    23.90
 20
    -176.15
 30
    0.00
 11
    26.55
 21
    -178.51
 31
    0.00
  0
LINE
  8
CONTOURS_HAUTEURS
 10
    23.90
 20
    -175.79
 30
    0.00
 11
    26.55
 21
    -177.38
 31
    0.00
  0
LINE
  8
CONTOURS_HAUTEURS
 10
    26.55
 20
    -178.51
 30
    0.00
 11
    26.55
 21
    -177.38
 31
    0.00
  0
TEXT
  8
STATIONS
 10
    26.55
 20
    -177.94
 30
    0.00
 40
    0.4
  1
5.32
  0
TEXT
  8
PROFONDEURS
 10
    26.55
 20
    -177.94
 30
    0.00
 40
    0.6
  1
-178
  0
LINE
  8
RADIALES
 10
    26.55
 20
    -177.94
 30
    0.00
 11
    26.78
 21
    -177.93
 31
    0.00
  0
LINE
  8
RADIALES
 10
    26.55
 20
    -177.94
 30
    0.00
 11
    26.29
 21
    -177.97
 31
    0.00
  0
LINE
  8
RADIALES
 10
    26.55
 20
    -177.94
 30
    0.00
 11
    26.60
 21
    -177.38
 31
    0.00
  0
LINE
  8
RADIALES
 10
    26.55
 20
    -177.94
 30
    0.00
 11
    26.60
 21
    -178.51
 31
    0.00
  0
LINE
  8
RADIALES
 10
    -9.69
 20
    -124.17
 30
    0.00
 11
    -10.80
 21
    -124.05
 31
    0.00
  0
LINE
  8
RADIALES
 10
    -9.69
 20
    -124.17
 30
    0.00
 11
    -10.80
 21
    -123.97
 31
    0.00
  0
LINE
  8
RADIALES
 10
    -9.69
 20
    -124.17
 30
    0.00
 11
    -7.23
 21
    -124.05
 31
    0.00
  0
LINE
  8
RADIALES
 10
    -9.69
 20
    -124.17
 30
    0.00
 11
    -9.70
 21
    -124.01
 31
    0.00
  0
LINE
  8
RADIALES
 10
    -9.69
 20
    -124.17
 30
    0.00
 11
    -9.48
 21
    -125.20
 31
    0.00
  0
LINE
  8
CHEMINEMENTS
 10
    -9.69
 20
    -124.17
 30
    0.00
 11
    -8.75
 21
    -122.69
 31
    0.00
  0
CIRCLE
  8
POINTS
 10
    -8.75
 20
    -122.69
 30
    0.00
 40
    0.2
  0
LINE
  8
CONTOURS_HAUTEURS
 10
    -9.69
 20
    -125.21
 30
    0.00
 11
    -8.75
 21
    -123.70
 31
    0.00
  0
LINE
  8
CONTOURS_HAUTEURS
 10
    -9.69
 20
    -124.01
 30
    0.00
 11
    -8.75
 21
    -118.58
 31
    0.00
  0
TEXT
  8
STATIONS
 10
    -8.75
 20
    -122.69
 30
    0.00
 40
    0.4
  1
11.1
  0
LINE
  8
RADIALES
 10
    -8.75
 20
    -122.69
 30
    0.00
 11
    -8.15
 21
    -122.66
 31
    0.00
  0
LINE
  8
RADIALES
 10
    -8.75
 20
    -122.69
 30
    0.00
 11
    -8.30
 21
    -122.77
 31
    0.00
  0
LINE
  8
RADIALES
 10
    -8.75
 20
    -122.69
 30
    0.00
 11
    -9.50
 21
    -118.58
 31
    0.00
  0
LINE
  8
RADIALES
 10
    -8.75
 20
    -122.69
 30
    0.00
 11
    -8.35
 21
    -123.71
 31
    0.00
  0
LINE
  8
CHEMINEMENTS
 10
    -8.75
 20
    -122.69
 30
    0.00
 11
    -4.18
 21
    -127.17
 31
    0.00
  0
CIRCLE
  8
POINTS
 10
    -4.18
 20
    -127.17
 30
    0.00
 40
    0.2
  0
LINE
  8
CONTOURS_HAUTEURS
 10
    -8.75
 20
    -123.70
 30
    0.00
 11
    -4.18
 21
    -128.12
 31
    0.00
  0
LINE
  8
CONTOURS_HAUTEURS
 10
    -8.75
 20
    -118.58
 30
    0.00
 11
    -4.18
 21
    -127.02
 31
    0.00
  0
TEXT
  8
STATIONS
 10
    -4.18
 20
    -127.17
 30
    0.00
 40
    0.4
  1
11.2
  0
LINE
  8
RADIALES
 10
    -4.18
 20
    -127.17
 30
    0.00
 11
    -4.34
 21
    -127.17
 31
    0.00
  0
LINE
  8
RADIALES
 10
    -4.18
 20
    -127.17
 30
    0.00
 11
    -3.74
 21
    -127.20
 31
    0.00
  0
LINE
  8
RADIALES
 10
    -4.18
 20
    -127.17
 30
    0.00
 11
    -4.22
 21
    -127.02
 31
    0.00
  0
LINE
  8
RADIALES
 10
    -4.18
 20
    -127.17
 30
    0.00
 11
    -3.83
 21
    -128.12
 31
    0.00
  0
LINE
  8
CHEMINEMENTS
 10
    -4.18
 20
    -127.17
 30
    0.00
 11
    0.31
 21
    -127.97
 31
    0.00
  0
CIRCLE
  8
POINTS
 10
    0.31
 20
    -127.97
 30
    0.00
 40
    0.2
  0
LINE
  8
CONTOURS_HAUTEURS
 10
    -4.18
 20
    -128.12
 30
    0.00
 11
    0.31
 21
    -128.39
 31
    0.00
  0
LINE
  8
CONTOURS_HAUTEURS
 10
    -4.18
 20
    -127.02
 30
    0.00
 11
    0.31
 21
    -127.45
 31
    0.00
  0
TEXT
  8
STATIONS
 10
    0.31
 20
    -127.97
 30
    0.00
 40
    0.4
  1
11.3
  0
LINE
  8
RADIALES
 10
    0.31
 20
    -127.97
 30
    0.00
 11
    0.74
 21
    -127.86
 31
    0.00
  0
LINE
  8
RADIALES
 10
    0.31
 20
    -127.97
 30
    0.00
 11
    0.59
 21
    -127.97
 31
    0.00
  0
LINE
  8
RADIALES
 10
    0.31
 20
    -127.97
 30
    0.00
 11
    0.45
 21
    -127.45
 31
    0.00
  0
LINE
  8
RADIALES
 10
    0.31
 20
    -127.97
 30
    0.00
 11
    0.50
 21
    -128.39
 31
    0.00
  0
LINE
  8
CHEMINEMENTS
 10
    0.31
 20
    -127.97
 30
    0.00
 11
    2.77
 21
    -127.67
 31
    0.00
  0
CIRCLE
  8
POINTS
 10
    2.77
 20
    -127.67
 30
    0.00
 40
    0.2
  0
LINE
  8
CONTOURS_HAUTEURS
 10
    0.31
 20
    -128.39
 30
    0.00
 11
    2.77
 21
    -128.19
 31
    0.00
  0
LINE
  8
CONTOURS_HAUTEURS
 10
    0.31
 20
    -127.45
 30
    0.00
 11
    2.77
 21
    -127.32
 31
    0.00
  0
TEXT
  8
STATIONS
 10
    2.77
 20
    -127.67
 30
    0.00
 40
    0.4
  1
11.4
  0
LINE
  8
RADIALES
 10
    2.77
 20
    -127.67
 30
    0.00
 11
    2.46
 21
    -127.70
 31
    0.00
  0
LINE
  8
RADIALES
 10
    2.77
 20
    -127.67
 30
    0.00
 11
    3.11
 21
    -127.74
 31
    0.00
  0
LINE
  8
RADIALES
 10
    2.77
 20
    -127.67
 30
    0.00
 11
    2.44
 21
    -127.32
 31
    0.00
  0
LINE
  8
RADIALES
 10
    2.77
 20
    -127.67
 30
    0.00
 11
    2.61
 21
    -128.19
 31
    0.00
  0
LINE
  8
CHEMINEMENTS
 10
    2.77
 20
    -127.67
 30
    0.00
 11
    5.66
 21
    -127.56
 31
    0.00
  0
CIRCLE
  8
POINTS
 10
    5.66
 20
    -127.56
 30
    0.00
 40
    0.2
  0
LINE
  8
CONTOURS_HAUTEURS
 10
    2.77
 20
    -128.19
 30
    0.00
 11
    5.66
 21
    -129.75
 31
    0.00
  0
LINE
  8
CONTOURS_HAUTEURS
 10
    2.77
 20
    -127.32
 30
    0.00
 11
    5.66
 21
    -126.52
 31
    0.00
  0
TEXT
  8
STATIONS
 10
    5.66
 20
    -127.56
 30
    0.00
 40
    0.4
  1
11.5
  0
LINE
  8
RADIALES
 10
    5.66
 20
    -127.56
 30
    0.00
 11
    6.59
 21
    -127.75
 31
    0.00
  0
LINE
  8
RADIALES
 10
    5.66
 20
    -127.56
 30
    0.00
 11
    6.14
 21
    -127.56
 31
    0.00
  0
LINE
  8
RADIALES
 10
    5.66
 20
    -127.56
 30
    0.00
 11
    5.58
 21
    -129.75
 31
    0.00
  0
LINE
  8
RADIALES
 10
    5.66
 20
    -127.56
 30
    0.00
 11
    6.10
 21
    -126.51
 31
    0.00
  0
LINE
  8
CHEMINEMENTS
 10
    5.66
 20
    -127.56
 30
    0.00
 11
    6.24
 21
    -128.38
 31
    0.00
  0
CIRCLE
  8
POINTS
 10
    6.24
 20
    -128.38
 30
    0.00
 40
    0.2
  0
LINE
  8
CONTOURS_HAUTEURS
 10
    5.66
 20
    -129.75
 30
    0.00
 11
    6.24
 21
    -129.74
 31
    0.00
  0
LINE
  8
CONTOURS_HAUTEURS
 10
    5.66
 20
    -126.52
 30
    0.00
 11
    6.24
 21
    -127.28
 31
    0.00
  0
TEXT
  8
STATIONS
 10
    6.24
 20
    -128.38
 30
    0.00
 40
    0.4
  1
11.6
  0
LINE
  8
RADIALES
 10
    6.24
 20
    -128.38
 30
    0.00
 11
    6.66
 21
    -128.29
 31
    0.00
  0
LINE
  8
RADIALES
 10
    6.24
 20
    -128.38
 30
    0.00
 11
    5.89
 21
    -128.26
 31
    0.00
  0
LINE
  8
RADIALES
 10
    6.24
 20
    -128.38
 30
    0.00
 11
    6.26
 21
    -127.28
 31
    0.00
  0
LINE
  8
RADIALES
 10
    6.24
 20
    -128.38
 30
    0.00
 11
    6.38
 21
    -129.74
 31
    0.00
  0
LINE
  8
CHEMINEMENTS
 10
    6.24
 20
    -128.38
 30
    0.00
 11
    7.73
 21
    -128.93
 31
    0.00
  0
CIRCLE
  8
POINTS
 10
    7.73
 20
    -128.93
 30
    0.00
 40
    0.2
  0
LINE
  8
CONTOURS_HAUTEURS
 10
    6.24
 20
    -129.74
 30
    0.00
 11
    7.73
 21
    -130.37
 31
    0.00
  0
LINE
  8
CONTOURS_HAUTEURS
 10
    6.24
 20
    -127.28
 30
    0.00
 11
    7.73
 21
    -128.21
 31
    0.00
  0
TEXT
  8
STATIONS
 10
    7.73
 20
    -128.93
 30
    0.00
 40
    0.4
  1
11.7
  0
LINE
  8
RADIALES
 10
    7.73
 20
    -128.93
 30
    0.00
 11
    8.43
 21
    -128.93
 31
    0.00
  0
LINE
  8
RADIALES
 10
    7.73
 20
    -128.93
 30
    0.00
 11
    7.26
 21
    -128.77
 31
    0.00
  0
LINE
  8
RADIALES
 10
    7.73
 20
    -128.93
 30
    0.00
 11
    7.83
 21
    -128.21
 31
    0.00
  0
LINE
  8
RADIALES
 10
    7.73
 20
    -128.93
 30
    0.00
 11
    8.09
 21
    -130.37
 31
    0.00
  0
LINE
  8
CHEMINEMENTS
 10
    7.73
 20
    -128.93
 30
    0.00
 11
    11.22
 21
    -129.44
 31
    0.00
  0
CIRCLE
  8
POINTS
 10
    11.22
 20
    -129.44
 30
    0.00
 40
    0.2
  0
LINE
  8
CONTOURS_HAUTEURS
 10
    7.73
 20
    -130.37
 30
    0.00
 11
    11.22
 21
    -139.44
 31
    0.00
  0
LINE
  8
CONTOURS_HAUTEURS
 10
    7.73
 20
    -128.21
 30
    0.00
 11
    11.22
 21
    -128.74
 31
    0.00
  0
LINE
  8
CONTOURS_HAUTEURS
 10
    11.22
 20
    -139.44
 30
    0.00
 11
    11.22
 21
    -128.74
 31
    0.00
  0
TEXT
  8
STATIONS
 10
    11.22
 20
    -129.44
 30
    0.00
 40
    0.4
  1
11.8
  0
TEXT
  8
PROFONDEURS
 10
    11.22
 20
    -129.44
 30
    0.00
 40
    0.6
  1
-129
  0
LINE
  8
CHEMINEMENTS
 10
    43.10
 20
    -168.47
 30
    0.00
 11
    43.10
 21
    -168.47
 31
    0.00
  0
CIRCLE
  8
POINTS
 10
    43.10
 20
    -168.47
 30
    0.00
 40
    0.2
  0
LINE
  8
CONTOURS_HAUTEURS
 10
    43.10
 20
    -168.47
 30
    0.00
 11
    43.10
 21
    -168.47
 31
    0.00
  0
LINE
  8
CONTOURS_HAUTEURS
 10
    43.10
 20
    -168.47
 30
    0.00
 11
    43.10
 21
    -168.47
 31
    0.00
  0
LINE
  8
CONTOURS_HAUTEURS
 10
    43.10
 20
    -168.47
 30
    0.00
 11
    43.10
 21
    -168.47
 31
    0.00
  0
TEXT
  8
STATIONS
 10
    43.10
 20
    -168.47
 30
    0.00
 40
    0.4
  1
A11.0
  0
TEXT
  8
PROFONDEURS
 10
    43.10
 20
    -168.47
 30
    0.00
 40
    0.6
  1
-168
  0
LINE
  8
CHEMINEMENTS
 10
    40.50
 20
    -168.50
 30
    0.00
 11
    43.10
 21
    -168.47
 31
    0.00
  0
CIRCLE
  8
POINTS
 10
    43.10
 20
    -168.47
 30
    0.00
 40
    0.2
  0
LINE
  8
CONTOURS_HAUTEURS
 10
    40.50
 20
    -168.90
 30
    0.00
 11
    43.10
 21
    -168.47
 31
    0.00
  0
LINE
  8
CONTOURS_HAUTEURS
 10
    40.50
 20
    -168.30
 30
    0.00
 11
    43.10
 21
    -168.47
 31
    0.00
  0
TEXT
  8
STATIONS
 10
    43.10
 20
    -168.47
 30
    0.00
 40
    0.4
  1
A11.0
  0
LINE
  8
CHEMINEMENTS
 10
    38.61
 20
    -168.74
 30
    0.00
 11
    40.50
 21
    -168.50
 31
    0.00
  0
CIRCLE
  8
POINTS
 10
    40.50
 20
    -168.50
 30
    0.00
 40
    0.2
  0
LINE
  8
CONTOURS_HAUTEURS
 10
    38.61
 20
    -170.74
 30
    0.00
 11
    40.50
 21
    -168.90
 31
    0.00
  0
LINE
  8
CONTOURS_HAUTEURS
 10
    38.61
 20
    -166.74
 30
    0.00
 11
    40.50
 21
    -168.30
 31
    0.00
  0
TEXT
  8
STATIONS
 10
    40.50
 20
    -168.50
 30
    0.00
 40
    0.4
  1
A11.1
  0
LINE
  8
CHEMINEMENTS
 10
    35.24
 20
    -170.30
 30
    0.00
 11
    38.61
 21
    -168.74
 31
    0.00
  0
CIRCLE
  8
POINTS
 10
    38.61
 20
    -168.74
 30
    0.00
 40
    0.2
  0
LINE
  8
CONTOURS_HAUTEURS
 10
    35.24
 20
    -170.80
 30
    0.00
 11
    38.61
 21
    -170.74
 31
    0.00
  0
LINE
  8
CONTOURS_HAUTEURS
 10
    35.24
 20
    -168.30
 30
    0.00
 11
    38.61
 21
    -166.74
 31
    0.00
  0
TEXT
  8
STATIONS
 10
    38.61
 20
    -168.74
 30
    0.00
 40
    0.4
  1
A11.2
  0
LINE
  8
CHEMINEMENTS
 10
    34.10
 20
    -171.54
 30
    0.00
 11
    35.24
 21
    -170.30
 31
    0.00
  0
CIRCLE
  8
POINTS
 10
    35.24
 20
    -170.30
 30
    0.00
 40
    0.2
  0
LINE
  8
CONTOURS_HAUTEURS
 10
    34.10
 20
    -172.04
 30
    0.00
 11
    35.24
 21
    -170.80
 31
    0.00
  0
LINE
  8
CONTOURS_HAUTEURS
 10
    34.10
 20
    -169.54
 30
    0.00
 11
    35.24
 21
    -168.30
 31
    0.00
  0
TEXT
  8
STATIONS
 10
    35.24
 20
    -170.30
 30
    0.00
 40
    0.4
  1
A11.3
  0
LINE
  8
CHEMINEMENTS
 10
    33.43
 20
    -171.29
 30
    0.00
 11
    34.10
 21
    -171.54
 31
    0.00
  0
CIRCLE
  8
POINTS
 10
    34.10
 20
    -171.54
 30
    0.00
 40
    0.2
  0
LINE
  8
CONTOURS_HAUTEURS
 10
    33.43
 20
    -172.59
 30
    0.00
 11
    34.10
 21
    -172.04
 31
    0.00
  0
LINE
  8
CONTOURS_HAUTEURS
 10
    33.43
 20
    -169.45
 30
    0.00
 11
    34.10
 21
    -169.54
 31
    0.00
  0
TEXT
  8
STATIONS
 10
    34.10
 20
    -171.54
 30
    0.00
 40
    0.4
  1
A11.4
  0
LINE
  8
CHEMINEMENTS
 10
    34.10
 20
    -171.54
 30
    0.00
 11
    39.35
 21
    -172.23
 31
    0.00
  0
CIRCLE
  8
POINTS
 10
    39.35
 20
    -172.23
 30
    0.00
 40
    0.2
  0
LINE
  8
CONTOURS_HAUTEURS
 10
    34.10
 20
    -172.04
 30
    0.00
 11
    39.35
 21
    -173.23
 31
    0.00
  0
LINE
  8
CONTOURS_HAUTEURS
 10
    34.10
 20
    -169.54
 30
    0.00
 11
    39.35
 21
    -169.23
 31
    0.00
  0
TEXT
  8
STATIONS
 10
    39.35
 20
    -172.23
 30
    0.00
 40
    0.4
  1
A11.5
  0
LINE
  8
CHEMINEMENTS
 10
    39.35
 20
    -172.23
 30
    0.00
 11
    39.56
 21
    -174.78
 31
    0.00
  0
CIRCLE
  8
POINTS
 10
    39.56
 20
    -174.78
 30
    0.00
 40
    0.2
  0
LINE
  8
CONTOURS_HAUTEURS
 10
    39.35
 20
    -173.23
 30
    0.00
 11
    39.56
 21
    -175.78
 31
    0.00
  0
LINE
  8
CONTOURS_HAUTEURS
 10
    39.35
 20
    -169.23
 30
    0.00
 11
    39.56
 21
    -174.58
 31
    0.00
  0
TEXT
  8
STATIONS
 10
    39.56
 20
    -174.78
 30
    0.00
 40
    0.4
  1
A11.6
  0
LINE
  8
CHEMINEMENTS
 10
    39.56
 20
    -174.78
 30
    0.00
 11
    44.02
 21
    -174.86
 31
    0.00
  0
CIRCLE
  8
POINTS
 10
    44.02
 20
    -174.86
 30
    0.00
 40
    0.2
  0
LINE
  8
CONTOURS_HAUTEURS
 10
    39.56
 20
    -175.78
 30
    0.00
 11
    44.02
 21
    -175.86
 31
    0.00
  0
LINE
  8
CONTOURS_HAUTEURS
 10
    39.56
 20
    -174.58
 30
    0.00
 11
    44.02
 21
    -174.56
 31
    0.00
  0
TEXT
  8
STATIONS
 10
    44.02
 20
    -174.86
 30
    0.00
 40
    0.4
  1
A11.7
  0
LINE
  8
CHEMINEMENTS
 10
    44.02
 20
    -174.86
 30
    0.00
 11
    46.64
 21
    -176.25
 31
    0.00
  0
CIRCLE
  8
POINTS
 10
    46.64
 20
    -176.25
 30
    0.00
 40
    0.2
  0
LINE
  8
CONTOURS_HAUTEURS
 10
    44.02
 20
    -175.86
 30
    0.00
 11
    46.64
 21
    -177.25
 31
    0.00
  0
LINE
  8
CONTOURS_HAUTEURS
 10
    44.02
 20
    -174.56
 30
    0.00
 11
    46.64
 21
    -175.25
 31
    0.00
  0
TEXT
  8
STATIONS
 10
    46.64
 20
    -176.25
 30
    0.00
 40
    0.4
  1
A11.8
  0
LINE
  8
CHEMINEMENTS
 10
    46.64
 20
    -176.25
 30
    0.00
 11
    49.37
 21
    -177.29
 31
    0.00
  0
CIRCLE
  8
POINTS
 10
    49.37
 20
    -177.29
 30
    0.00
 40
    0.2
  0
LINE
  8
CONTOURS_HAUTEURS
 10
    46.64
 20
    -177.25
 30
    0.00
 11
    49.37
 21
    -178.79
 31
    0.00
  0
LINE
  8
CONTOURS_HAUTEURS
 10
    46.64
 20
    -175.25
 30
    0.00
 11
    49.37
 21
    -176.29
 31
    0.00
  0
TEXT
  8
STATIONS
 10
    49.37
 20
    -177.29
 30
    0.00
 40
    0.4
  1
A11.9
  0
LINE
  8
CHEMINEMENTS
 10
    49.37
 20
    -177.29
 30
    0.00
 11
    50.47
 21
    -177.62
 31
    0.00
  0
CIRCLE
  8
POINTS
 10
    50.47
 20
    -177.62
 30
    0.00
 40
    0.2
  0
LINE
  8
CONTOURS_HAUTEURS
 10
    49.37
 20
    -178.79
 30
    0.00
 11
    50.47
 21
    -179.42
 31
    0.00
  0
LINE
  8
CONTOURS_HAUTEURS
 10
    49.37
 20
    -176.29
 30
    0.00
 11
    50.47
 21
    -177.22
 31
    0.00
  0
TEXT
  8
STATIONS
 10
    50.47
 20
    -177.62
 30
    0.00
 40
    0.4
  1
A11.10
  0
LINE
  8
CHEMINEMENTS
 10
    50.47
 20
    -177.62
 30
    0.00
 11
    51.59
 21
    -178.23
 31
    0.00
  0
CIRCLE
  8
POINTS
 10
    51.59
 20
    -178.23
 30
    0.00
 40
    0.2
  0
LINE
  8
CONTOURS_HAUTEURS
 10
    50.47
 20
    -179.42
 30
    0.00
 11
    51.59
 21
    -179.23
 31
    0.00
  0
LINE
  8
CONTOURS_HAUTEURS
 10
    50.47
 20
    -177.22
 30
    0.00
 11
    51.59
 21
    -176.23
 31
    0.00
  0
TEXT
  8
STATIONS
 10
    51.59
 20
    -178.23
 30
    0.00
 40
    0.4
  1
A11.11
  0
LINE
  8
CHEMINEMENTS
 10
    51.59
 20
    -178.23
 30
    0.00
 11
    55.40
 21
    -181.66
 31
    0.00
  0
CIRCLE
  8
POINTS
 10
    55.40
 20
    -181.66
 30
    0.00
 40
    0.2
  0
LINE
  8
CONTOURS_HAUTEURS
 10
    51.59
 20
    -179.23
 30
    0.00
 11
    55.40
 21
    -182.46
 31
    0.00
  0
LINE
  8
CONTOURS_HAUTEURS
 10
    51.59
 20
    -176.23
 30
    0.00
 11
    55.40
 21
    -181.46
 31
    0.00
  0
TEXT
  8
STATIONS
 10
    55.40
 20
    -181.66
 30
    0.00
 40
    0.4
  1
A11.12
  0
LINE
  8
CHEMINEMENTS
 10
    55.40
 20
    -181.66
 30
    0.00
 11
    58.87
 21
    -183.05
 31
    0.00
  0
CIRCLE
  8
POINTS
 10
    58.87
 20
    -183.05
 30
    0.00
 40
    0.2
  0
LINE
  8
CONTOURS_HAUTEURS
 10
    55.40
 20
    -182.46
 30
    0.00
 11
    58.87
 21
    -185.05
 31
    0.00
  0
LINE
  8
CONTOURS_HAUTEURS
 10
    55.40
 20
    -181.46
 30
    0.00
 11
    58.87
 21
    -179.05
 31
    0.00
  0
TEXT
  8
STATIONS
 10
    58.87
 20
    -183.05
 30
    0.00
 40
    0.4
  1
A11.13
  0
LINE
  8
CHEMINEMENTS
 10
    58.87
 20
    -183.05
 30
    0.00
 11
    60.97
 21
    -186.55
 31
    0.00
  0
CIRCLE
  8
POINTS
 10
    60.97
 20
    -186.55
 30
    0.00
 40
    0.2
  0
LINE
  8
CONTOURS_HAUTEURS
 10
    58.87
 20
    -185.05
 30
    0.00
 11
    60.97
 21
    -189.55
 31
    0.00
  0
LINE
  8
CONTOURS_HAUTEURS
 10
    58.87
 20
    -179.05
 30
    0.00
 11
    60.97
 21
    -184.55
 31
    0.00
  0
TEXT
  8
STATIONS
 10
    60.97
 20
    -186.55
 30
    0.00
 40
    0.4
  1
A11.14
  0
LINE
  8
CHEMINEMENTS
 10
    60.97
 20
    -186.55
 30
    0.00
 11
    64.67
 21
    -190.03
 31
    0.00
  0
CIRCLE
  8
POINTS
 10
    64.67
 20
    -190.03
 30
    0.00
 40
    0.2
  0
LINE
  8
CONTOURS_HAUTEURS
 10
    60.97
 20
    -189.55
 30
    0.00
 11
    64.67
 21
    -191.03
 31
    0.00
  0
LINE
  8
CONTOURS_HAUTEURS
 10
    60.97
 20
    -184.55
 30
    0.00
 11
    64.67
 21
    -185.03
 31
    0.00
  0
TEXT
  8
STATIONS
 10
    64.67
 20
    -190.03
 30
    0.00
 40
    0.4
  1
A11.15
  0
LINE
  8
CHEMINEMENTS
 10
    64.67
 20
    -190.03
 30
    0.00
 11
    66.02
 21
    -192.48
 31
    0.00
  0
CIRCLE
  8
POINTS
 10
    66.02
 20
    -192.48
 30
    0.00
 40
    0.2
  0
LINE
  8
CONTOURS_HAUTEURS
 10
    64.67
 20
    -191.03
 30
    0.00
 11
    66.02
 21
    -193.08
 31
    0.00
  0
LINE
  8
CONTOURS_HAUTEURS
 10
    64.67
 20
    -185.03
 30
    0.00
 11
    66.02
 21
    -192.38
 31
    0.00
  0
TEXT
  8
STATIONS
 10
    66.02
 20
    -192.48
 30
    0.00
 40
    0.4
  1
A11.16
  0
LINE
  8
CHEMINEMENTS
 10
    66.02
 20
    -192.48
 30
    0.00
 11
    67.85
 21
    -193.08
 31
    0.00
  0
CIRCLE
  8
POINTS
 10
    67.85
 20
    -193.08
 30
    0.00
 40
    0.2
  0
LINE
  8
CONTOURS_HAUTEURS
 10
    66.02
 20
    -193.08
 30
    0.00
 11
    67.85
 21
    -193.48
 31
    0.00
  0
LINE
  8
CONTOURS_HAUTEURS
 10
    66.02
 20
    -192.38
 30
    0.00
 11
    67.85
 21
    -192.68
 31
    0.00
  0
TEXT
  8
STATIONS
 10
    67.85
 20
    -193.08
 30
    0.00
 40
    0.4
  1
A11.17
  0
LINE
  8
CHEMINEMENTS
 10
    67.85
 20
    -193.08
 30
    0.00
 11
    70.36
 21
    -193.87
 31
    0.00
  0
CIRCLE
  8
POINTS
 10
    70.36
 20
    -193.87
 30
    0.00
 40
    0.2
  0
LINE
  8
CONTOURS_HAUTEURS
 10
    67.85
 20
    -193.48
 30
    0.00
 11
    70.36
 21
    -193.87
 31
    0.00
  0
LINE
  8
CONTOURS_HAUTEURS
 10
    67.85
 20
    -192.68
 30
    0.00
 11
    70.36
 21
    -188.87
 31
    0.00
  0
TEXT
  8
STATIONS
 10
    70.36
 20
    -193.87
 30
    0.00
 40
    0.4
  1
A11.18
  0
LINE
  8
CHEMINEMENTS
 10
    70.36
 20
    -193.87
 30
    0.00
 11
    70.67
 21
    -198.71
 31
    0.00
  0
CIRCLE
  8
POINTS
 10
    70.67
 20
    -198.71
 30
    0.00
 40
    0.2
  0
LINE
  8
CONTOURS_HAUTEURS
 10
    70.36
 20
    -193.87
 30
    0.00
 11
    70.67
 21
    -200.21
 31
    0.00
  0
LINE
  8
CONTOURS_HAUTEURS
 10
    70.36
 20
    -188.87
 30
    0.00
 11
    70.67
 21
    -197.71
 31
    0.00
  0
TEXT
  8
STATIONS
 10
    70.67
 20
    -198.71
 30
    0.00
 40
    0.4
  1
A11.19
  0
LINE
  8
CHEMINEMENTS
 10
    70.67
 20
    -198.71
 30
    0.00
 11
    74.14
 21
    -197.06
 31
    0.00
  0
CIRCLE
  8
POINTS
 10
    74.14
 20
    -197.06
 30
    0.00
 40
    0.2
  0
LINE
  8
CONTOURS_HAUTEURS
 10
    70.67
 20
    -200.21
 30
    0.00
 11
    74.14
 21
    -199.06
 31
    0.00
  0
LINE
  8
CONTOURS_HAUTEURS
 10
    70.67
 20
    -197.71
 30
    0.00
 11
    74.14
 21
    -195.26
 31
    0.00
  0
TEXT
  8
STATIONS
 10
    74.14
 20
    -197.06
 30
    0.00
 40
    0.4
  1
A11.20
  0
LINE
  8
CHEMINEMENTS
 10
    74.14
 20
    -197.06
 30
    0.00
 11
    77.68
 21
    -198.22
 31
    0.00
  0
CIRCLE
  8
POINTS
 10
    77.68
 20
    -198.22
 30
    0.00
 40
    0.2
  0
LINE
  8
CONTOURS_HAUTEURS
 10
    74.14
 20
    -199.06
 30
    0.00
 11
    77.68
 21
    -200.72
 31
    0.00
  0
LINE
  8
CONTOURS_HAUTEURS
 10
    74.14
 20
    -195.26
 30
    0.00
 11
    77.68
 21
    -196.72
 31
    0.00
  0
TEXT
  8
STATIONS
 10
    77.68
 20
    -198.22
 30
    0.00
 40
    0.4
  1
A11.21
  0
LINE
  8
CHEMINEMENTS
 10
    77.68
 20
    -198.22
 30
    0.00
 11
    81.02
 21
    -199.49
 31
    0.00
  0
CIRCLE
  8
POINTS
 10
    81.02
 20
    -199.49
 30
    0.00
 40
    0.2
  0
LINE
  8
CONTOURS_HAUTEURS
 10
    77.68
 20
    -200.72
 30
    0.00
 11
    81.02
 21
    -201.99
 31
    0.00
  0
LINE
  8
CONTOURS_HAUTEURS
 10
    77.68
 20
    -196.72
 30
    0.00
 11
    81.02
 21
    -196.49
 31
    0.00
  0
TEXT
  8
STATIONS
 10
    81.02
 20
    -199.49
 30
    0.00
 40
    0.4
  1
A11.22
  0
LINE
  8
CHEMINEMENTS
 10
    81.02
 20
    -199.49
 30
    0.00
 11
    82.38
 21
    -200.09
 31
    0.00
  0
CIRCLE
  8
POINTS
 10
    82.38
 20
    -200.09
 30
    0.00
 40
    0.2
  0
LINE
  8
CONTOURS_HAUTEURS
 10
    81.02
 20
    -201.99
 30
    0.00
 11
    82.38
 21
    -203.09
 31
    0.00
  0
LINE
  8
CONTOURS_HAUTEURS
 10
    81.02
 20
    -196.49
 30
    0.00
 11
    82.38
 21
    -196.09
 31
    0.00
  0
TEXT
  8
STATIONS
 10
    82.38
 20
    -200.09
 30
    0.00
 40
    0.4
  1
A11.23
  0
LINE
  8
CHEMINEMENTS
 10
    82.38
 20
    -200.09
 30
    0.00
 11
    83.08
 21
    -199.85
 31
    0.00
  0
CIRCLE
  8
POINTS
 10
    83.08
 20
    -199.85
 30
    0.00
 40
    0.2
  0
LINE
  8
CONTOURS_HAUTEURS
 10
    82.38
 20
    -203.09
 30
    0.00
 11
    83.08
 21
    -200.95
 31
    0.00
  0
LINE
  8
CONTOURS_HAUTEURS
 10
    82.38
 20
    -196.09
 30
    0.00
 11
    83.08
 21
    -198.35
 31
    0.00
  0
TEXT
  8
STATIONS
 10
    83.08
 20
    -199.85
 30
    0.00
 40
    0.4
  1
A11.24
  0
LINE
  8
CHEMINEMENTS
 10
    83.08
 20
    -199.85
 30
    0.00
 11
    84.19
 21
    -199.51
 31
    0.00
  0
CIRCLE
  8
POINTS
 10
    84.19
 20
    -199.51
 30
    0.00
 40
    0.2
  0
LINE
  8
CONTOURS_HAUTEURS
 10
    83.08
 20
    -200.95
 30
    0.00
 11
    84.19
 21
    -199.61
 31
    0.00
  0
LINE
  8
CONTOURS_HAUTEURS
 10
    83.08
 20
    -198.35
 30
    0.00
 11
    84.19
 21
    -194.51
 31
    0.00
  0
TEXT
  8
STATIONS
 10
    84.19
 20
    -199.51
 30
    0.00
 40
    0.4
  1
A11.25
  0
LINE
  8
CHEMINEMENTS
 10
    84.19
 20
    -199.51
 30
    0.00
 11
    85.16
 21
    -205.15
 31
    0.00
  0
CIRCLE
  8
POINTS
 10
    85.16
 20
    -205.15
 30
    0.00
 40
    0.2
  0
LINE
  8
CONTOURS_HAUTEURS
 10
    84.19
 20
    -199.61
 30
    0.00
 11
    85.16
 21
    -207.65
 31
    0.00
  0
LINE
  8
CONTOURS_HAUTEURS
 10
    84.19
 20
    -194.51
 30
    0.00
 11
    85.16
 21
    -201.65
 31
    0.00
  0
TEXT
  8
STATIONS
 10
    85.16
 20
    -205.15
 30
    0.00
 40
    0.4
  1
A11.26
  0
LINE
  8
CHEMINEMENTS
 10
    85.16
 20
    -205.15
 30
    0.00
 11
    86.74
 21
    -202.88
 31
    0.00
  0
CIRCLE
  8
POINTS
 10
    86.74
 20
    -202.88
 30
    0.00
 40
    0.2
  0
LINE
  8
CONTOURS_HAUTEURS
 10
    85.16
 20
    -207.65
 30
    0.00
 11
    86.74
 21
    -203.88
 31
    0.00
  0
LINE
  8
CONTOURS_HAUTEURS
 10
    85.16
 20
    -201.65
 30
    0.00
 11
    86.74
 21
    -202.48
 31
    0.00
  0
TEXT
  8
STATIONS
 10
    86.74
 20
    -202.88
 30
    0.00
 40
    0.4
  1
A11.27
  0
LINE
  8
CHEMINEMENTS
 10
    86.74
 20
    -202.88
 30
    0.00
 11
    88.25
 21
    -202.40
 31
    0.00
  0
CIRCLE
  8
POINTS
 10
    88.25
 20
    -202.40
 30
    0.00
 40
    0.2
  0
LINE
  8
CONTOURS_HAUTEURS
 10
    86.74
 20
    -203.88
 30
    0.00
 11
    88.25
 21
    -204.40
 31
    0.00
  0
LINE
  8
CONTOURS_HAUTEURS
 10
    86.74
 20
    -202.48
 30
    0.00
 11
    88.25
 21
    -190.40
 31
    0.00
  0
TEXT
  8
STATIONS
 10
    88.25
 20
    -202.40
 30
    0.00
 40
    0.4
  1
A11.28
  0
LINE
  8
CHEMINEMENTS
 10
    55.40
 20
    -181.66
 30
    0.00
 11
    55.40
 21
    -181.66
 31
    0.00
  0
CIRCLE
  8
POINTS
 10
    55.40
 20
    -181.66
 30
    0.00
 40
    0.2
  0
LINE
  8
CONTOURS_HAUTEURS
 10
    55.40
 20
    -182.46
 30
    0.00
 11
    55.40
 21
    -185.66
 31
    0.00
  0
LINE
  8
CONTOURS_HAUTEURS
 10
    55.40
 20
    -181.46
 30
    0.00
 11
    55.40
 21
    -180.66
 31
    0.00
  0
TEXT
  8
STATIONS
 10
    55.40
 20
    -181.66
 30
    0.00
 40
    0.4
  1
A12.0
  0
LINE
  8
CHEMINEMENTS
 10
    55.40
 20
    -181.66
 30
    0.00
 11
    55.70
 21
    -184.87
 31
    0.00
  0
CIRCLE
  8
POINTS
 10
    55.70
 20
    -184.87
 30
    0.00
 40
    0.2
  0
LINE
  8
CONTOURS_HAUTEURS
 10
    55.40
 20
    -185.66
 30
    0.00
 11
    55.70
 21
    -184.97
 31
    0.00
  0
LINE
  8
CONTOURS_HAUTEURS
 10
    55.40
 20
    -180.66
 30
    0.00
 11
    55.70
 21
    -178.87
 31
    0.00
  0
TEXT
  8
STATIONS
 10
    55.70
 20
    -184.87
 30
    0.00
 40
    0.4
  1
A12.1
  0
LINE
  8
CHEMINEMENTS
 10
    55.70
 20
    -184.87
 30
    0.00
 11
    58.71
 21
    -192.35
 31
    0.00
  0
CIRCLE
  8
POINTS
 10
    58.71
 20
    -192.35
 30
    0.00
 40
    0.2
  0
LINE
  8
CONTOURS_HAUTEURS
 10
    55.70
 20
    -184.97
 30
    0.00
 11
    58.71
 21
    -192.35
 31
    0.00
  0
LINE
  8
CONTOURS_HAUTEURS
 10
    55.70
 20
    -178.87
 30
    0.00
 11
    58.71
 21
    -182.35
 31
    0.00
  0
TEXT
  8
STATIONS
 10
    58.71
 20
    -192.35
 30
    0.00
 40
    0.4
  1
A12.2
  0
LINE
  8
CHEMINEMENTS
 10
    58.71
 20
    -192.35
 30
    0.00
 11
    58.71
 21
    -192.35
 31
    0.00
  0
CIRCLE
  8
POINTS
 10
    58.71
 20
    -192.35
 30
    0.00
 40
    0.2
  0
LINE
  8
CONTOURS_HAUTEURS
 10
    58.71
 20
    -192.35
 30
    0.00
 11
    58.71
 21
    -192.35
 31
    0.00
  0
LINE
  8
CONTOURS_HAUTEURS
 10
    58.71
 20
    -182.35
 30
    0.00
 11
    58.71
 21
    -192.35
 31
    0.00
  0
LINE
  8
CONTOURS_HAUTEURS
 10
    58.71
 20
    -192.35
 30
    0.00
 11
    58.71
 21
    -192.35
 31
    0.00
  0
TEXT
  8
STATIONS
 10
    58.71
 20
    -192.35
 30
    0.00
 40
    0.4
  1
A12.2B
  0
TEXT
  8
PROFONDEURS
 10
    58.71
 20
    -192.35
 30
    0.00
 40
    0.6
  1
-192
  0
LINE
  8
CHEMINEMENTS
 10
    66.02
 20
    -192.48
 30
    0.00
 11
    66.02
 21
    -192.48
 31
    0.00
  0
CIRCLE
  8
POINTS
 10
    66.02
 20
    -192.48
 30
    0.00
 40
    0.2
  0
LINE
  8
CONTOURS_HAUTEURS
 10
    66.02
 20
    -193.08
 30
    0.00
 11
    66.02
 21
    -192.58
 31
    0.00
  0
LINE
  8
CONTOURS_HAUTEURS
 10
    66.02
 20
    -192.38
 30
    0.00
 11
    66.02
 21
    -192.38
 31
    0.00
  0
TEXT
  8
STATIONS
 10
    66.02
 20
    -192.48
 30
    0.00
 40
    0.4
  1
A13.0
  0
LINE
  8
CHEMINEMENTS
 10
    66.02
 20
    -192.48
 30
    0.00
 11
    71.68
 21
    -192.98
 31
    0.00
  0
CIRCLE
  8
POINTS
 10
    71.68
 20
    -192.98
 30
    0.00
 40
    0.2
  0
LINE
  8
CONTOURS_HAUTEURS
 10
    66.02
 20
    -192.58
 30
    0.00
 11
    71.68
 21
    -193.08
 31
    0.00
  0
LINE
  8
CONTOURS_HAUTEURS
 10
    66.02
 20
    -192.38
 30
    0.00
 11
    71.68
 21
    -192.88
 31
    0.00
  0
TEXT
  8
STATIONS
 10
    71.68
 20
    -192.98
 30
    0.00
 40
    0.4
  1
A13.1
  0
LINE
  8
CHEMINEMENTS
 10
    71.68
 20
    -192.98
 30
    0.00
 11
    71.68
 21
    -192.98
 31
    0.00
  0
CIRCLE
  8
POINTS
 10
    71.68
 20
    -192.98
 30
    0.00
 40
    0.2
  0
LINE
  8
CONTOURS_HAUTEURS
 10
    71.68
 20
    -193.08
 30
    0.00
 11
    71.68
 21
    -192.98
 31
    0.00
  0
LINE
  8
CONTOURS_HAUTEURS
 10
    71.68
 20
    -192.88
 30
    0.00
 11
    71.68
 21
    -192.98
 31
    0.00
  0
LINE
  8
CONTOURS_HAUTEURS
 10
    71.68
 20
    -192.98
 30
    0.00
 11
    71.68
 21
    -192.98
 31
    0.00
  0
TEXT
  8
STATIONS
 10
    71.68
 20
    -192.98
 30
    0.00
 40
    0.4
  1
A13.1B
  0
TEXT
  8
PROFONDEURS
 10
    71.68
 20
    -192.98
 30
    0.00
 40
    0.6
  1
-193
  0
LINE
  8
CHEMINEMENTS
 10
    70.67
 20
    -198.71
 30
    0.00
 11
    70.67
 21
    -198.71
 31
    0.00
  0
CIRCLE
  8
POINTS
 10
    70.67
 20
    -198.71
 30
    0.00
 40
    0.2
  0
LINE
  8
CONTOURS_HAUTEURS
 10
    70.67
 20
    -200.21
 30
    0.00
 11
    70.67
 21
    -198.81
 31
    0.00
  0
LINE
  8
CONTOURS_HAUTEURS
 10
    70.67
 20
    -197.71
 30
    0.00
 11
    70.67
 21
    -198.61
 31
    0.00
  0
TEXT
  8
STATIONS
 10
    70.67
 20
    -198.71
 30
    0.00
 40
    0.4
  1
A14.0
  0
LINE
  8
CHEMINEMENTS
 10
    70.67
 20
    -198.71
 30
    0.00
 11
    76.36
 21
    -198.56
 31
    0.00
  0
CIRCLE
  8
POINTS
 10
    76.36
 20
    -198.56
 30
    0.00
 40
    0.2
  0
LINE
  8
CONTOURS_HAUTEURS
 10
    70.67
 20
    -198.81
 30
    0.00
 11
    76.36
 21
    -198.66
 31
    0.00
  0
LINE
  8
CONTOURS_HAUTEURS
 10
    70.67
 20
    -198.61
 30
    0.00
 11
    76.36
 21
    -198.46
 31
    0.00
  0
TEXT
  8
STATIONS
 10
    76.36
 20
    -198.56
 30
    0.00
 40
    0.4
  1
A14.1
  0
LINE
  8
CHEMINEMENTS
 10
    76.36
 20
    -198.56
 30
    0.00
 11
    76.36
 21
    -198.56
 31
    0.00
  0
CIRCLE
  8
POINTS
 10
    76.36
 20
    -198.56
 30
    0.00
 40
    0.2
  0
LINE
  8
CONTOURS_HAUTEURS
 10
    76.36
 20
    -198.66
 30
    0.00
 11
    76.36
 21
    -198.56
 31
    0.00
  0
LINE
  8
CONTOURS_HAUTEURS
 10
    76.36
 20
    -198.46
 30
    0.00
 11
    76.36
 21
    -198.56
 31
    0.00
  0
LINE
  8
CONTOURS_HAUTEURS
 10
    76.36
 20
    -198.56
 30
    0.00
 11
    76.36
 21
    -198.56
 31
    0.00
  0
TEXT
  8
STATIONS
 10
    76.36
 20
    -198.56
 30
    0.00
 40
    0.4
  1
A14.1B
  0
TEXT
  8
PROFONDEURS
 10
    76.36
 20
    -198.56
 30
    0.00
 40
    0.6
  1
-199
  0
LINE
  8
CHEMINEMENTS
 10
    107.24
 20
    -233.70
 30
    0.00
 11
    107.24
 21
    -237.20
 31
    0.00
  0
CIRCLE
  8
POINTS
 10
    107.24
 20
    -237.20
 30
    0.00
 40
    0.2
  0
LINE
  8
CONTOURS_HAUTEURS
 10
    107.24
 20
    -234.88
 30
    0.00
 11
    107.24
 21
    -237.20
 31
    0.00
  0
LINE
  8
CONTOURS_HAUTEURS
 10
    107.24
 20
    -228.16
 30
    0.00
 11
    107.24
 21
    -237.20
 31
    0.00
  0
LINE
  8
CONTOURS_HAUTEURS
 10
    107.24
 20
    -237.20
 30
    0.00
 11
    107.24
 21
    -237.20
 31
    0.00
  0
TEXT
  8
STATIONS
 10
    107.24
 20
    -237.20
 30
    0.00
 40
    0.4
  1
2023.0
  0
TEXT
  8
PROFONDEURS
 10
    107.24
 20
    -237.20
 30
    0.00
 40
    0.6
  1
-237
  0
LINE
  8
RADIALES
 10
    107.24
 20
    -237.20
 30
    0.00
 11
    108.52
 21
    -237.15
 31
    0.00
  0
LINE
  8
RADIALES
 10
    107.24
 20
    -237.20
 30
    0.00
 11
    107.69
 21
    -237.22
 31
    0.00
  0
LINE
  8
RADIALES
 10
    107.24
 20
    -237.20
 30
    0.00
 11
    107.45
 21
    -231.66
 31
    0.00
  0
LINE
  8
RADIALES
 10
    107.24
 20
    -237.20
 30
    0.00
 11
    107.20
 21
    -238.38
 31
    0.00
  0
LINE
  8
CHEMINEMENTS
 10
    104.04
 20
    -233.21
 30
    0.00
 11
    107.24
 21
    -233.70
 31
    0.00
  0
CIRCLE
  8
POINTS
 10
    107.24
 20
    -233.70
 30
    0.00
 40
    0.2
  0
LINE
  8
CONTOURS_HAUTEURS
 10
    104.04
 20
    -234.34
 30
    0.00
 11
    107.24
 21
    -234.88
 31
    0.00
  0
LINE
  8
CONTOURS_HAUTEURS
 10
    104.04
 20
    -226.20
 30
    0.00
 11
    107.24
 21
    -228.16
 31
    0.00
  0
TEXT
  8
STATIONS
 10
    107.24
 20
    -233.70
 30
    0.00
 40
    0.4
  1
2023
  0
LINE
  8
RADIALES
 10
    104.04
 20
    -233.21
 30
    0.00
 11
    102.30
 21
    -233.23
 31
    0.00
  0
LINE
  8
RADIALES
 10
    104.04
 20
    -233.21
 30
    0.00
 11
    104.98
 21
    -233.18
 31
    0.00
  0
LINE
  8
RADIALES
 10
    104.04
 20
    -233.21
 30
    0.00
 11
    102.48
 21
    -226.20
 31
    0.00
  0
LINE
  8
RADIALES
 10
    104.04
 20
    -233.21
 30
    0.00
 11
    103.99
 21
    -234.34
 31
    0.00
  0
LINE
  8
CHEMINEMENTS
 10
    102.57
 20
    -228.15
 30
    0.00
 11
    104.04
 21
    -233.21
 31
    0.00
  0
CIRCLE
  8
POINTS
 10
    104.04
 20
    -233.21
 30
    0.00
 40
    0.2
  0
LINE
  8
CONTOURS_HAUTEURS
 10
    102.57
 20
    -234.23
 30
    0.00
 11
    104.04
 21
    -234.34
 31
    0.00
  0
LINE
  8
CONTOURS_HAUTEURS
 10
    102.57
 20
    -225.32
 30
    0.00
 11
    104.04
 21
    -226.20
 31
    0.00
  0
TEXT
  8
STATIONS
 10
    104.04
 20
    -233.21
 30
    0.00
 40
    0.4
  1
2023.1
  0
LINE
  8
RADIALES
 10
    102.57
 20
    -228.15
 30
    0.00
 11
    102.18
 21
    -228.12
 31
    0.00
  0
LINE
  8
RADIALES
 10
    102.57
 20
    -228.15
 30
    0.00
 11
    102.94
 21
    -228.11
 31
    0.00
  0
LINE
  8
RADIALES
 10
    102.57
 20
    -228.15
 30
    0.00
 11
    102.83
 21
    -225.31
 31
    0.00
  0
LINE
  8
RADIALES
 10
    102.57
 20
    -228.15
 30
    0.00
 11
    102.96
 21
    -234.23
 31
    0.00
  0
LINE
  8
CHEMINEMENTS
 10
    99.89
 20
    -228.10
 30
    0.00
 11
    102.57
 21
    -228.15
 31
    0.00
  0
CIRCLE
  8
POINTS
 10
    102.57
 20
    -228.15
 30
    0.00
 40
    0.2
  0
LINE
  8
CONTOURS_HAUTEURS
 10
    99.89
 20
    -229.29
 30
    0.00
 11
    102.57
 21
    -234.23
 31
    0.00
  0
LINE
  8
CONTOURS_HAUTEURS
 10
    99.89
 20
    -223.40
 30
    0.00
 11
    102.57
 21
    -225.32
 31
    0.00
  0
TEXT
  8
STATIONS
 10
    102.57
 20
    -228.15
 30
    0.00
 40
    0.4
  1
2023.2
  0
LINE
  8
RADIALES
 10
    99.89
 20
    -228.10
 30
    0.00
 11
    98.97
 21
    -228.03
 31
    0.00
  0
LINE
  8
RADIALES
 10
    99.89
 20
    -228.10
 30
    0.00
 11
    100.71
 21
    -227.93
 31
    0.00
  0
LINE
  8
RADIALES
 10
    99.89
 20
    -228.10
 30
    0.00
 11
    98.37
 21
    -223.39
 31
    0.00
  0
LINE
  8
RADIALES
 10
    99.89
 20
    -228.10
 30
    0.00
 11
    99.67
 21
    -229.29
 31
    0.00
  0
LINE
  8
CHEMINEMENTS
 10
    98.46
 20
    -223.30
 30
    0.00
 11
    99.89
 21
    -228.10
 31
    0.00
  0
CIRCLE
  8
POINTS
 10
    99.89
 20
    -228.10
 30
    0.00
 40
    0.2
  0
LINE
  8
CONTOURS_HAUTEURS
 10
    98.46
 20
    -223.30
 30
    0.00
 11
    99.89
 21
    -229.29
 31
    0.00
  0
LINE
  8
CONTOURS_HAUTEURS
 10
    98.46
 20
    -223.30
 30
    0.00
 11
    99.89
 21
    -223.40
 31
    0.00
  0
TEXT
  8
STATIONS
 10
    99.89
 20
    -228.10
 30
    0.00
 40
    0.4
  1
2023.3
  0
LINE
  8
RADIALES
 10
    93.64
 20
    -221.62
 30
    0.00
 11
    94.62
 21
    -221.49
 31
    0.00
  0
LINE
  8
RADIALES
 10
    93.64
 20
    -221.62
 30
    0.00
 11
    94.65
 21
    -221.63
 31
    0.00
  0
LINE
  8
RADIALES
 10
    93.64
 20
    -221.62
 30
    0.00
 11
    93.60
 21
    -221.46
 31
    0.00
  0
LINE
  8
RADIALES
 10
    93.64
 20
    -221.62
 30
    0.00
 11
    91.64
 21
    -213.69
 31
    0.00
  0
LINE
  8
RADIALES
 10
    93.64
 20
    -221.62
 30
    0.00
 11
    94.77
 21
    -228.41
 31
    0.00
  0
LINE
  8
CHEMINEMENTS
 10
    98.46
 20
    -223.30
 30
    0.00
 11
    100.86
 21
    -212.76
 31
    0.00
  0
CIRCLE
  8
POINTS
 10
    100.86
 20
    -212.76
 30
    0.00
 40
    0.2
  0
LINE
  8
CONTOURS_HAUTEURS
 10
    98.46
 20
    -223.30
 30
    0.00
 11
    100.86
 21
    -213.85
 31
    0.00
  0
LINE
  8
CONTOURS_HAUTEURS
 10
    98.46
 20
    -223.30
 30
    0.00
 11
    100.86
 21
    -211.76
 31
    0.00
  0
TEXT
  8
STATIONS
 10
    100.86
 20
    -212.76
 30
    0.00
 40
    0.4
  1
2023.A
  0
LINE
  8
RADIALES
 10
    100.86
 20
    -212.76
 30
    0.00
 11
    101.30
 21
    -212.73
 31
    0.00
  0
LINE
  8
RADIALES
 10
    100.86
 20
    -212.76
 30
    0.00
 11
    100.67
 21
    -212.73
 31
    0.00
  0
LINE
  8
RADIALES
 10
    100.86
 20
    -212.76
 30
    0.00
 11
    101.13
 21
    -211.77
 31
    0.00
  0
LINE
  8
RADIALES
 10
    100.86
 20
    -212.76
 30
    0.00
 11
    100.76
 21
    -213.84
 31
    0.00
  0
LINE
  8
CHEMINEMENTS
 10
    100.86
 20
    -212.76
 30
    0.00
 11
    104.42
 21
    -209.76
 31
    0.00
  0
CIRCLE
  8
POINTS
 10
    104.42
 20
    -209.76
 30
    0.00
 40
    0.2
  0
LINE
  8
CONTOURS_HAUTEURS
 10
    100.86
 20
    -213.85
 30
    0.00
 11
    104.42
 21
    -210.83
 31
    0.00
  0
LINE
  8
CONTOURS_HAUTEURS
 10
    100.86
 20
    -211.76
 30
    0.00
 11
    104.42
 21
    -202.78
 31
    0.00
  0
TEXT
  8
STATIONS
 10
    104.42
 20
    -209.76
 30
    0.00
 40
    0.4
  1
2023.B
  0
LINE
  8
RADIALES
 10
    104.42
 20
    -209.76
 30
    0.00
 11
    104.92
 21
    -209.71
 31
    0.00
  0
LINE
  8
RADIALES
 10
    104.42
 20
    -209.76
 30
    0.00
 11
    104.19
 21
    -209.79
 31
    0.00
  0
LINE
  8
RADIALES
 10
    104.42
 20
    -209.76
 30
    0.00
 11
    103.08
 21
    -202.78
 31
    0.00
  0
LINE
  8
RADIALES
 10
    104.42
 20
    -209.76
 30
    0.00
 11
    104.50
 21
    -210.84
 31
    0.00
  0
LINE
  8
CHEMINEMENTS
 10
    104.42
 20
    -209.76
 30
    0.00
 11
    107.65
 21
    -199.92
 31
    0.00
  0
CIRCLE
  8
POINTS
 10
    107.65
 20
    -199.92
 30
    0.00
 40
    0.2
  0
LINE
  8
CONTOURS_HAUTEURS
 10
    104.42
 20
    -210.83
 30
    0.00
 11
    107.65
 21
    -210.46
 31
    0.00
  0
LINE
  8
CONTOURS_HAUTEURS
 10
    104.42
 20
    -202.78
 30
    0.00
 11
    107.65
 21
    -189.50
 31
    0.00
  0
TEXT
  8
STATIONS
 10
    107.65
 20
    -199.92
 30
    0.00
 40
    0.4
  1
2023.C
  0
LINE
  8
RADIALES
 10
    107.65
 20
    -199.92
 30
    0.00
 11
    108.34
 21
    -199.89
 31
    0.00
  0
LINE
  8
RADIALES
 10
    107.65
 20
    -199.92
 30
    0.00
 11
    107.47
 21
    -199.91
 31
    0.00
  0
LINE
  8
RADIALES
 10
    107.65
 20
    -199.92
 30
    0.00
 11
    110.78
 21
    -189.50
 31
    0.00
  0
LINE
  8
RADIALES
 10
    107.65
 20
    -199.92
 30
    0.00
 11
    105.47
 21
    -210.46
 31
    0.00
  0
LINE
  8
CHEMINEMENTS
 10
    107.65
 20
    -199.92
 30
    0.00
 11
    107.69
 21
    -199.77
 31
    0.00
  0
CIRCLE
  8
POINTS
 10
    107.69
 20
    -199.77
 30
    0.00
 40
    0.2
  0
LINE
  8
CONTOURS_HAUTEURS
 10
    107.65
 20
    -210.46
 30
    0.00
 11
    107.69
 21
    -199.77
 31
    0.00
  0
LINE
  8
CONTOURS_HAUTEURS
 10
    107.65
 20
    -189.50
 30
    0.00
 11
    107.69
 21
    -199.77
 31
    0.00
  0
TEXT
  8
STATIONS
 10
    107.69
 20
    -199.77
 30
    0.00
 40
    0.4
  1
2023.D
  0
LINE
  8
RADIALES
 10
    111.58
 20
    -185.28
 30
    0.00
 11
    110.60
 21
    -185.21
 31
    0.00
  0
LINE
  8
RADIALES
 10
    111.58
 20
    -185.28
 30
    0.00
 11
    111.76
 21
    -185.29
 31
    0.00
  0
LINE
  8
RADIALES
 10
    111.58
 20
    -185.28
 30
    0.00
 11
    110.85
 21
    -185.32
 31
    0.00
  0
LINE
  8
RADIALES
 10
    111.58
 20
    -185.28
 30
    0.00
 11
    110.90
 21
    -186.67
 31
    0.00
  0
LINE
  8
RADIALES
 10
    111.58
 20
    -185.28
 30
    0.00
 11
    109.81
 21
    -192.46
 31
    0.00
  0
LINE
  8
RADIALES
 10
    98.46
 20
    -223.30
 30
    0.00
 11
    99.02
 21
    -223.27
 31
    0.00
  0
LINE
  8
RADIALES
 10
    98.46
 20
    -223.30
 30
    0.00
 11
    97.51
 21
    -223.25
 31
    0.00
  0
LINE
  8
RADIALES
 10
    98.46
 20
    -223.30
 30
    0.00
 11
    98.92
 21
    -229.41
 31
    0.00
  0
LINE
  8
RADIALES
 10
    98.46
 20
    -223.30
 30
    0.00
 11
    100.53
 21
    -215.91
 31
    0.00
  0
LINE
  8
CHEMINEMENTS
 10
    93.64
 20
    -221.62
 30
    0.00
 11
    98.46
 21
    -223.30
 31
    0.00
  0
CIRCLE
  8
POINTS
 10
    98.46
 20
    -223.30
 30
    0.00
 40
    0.2
  0
LINE
  8
CONTOURS_HAUTEURS
 10
    93.64
 20
    -228.41
 30
    0.00
 11
    98.46
 21
    -223.30
 31
    0.00
  0
LINE
  8
CONTOURS_HAUTEURS
 10
    93.64
 20
    -209.59
 30
    0.00
 11
    98.46
 21
    -223.30
 31
    0.00
  0
TEXT
  8
STATIONS
 10
    98.46
 20
    -223.30
 30
    0.00
 40
    0.4
  1
2023.4
  0
LINE
  8
RADIALES
 10
    93.64
 20
    -221.62
 30
    0.00
 11
    93.86
 21
    -221.75
 31
    0.00
  0
LINE
  8
RADIALES
 10
    93.64
 20
    -221.62
 30
    0.00
 11
    91.90
 21
    -221.67
 31
    0.00
  0
LINE
  8
RADIALES
 10
    93.64
 20
    -221.62
 30
    0.00
 11
    91.06
 21
    -209.58
 31
    0.00
  0
LINE
  8
RADIALES
 10
    93.64
 20
    -221.62
 30
    0.00
 11
    92.40
 21
    -222.49
 31
    0.00
  0
LINE
  8
CHEMINEMENTS
 10
    91.04
 20
    -209.52
 30
    0.00
 11
    93.64
 21
    -221.62
 31
    0.00
  0
CIRCLE
  8
POINTS
 10
    93.64
 20
    -221.62
 30
    0.00
 40
    0.2
  0
LINE
  8
CONTOURS_HAUTEURS
 10
    91.04
 20
    -209.52
 30
    0.00
 11
    93.64
 21
    -228.41
 31
    0.00
  0
LINE
  8
CONTOURS_HAUTEURS
 10
    91.04
 20
    -209.52
 30
    0.00
 11
    93.64
 21
    -209.59
 31
    0.00
  0
TEXT
  8
STATIONS
 10
    93.64
 20
    -221.62
 30
    0.00
 40
    0.4
  1
2023.5
  0
LINE
  8
RADIALES
 10
    91.04
 20
    -209.52
 30
    0.00
 11
    91.50
 21
    -209.49
 31
    0.00
  0
LINE
  8
RADIALES
 10
    91.04
 20
    -209.52
 30
    0.00
 11
    90.12
 21
    -209.51
 31
    0.00
  0
LINE
  8
RADIALES
 10
    91.04
 20
    -209.52
 30
    0.00
 11
    90.23
 21
    -205.54
 31
    0.00
  0
LINE
  8
RADIALES
 10
    91.04
 20
    -209.52
 30
    0.00
 11
    92.44
 21
    -220.00
 31
    0.00
  0
LINE
  8
CHEMINEMENTS
 10
    91.04
 20
    -209.52
 30
    0.00
 11
    94.59
 21
    -206.99
 31
    0.00
  0
CIRCLE
  8
POINTS
 10
    94.59
 20
    -206.99
 30
    0.00
 40
    0.2
  0
LINE
  8
CONTOURS_HAUTEURS
 10
    91.04
 20
    -209.52
 30
    0.00
 11
    94.59
 21
    -208.29
 31
    0.00
  0
LINE
  8
CONTOURS_HAUTEURS
 10
    91.04
 20
    -209.52
 30
    0.00
 11
    94.59
 21
    -203.52
 31
    0.00
  0
TEXT
  8
STATIONS
 10
    94.59
 20
    -206.99
 30
    0.00
 40
    0.4
  1
2023.AA
  0
LINE
  8
RADIALES
 10
    94.59
 20
    -206.99
 30
    0.00
 11
    94.82
 21
    -206.96
 31
    0.00
  0
LINE
  8
RADIALES
 10
    94.59
 20
    -206.99
 30
    0.00
 11
    93.95
 21
    -207.04
 31
    0.00
  0
LINE
  8
RADIALES
 10
    94.59
 20
    -206.99
 30
    0.00
 11
    93.88
 21
    -203.51
 31
    0.00
  0
LINE
  8
RADIALES
 10
    94.59
 20
    -206.99
 30
    0.00
 11
    94.78
 21
    -208.28
 31
    0.00
  0
LINE
  8
CHEMINEMENTS
 10
    94.59
 20
    -206.99
 30
    0.00
 11
    98.15
 21
    -206.37
 31
    0.00
  0
CIRCLE
  8
POINTS
 10
    98.15
 20
    -206.37
 30
    0.00
 40
    0.2
  0
LINE
  8
CONTOURS_HAUTEURS
 10
    94.59
 20
    -208.29
 30
    0.00
 11
    98.15
 21
    -206.37
 31
    0.00
  0
LINE
  8
CONTOURS_HAUTEURS
 10
    94.59
 20
    -203.52
 30
    0.00
 11
    98.15
 21
    -204.30
 31
    0.00
  0
TEXT
  8
STATIONS
 10
    98.15
 20
    -206.37
 30
    0.00
 40
    0.4
  1
2023.AB
  0
LINE
  8
RADIALES
 10
    98.15
 20
    -206.37
 30
    0.00
 11
    97.79
 21
    -206.33
 31
    0.00
  0
LINE
  8
RADIALES
 10
    98.15
 20
    -206.37
 30
    0.00
 11
    98.36
 21
    -206.36
 31
    0.00
  0
LINE
  8
RADIALES
 10
    98.15
 20
    -206.37
 30
    0.00
 11
    97.58
 21
    -204.30
 31
    0.00
  0
LINE
  8
CHEMINEMENTS
 10
    98.15
 20
    -206.37
 30
    0.00
 11
    98.95
 21
    -211.58
 31
    0.00
  0
CIRCLE
  8
POINTS
 10
    98.95
 20
    -211.58
 30
    0.00
 40
    0.2
  0
LINE
  8
CONTOURS_HAUTEURS
 10
    98.15
 20
    -206.37
 30
    0.00
 11
    98.95
 21
    -212.18
 31
    0.00
  0
LINE
  8
CONTOURS_HAUTEURS
 10
    98.15
 20
    -204.30
 30
    0.00
 11
    98.95
 21
    -211.57
 31
    0.00
  0
LINE
  8
CONTOURS_HAUTEURS
 10
    98.95
 20
    -212.18
 30
    0.00
 11
    98.95
 21
    -211.57
 31
    0.00
  0
TEXT
  8
STATIONS
 10
    98.95
 20
    -211.58
 30
    0.00
 40
    0.4
  1
2023.AC
  0
TEXT
  8
PROFONDEURS
 10
    98.95
 20
    -211.58
 30
    0.00
 40
    0.6
  1
-212
  0
LINE
  8
RADIALES
 10
    98.95
 20
    -211.58
 30
    0.00
 11
    98.55
 21
    -211.60
 31
    0.00
  0
LINE
  8
RADIALES
 10
    98.95
 20
    -211.58
 30
    0.00
 11
    97.86
 21
    -211.57
 31
    0.00
  0
LINE
  8
RADIALES
 10
    98.95
 20
    -211.58
 30
    0.00
 11
    99.08
 21
    -212.18
 31
    0.00
  0
LINE
  8
RADIALES
 10
    98.95
 20
    -211.58
 30
    0.00
 11
    98.79
 21
    -211.70
 31
    0.00
  0
LINE
  8
RADIALES
 10
    91.04
 20
    -209.52
 30
    0.00
 11
    91.67
 21
    -209.53
 31
    0.00
  0
LINE
  8
RADIALES
 10
    91.04
 20
    -209.52
 30
    0.00
 11
    90.39
 21
    -209.50
 31
    0.00
  0
LINE
  8
RADIALES
 10
    91.04
 20
    -209.52
 30
    0.00
 11
    93.95
 21
    -209.05
 31
    0.00
  0
LINE
  8
CHEMINEMENTS
 10
    88.90
 20
    -202.51
 30
    0.00
 11
    91.04
 21
    -209.52
 31
    0.00
  0
CIRCLE
  8
POINTS
 10
    91.04
 20
    -209.52
 30
    0.00
 40
    0.2
  0
LINE
  8
CONTOURS_HAUTEURS
 10
    88.90
 20
    -203.13
 30
    0.00
 11
    91.04
 21
    -209.52
 31
    0.00
  0
LINE
  8
CONTOURS_HAUTEURS
 10
    88.90
 20
    -200.60
 30
    0.00
 11
    91.04
 21
    -209.52
 31
    0.00
  0
TEXT
  8
STATIONS
 10
    91.04
 20
    -209.52
 30
    0.00
 40
    0.4
  1
2023.6
  0
LINE
  8
RADIALES
 10
    88.90
 20
    -202.51
 30
    0.00
 11
    89.14
 21
    -202.51
 31
    0.00
  0
LINE
  8
RADIALES
 10
    88.90
 20
    -202.51
 30
    0.00
 11
    88.51
 21
    -202.49
 31
    0.00
  0
LINE
  8
RADIALES
 10
    88.90
 20
    -202.51
 30
    0.00
 11
    88.40
 21
    -200.60
 31
    0.00
  0
LINE
  8
RADIALES
 10
    88.90
 20
    -202.51
 30
    0.00
 11
    88.78
 21
    -203.12
 31
    0.00
  0
LINE
  8
CHEMINEMENTS
 10
    88.25
 20
    -202.40
 30
    0.00
 11
    88.90
 21
    -202.51
 31
    0.00
  0
CIRCLE
  8
POINTS
 10
    88.90
 20
    -202.51
 30
    0.00
 40
    0.2
  0
LINE
  8
CONTOURS_HAUTEURS
 10
    88.25
 20
    -204.40
 30
    0.00
 11
    88.90
 21
    -203.13
 31
    0.00
  0
LINE
  8
CONTOURS_HAUTEURS
 10
    88.25
 20
    -190.40
 30
    0.00
 11
    88.90
 21
    -200.60
 31
    0.00
  0
TEXT
  8
STATIONS
 10
    88.90
 20
    -202.51
 30
    0.00
 40
    0.4
  1
2023.7
  0
LINE
  8
CHEMINEMENTS
 10
    107.69
 20
    -199.77
 30
    0.00
 11
    111.58
 21
    -185.28
 31
    0.00
  0
CIRCLE
  8
POINTS
 10
    111.58
 20
    -185.28
 30
    0.00
 40
    0.2
  0
LINE
  8
CONTOURS_HAUTEURS
 10
    107.69
 20
    -199.77
 30
    0.00
 11
    111.58
 21
    -192.46
 31
    0.00
  0
LINE
  8
CONTOURS_HAUTEURS
 10
    107.69
 20
    -199.77
 30
    0.00
 11
    111.58
 21
    -185.21
 31
    0.00
  0
LINE
  8
CONTOURS_HAUTEURS
 10
    111.58
 20
    -192.46
 30
    0.00
 11
    111.58
 21
    -185.21
 31
    0.00
  0
TEXT
  8
STATIONS
 10
    111.58
 20
    -185.28
 30
    0.00
 40
    0.4
  1
2023.E
  0
TEXT
  8
PROFONDEURS
 10
    111.58
 20
    -185.28
 30
    0.00
 40
    0.6
  1
-185
  0
TEXT
  8
ECHELLE
 10
    -49.02
 20
    -260.43
 30
    0.00
 40
    6.1
  1
0
  0
TEXT
  8
ECHELLE
 10
    10.08
 20
    -260.43
 30
    0.00
 40
    6.1
  1
50 m
  0
LINE
  8
ECHELLE
 10
    -42.96
 20
    -254.37
 30
    0.00
 11
    7.04
 21
    -254.37
 31
    0.00
  0
LINE
  8
ECHELLE
 10
    7.04
 20
    -254.37
 30
    0.00
 11
    7.04
 21
    -260.43
 31
    0.00
  0
LINE
  8
ECHELLE
 10
    7.04
 20
    -260.43
 30
    0.00
 11
    -42.96
 21
    -260.43
 31
    0.00
  0
LINE
  8
ECHELLE
 10
    -42.96
 20
    -260.43
 30
    0.00
 11
    -42.96
 21
    -254.37
 31
    0.00
  0
SOLID
  8
ECHELLE
 10
    -42.96
 20
    -254.37
 30
    0.00
 11
    -37.96
 21
    -254.37
 31
    0.00
 12
    -42.96
 22
    -257.40
 32
    0.00
 13
    -37.96
 23
    -257.40
 33
    0.00
  0
SOLID
  8
ECHELLE
 10
    -37.96
 20
    -257.40
 30
    0.00
 11
    -32.96
 21
    -257.40
 31
    0.00
 12
    -37.96
 22
    -260.43
 32
    0.00
 13
    -32.96
 23
    -260.43
 33
    0.00
  0
SOLID
  8
ECHELLE
 10
    -32.96
 20
    -254.37
 30
    0.00
 11
    -27.96
 21
    -254.37
 31
    0.00
 12
    -32.96
 22
    -257.40
 32
    0.00
 13
    -27.96
 23
    -257.40
 33
    0.00
  0
SOLID
  8
ECHELLE
 10
    -27.96
 20
    -257.40
 30
    0.00
 11
    -22.96
 21
    -257.40
 31
    0.00
 12
    -27.96
 22
    -260.43
 32
    0.00
 13
    -22.96
 23
    -260.43
 33
    0.00
  0
SOLID
  8
ECHELLE
 10
    -22.96
 20
    -254.37
 30
    0.00
 11
    -17.96
 21
    -254.37
 31
    0.00
 12
    -22.96
 22
    -257.40
 32
    0.00
 13
    -17.96
 23
    -257.40
 33
    0.00
  0
SOLID
  8
ECHELLE
 10
    -17.96
 20
    -257.40
 30
    0.00
 11
    7.04
 21
    -257.40
 31
    0.00
 12
    -17.96
 22
    -260.43
 32
    0.00
 13
    7.04
 23
    -260.43
 33
    0.00
  0
ENDSEC
  0
EOF
