  0
SECTION
  2
HEADER
  9
$ACADVER
  1
AC1006
  0
ENDSEC
  0
SECTION
  2
TABLES
  0
TABLE
  2
LAYER
  0
LAYER
  2
CHEMINEMENTS
 70
    64
 62
    1
  6
CONTINUOUS
  0
LAYER
  2
RADIALES
 70
    64
 62
    9
  6
CONTINUOUS
  0
LAYER
  2
POINTS
 70
    64
 62
    6
  6
CONTINUOUS
  0
LAYER
  2
STATIONS
 70
    64
 62
    7
  6
CONTINUOUS
  0
LAYER
  2
PROFONDEURS
 70
    64
 62
    2
  6
CONTINUOUS
  0
LAYER
  2
CONTOURS_LARGEURS
 70
    64
 62
    3
  6
CONTINUOUS
  0
LAYER
  2
ECHELLE
 70
    64
 62
    7
  6
CONTINUOUS
  0
ENDTAB
  0
ENDSEC
  0
SECTION
  2
ENTITIES
  0
LINE
  8
CHEMINEMENTS
 10
    -20.61
 20
    -17.49
 30
    0.00
 11
    -20.61
 21
    -17.49
 31
    0.00
  0
CIRCLE
  8
POINTS
 10
    -20.61
 20
    -17.49
 30
    0.00
 40
    0.2
  0
LINE
  8
CONTOURS_LARGEURS
 10
    -20.61
 20
    -17.49
 30
    0.00
 11
    -20.61
 21
    -17.49
 31
    0.00
  0
LINE
  8
CONTOURS_LARGEURS
 10
    -20.61
 20
    -17.49
 30
    0.00
 11
    -20.61
 21
    -17.49
 31
    0.00
  0
TEXT
  8
STATIONS
 10
    -20.61
 20
    -17.49
 30
    0.00
 40
    0.4
  1
0
  0
TEXT
  8
PROFONDEURS
 10
    -20.61
 20
    -17.49
 30
    0.00
 40
    0.6
  1
-79
  0
LINE
  8
CHEMINEMENTS
 10
    -20.61
 20
    -17.49
 30
    0.00
 11
    -20.61
 21
    -17.49
 31
    0.00
  0
CIRCLE
  8
POINTS
 10
    -20.61
 20
    -17.49
 30
    0.00
 40
    0.2
  0
LINE
  8
CONTOURS_LARGEURS
 10
    -20.61
 20
    -17.49
 30
    0.00
 11
    -19.98
 21
    -20.42
 31
    0.00
  0
LINE
  8
CONTOURS_LARGEURS
 10
    -20.61
 20
    -17.49
 30
    0.00
 11
    -20.61
 21
    -17.49
 31
    0.00
  0
TEXT
  8
STATIONS
 10
    -20.61
 20
    -17.49
 30
    0.00
 40
    0.4
  1
2.0
  0
LINE
  8
CHEMINEMENTS
 10
    -20.61
 20
    -17.49
 30
    0.00
 11
    -23.03
 21
    -18.01
 31
    0.00
  0
CIRCLE
  8
POINTS
 10
    -23.03
 20
    -18.01
 30
    0.00
 40
    0.2
  0
LINE
  8
CONTOURS_LARGEURS
 10
    -19.98
 20
    -20.42
 30
    0.00
 11
    -23.01
 21
    -18.11
 31
    0.00
  0
LINE
  8
CONTOURS_LARGEURS
 10
    -20.61
 20
    -17.49
 30
    0.00
 11
    -23.05
 21
    -17.92
 31
    0.00
  0
LINE
  8
CONTOURS_LARGEURS
 10
    -23.01
 20
    -18.11
 30
    0.00
 11
    -23.05
 21
    -17.92
 31
    0.00
  0
TEXT
  8
STATIONS
 10
    -23.03
 20
    -18.01
 30
    0.00
 40
    0.4
  1
2.1
  0
LINE
  8
CHEMINEMENTS
 10
    -20.61
 20
    -17.49
 30
    0.00
 11
    -20.61
 21
    -17.49
 31
    0.00
  0
CIRCLE
  8
POINTS
 10
    -20.61
 20
    -17.49
 30
    0.00
 40
    0.2
  0
LINE
  8
CONTOURS_LARGEURS
 10
    -19.98
 20
    -20.42
 30
    0.00
 11
    -14.75
 21
    -18.80
 31
    0.00
  0
LINE
  8
CONTOURS_LARGEURS
 10
    -20.61
 20
    -17.49
 30
    0.00
 11
    -22.56
 21
    -17.05
 31
    0.00
  0
TEXT
  8
STATIONS
 10
    -20.61
 20
    -17.49
 30
    0.00
 40
    0.4
  1
3.0
  0
LINE
  8
CHEMINEMENTS
 10
    -20.61
 20
    -17.49
 30
    0.00
 11
    -21.19
 21
    -20.07
 31
    0.00
  0
CIRCLE
  8
POINTS
 10
    -21.19
 20
    -20.07
 30
    0.00
 40
    0.2
  0
LINE
  8
CONTOURS_LARGEURS
 10
    -14.75
 20
    -18.80
 30
    0.00
 11
    -20.21
 21
    -20.29
 31
    0.00
  0
LINE
  8
CONTOURS_LARGEURS
 10
    -22.56
 20
    -17.05
 30
    0.00
 11
    -22.16
 21
    -19.85
 31
    0.00
  0
LINE
  8
CONTOURS_LARGEURS
 10
    -20.21
 20
    -20.29
 30
    0.00
 11
    -22.16
 21
    -19.85
 31
    0.00
  0
TEXT
  8
STATIONS
 10
    -21.19
 20
    -20.07
 30
    0.00
 40
    0.4
  1
3.1
  0
TEXT
  8
PROFONDEURS
 10
    -21.19
 20
    -20.07
 30
    0.00
 40
    0.6
  1
-64
  0
LINE
  8
CHEMINEMENTS
 10
    -20.61
 20
    -17.49
 30
    0.00
 11
    -20.61
 21
    -17.49
 31
    0.00
  0
CIRCLE
  8
POINTS
 10
    -20.61
 20
    -17.49
 30
    0.00
 40
    0.2
  0
LINE
  8
CONTOURS_LARGEURS
 10
    -19.98
 20
    -20.42
 30
    0.00
 11
    -20.61
 21
    -17.49
 31
    0.00
  0
LINE
  8
CONTOURS_LARGEURS
 10
    -20.61
 20
    -17.49
 30
    0.00
 11
    -21.34
 21
    -20.40
 31
    0.00
  0
TEXT
  8
STATIONS
 10
    -20.61
 20
    -17.49
 30
    0.00
 40
    0.4
  1
4.0
  0
LINE
  8
CHEMINEMENTS
 10
    -20.61
 20
    -17.49
 30
    0.00
 11
    -17.36
 21
    -18.31
 31
    0.00
  0
CIRCLE
  8
POINTS
 10
    -17.36
 20
    -18.31
 30
    0.00
 40
    0.2
  0
LINE
  8
CONTOURS_LARGEURS
 10
    -20.61
 20
    -17.49
 30
    0.00
 11
    -18.31
 21
    -16.00
 31
    0.00
  0
LINE
  8
CONTOURS_LARGEURS
 10
    -21.34
 20
    -20.40
 30
    0.00
 11
    -17.36
 21
    -18.31
 31
    0.00
  0
TEXT
  8
STATIONS
 10
    -17.36
 20
    -18.31
 30
    0.00
 40
    0.4
  1
4.1
  0
LINE
  8
CHEMINEMENTS
 10
    -17.36
 20
    -18.31
 30
    0.00
 11
    -15.32
 21
    -14.91
 31
    0.00
  0
CIRCLE
  8
POINTS
 10
    -15.32
 20
    -14.91
 30
    0.00
 40
    0.2
  0
LINE
  8
CONTOURS_LARGEURS
 10
    -18.31
 20
    -16.00
 30
    0.00
 11
    -16.18
 21
    -14.40
 31
    0.00
  0
LINE
  8
CONTOURS_LARGEURS
 10
    -17.36
 20
    -18.31
 30
    0.00
 11
    -12.75
 21
    -16.46
 31
    0.00
  0
TEXT
  8
STATIONS
 10
    -15.32
 20
    -14.91
 30
    0.00
 40
    0.4
  1
4.2
  0
LINE
  8
CHEMINEMENTS
 10
    -15.32
 20
    -14.91
 30
    0.00
 11
    -15.32
 21
    -14.91
 31
    0.00
  0
CIRCLE
  8
POINTS
 10
    -15.32
 20
    -14.91
 30
    0.00
 40
    0.2
  0
LINE
  8
CONTOURS_LARGEURS
 10
    -16.18
 20
    -14.40
 30
    0.00
 11
    -15.32
 21
    -14.91
 31
    0.00
  0
LINE
  8
CONTOURS_LARGEURS
 10
    -12.75
 20
    -16.46
 30
    0.00
 11
    -15.32
 21
    -12.91
 31
    0.00
  0
TEXT
  8
STATIONS
 10
    -15.32
 20
    -14.91
 30
    0.00
 40
    0.4
  1
1.0
  0
LINE
  8
CHEMINEMENTS
 10
    -15.32
 20
    -14.91
 30
    0.00
 11
    -15.32
 21
    -14.91
 31
    0.00
  0
CIRCLE
  8
POINTS
 10
    -15.32
 20
    -14.91
 30
    0.00
 40
    0.2
  0
LINE
  8
CONTOURS_LARGEURS
 10
    -15.32
 20
    -14.91
 30
    0.00
 11
    -15.32
 21
    -14.91
 31
    0.00
  0
LINE
  8
CONTOURS_LARGEURS
 10
    -15.32
 20
    -12.91
 30
    0.00
 11
    -15.16
 21
    -13.93
 31
    0.00
  0
TEXT
  8
STATIONS
 10
    -15.32
 20
    -14.91
 30
    0.00
 40
    0.4
  1
M.0
  0
LINE
  8
CHEMINEMENTS
 10
    -15.32
 20
    -14.91
 30
    0.00
 11
    -18.70
 21
    -14.35
 31
    0.00
  0
CIRCLE
  8
POINTS
 10
    -18.70
 20
    -14.35
 30
    0.00
 40
    0.2
  0
LINE
  8
CONTOURS_LARGEURS
 10
    -15.32
 20
    -14.91
 30
    0.00
 11
    -18.79
 21
    -14.84
 31
    0.00
  0
LINE
  8
CONTOURS_LARGEURS
 10
    -15.16
 20
    -13.93
 30
    0.00
 11
    -18.62
 21
    -13.86
 31
    0.00
  0
LINE
  8
CONTOURS_LARGEURS
 10
    -18.79
 20
    -14.84
 30
    0.00
 11
    -18.62
 21
    -13.86
 31
    0.00
  0
TEXT
  8
STATIONS
 10
    -18.70
 20
    -14.35
 30
    0.00
 40
    0.4
  1
M.1
  0
TEXT
  8
PROFONDEURS
 10
    -18.70
 20
    -14.35
 30
    0.00
 40
    0.6
  1
-90
  0
LINE
  8
CHEMINEMENTS
 10
    -15.32
 20
    -14.91
 30
    0.00
 11
    -11.48
 21
    -14.53
 31
    0.00
  0
CIRCLE
  8
POINTS
 10
    -11.48
 20
    -14.53
 30
    0.00
 40
    0.2
  0
LINE
  8
CONTOURS_LARGEURS
 10
    -15.32
 20
    -12.91
 30
    0.00
 11
    -11.68
 21
    -12.54
 31
    0.00
  0
LINE
  8
CONTOURS_LARGEURS
 10
    -15.32
 20
    -14.91
 30
    0.00
 11
    -11.38
 21
    -15.52
 31
    0.00
  0
TEXT
  8
STATIONS
 10
    -11.48
 20
    -14.53
 30
    0.00
 40
    0.4
  1
1.1
  0
LINE
  8
CHEMINEMENTS
 10
    -11.48
 20
    -14.53
 30
    0.00
 11
    -11.48
 21
    -14.53
 31
    0.00
  0
CIRCLE
  8
POINTS
 10
    -11.48
 20
    -14.53
 30
    0.00
 40
    0.2
  0
LINE
  8
CONTOURS_LARGEURS
 10
    -11.68
 20
    -12.54
 30
    0.00
 11
    -12.03
 21
    -14.29
 31
    0.00
  0
LINE
  8
CONTOURS_LARGEURS
 10
    -11.38
 20
    -15.52
 30
    0.00
 11
    -10.93
 21
    -14.77
 31
    0.00
  0
TEXT
  8
STATIONS
 10
    -11.48
 20
    -14.53
 30
    0.00
 40
    0.4
  1
5.0
  0
LINE
  8
CHEMINEMENTS
 10
    -11.48
 20
    -14.53
 30
    0.00
 11
    -10.60
 21
    -12.55
 31
    0.00
  0
CIRCLE
  8
POINTS
 10
    -10.60
 20
    -12.55
 30
    0.00
 40
    0.2
  0
LINE
  8
CONTOURS_LARGEURS
 10
    -12.03
 20
    -14.29
 30
    0.00
 11
    -10.60
 21
    -12.55
 31
    0.00
  0
LINE
  8
CONTOURS_LARGEURS
 10
    -10.93
 20
    -14.77
 30
    0.00
 11
    -10.03
 21
    -13.36
 31
    0.00
  0
TEXT
  8
STATIONS
 10
    -10.60
 20
    -12.55
 30
    0.00
 40
    0.4
  1
5.1
  0
LINE
  8
CHEMINEMENTS
 10
    -10.60
 20
    -12.55
 30
    0.00
 11
    -5.30
 21
    -12.15
 31
    0.00
  0
CIRCLE
  8
POINTS
 10
    -5.30
 20
    -12.15
 30
    0.00
 40
    0.2
  0
LINE
  8
CONTOURS_LARGEURS
 10
    -10.60
 20
    -12.55
 30
    0.00
 11
    -5.22
 21
    -11.97
 31
    0.00
  0
LINE
  8
CONTOURS_LARGEURS
 10
    -10.03
 20
    -13.36
 30
    0.00
 11
    -6.14
 21
    -13.97
 31
    0.00
  0
TEXT
  8
STATIONS
 10
    -5.30
 20
    -12.15
 30
    0.00
 40
    0.4
  1
5.2
  0
LINE
  8
CHEMINEMENTS
 10
    -5.30
 20
    -12.15
 30
    0.00
 11
    -4.27
 21
    -13.55
 31
    0.00
  0
CIRCLE
  8
POINTS
 10
    -4.27
 20
    -13.55
 30
    0.00
 40
    0.2
  0
LINE
  8
CONTOURS_LARGEURS
 10
    -5.22
 20
    -11.97
 30
    0.00
 11
    -3.34
 21
    -13.19
 31
    0.00
  0
LINE
  8
CONTOURS_LARGEURS
 10
    -6.14
 20
    -13.97
 30
    0.00
 11
    -5.21
 21
    -13.91
 31
    0.00
  0
TEXT
  8
STATIONS
 10
    -4.27
 20
    -13.55
 30
    0.00
 40
    0.4
  1
5.3
  0
LINE
  8
CHEMINEMENTS
 10
    -4.27
 20
    -13.55
 30
    0.00
 11
    -4.18
 21
    -14.56
 31
    0.00
  0
CIRCLE
  8
POINTS
 10
    -4.18
 20
    -14.56
 30
    0.00
 40
    0.2
  0
LINE
  8
CONTOURS_LARGEURS
 10
    -3.34
 20
    -13.19
 30
    0.00
 11
    -3.30
 21
    -15.03
 31
    0.00
  0
LINE
  8
CONTOURS_LARGEURS
 10
    -5.21
 20
    -13.91
 30
    0.00
 11
    -5.06
 21
    -14.08
 31
    0.00
  0
TEXT
  8
STATIONS
 10
    -4.18
 20
    -14.56
 30
    0.00
 40
    0.4
  1
5.4
  0
LINE
  8
CHEMINEMENTS
 10
    -4.18
 20
    -14.56
 30
    0.00
 11
    -6.49
 21
    -15.78
 31
    0.00
  0
CIRCLE
  8
POINTS
 10
    -6.49
 20
    -15.78
 30
    0.00
 40
    0.2
  0
LINE
  8
CONTOURS_LARGEURS
 10
    -3.30
 20
    -15.03
 30
    0.00
 11
    -4.82
 21
    -16.89
 31
    0.00
  0
LINE
  8
CONTOURS_LARGEURS
 10
    -5.06
 20
    -14.08
 30
    0.00
 11
    -6.49
 21
    -15.78
 31
    0.00
  0
TEXT
  8
STATIONS
 10
    -6.49
 20
    -15.78
 30
    0.00
 40
    0.4
  1
5.5
  0
LINE
  8
CHEMINEMENTS
 10
    -6.49
 20
    -15.78
 30
    0.00
 11
    -6.94
 21
    -20.59
 31
    0.00
  0
CIRCLE
  8
POINTS
 10
    -6.94
 20
    -20.59
 30
    0.00
 40
    0.2
  0
LINE
  8
CONTOURS_LARGEURS
 10
    -4.82
 20
    -16.89
 30
    0.00
 11
    -4.95
 21
    -20.78
 31
    0.00
  0
LINE
  8
CONTOURS_LARGEURS
 10
    -6.49
 20
    -15.78
 30
    0.00
 11
    -8.93
 21
    -20.41
 31
    0.00
  0
LINE
  8
CONTOURS_LARGEURS
 10
    -4.95
 20
    -20.78
 30
    0.00
 11
    -8.93
 21
    -20.41
 31
    0.00
  0
TEXT
  8
STATIONS
 10
    -6.94
 20
    -20.59
 30
    0.00
 40
    0.4
  1
5.6old
  0
LINE
  8
CHEMINEMENTS
 10
    -11.48
 20
    -14.53
 30
    0.00
 11
    -7.34
 21
    -13.37
 31
    0.00
  0
CIRCLE
  8
POINTS
 10
    -7.34
 20
    -13.37
 30
    0.00
 40
    0.2
  0
LINE
  8
CONTOURS_LARGEURS
 10
    -11.68
 20
    -12.54
 30
    0.00
 11
    -7.64
 21
    -12.97
 31
    0.00
  0
LINE
  8
CONTOURS_LARGEURS
 10
    -11.38
 20
    -15.52
 30
    0.00
 11
    -7.34
 21
    -13.37
 31
    0.00
  0
TEXT
  8
STATIONS
 10
    -7.34
 20
    -13.37
 30
    0.00
 40
    0.4
  1
1.2
  0
LINE
  8
CHEMINEMENTS
 10
    -7.34
 20
    -13.37
 30
    0.00
 11
    -6.81
 21
    -12.51
 31
    0.00
  0
CIRCLE
  8
POINTS
 10
    -6.81
 20
    -12.51
 30
    0.00
 40
    0.2
  0
LINE
  8
CONTOURS_LARGEURS
 10
    -7.64
 20
    -12.97
 30
    0.00
 11
    -6.86
 21
    -11.52
 31
    0.00
  0
LINE
  8
CONTOURS_LARGEURS
 10
    -7.34
 20
    -13.37
 30
    0.00
 11
    -6.76
 21
    -13.51
 31
    0.00
  0
TEXT
  8
STATIONS
 10
    -6.81
 20
    -12.51
 30
    0.00
 40
    0.4
  1
1.3
  0
LINE
  8
CHEMINEMENTS
 10
    -6.81
 20
    -12.51
 30
    0.00
 11
    -6.48
 21
    -12.95
 31
    0.00
  0
CIRCLE
  8
POINTS
 10
    -6.48
 20
    -12.95
 30
    0.00
 40
    0.2
  0
LINE
  8
CONTOURS_LARGEURS
 10
    -6.86
 20
    -11.52
 30
    0.00
 11
    -6.39
 21
    -12.77
 31
    0.00
  0
LINE
  8
CONTOURS_LARGEURS
 10
    -6.76
 20
    -13.51
 30
    0.00
 11
    -7.43
 21
    -14.71
 31
    0.00
  0
TEXT
  8
STATIONS
 10
    -6.48
 20
    -12.95
 30
    0.00
 40
    0.4
  1
1.4
  0
LINE
  8
CHEMINEMENTS
 10
    -6.81
 20
    -12.51
 30
    0.00
 11
    -6.81
 21
    -12.51
 31
    0.00
  0
CIRCLE
  8
POINTS
 10
    -6.81
 20
    -12.51
 30
    0.00
 40
    0.2
  0
LINE
  8
CONTOURS_LARGEURS
 10
    -6.86
 20
    -11.52
 30
    0.00
 11
    -7.50
 21
    -13.24
 31
    0.00
  0
LINE
  8
CONTOURS_LARGEURS
 10
    -6.76
 20
    -13.51
 30
    0.00
 11
    -6.12
 21
    -11.79
 31
    0.00
  0
TEXT
  8
STATIONS
 10
    -6.81
 20
    -12.51
 30
    0.00
 40
    0.4
  1
6.0
  0
LINE
  8
CHEMINEMENTS
 10
    -6.81
 20
    -12.51
 30
    0.00
 11
    -8.11
 21
    -11.29
 31
    0.00
  0
CIRCLE
  8
POINTS
 10
    -8.11
 20
    -11.29
 30
    0.00
 40
    0.2
  0
LINE
  8
CONTOURS_LARGEURS
 10
    -7.50
 20
    -13.24
 30
    0.00
 11
    -9.48
 21
    -12.74
 31
    0.00
  0
LINE
  8
CONTOURS_LARGEURS
 10
    -6.12
 20
    -11.79
 30
    0.00
 11
    -7.42
 21
    -10.56
 31
    0.00
  0
LINE
  8
CONTOURS_LARGEURS
 10
    -9.48
 20
    -12.74
 30
    0.00
 11
    -7.42
 21
    -10.56
 31
    0.00
  0
TEXT
  8
STATIONS
 10
    -8.11
 20
    -11.29
 30
    0.00
 40
    0.4
  1
6.1
  0
TEXT
  8
PROFONDEURS
 10
    -8.11
 20
    -11.29
 30
    0.00
 40
    0.6
  1
-74
  0
LINE
  8
CHEMINEMENTS
 10
    -6.48
 20
    -12.95
 30
    0.00
 11
    -2.00
 21
    -13.24
 31
    0.00
  0
CIRCLE
  8
POINTS
 10
    -2.00
 20
    -13.24
 30
    0.00
 40
    0.2
  0
LINE
  8
CONTOURS_LARGEURS
 10
    -6.39
 20
    -12.77
 30
    0.00
 11
    -1.27
 21
    -12.56
 31
    0.00
  0
LINE
  8
CONTOURS_LARGEURS
 10
    -7.43
 20
    -14.71
 30
    0.00
 11
    -2.00
 21
    -13.24
 31
    0.00
  0
TEXT
  8
STATIONS
 10
    -2.00
 20
    -13.24
 30
    0.00
 40
    0.4
  1
1.5
  0
LINE
  8
CHEMINEMENTS
 10
    -2.00
 20
    -13.24
 30
    0.00
 11
    -2.02
 21
    -15.69
 31
    0.00
  0
CIRCLE
  8
POINTS
 10
    -2.02
 20
    -15.69
 30
    0.00
 40
    0.2
  0
LINE
  8
CONTOURS_LARGEURS
 10
    -1.27
 20
    -12.56
 30
    0.00
 11
    -2.02
 21
    -15.69
 31
    0.00
  0
LINE
  8
CONTOURS_LARGEURS
 10
    -2.00
 20
    -13.24
 30
    0.00
 11
    -2.52
 21
    -15.73
 31
    0.00
  0
TEXT
  8
STATIONS
 10
    -2.02
 20
    -15.69
 30
    0.00
 40
    0.4
  1
1.6
  0
LINE
  8
CHEMINEMENTS
 10
    -2.02
 20
    -15.69
 30
    0.00
 11
    -1.77
 21
    -17.19
 31
    0.00
  0
CIRCLE
  8
POINTS
 10
    -1.77
 20
    -17.19
 30
    0.00
 40
    0.2
  0
LINE
  8
CONTOURS_LARGEURS
 10
    -2.02
 20
    -15.69
 30
    0.00
 11
    0.15
 21
    -17.77
 31
    0.00
  0
LINE
  8
CONTOURS_LARGEURS
 10
    -2.52
 20
    -15.73
 30
    0.00
 11
    -2.72
 21
    -16.91
 31
    0.00
  0
TEXT
  8
STATIONS
 10
    -1.77
 20
    -17.19
 30
    0.00
 40
    0.4
  1
1.7
  0
LINE
  8
CHEMINEMENTS
 10
    -1.77
 20
    -17.19
 30
    0.00
 11
    -2.44
 21
    -17.90
 31
    0.00
  0
CIRCLE
  8
POINTS
 10
    -2.44
 20
    -17.90
 30
    0.00
 40
    0.2
  0
LINE
  8
CONTOURS_LARGEURS
 10
    0.15
 20
    -17.77
 30
    0.00
 11
    -2.83
 21
    -19.87
 31
    0.00
  0
LINE
  8
CONTOURS_LARGEURS
 10
    -2.72
 20
    -16.91
 30
    0.00
 11
    -2.04
 21
    -15.94
 31
    0.00
  0
TEXT
  8
STATIONS
 10
    -2.44
 20
    -17.90
 30
    0.00
 40
    0.4
  1
1.8
  0
LINE
  8
CHEMINEMENTS
 10
    -2.44
 20
    -17.90
 30
    0.00
 11
    -3.09
 21
    -16.18
 31
    0.00
  0
CIRCLE
  8
POINTS
 10
    -3.09
 20
    -16.18
 30
    0.00
 40
    0.2
  0
LINE
  8
CONTOURS_LARGEURS
 10
    -2.83
 20
    -19.87
 30
    0.00
 11
    -4.98
 21
    -16.83
 31
    0.00
  0
LINE
  8
CONTOURS_LARGEURS
 10
    -2.04
 20
    -15.94
 30
    0.00
 11
    -2.15
 21
    -15.85
 31
    0.00
  0
TEXT
  8
STATIONS
 10
    -3.09
 20
    -16.18
 30
    0.00
 40
    0.4
  1
1.9
  0
LINE
  8
CHEMINEMENTS
 10
    -3.09
 20
    -16.18
 30
    0.00
 11
    -3.69
 21
    -14.28
 31
    0.00
  0
CIRCLE
  8
POINTS
 10
    -3.69
 20
    -14.28
 30
    0.00
 40
    0.2
  0
LINE
  8
CONTOURS_LARGEURS
 10
    -4.98
 20
    -16.83
 30
    0.00
 11
    -4.32
 21
    -15.05
 31
    0.00
  0
LINE
  8
CONTOURS_LARGEURS
 10
    -2.15
 20
    -15.85
 30
    0.00
 11
    -3.69
 21
    -14.28
 31
    0.00
  0
TEXT
  8
STATIONS
 10
    -3.69
 20
    -14.28
 30
    0.00
 40
    0.4
  1
1.10
  0
LINE
  8
CHEMINEMENTS
 10
    -3.69
 20
    -14.28
 30
    0.00
 11
    -6.29
 21
    -14.02
 31
    0.00
  0
CIRCLE
  8
POINTS
 10
    -6.29
 20
    -14.02
 30
    0.00
 40
    0.2
  0
LINE
  8
CONTOURS_LARGEURS
 10
    -4.32
 20
    -15.05
 30
    0.00
 11
    -6.70
 21
    -14.31
 31
    0.00
  0
LINE
  8
CONTOURS_LARGEURS
 10
    -3.69
 20
    -14.28
 30
    0.00
 11
    -5.89
 21
    -13.73
 31
    0.00
  0
TEXT
  8
STATIONS
 10
    -6.29
 20
    -14.02
 30
    0.00
 40
    0.4
  1
1.11
  0
LINE
  8
CHEMINEMENTS
 10
    -6.29
 20
    -14.02
 30
    0.00
 11
    -5.38
 21
    -10.37
 31
    0.00
  0
CIRCLE
  8
POINTS
 10
    -5.38
 20
    -10.37
 30
    0.00
 40
    0.2
  0
LINE
  8
CONTOURS_LARGEURS
 10
    -6.70
 20
    -14.31
 30
    0.00
 11
    -5.57
 21
    -10.30
 31
    0.00
  0
LINE
  8
CONTOURS_LARGEURS
 10
    -5.89
 20
    -13.73
 30
    0.00
 11
    -5.01
 21
    -10.52
 31
    0.00
  0
TEXT
  8
STATIONS
 10
    -5.38
 20
    -10.37
 30
    0.00
 40
    0.4
  1
1.12
  0
LINE
  8
CHEMINEMENTS
 10
    -5.38
 20
    -10.37
 30
    0.00
 11
    0.56
 21
    -0.28
 31
    0.00
  0
CIRCLE
  8
POINTS
 10
    0.56
 20
    -0.28
 30
    0.00
 40
    0.2
  0
LINE
  8
CONTOURS_LARGEURS
 10
    -5.57
 20
    -10.30
 30
    0.00
 11
    0.27
 21
    -0.37
 31
    0.00
  0
LINE
  8
CONTOURS_LARGEURS
 10
    -5.01
 20
    -10.52
 30
    0.00
 11
    1.04
 21
    -0.14
 31
    0.00
  0
TEXT
  8
STATIONS
 10
    0.56
 20
    -0.28
 30
    0.00
 40
    0.4
  1
1.13
  0
LINE
  8
CHEMINEMENTS
 10
    0.56
 20
    -0.28
 30
    0.00
 11
    0.00
 21
    0.00
 31
    0.00
  0
CIRCLE
  8
POINTS
 10
    0.00
 20
    0.00
 30
    0.00
 40
    0.2
  0
LINE
  8
CONTOURS_LARGEURS
 10
    0.27
 20
    -0.37
 30
    0.00
 11
    -0.68
 21
    -1.34
 31
    0.00
  0
LINE
  8
CONTOURS_LARGEURS
 10
    1.04
 20
    -0.14
 30
    0.00
 11
    0.00
 21
    0.00
 31
    0.00
  0
LINE
  8
CONTOURS_LARGEURS
 10
    -0.68
 20
    -1.34
 30
    0.00
 11
    0.00
 21
    0.00
 31
    0.00
  0
TEXT
  8
STATIONS
 10
    0.00
 20
    0.00
 30
    0.00
 40
    0.4
  1
Z_510
  0
TEXT
  8
PROFONDEURS
 10
    0.00
 20
    0.00
 30
    0.00
 40
    0.6
  1
+0
  0
LINE
  8
CHEMINEMENTS
 10
    -5.38
 20
    -10.37
 30
    0.00
 11
    -5.38
 21
    -10.37
 31
    0.00
  0
CIRCLE
  8
POINTS
 10
    -5.38
 20
    -10.37
 30
    0.00
 40
    0.2
  0
LINE
  8
CONTOURS_LARGEURS
 10
    -5.57
 20
    -10.30
 30
    0.00
 11
    -5.56
 21
    -10.27
 31
    0.00
  0
LINE
  8
CONTOURS_LARGEURS
 10
    -5.01
 20
    -10.52
 30
    0.00
 11
    -5.04
 21
    -10.57
 31
    0.00
  0
TEXT
  8
STATIONS
 10
    -5.38
 20
    -10.37
 30
    0.00
 40
    0.4
  1
7.0
  0
LINE
  8
CHEMINEMENTS
 10
    -5.38
 20
    -10.37
 30
    0.00
 11
    -3.48
 21
    -7.15
 31
    0.00
  0
CIRCLE
  8
POINTS
 10
    -3.48
 20
    -7.15
 30
    0.00
 40
    0.2
  0
LINE
  8
CONTOURS_LARGEURS
 10
    -5.56
 20
    -10.27
 30
    0.00
 11
    -3.65
 21
    -7.03
 31
    0.00
  0
LINE
  8
CONTOURS_LARGEURS
 10
    -5.04
 20
    -10.57
 30
    0.00
 11
    -3.16
 21
    -7.38
 31
    0.00
  0
TEXT
  8
STATIONS
 10
    -3.48
 20
    -7.15
 30
    0.00
 40
    0.4
  1
7.1
  0
LINE
  8
CHEMINEMENTS
 10
    -3.48
 20
    -7.15
 30
    0.00
 11
    -2.93
 21
    -6.49
 31
    0.00
  0
CIRCLE
  8
POINTS
 10
    -2.93
 20
    -6.49
 30
    0.00
 40
    0.2
  0
LINE
  8
CONTOURS_LARGEURS
 10
    -3.65
 20
    -7.03
 30
    0.00
 11
    -3.16
 21
    -6.30
 31
    0.00
  0
LINE
  8
CONTOURS_LARGEURS
 10
    -3.16
 20
    -7.38
 30
    0.00
 11
    -2.55
 21
    -6.82
 31
    0.00
  0
LINE
  8
CONTOURS_LARGEURS
 10
    -3.16
 20
    -6.30
 30
    0.00
 11
    -2.55
 21
    -6.82
 31
    0.00
  0
TEXT
  8
STATIONS
 10
    -2.93
 20
    -6.49
 30
    0.00
 40
    0.4
  1
7.2
  0
LINE
  8
CHEMINEMENTS
 10
    -3.48
 20
    -7.15
 30
    0.00
 11
    -3.48
 21
    -7.15
 31
    0.00
  0
CIRCLE
  8
POINTS
 10
    -3.48
 20
    -7.15
 30
    0.00
 40
    0.2
  0
LINE
  8
CONTOURS_LARGEURS
 10
    -3.65
 20
    -7.03
 30
    0.00
 11
    -3.66
 21
    -7.05
 31
    0.00
  0
LINE
  8
CONTOURS_LARGEURS
 10
    -3.16
 20
    -7.38
 30
    0.00
 11
    -3.14
 21
    -7.35
 31
    0.00
  0
TEXT
  8
STATIONS
 10
    -3.48
 20
    -7.15
 30
    0.00
 40
    0.4
  1
8.0
  0
LINE
  8
CHEMINEMENTS
 10
    -3.48
 20
    -7.15
 30
    0.00
 11
    -1.18
 21
    -3.24
 31
    0.00
  0
CIRCLE
  8
POINTS
 10
    -1.18
 20
    -3.24
 30
    0.00
 40
    0.2
  0
LINE
  8
CONTOURS_LARGEURS
 10
    -3.66
 20
    -7.05
 30
    0.00
 11
    -1.35
 21
    -3.13
 31
    0.00
  0
LINE
  8
CONTOURS_LARGEURS
 10
    -3.14
 20
    -7.35
 30
    0.00
 11
    -0.85
 21
    -3.47
 31
    0.00
  0
TEXT
  8
STATIONS
 10
    -1.18
 20
    -3.24
 30
    0.00
 40
    0.4
  1
8.1
  0
LINE
  8
CHEMINEMENTS
 10
    -1.18
 20
    -3.24
 30
    0.00
 11
    1.27
 21
    -0.09
 31
    0.00
  0
CIRCLE
  8
POINTS
 10
    1.27
 20
    -0.09
 30
    0.00
 40
    0.2
  0
LINE
  8
CONTOURS_LARGEURS
 10
    -1.35
 20
    -3.13
 30
    0.00
 11
    0.88
 21
    0.22
 31
    0.00
  0
LINE
  8
CONTOURS_LARGEURS
 10
    -0.85
 20
    -3.47
 30
    0.00
 11
    1.67
 21
    -0.40
 31
    0.00
  0
LINE
  8
CONTOURS_LARGEURS
 10
    0.88
 20
    0.22
 30
    0.00
 11
    1.67
 21
    -0.40
 31
    0.00
  0
TEXT
  8
STATIONS
 10
    1.27
 20
    -0.09
 30
    0.00
 40
    0.4
  1
8.2
  0
TEXT
  8
PROFONDEURS
 10
    1.27
 20
    -0.09
 30
    0.00
 40
    0.6
  1
-11
  0
LINE
  8
CHEMINEMENTS
 10
    -6.49
 20
    -15.78
 30
    0.00
 11
    -6.49
 21
    -15.78
 31
    0.00
  0
CIRCLE
  8
POINTS
 10
    -6.49
 20
    -15.78
 30
    0.00
 40
    0.2
  0
LINE
  8
CONTOURS_LARGEURS
 10
    -4.82
 20
    -16.89
 30
    0.00
 11
    -6.49
 21
    -16.38
 31
    0.00
  0
LINE
  8
CONTOURS_LARGEURS
 10
    -6.49
 20
    -15.78
 30
    0.00
 11
    -6.49
 21
    -15.18
 31
    0.00
  0
TEXT
  8
STATIONS
 10
    -6.49
 20
    -15.78
 30
    0.00
 40
    0.4
  1
9.0
  0
LINE
  8
CHEMINEMENTS
 10
    -6.49
 20
    -15.78
 30
    0.00
 11
    -6.49
 21
    -15.78
 31
    0.00
  0
CIRCLE
  8
POINTS
 10
    -6.49
 20
    -15.78
 30
    0.00
 40
    0.2
  0
LINE
  8
CONTOURS_LARGEURS
 10
    -6.49
 20
    -16.38
 30
    0.00
 11
    -6.88
 21
    -15.32
 31
    0.00
  0
LINE
  8
CONTOURS_LARGEURS
 10
    -6.49
 20
    -15.18
 30
    0.00
 11
    -5.77
 21
    -16.61
 31
    0.00
  0
TEXT
  8
STATIONS
 10
    -6.49
 20
    -15.78
 30
    0.00
 40
    0.4
  1
9.1
  0
LINE
  8
CHEMINEMENTS
 10
    -6.49
 20
    -15.78
 30
    0.00
 11
    -4.55
 21
    -14.10
 31
    0.00
  0
CIRCLE
  8
POINTS
 10
    -4.55
 20
    -14.10
 30
    0.00
 40
    0.2
  0
LINE
  8
CONTOURS_LARGEURS
 10
    -6.88
 20
    -15.32
 30
    0.00
 11
    -5.44
 21
    -14.26
 31
    0.00
  0
LINE
  8
CONTOURS_LARGEURS
 10
    -5.77
 20
    -16.61
 30
    0.00
 11
    -4.35
 21
    -14.07
 31
    0.00
  0
TEXT
  8
STATIONS
 10
    -4.55
 20
    -14.10
 30
    0.00
 40
    0.4
  1
9.2
  0
LINE
  8
CHEMINEMENTS
 10
    -4.55
 20
    -14.10
 30
    0.00
 11
    -6.82
 21
    -13.22
 31
    0.00
  0
CIRCLE
  8
POINTS
 10
    -6.82
 20
    -13.22
 30
    0.00
 40
    0.2
  0
LINE
  8
CONTOURS_LARGEURS
 10
    -5.44
 20
    -14.26
 30
    0.00
 11
    -7.03
 21
    -13.78
 31
    0.00
  0
LINE
  8
CONTOURS_LARGEURS
 10
    -4.35
 20
    -14.07
 30
    0.00
 11
    -6.14
 21
    -11.38
 31
    0.00
  0
TEXT
  8
STATIONS
 10
    -6.82
 20
    -13.22
 30
    0.00
 40
    0.4
  1
9.3
  0
LINE
  8
CHEMINEMENTS
 10
    -6.82
 20
    -13.22
 30
    0.00
 11
    -11.79
 21
    -11.47
 31
    0.00
  0
CIRCLE
  8
POINTS
 10
    -11.79
 20
    -11.47
 30
    0.00
 40
    0.2
  0
LINE
  8
CONTOURS_LARGEURS
 10
    -7.03
 20
    -13.78
 30
    0.00
 11
    -11.87
 21
    -11.96
 31
    0.00
  0
LINE
  8
CONTOURS_LARGEURS
 10
    -6.14
 20
    -11.38
 30
    0.00
 11
    -11.53
 21
    -9.99
 31
    0.00
  0
TEXT
  8
STATIONS
 10
    -11.79
 20
    -11.47
 30
    0.00
 40
    0.4
  1
9.4
  0
LINE
  8
CHEMINEMENTS
 10
    -11.79
 20
    -11.47
 30
    0.00
 11
    -15.19
 21
    -11.44
 31
    0.00
  0
CIRCLE
  8
POINTS
 10
    -15.19
 20
    -11.44
 30
    0.00
 40
    0.2
  0
LINE
  8
CONTOURS_LARGEURS
 10
    -11.87
 20
    -11.96
 30
    0.00
 11
    -17.03
 21
    -12.23
 31
    0.00
  0
LINE
  8
CONTOURS_LARGEURS
 10
    -11.53
 20
    -9.99
 30
    0.00
 11
    -13.36
 21
    -10.65
 31
    0.00
  0
TEXT
  8
STATIONS
 10
    -15.19
 20
    -11.44
 30
    0.00
 40
    0.4
  1
9.5
  0
LINE
  8
CHEMINEMENTS
 10
    -15.19
 20
    -11.44
 30
    0.00
 11
    -10.32
 21
    -6.17
 31
    0.00
  0
CIRCLE
  8
POINTS
 10
    -10.32
 20
    -6.17
 30
    0.00
 40
    0.2
  0
LINE
  8
CONTOURS_LARGEURS
 10
    -17.03
 20
    -12.23
 30
    0.00
 11
    -11.05
 21
    -5.49
 31
    0.00
  0
LINE
  8
CONTOURS_LARGEURS
 10
    -13.36
 20
    -10.65
 30
    0.00
 11
    -9.58
 21
    -6.85
 31
    0.00
  0
LINE
  8
CONTOURS_LARGEURS
 10
    -11.05
 20
    -5.49
 30
    0.00
 11
    -9.58
 21
    -6.85
 31
    0.00
  0
TEXT
  8
STATIONS
 10
    -10.32
 20
    -6.17
 30
    0.00
 40
    0.4
  1
9.6
  0
TEXT
  8
PROFONDEURS
 10
    -10.32
 20
    -6.17
 30
    0.00
 40
    0.6
  1
-67
  0
LINE
  8
CHEMINEMENTS
 10
    -6.49
 20
    -15.78
 30
    0.00
 11
    -8.53
 21
    -18.12
 31
    0.00
  0
CIRCLE
  8
POINTS
 10
    -8.53
 20
    -18.12
 30
    0.00
 40
    0.2
  0
LINE
  8
CONTOURS_LARGEURS
 10
    -4.82
 20
    -16.89
 30
    0.00
 11
    -7.48
 21
    -18.47
 31
    0.00
  0
LINE
  8
CONTOURS_LARGEURS
 10
    -6.49
 20
    -15.78
 30
    0.00
 11
    -9.85
 21
    -17.68
 31
    0.00
  0
TEXT
  8
STATIONS
 10
    -8.53
 20
    -18.12
 30
    0.00
 40
    0.4
  1
5.6
  0
LINE
  8
CHEMINEMENTS
 10
    -8.53
 20
    -18.12
 30
    0.00
 11
    -8.31
 21
    -21.25
 31
    0.00
  0
CIRCLE
  8
POINTS
 10
    -8.31
 20
    -21.25
 30
    0.00
 40
    0.2
  0
LINE
  8
CONTOURS_LARGEURS
 10
    -7.48
 20
    -18.47
 30
    0.00
 11
    -7.16
 21
    -19.61
 31
    0.00
  0
LINE
  8
CONTOURS_LARGEURS
 10
    -9.85
 20
    -17.68
 30
    0.00
 11
    -8.60
 21
    -21.65
 31
    0.00
  0
TEXT
  8
STATIONS
 10
    -8.31
 20
    -21.25
 30
    0.00
 40
    0.4
  1
5.7
  0
LINE
  8
CHEMINEMENTS
 10
    -8.31
 20
    -21.25
 30
    0.00
 11
    -3.80
 21
    -19.98
 31
    0.00
  0
CIRCLE
  8
POINTS
 10
    -3.80
 20
    -19.98
 30
    0.00
 40
    0.2
  0
LINE
  8
CONTOURS_LARGEURS
 10
    -7.16
 20
    -19.61
 30
    0.00
 11
    -3.97
 21
    -19.73
 31
    0.00
  0
LINE
  8
CONTOURS_LARGEURS
 10
    -8.60
 20
    -21.65
 30
    0.00
 11
    -3.58
 21
    -20.31
 31
    0.00
  0
TEXT
  8
STATIONS
 10
    -3.80
 20
    -19.98
 30
    0.00
 40
    0.4
  1
5.8
  0
LINE
  8
CHEMINEMENTS
 10
    -3.80
 20
    -19.98
 30
    0.00
 11
    -2.57
 21
    -18.31
 31
    0.00
  0
CIRCLE
  8
POINTS
 10
    -2.57
 20
    -18.31
 30
    0.00
 40
    0.2
  0
LINE
  8
CONTOURS_LARGEURS
 10
    -3.97
 20
    -19.73
 30
    0.00
 11
    -4.34
 21
    -19.25
 31
    0.00
  0
LINE
  8
CONTOURS_LARGEURS
 10
    -3.58
 20
    -20.31
 30
    0.00
 11
    -1.49
 21
    -17.74
 31
    0.00
  0
TEXT
  8
STATIONS
 10
    -2.57
 20
    -18.31
 30
    0.00
 40
    0.4
  1
5.9
  0
LINE
  8
CHEMINEMENTS
 10
    -2.57
 20
    -18.31
 30
    0.00
 11
    -4.89
 21
    -18.40
 31
    0.00
  0
CIRCLE
  8
POINTS
 10
    -4.89
 20
    -18.40
 30
    0.00
 40
    0.2
  0
LINE
  8
CONTOURS_LARGEURS
 10
    -4.34
 20
    -19.25
 30
    0.00
 11
    -4.76
 21
    -19.17
 31
    0.00
  0
LINE
  8
CONTOURS_LARGEURS
 10
    -1.49
 20
    -17.74
 30
    0.00
 11
    -5.02
 21
    -17.59
 31
    0.00
  0
TEXT
  8
STATIONS
 10
    -4.89
 20
    -18.40
 30
    0.00
 40
    0.4
  1
5.10
  0
LINE
  8
CHEMINEMENTS
 10
    -4.89
 20
    -18.40
 30
    0.00
 11
    -7.96
 21
    -19.32
 31
    0.00
  0
CIRCLE
  8
POINTS
 10
    -7.96
 20
    -19.32
 30
    0.00
 40
    0.2
  0
LINE
  8
CONTOURS_LARGEURS
 10
    -4.76
 20
    -19.17
 30
    0.00
 11
    -7.96
 21
    -19.92
 31
    0.00
  0
LINE
  8
CONTOURS_LARGEURS
 10
    -5.02
 20
    -17.59
 30
    0.00
 11
    -7.96
 21
    -18.82
 31
    0.00
  0
TEXT
  8
STATIONS
 10
    -7.96
 20
    -19.32
 30
    0.00
 40
    0.4
  1
5.11
  0
LINE
  8
CHEMINEMENTS
 10
    -7.96
 20
    -19.32
 30
    0.00
 11
    -9.72
 21
    -18.79
 31
    0.00
  0
CIRCLE
  8
POINTS
 10
    -9.72
 20
    -18.79
 30
    0.00
 40
    0.2
  0
LINE
  8
CONTOURS_LARGEURS
 10
    -7.96
 20
    -19.92
 30
    0.00
 11
    -9.71
 21
    -19.19
 31
    0.00
  0
LINE
  8
CONTOURS_LARGEURS
 10
    -7.96
 20
    -18.82
 30
    0.00
 11
    -9.73
 21
    -18.59
 31
    0.00
  0
TEXT
  8
STATIONS
 10
    -9.72
 20
    -18.79
 30
    0.00
 40
    0.4
  1
5.12
  0
LINE
  8
CHEMINEMENTS
 10
    -9.72
 20
    -18.79
 30
    0.00
 11
    -11.18
 21
    -19.30
 31
    0.00
  0
CIRCLE
  8
POINTS
 10
    -11.18
 20
    -19.30
 30
    0.00
 40
    0.2
  0
LINE
  8
CONTOURS_LARGEURS
 10
    -9.71
 20
    -19.19
 30
    0.00
 11
    -9.36
 21
    -20.14
 31
    0.00
  0
LINE
  8
CONTOURS_LARGEURS
 10
    -9.73
 20
    -18.59
 30
    0.00
 11
    -11.81
 21
    -19.00
 31
    0.00
  0
TEXT
  8
STATIONS
 10
    -11.18
 20
    -19.30
 30
    0.00
 40
    0.4
  1
5.13
  0
LINE
  8
CHEMINEMENTS
 10
    -11.18
 20
    -19.30
 30
    0.00
 11
    -9.73
 21
    -23.06
 31
    0.00
  0
CIRCLE
  8
POINTS
 10
    -9.73
 20
    -23.06
 30
    0.00
 40
    0.2
  0
LINE
  8
CONTOURS_LARGEURS
 10
    -9.36
 20
    -20.14
 30
    0.00
 11
    -9.05
 21
    -23.21
 31
    0.00
  0
LINE
  8
CONTOURS_LARGEURS
 10
    -11.81
 20
    -19.00
 30
    0.00
 11
    -11.19
 21
    -22.72
 31
    0.00
  0
TEXT
  8
STATIONS
 10
    -9.73
 20
    -23.06
 30
    0.00
 40
    0.4
  1
5.14
  0
LINE
  8
CHEMINEMENTS
 10
    -9.73
 20
    -23.06
 30
    0.00
 11
    -11.43
 21
    -24.62
 31
    0.00
  0
CIRCLE
  8
POINTS
 10
    -11.43
 20
    -24.62
 30
    0.00
 40
    0.2
  0
LINE
  8
CONTOURS_LARGEURS
 10
    -9.05
 20
    -23.21
 30
    0.00
 11
    -11.28
 21
    -24.76
 31
    0.00
  0
LINE
  8
CONTOURS_LARGEURS
 10
    -11.19
 20
    -22.72
 30
    0.00
 11
    -11.65
 21
    -24.42
 31
    0.00
  0
TEXT
  8
STATIONS
 10
    -11.43
 20
    -24.62
 30
    0.00
 40
    0.4
  1
5.15
  0
LINE
  8
CHEMINEMENTS
 10
    -11.43
 20
    -24.62
 30
    0.00
 11
    -13.22
 21
    -27.04
 31
    0.00
  0
CIRCLE
  8
POINTS
 10
    -13.22
 20
    -27.04
 30
    0.00
 40
    0.2
  0
LINE
  8
CONTOURS_LARGEURS
 10
    -11.28
 20
    -24.76
 30
    0.00
 11
    -13.09
 21
    -27.19
 31
    0.00
  0
LINE
  8
CONTOURS_LARGEURS
 10
    -11.65
 20
    -24.42
 30
    0.00
 11
    -13.53
 21
    -26.65
 31
    0.00
  0
TEXT
  8
STATIONS
 10
    -13.22
 20
    -27.04
 30
    0.00
 40
    0.4
  1
5.16
  0
LINE
  8
CHEMINEMENTS
 10
    -13.22
 20
    -27.04
 30
    0.00
 11
    -14.19
 21
    -27.49
 31
    0.00
  0
CIRCLE
  8
POINTS
 10
    -14.19
 20
    -27.49
 30
    0.00
 40
    0.2
  0
LINE
  8
CONTOURS_LARGEURS
 10
    -13.09
 20
    -27.19
 30
    0.00
 11
    -13.94
 21
    -27.66
 31
    0.00
  0
LINE
  8
CONTOURS_LARGEURS
 10
    -13.53
 20
    -26.65
 30
    0.00
 11
    -14.43
 21
    -27.31
 31
    0.00
  0
TEXT
  8
STATIONS
 10
    -14.19
 20
    -27.49
 30
    0.00
 40
    0.4
  1
5.17
  0
LINE
  8
CHEMINEMENTS
 10
    -14.19
 20
    -27.49
 30
    0.00
 11
    -14.28
 21
    -28.35
 31
    0.00
  0
CIRCLE
  8
POINTS
 10
    -14.28
 20
    -28.35
 30
    0.00
 40
    0.2
  0
LINE
  8
CONTOURS_LARGEURS
 10
    -13.94
 20
    -27.66
 30
    0.00
 11
    -13.70
 21
    -27.96
 31
    0.00
  0
LINE
  8
CONTOURS_LARGEURS
 10
    -14.43
 20
    -27.31
 30
    0.00
 11
    -14.44
 21
    -28.46
 31
    0.00
  0
TEXT
  8
STATIONS
 10
    -14.28
 20
    -28.35
 30
    0.00
 40
    0.4
  1
5.18
  0
LINE
  8
CHEMINEMENTS
 10
    -14.28
 20
    -28.35
 30
    0.00
 11
    -11.24
 21
    -29.21
 31
    0.00
  0
CIRCLE
  8
POINTS
 10
    -11.24
 20
    -29.21
 30
    0.00
 40
    0.2
  0
LINE
  8
CONTOURS_LARGEURS
 10
    -13.70
 20
    -27.96
 30
    0.00
 11
    -11.10
 21
    -29.07
 31
    0.00
  0
LINE
  8
CONTOURS_LARGEURS
 10
    -14.44
 20
    -28.46
 30
    0.00
 11
    -11.94
 21
    -29.92
 31
    0.00
  0
TEXT
  8
STATIONS
 10
    -11.24
 20
    -29.21
 30
    0.00
 40
    0.4
  1
5.19
  0
LINE
  8
CHEMINEMENTS
 10
    -11.24
 20
    -29.21
 30
    0.00
 11
    -10.27
 21
    -32.45
 31
    0.00
  0
CIRCLE
  8
POINTS
 10
    -10.27
 20
    -32.45
 30
    0.00
 40
    0.2
  0
LINE
  8
CONTOURS_LARGEURS
 10
    -11.10
 20
    -29.07
 30
    0.00
 11
    -9.68
 21
    -31.53
 31
    0.00
  0
LINE
  8
CONTOURS_LARGEURS
 10
    -11.94
 20
    -29.92
 30
    0.00
 11
    -10.38
 21
    -32.62
 31
    0.00
  0
TEXT
  8
STATIONS
 10
    -10.27
 20
    -32.45
 30
    0.00
 40
    0.4
  1
5.20
  0
LINE
  8
CHEMINEMENTS
 10
    -10.27
 20
    -32.45
 30
    0.00
 11
    -8.72
 21
    -32.25
 31
    0.00
  0
CIRCLE
  8
POINTS
 10
    -8.72
 20
    -32.25
 30
    0.00
 40
    0.2
  0
LINE
  8
CONTOURS_LARGEURS
 10
    -9.68
 20
    -31.53
 30
    0.00
 11
    -8.53
 21
    -32.17
 31
    0.00
  0
LINE
  8
CONTOURS_LARGEURS
 10
    -10.38
 20
    -32.62
 30
    0.00
 11
    -9.09
 21
    -32.40
 31
    0.00
  0
TEXT
  8
STATIONS
 10
    -8.72
 20
    -32.25
 30
    0.00
 40
    0.4
  1
5.21
  0
LINE
  8
CHEMINEMENTS
 10
    -8.72
 20
    -32.25
 30
    0.00
 11
    -10.74
 21
    -33.79
 31
    0.00
  0
CIRCLE
  8
POINTS
 10
    -10.74
 20
    -33.79
 30
    0.00
 40
    0.2
  0
LINE
  8
CONTOURS_LARGEURS
 10
    -8.53
 20
    -32.17
 30
    0.00
 11
    -10.68
 21
    -33.87
 31
    0.00
  0
LINE
  8
CONTOURS_LARGEURS
 10
    -9.09
 20
    -32.40
 30
    0.00
 11
    -10.80
 21
    -33.71
 31
    0.00
  0
LINE
  8
CONTOURS_LARGEURS
 10
    -10.68
 20
    -33.87
 30
    0.00
 11
    -10.80
 21
    -33.71
 31
    0.00
  0
TEXT
  8
STATIONS
 10
    -10.74
 20
    -33.79
 30
    0.00
 40
    0.4
  1
5.22
  0
LINE
  8
CHEMINEMENTS
 10
    -4.89
 20
    -18.40
 30
    0.00
 11
    -4.89
 21
    -18.40
 31
    0.00
  0
CIRCLE
  8
POINTS
 10
    -4.89
 20
    -18.40
 30
    0.00
 40
    0.2
  0
LINE
  8
CONTOURS_LARGEURS
 10
    -4.76
 20
    -19.17
 30
    0.00
 11
    -4.46
 21
    -19.64
 31
    0.00
  0
LINE
  8
CONTOURS_LARGEURS
 10
    -5.02
 20
    -17.59
 30
    0.00
 11
    -5.15
 21
    -17.62
 31
    0.00
  0
TEXT
  8
STATIONS
 10
    -4.89
 20
    -18.40
 30
    0.00
 40
    0.4
  1
00
  0
LINE
  8
RADIALES
 10
    -4.89
 20
    -18.40
 30
    0.00
 11
    -4.30
 21
    -19.58
 31
    0.00
  0
LINE
  8
RADIALES
 10
    -4.89
 20
    -18.40
 30
    0.00
 11
    -5.43
 21
    -17.75
 31
    0.00
  0
LINE
  8
RADIALES
 10
    -4.89
 20
    -18.40
 30
    0.00
 11
    -5.41
 21
    -18.39
 31
    0.00
  0
LINE
  8
RADIALES
 10
    -4.89
 20
    -18.40
 30
    0.00
 11
    -6.24
 21
    -18.01
 31
    0.00
  0
LINE
  8
CHEMINEMENTS
 10
    -4.89
 20
    -18.40
 30
    0.00
 11
    -7.83
 21
    -19.40
 31
    0.00
  0
CIRCLE
  8
POINTS
 10
    -7.83
 20
    -19.40
 30
    0.00
 40
    0.2
  0
LINE
  8
CONTOURS_LARGEURS
 10
    -4.46
 20
    -19.64
 30
    0.00
 11
    -7.68
 21
    -19.76
 31
    0.00
  0
LINE
  8
CONTOURS_LARGEURS
 10
    -5.15
 20
    -17.62
 30
    0.00
 11
    -7.91
 21
    -19.22
 31
    0.00
  0
TEXT
  8
STATIONS
 10
    -7.83
 20
    -19.40
 30
    0.00
 40
    0.4
  1
10.1
  0
LINE
  8
RADIALES
 10
    -7.83
 20
    -19.40
 30
    0.00
 11
    -7.80
 21
    -19.81
 31
    0.00
  0
LINE
  8
RADIALES
 10
    -7.83
 20
    -19.40
 30
    0.00
 11
    -7.96
 21
    -19.23
 31
    0.00
  0
LINE
  8
RADIALES
 10
    -7.83
 20
    -19.40
 30
    0.00
 11
    -7.86
 21
    -19.35
 31
    0.00
  0
LINE
  8
RADIALES
 10
    -7.83
 20
    -19.40
 30
    0.00
 11
    -7.74
 21
    -19.74
 31
    0.00
  0
LINE
  8
CHEMINEMENTS
 10
    -7.83
 20
    -19.40
 30
    0.00
 11
    -9.19
 21
    -20.09
 31
    0.00
  0
CIRCLE
  8
POINTS
 10
    -9.19
 20
    -20.09
 30
    0.00
 40
    0.2
  0
LINE
  8
CONTOURS_LARGEURS
 10
    -7.68
 20
    -19.76
 30
    0.00
 11
    -9.12
 21
    -20.37
 31
    0.00
  0
LINE
  8
CONTOURS_LARGEURS
 10
    -7.91
 20
    -19.22
 30
    0.00
 11
    -9.25
 21
    -19.86
 31
    0.00
  0
TEXT
  8
STATIONS
 10
    -9.19
 20
    -20.09
 30
    0.00
 40
    0.4
  1
10.2
  0
LINE
  8
RADIALES
 10
    -9.19
 20
    -20.09
 30
    0.00
 11
    -9.03
 21
    -20.35
 31
    0.00
  0
LINE
  8
RADIALES
 10
    -9.19
 20
    -20.09
 30
    0.00
 11
    -9.28
 21
    -19.86
 31
    0.00
  0
LINE
  8
RADIALES
 10
    -9.19
 20
    -20.09
 30
    0.00
 11
    -9.36
 21
    -20.04
 31
    0.00
  0
LINE
  8
RADIALES
 10
    -9.19
 20
    -20.09
 30
    0.00
 11
    -9.03
 21
    -20.04
 31
    0.00
  0
LINE
  8
CHEMINEMENTS
 10
    -9.19
 20
    -20.09
 30
    0.00
 11
    -10.86
 21
    -20.14
 31
    0.00
  0
CIRCLE
  8
POINTS
 10
    -10.86
 20
    -20.14
 30
    0.00
 40
    0.2
  0
LINE
  8
CONTOURS_LARGEURS
 10
    -9.12
 20
    -20.37
 30
    0.00
 11
    -10.67
 21
    -20.47
 31
    0.00
  0
LINE
  8
CONTOURS_LARGEURS
 10
    -9.25
 20
    -19.86
 30
    0.00
 11
    -11.03
 21
    -19.84
 31
    0.00
  0
TEXT
  8
STATIONS
 10
    -10.86
 20
    -20.14
 30
    0.00
 40
    0.4
  1
10.3
  0
LINE
  8
RADIALES
 10
    -10.86
 20
    -20.14
 30
    0.00
 11
    -10.66
 21
    -20.47
 31
    0.00
  0
LINE
  8
RADIALES
 10
    -10.86
 20
    -20.14
 30
    0.00
 11
    -11.04
 21
    -19.85
 31
    0.00
  0
LINE
  8
RADIALES
 10
    -10.86
 20
    -20.14
 30
    0.00
 11
    -10.94
 21
    -20.19
 31
    0.00
  0
LINE
  8
RADIALES
 10
    -10.86
 20
    -20.14
 30
    0.00
 11
    -10.81
 21
    -20.15
 31
    0.00
  0
LINE
  8
CHEMINEMENTS
 10
    -10.86
 20
    -20.14
 30
    0.00
 11
    -11.85
 21
    -21.68
 31
    0.00
  0
CIRCLE
  8
POINTS
 10
    -11.85
 20
    -21.68
 30
    0.00
 40
    0.2
  0
LINE
  8
CONTOURS_LARGEURS
 10
    -10.67
 20
    -20.47
 30
    0.00
 11
    -11.64
 21
    -21.87
 31
    0.00
  0
LINE
  8
CONTOURS_LARGEURS
 10
    -11.03
 20
    -19.84
 30
    0.00
 11
    -12.51
 21
    -21.09
 31
    0.00
  0
TEXT
  8
STATIONS
 10
    -11.85
 20
    -21.68
 30
    0.00
 40
    0.4
  1
10.4
  0
LINE
  8
RADIALES
 10
    -11.85
 20
    -21.68
 30
    0.00
 11
    -11.75
 21
    -21.99
 31
    0.00
  0
LINE
  8
RADIALES
 10
    -11.85
 20
    -21.68
 30
    0.00
 11
    -12.18
 21
    -20.72
 31
    0.00
  0
LINE
  8
RADIALES
 10
    -11.85
 20
    -21.68
 30
    0.00
 11
    -12.26
 21
    -21.41
 31
    0.00
  0
LINE
  8
RADIALES
 10
    -11.85
 20
    -21.68
 30
    0.00
 11
    -11.60
 21
    -21.93
 31
    0.00
  0
LINE
  8
CHEMINEMENTS
 10
    -11.85
 20
    -21.68
 30
    0.00
 11
    -17.91
 21
    -26.64
 31
    0.00
  0
CIRCLE
  8
POINTS
 10
    -17.91
 20
    -26.64
 30
    0.00
 40
    0.2
  0
LINE
  8
CONTOURS_LARGEURS
 10
    -11.64
 20
    -21.87
 30
    0.00
 11
    -17.71
 21
    -26.98
 31
    0.00
  0
LINE
  8
CONTOURS_LARGEURS
 10
    -12.51
 20
    -21.09
 30
    0.00
 11
    -18.09
 21
    -26.35
 31
    0.00
  0
TEXT
  8
STATIONS
 10
    -17.91
 20
    -26.64
 30
    0.00
 40
    0.4
  1
10.5
  0
LINE
  8
RADIALES
 10
    -17.91
 20
    -26.64
 30
    0.00
 11
    -17.77
 21
    -27.02
 31
    0.00
  0
LINE
  8
RADIALES
 10
    -17.91
 20
    -26.64
 30
    0.00
 11
    -17.98
 21
    -26.28
 31
    0.00
  0
LINE
  8
RADIALES
 10
    -17.91
 20
    -26.64
 30
    0.00
 11
    -18.03
 21
    -26.26
 31
    0.00
  0
LINE
  8
RADIALES
 10
    -17.91
 20
    -26.64
 30
    0.00
 11
    -17.91
 21
    -26.64
 31
    0.00
  0
LINE
  8
CHEMINEMENTS
 10
    -17.91
 20
    -26.64
 30
    0.00
 11
    -21.15
 21
    -27.97
 31
    0.00
  0
CIRCLE
  8
POINTS
 10
    -21.15
 20
    -27.97
 30
    0.00
 40
    0.2
  0
LINE
  8
CONTOURS_LARGEURS
 10
    -17.71
 20
    -26.98
 30
    0.00
 11
    -19.26
 21
    -27.83
 31
    0.00
  0
LINE
  8
CONTOURS_LARGEURS
 10
    -18.09
 20
    -26.35
 30
    0.00
 11
    -21.76
 21
    -28.02
 31
    0.00
  0
TEXT
  8
STATIONS
 10
    -21.15
 20
    -27.97
 30
    0.00
 40
    0.4
  1
10.6
  0
LINE
  8
RADIALES
 10
    -21.15
 20
    -27.97
 30
    0.00
 11
    -21.80
 21
    -27.64
 31
    0.00
  0
LINE
  8
RADIALES
 10
    -21.15
 20
    -27.97
 30
    0.00
 11
    -19.28
 21
    -27.61
 31
    0.00
  0
LINE
  8
RADIALES
 10
    -21.15
 20
    -27.97
 30
    0.00
 11
    -20.46
 21
    -26.51
 31
    0.00
  0
LINE
  8
RADIALES
 10
    -21.15
 20
    -27.97
 30
    0.00
 11
    -21.11
 21
    -27.98
 31
    0.00
  0
LINE
  8
CHEMINEMENTS
 10
    -21.15
 20
    -27.97
 30
    0.00
 11
    -16.82
 21
    -29.03
 31
    0.00
  0
CIRCLE
  8
POINTS
 10
    -16.82
 20
    -29.03
 30
    0.00
 40
    0.2
  0
LINE
  8
CONTOURS_LARGEURS
 10
    -19.26
 20
    -27.83
 30
    0.00
 11
    -16.29
 21
    -28.37
 31
    0.00
  0
LINE
  8
CONTOURS_LARGEURS
 10
    -21.76
 20
    -28.02
 30
    0.00
 11
    -17.00
 21
    -29.24
 31
    0.00
  0
TEXT
  8
STATIONS
 10
    -16.82
 20
    -29.03
 30
    0.00
 40
    0.4
  1
10.7
  0
LINE
  8
RADIALES
 10
    -16.82
 20
    -29.03
 30
    0.00
 11
    -16.42
 21
    -28.27
 31
    0.00
  0
LINE
  8
RADIALES
 10
    -16.82
 20
    -29.03
 30
    0.00
 11
    -16.84
 21
    -29.37
 31
    0.00
  0
LINE
  8
RADIALES
 10
    -16.82
 20
    -29.03
 30
    0.00
 11
    -16.76
 21
    -28.92
 31
    0.00
  0
LINE
  8
RADIALES
 10
    -16.82
 20
    -29.03
 30
    0.00
 11
    -16.68
 21
    -28.83
 31
    0.00
  0
LINE
  8
CHEMINEMENTS
 10
    -16.82
 20
    -29.03
 30
    0.00
 11
    -16.35
 21
    -30.00
 31
    0.00
  0
CIRCLE
  8
POINTS
 10
    -16.35
 20
    -30.00
 30
    0.00
 40
    0.2
  0
LINE
  8
CONTOURS_LARGEURS
 10
    -16.29
 20
    -28.37
 30
    0.00
 11
    -16.14
 21
    -29.73
 31
    0.00
  0
LINE
  8
CONTOURS_LARGEURS
 10
    -17.00
 20
    -29.24
 30
    0.00
 11
    -16.72
 21
    -30.49
 31
    0.00
  0
TEXT
  8
STATIONS
 10
    -16.35
 20
    -30.00
 30
    0.00
 40
    0.4
  1
10.8
  0
LINE
  8
RADIALES
 10
    -16.35
 20
    -30.00
 30
    0.00
 11
    -16.19
 21
    -30.89
 31
    0.00
  0
LINE
  8
RADIALES
 10
    -16.35
 20
    -30.00
 30
    0.00
 11
    -16.53
 21
    -29.42
 31
    0.00
  0
LINE
  8
RADIALES
 10
    -16.35
 20
    -30.00
 30
    0.00
 11
    -16.73
 21
    -29.71
 31
    0.00
  0
LINE
  8
RADIALES
 10
    -16.35
 20
    -30.00
 30
    0.00
 11
    -16.34
 21
    -30.03
 31
    0.00
  0
LINE
  8
CHEMINEMENTS
 10
    -16.35
 20
    -30.00
 30
    0.00
 11
    -15.26
 21
    -30.21
 31
    0.00
  0
CIRCLE
  8
POINTS
 10
    -15.26
 20
    -30.21
 30
    0.00
 40
    0.2
  0
LINE
  8
CONTOURS_LARGEURS
 10
    -16.14
 20
    -29.73
 30
    0.00
 11
    -14.80
 21
    -30.26
 31
    0.00
  0
LINE
  8
CONTOURS_LARGEURS
 10
    -16.72
 20
    -30.49
 30
    0.00
 11
    -18.16
 21
    -29.90
 31
    0.00
  0
TEXT
  8
STATIONS
 10
    -15.26
 20
    -30.21
 30
    0.00
 40
    0.4
  1
10.9
  0
LINE
  8
RADIALES
 10
    -15.26
 20
    -30.21
 30
    0.00
 11
    -14.77
 21
    -29.95
 31
    0.00
  0
LINE
  8
RADIALES
 10
    -15.26
 20
    -30.21
 30
    0.00
 11
    -18.21
 21
    -30.32
 31
    0.00
  0
LINE
  8
RADIALES
 10
    -15.26
 20
    -30.21
 30
    0.00
 11
    -16.34
 21
    -29.19
 31
    0.00
  0
LINE
  8
RADIALES
 10
    -15.26
 20
    -30.21
 30
    0.00
 11
    -15.27
 21
    -30.41
 31
    0.00
  0
LINE
  8
CHEMINEMENTS
 10
    -15.26
 20
    -30.21
 30
    0.00
 11
    -20.14
 21
    -30.09
 31
    0.00
  0
CIRCLE
  8
POINTS
 10
    -20.14
 20
    -30.09
 30
    0.00
 40
    0.2
  0
LINE
  8
CONTOURS_LARGEURS
 10
    -14.80
 20
    -30.26
 30
    0.00
 11
    -19.85
 21
    -30.17
 31
    0.00
  0
LINE
  8
CONTOURS_LARGEURS
 10
    -18.16
 20
    -29.90
 30
    0.00
 11
    -20.62
 21
    -29.95
 31
    0.00
  0
TEXT
  8
STATIONS
 10
    -20.14
 20
    -30.09
 30
    0.00
 40
    0.4
  1
10.10
  0
LINE
  8
RADIALES
 10
    -20.14
 20
    -30.09
 30
    0.00
 11
    -19.90
 21
    -30.37
 31
    0.00
  0
LINE
  8
RADIALES
 10
    -20.14
 20
    -30.09
 30
    0.00
 11
    -20.47
 21
    -29.45
 31
    0.00
  0
LINE
  8
RADIALES
 10
    -20.14
 20
    -30.09
 30
    0.00
 11
    -20.21
 21
    -30.15
 31
    0.00
  0
LINE
  8
RADIALES
 10
    -20.14
 20
    -30.09
 30
    0.00
 11
    -20.16
 21
    -30.15
 31
    0.00
  0
LINE
  8
CHEMINEMENTS
 10
    -20.14
 20
    -30.09
 30
    0.00
 11
    -19.02
 21
    -30.74
 31
    0.00
  0
CIRCLE
  8
POINTS
 10
    -19.02
 20
    -30.74
 30
    0.00
 40
    0.2
  0
LINE
  8
CONTOURS_LARGEURS
 10
    -19.85
 20
    -30.17
 30
    0.00
 11
    -19.02
 21
    -30.74
 31
    0.00
  0
LINE
  8
CONTOURS_LARGEURS
 10
    -20.62
 20
    -29.95
 30
    0.00
 11
    -19.02
 21
    -30.74
 31
    0.00
  0
TEXT
  8
STATIONS
 10
    -19.02
 20
    -30.74
 30
    0.00
 40
    0.4
  1
10.11
  0
LINE
  8
RADIALES
 10
    -19.02
 20
    -30.74
 30
    0.00
 11
    -21.59
 21
    -30.61
 31
    0.00
  0
LINE
  8
RADIALES
 10
    -19.02
 20
    -30.74
 30
    0.00
 11
    -18.32
 21
    -30.57
 31
    0.00
  0
LINE
  8
RADIALES
 10
    -19.02
 20
    -30.74
 30
    0.00
 11
    -19.22
 21
    -30.68
 31
    0.00
  0
LINE
  8
RADIALES
 10
    -19.02
 20
    -30.74
 30
    0.00
 11
    -19.00
 21
    -30.81
 31
    0.00
  0
LINE
  8
CHEMINEMENTS
 10
    -19.02
 20
    -30.74
 30
    0.00
 11
    -17.03
 21
    -30.09
 31
    0.00
  0
CIRCLE
  8
POINTS
 10
    -17.03
 20
    -30.09
 30
    0.00
 40
    0.2
  0
LINE
  8
CONTOURS_LARGEURS
 10
    -19.02
 20
    -30.74
 30
    0.00
 11
    -17.03
 21
    -29.58
 31
    0.00
  0
LINE
  8
CONTOURS_LARGEURS
 10
    -19.02
 20
    -30.74
 30
    0.00
 11
    -17.02
 21
    -30.45
 31
    0.00
  0
TEXT
  8
STATIONS
 10
    -17.03
 20
    -30.09
 30
    0.00
 40
    0.4
  1
10.12
  0
LINE
  8
RADIALES
 10
    -17.03
 20
    -30.09
 30
    0.00
 11
    -17.01
 21
    -30.45
 31
    0.00
  0
LINE
  8
RADIALES
 10
    -17.03
 20
    -30.09
 30
    0.00
 11
    -16.89
 21
    -29.58
 31
    0.00
  0
LINE
  8
RADIALES
 10
    -17.03
 20
    -30.09
 30
    0.00
 11
    -17.38
 21
    -29.59
 31
    0.00
  0
LINE
  8
RADIALES
 10
    -17.03
 20
    -30.09
 30
    0.00
 11
    -17.19
 21
    -29.99
 31
    0.00
  0
LINE
  8
CHEMINEMENTS
 10
    -17.03
 20
    -30.09
 30
    0.00
 11
    -14.79
 21
    -30.77
 31
    0.00
  0
CIRCLE
  8
POINTS
 10
    -14.79
 20
    -30.77
 30
    0.00
 40
    0.2
  0
LINE
  8
CONTOURS_LARGEURS
 10
    -17.03
 20
    -29.58
 30
    0.00
 11
    -14.44
 21
    -30.08
 31
    0.00
  0
LINE
  8
CONTOURS_LARGEURS
 10
    -17.02
 20
    -30.45
 30
    0.00
 11
    -14.99
 21
    -31.16
 31
    0.00
  0
TEXT
  8
STATIONS
 10
    -14.79
 20
    -30.77
 30
    0.00
 40
    0.4
  1
10.13
  0
LINE
  8
RADIALES
 10
    -14.79
 20
    -30.77
 30
    0.00
 11
    -14.47
 21
    -31.43
 31
    0.00
  0
LINE
  8
RADIALES
 10
    -14.79
 20
    -30.77
 30
    0.00
 11
    -14.47
 21
    -30.07
 31
    0.00
  0
LINE
  8
RADIALES
 10
    -14.79
 20
    -30.77
 30
    0.00
 11
    -15.34
 21
    -30.23
 31
    0.00
  0
LINE
  8
RADIALES
 10
    -14.79
 20
    -30.77
 30
    0.00
 11
    -14.61
 21
    -30.78
 31
    0.00
  0
LINE
  8
CHEMINEMENTS
 10
    -14.79
 20
    -30.77
 30
    0.00
 11
    -13.27
 21
    -31.90
 31
    0.00
  0
CIRCLE
  8
POINTS
 10
    -13.27
 20
    -31.90
 30
    0.00
 40
    0.2
  0
LINE
  8
CONTOURS_LARGEURS
 10
    -14.44
 20
    -30.08
 30
    0.00
 11
    -13.27
 21
    -31.90
 31
    0.00
  0
LINE
  8
CONTOURS_LARGEURS
 10
    -14.99
 20
    -31.16
 30
    0.00
 11
    -14.13
 21
    -31.88
 31
    0.00
  0
TEXT
  8
STATIONS
 10
    -13.27
 20
    -31.90
 30
    0.00
 40
    0.4
  1
10.14
  0
LINE
  8
RADIALES
 10
    -13.27
 20
    -31.90
 30
    0.00
 11
    -13.12
 21
    -32.14
 31
    0.00
  0
LINE
  8
RADIALES
 10
    -13.27
 20
    -31.90
 30
    0.00
 11
    -14.11
 21
    -31.36
 31
    0.00
  0
LINE
  8
RADIALES
 10
    -13.27
 20
    -31.90
 30
    0.00
 11
    -13.35
 21
    -31.73
 31
    0.00
  0
LINE
  8
RADIALES
 10
    -13.27
 20
    -31.90
 30
    0.00
 11
    -13.27
 21
    -31.87
 31
    0.00
  0
LINE
  8
CHEMINEMENTS
 10
    -13.27
 20
    -31.90
 30
    0.00
 11
    -16.38
 21
    -33.94
 31
    0.00
  0
CIRCLE
  8
POINTS
 10
    -16.38
 20
    -33.94
 30
    0.00
 40
    0.2
  0
LINE
  8
CONTOURS_LARGEURS
 10
    -13.27
 20
    -31.90
 30
    0.00
 11
    -16.16
 21
    -34.14
 31
    0.00
  0
LINE
  8
CONTOURS_LARGEURS
 10
    -14.13
 20
    -31.88
 30
    0.00
 11
    -16.65
 21
    -33.68
 31
    0.00
  0
TEXT
  8
STATIONS
 10
    -16.38
 20
    -33.94
 30
    0.00
 40
    0.4
  1
10.15
  0
LINE
  8
RADIALES
 10
    -16.38
 20
    -33.94
 30
    0.00
 11
    -16.11
 21
    -34.09
 31
    0.00
  0
LINE
  8
RADIALES
 10
    -16.38
 20
    -33.94
 30
    0.00
 11
    -16.63
 21
    -33.66
 31
    0.00
  0
LINE
  8
RADIALES
 10
    -16.38
 20
    -33.94
 30
    0.00
 11
    -16.75
 21
    -33.97
 31
    0.00
  0
LINE
  8
RADIALES
 10
    -16.38
 20
    -33.94
 30
    0.00
 11
    -16.21
 21
    -34.21
 31
    0.00
  0
LINE
  8
CHEMINEMENTS
 10
    -16.38
 20
    -33.94
 30
    0.00
 11
    -16.77
 21
    -34.62
 31
    0.00
  0
CIRCLE
  8
POINTS
 10
    -16.77
 20
    -34.62
 30
    0.00
 40
    0.2
  0
LINE
  8
CONTOURS_LARGEURS
 10
    -16.16
 20
    -34.14
 30
    0.00
 11
    -16.61
 21
    -34.82
 31
    0.00
  0
LINE
  8
CONTOURS_LARGEURS
 10
    -16.65
 20
    -33.68
 30
    0.00
 11
    -16.94
 21
    -34.41
 31
    0.00
  0
TEXT
  8
STATIONS
 10
    -16.77
 20
    -34.62
 30
    0.00
 40
    0.4
  1
10.16
  0
LINE
  8
RADIALES
 10
    -16.77
 20
    -34.62
 30
    0.00
 11
    -16.85
 21
    -34.34
 31
    0.00
  0
LINE
  8
RADIALES
 10
    -16.77
 20
    -34.62
 30
    0.00
 11
    -16.62
 21
    -34.83
 31
    0.00
  0
LINE
  8
RADIALES
 10
    -16.77
 20
    -34.62
 30
    0.00
 11
    -17.04
 21
    -34.26
 31
    0.00
  0
LINE
  8
RADIALES
 10
    -16.77
 20
    -34.62
 30
    0.00
 11
    -16.72
 21
    -34.61
 31
    0.00
  0
LINE
  8
CHEMINEMENTS
 10
    -16.77
 20
    -34.62
 30
    0.00
 11
    -21.30
 21
    -36.04
 31
    0.00
  0
CIRCLE
  8
POINTS
 10
    -21.30
 20
    -36.04
 30
    0.00
 40
    0.2
  0
LINE
  8
CONTOURS_LARGEURS
 10
    -16.61
 20
    -34.82
 30
    0.00
 11
    -21.30
 21
    -36.04
 31
    0.00
  0
LINE
  8
CONTOURS_LARGEURS
 10
    -16.94
 20
    -34.41
 30
    0.00
 11
    -21.37
 21
    -35.80
 31
    0.00
  0
LINE
  8
CONTOURS_LARGEURS
 10
    -21.30
 20
    -36.04
 30
    0.00
 11
    -21.37
 21
    -35.80
 31
    0.00
  0
TEXT
  8
STATIONS
 10
    -21.30
 20
    -36.04
 30
    0.00
 40
    0.4
  1
10.17
  0
LINE
  8
RADIALES
 10
    -21.30
 20
    -36.04
 30
    0.00
 11
    -21.44
 21
    -35.80
 31
    0.00
  0
LINE
  8
RADIALES
 10
    -21.30
 20
    -36.04
 30
    0.00
 11
    -21.43
 21
    -35.81
 31
    0.00
  0
LINE
  8
RADIALES
 10
    -21.30
 20
    -36.04
 30
    0.00
 11
    -21.62
 21
    -35.89
 31
    0.00
  0
LINE
  8
RADIALES
 10
    -21.30
 20
    -36.04
 30
    0.00
 11
    -20.88
 21
    -35.52
 31
    0.00
  0
LINE
  8
CHEMINEMENTS
 10
    -8.72
 20
    -32.25
 30
    0.00
 11
    -8.72
 21
    -32.25
 31
    0.00
  0
CIRCLE
  8
POINTS
 10
    -8.72
 20
    -32.25
 30
    0.00
 40
    0.2
  0
LINE
  8
CONTOURS_LARGEURS
 10
    -8.53
 20
    -32.17
 30
    0.00
 11
    -8.52
 21
    -32.73
 31
    0.00
  0
LINE
  8
CONTOURS_LARGEURS
 10
    -9.09
 20
    -32.40
 30
    0.00
 11
    -9.04
 21
    -31.47
 31
    0.00
  0
TEXT
  8
STATIONS
 10
    -8.72
 20
    -32.25
 30
    0.00
 40
    0.4
  1
5.27
  0
LINE
  8
RADIALES
 10
    -8.72
 20
    -32.25
 30
    0.00
 11
    -8.57
 21
    -32.45
 31
    0.00
  0
LINE
  8
RADIALES
 10
    -8.72
 20
    -32.25
 30
    0.00
 11
    -9.05
 21
    -32.64
 31
    0.00
  0
LINE
  8
RADIALES
 10
    -8.72
 20
    -32.25
 30
    0.00
 11
    -8.45
 21
    -31.41
 31
    0.00
  0
LINE
  8
RADIALES
 10
    -8.72
 20
    -32.25
 30
    0.00
 11
    -8.80
 21
    -32.63
 31
    0.00
  0
LINE
  8
CHEMINEMENTS
 10
    -8.72
 20
    -32.25
 30
    0.00
 11
    -10.04
 21
    -32.79
 31
    0.00
  0
CIRCLE
  8
POINTS
 10
    -10.04
 20
    -32.79
 30
    0.00
 40
    0.2
  0
LINE
  8
CONTOURS_LARGEURS
 10
    -8.52
 20
    -32.73
 30
    0.00
 11
    -9.92
 21
    -33.02
 31
    0.00
  0
LINE
  8
CONTOURS_LARGEURS
 10
    -9.04
 20
    -31.47
 30
    0.00
 11
    -10.23
 21
    -32.42
 31
    0.00
  0
TEXT
  8
STATIONS
 10
    -10.04
 20
    -32.79
 30
    0.00
 40
    0.4
  1
5.28
  0
LINE
  8
RADIALES
 10
    -10.04
 20
    -32.79
 30
    0.00
 11
    -9.91
 21
    -33.02
 31
    0.00
  0
LINE
  8
RADIALES
 10
    -10.04
 20
    -32.79
 30
    0.00
 11
    -10.40
 21
    -32.51
 31
    0.00
  0
LINE
  8
RADIALES
 10
    -10.04
 20
    -32.79
 30
    0.00
 11
    -10.13
 21
    -32.69
 31
    0.00
  0
LINE
  8
RADIALES
 10
    -10.04
 20
    -32.79
 30
    0.00
 11
    -9.95
 21
    -32.77
 31
    0.00
  0
LINE
  8
CHEMINEMENTS
 10
    -10.04
 20
    -32.79
 30
    0.00
 11
    -10.87
 21
    -33.33
 31
    0.00
  0
CIRCLE
  8
POINTS
 10
    -10.87
 20
    -33.33
 30
    0.00
 40
    0.2
  0
LINE
  8
CONTOURS_LARGEURS
 10
    -9.92
 20
    -33.02
 30
    0.00
 11
    -10.67
 21
    -33.66
 31
    0.00
  0
LINE
  8
CONTOURS_LARGEURS
 10
    -10.23
 20
    -32.42
 30
    0.00
 11
    -11.00
 21
    -33.13
 31
    0.00
  0
TEXT
  8
STATIONS
 10
    -10.87
 20
    -33.33
 30
    0.00
 40
    0.4
  1
5.29
  0
LINE
  8
RADIALES
 10
    -10.87
 20
    -33.33
 30
    0.00
 11
    -10.61
 21
    -33.63
 31
    0.00
  0
LINE
  8
RADIALES
 10
    -10.87
 20
    -33.33
 30
    0.00
 11
    -11.03
 21
    -33.15
 31
    0.00
  0
LINE
  8
RADIALES
 10
    -10.87
 20
    -33.33
 30
    0.00
 11
    -11.06
 21
    -33.23
 31
    0.00
  0
LINE
  8
RADIALES
 10
    -10.87
 20
    -33.33
 30
    0.00
 11
    -10.81
 21
    -33.30
 31
    0.00
  0
LINE
  8
CHEMINEMENTS
 10
    -10.87
 20
    -33.33
 30
    0.00
 11
    -13.09
 21
    -34.64
 31
    0.00
  0
CIRCLE
  8
POINTS
 10
    -13.09
 20
    -34.64
 30
    0.00
 40
    0.2
  0
LINE
  8
CONTOURS_LARGEURS
 10
    -10.67
 20
    -33.66
 30
    0.00
 11
    -12.96
 21
    -34.84
 31
    0.00
  0
LINE
  8
CONTOURS_LARGEURS
 10
    -11.00
 20
    -33.13
 30
    0.00
 11
    -13.27
 21
    -34.38
 31
    0.00
  0
TEXT
  8
STATIONS
 10
    -13.09
 20
    -34.64
 30
    0.00
 40
    0.4
  1
5.30
  0
LINE
  8
RADIALES
 10
    -13.09
 20
    -34.64
 30
    0.00
 11
    -12.93
 21
    -34.82
 31
    0.00
  0
LINE
  8
RADIALES
 10
    -13.09
 20
    -34.64
 30
    0.00
 11
    -13.27
 21
    -34.38
 31
    0.00
  0
LINE
  8
RADIALES
 10
    -13.09
 20
    -34.64
 30
    0.00
 11
    -13.33
 21
    -34.57
 31
    0.00
  0
LINE
  8
RADIALES
 10
    -13.09
 20
    -34.64
 30
    0.00
 11
    -13.19
 21
    -34.58
 31
    0.00
  0
LINE
  8
CHEMINEMENTS
 10
    -13.09
 20
    -34.64
 30
    0.00
 11
    -15.16
 21
    -36.24
 31
    0.00
  0
CIRCLE
  8
POINTS
 10
    -15.16
 20
    -36.24
 30
    0.00
 40
    0.2
  0
LINE
  8
CONTOURS_LARGEURS
 10
    -12.96
 20
    -34.84
 30
    0.00
 11
    -14.99
 21
    -36.42
 31
    0.00
  0
LINE
  8
CONTOURS_LARGEURS
 10
    -13.27
 20
    -34.38
 30
    0.00
 11
    -15.30
 21
    -36.09
 31
    0.00
  0
TEXT
  8
STATIONS
 10
    -15.16
 20
    -36.24
 30
    0.00
 40
    0.4
  1
5.31
  0
LINE
  8
RADIALES
 10
    -15.16
 20
    -36.24
 30
    0.00
 11
    -15.00
 21
    -36.43
 31
    0.00
  0
LINE
  8
RADIALES
 10
    -15.16
 20
    -36.24
 30
    0.00
 11
    -15.31
 21
    -36.11
 31
    0.00
  0
LINE
  8
RADIALES
 10
    -15.16
 20
    -36.24
 30
    0.00
 11
    -15.10
 21
    -36.25
 31
    0.00
  0
LINE
  8
CHEMINEMENTS
 10
    -15.16
 20
    -36.24
 30
    0.00
 11
    -16.89
 21
    -38.24
 31
    0.00
  0
CIRCLE
  8
POINTS
 10
    -16.89
 20
    -38.24
 30
    0.00
 40
    0.2
  0
LINE
  8
CONTOURS_LARGEURS
 10
    -14.99
 20
    -36.42
 30
    0.00
 11
    -16.71
 21
    -38.39
 31
    0.00
  0
LINE
  8
CONTOURS_LARGEURS
 10
    -15.30
 20
    -36.09
 30
    0.00
 11
    -17.07
 21
    -38.09
 31
    0.00
  0
LINE
  8
CONTOURS_LARGEURS
 10
    -16.71
 20
    -38.39
 30
    0.00
 11
    -17.07
 21
    -38.09
 31
    0.00
  0
TEXT
  8
STATIONS
 10
    -16.89
 20
    -38.24
 30
    0.00
 40
    0.4
  1
5.32
  0
TEXT
  8
PROFONDEURS
 10
    -16.89
 20
    -38.24
 30
    0.00
 40
    0.6
  1
-178
  0
LINE
  8
RADIALES
 10
    -16.89
 20
    -38.24
 30
    0.00
 11
    -16.74
 21
    -38.42
 31
    0.00
  0
LINE
  8
RADIALES
 10
    -16.89
 20
    -38.24
 30
    0.00
 11
    -17.01
 21
    -38.01
 31
    0.00
  0
LINE
  8
RADIALES
 10
    -16.89
 20
    -38.24
 30
    0.00
 11
    -16.93
 21
    -38.26
 31
    0.00
  0
LINE
  8
RADIALES
 10
    -16.89
 20
    -38.24
 30
    0.00
 11
    -16.85
 21
    -38.28
 31
    0.00
  0
LINE
  8
RADIALES
 10
    -4.89
 20
    -18.40
 30
    0.00
 11
    -4.41
 21
    -19.40
 31
    0.00
  0
LINE
  8
RADIALES
 10
    -4.89
 20
    -18.40
 30
    0.00
 11
    -3.92
 21
    -17.87
 31
    0.00
  0
LINE
  8
RADIALES
 10
    -4.89
 20
    -18.40
 30
    0.00
 11
    -7.24
 21
    -19.14
 31
    0.00
  0
LINE
  8
RADIALES
 10
    -4.89
 20
    -18.40
 30
    0.00
 11
    -4.88
 21
    -18.40
 31
    0.00
  0
LINE
  8
RADIALES
 10
    -4.89
 20
    -18.40
 30
    0.00
 11
    -5.03
 21
    -18.57
 31
    0.00
  0
LINE
  8
CHEMINEMENTS
 10
    -4.89
 20
    -18.40
 30
    0.00
 11
    -5.19
 21
    -17.51
 31
    0.00
  0
CIRCLE
  8
POINTS
 10
    -5.19
 20
    -17.51
 30
    0.00
 40
    0.2
  0
LINE
  8
CONTOURS_LARGEURS
 10
    -4.76
 20
    -19.17
 30
    0.00
 11
    -5.74
 21
    -17.73
 31
    0.00
  0
LINE
  8
CONTOURS_LARGEURS
 10
    -5.02
 20
    -17.59
 30
    0.00
 11
    -4.79
 21
    -17.34
 31
    0.00
  0
TEXT
  8
STATIONS
 10
    -5.19
 20
    -17.51
 30
    0.00
 40
    0.4
  1
11.1
  0
LINE
  8
RADIALES
 10
    -5.19
 20
    -17.51
 30
    0.00
 11
    -5.78
 21
    -17.62
 31
    0.00
  0
LINE
  8
RADIALES
 10
    -5.19
 20
    -17.51
 30
    0.00
 11
    -4.82
 21
    -17.27
 31
    0.00
  0
LINE
  8
RADIALES
 10
    -5.19
 20
    -17.51
 30
    0.00
 11
    -4.45
 21
    -17.47
 31
    0.00
  0
LINE
  8
RADIALES
 10
    -5.19
 20
    -17.51
 30
    0.00
 11
    -5.57
 21
    -17.38
 31
    0.00
  0
LINE
  8
CHEMINEMENTS
 10
    -5.19
 20
    -17.51
 30
    0.00
 11
    -7.16
 21
    -13.38
 31
    0.00
  0
CIRCLE
  8
POINTS
 10
    -7.16
 20
    -13.38
 30
    0.00
 40
    0.2
  0
LINE
  8
CONTOURS_LARGEURS
 10
    -5.74
 20
    -17.73
 30
    0.00
 11
    -7.21
 21
    -13.50
 31
    0.00
  0
LINE
  8
CONTOURS_LARGEURS
 10
    -4.79
 20
    -17.34
 30
    0.00
 11
    -7.04
 21
    -13.10
 31
    0.00
  0
TEXT
  8
STATIONS
 10
    -7.16
 20
    -13.38
 30
    0.00
 40
    0.4
  1
11.2
  0
LINE
  8
RADIALES
 10
    -7.16
 20
    -13.38
 30
    0.00
 11
    -7.13
 21
    -13.53
 31
    0.00
  0
LINE
  8
RADIALES
 10
    -7.16
 20
    -13.38
 30
    0.00
 11
    -7.33
 21
    -12.97
 31
    0.00
  0
LINE
  8
RADIALES
 10
    -7.16
 20
    -13.38
 30
    0.00
 11
    -7.15
 21
    -13.42
 31
    0.00
  0
LINE
  8
RADIALES
 10
    -7.16
 20
    -13.38
 30
    0.00
 11
    -7.50
 21
    -13.35
 31
    0.00
  0
LINE
  8
CHEMINEMENTS
 10
    -7.16
 20
    -13.38
 30
    0.00
 11
    -11.43
 21
    -14.75
 31
    0.00
  0
CIRCLE
  8
POINTS
 10
    -11.43
 20
    -14.75
 30
    0.00
 40
    0.2
  0
LINE
  8
CONTOURS_LARGEURS
 10
    -7.21
 20
    -13.50
 30
    0.00
 11
    -11.38
 21
    -15.17
 31
    0.00
  0
LINE
  8
CONTOURS_LARGEURS
 10
    -7.04
 20
    -13.10
 30
    0.00
 11
    -11.46
 21
    -14.48
 31
    0.00
  0
TEXT
  8
STATIONS
 10
    -11.43
 20
    -14.75
 30
    0.00
 40
    0.4
  1
11.3
  0
LINE
  8
RADIALES
 10
    -11.43
 20
    -14.75
 30
    0.00
 11
    -11.38
 21
    -15.17
 31
    0.00
  0
LINE
  8
RADIALES
 10
    -11.43
 20
    -14.75
 30
    0.00
 11
    -11.53
 21
    -14.49
 31
    0.00
  0
LINE
  8
RADIALES
 10
    -11.43
 20
    -14.75
 30
    0.00
 11
    -11.56
 21
    -14.70
 31
    0.00
  0
LINE
  8
RADIALES
 10
    -11.43
 20
    -14.75
 30
    0.00
 11
    -11.61
 21
    -14.75
 31
    0.00
  0
LINE
  8
CHEMINEMENTS
 10
    -11.43
 20
    -14.75
 30
    0.00
 11
    -13.88
 21
    -14.60
 31
    0.00
  0
CIRCLE
  8
POINTS
 10
    -13.88
 20
    -14.60
 30
    0.00
 40
    0.2
  0
LINE
  8
CONTOURS_LARGEURS
 10
    -11.38
 20
    -15.17
 30
    0.00
 11
    -13.89
 21
    -14.91
 31
    0.00
  0
LINE
  8
CONTOURS_LARGEURS
 10
    -11.46
 20
    -14.48
 30
    0.00
 11
    -13.88
 21
    -14.60
 31
    0.00
  0
TEXT
  8
STATIONS
 10
    -13.88
 20
    -14.60
 30
    0.00
 40
    0.4
  1
11.4
  0
LINE
  8
RADIALES
 10
    -13.88
 20
    -14.60
 30
    0.00
 11
    -13.86
 21
    -14.91
 31
    0.00
  0
LINE
  8
RADIALES
 10
    -13.88
 20
    -14.60
 30
    0.00
 11
    -13.95
 21
    -14.94
 31
    0.00
  0
LINE
  8
RADIALES
 10
    -13.88
 20
    -14.60
 30
    0.00
 11
    -13.81
 21
    -14.92
 31
    0.00
  0
LINE
  8
RADIALES
 10
    -13.88
 20
    -14.60
 30
    0.00
 11
    -13.75
 21
    -14.52
 31
    0.00
  0
LINE
  8
CHEMINEMENTS
 10
    -13.88
 20
    -14.60
 30
    0.00
 11
    -16.77
 21
    -14.55
 31
    0.00
  0
CIRCLE
  8
POINTS
 10
    -16.77
 20
    -14.55
 30
    0.00
 40
    0.2
  0
LINE
  8
CONTOURS_LARGEURS
 10
    -13.89
 20
    -14.91
 30
    0.00
 11
    -16.90
 21
    -15.48
 31
    0.00
  0
LINE
  8
CONTOURS_LARGEURS
 10
    -13.88
 20
    -14.60
 30
    0.00
 11
    -16.71
 21
    -14.10
 31
    0.00
  0
TEXT
  8
STATIONS
 10
    -16.77
 20
    -14.55
 30
    0.00
 40
    0.4
  1
11.5
  0
LINE
  8
RADIALES
 10
    -16.77
 20
    -14.55
 30
    0.00
 11
    -16.82
 21
    -15.48
 31
    0.00
  0
LINE
  8
RADIALES
 10
    -16.77
 20
    -14.55
 30
    0.00
 11
    -16.85
 21
    -14.08
 31
    0.00
  0
LINE
  8
RADIALES
 10
    -16.77
 20
    -14.55
 30
    0.00
 11
    -16.75
 21
    -14.47
 31
    0.00
  0
LINE
  8
RADIALES
 10
    -16.77
 20
    -14.55
 30
    0.00
 11
    -17.18
 21
    -14.40
 31
    0.00
  0
LINE
  8
CHEMINEMENTS
 10
    -16.77
 20
    -14.55
 30
    0.00
 11
    -17.33
 21
    -14.41
 31
    0.00
  0
CIRCLE
  8
POINTS
 10
    -17.33
 20
    -14.41
 30
    0.00
 40
    0.2
  0
LINE
  8
CONTOURS_LARGEURS
 10
    -16.90
 20
    -15.48
 30
    0.00
 11
    -17.51
 21
    -14.52
 31
    0.00
  0
LINE
  8
CONTOURS_LARGEURS
 10
    -16.71
 20
    -14.10
 30
    0.00
 11
    -17.33
 21
    -14.41
 31
    0.00
  0
TEXT
  8
STATIONS
 10
    -17.33
 20
    -14.41
 30
    0.00
 40
    0.4
  1
11.6
  0
LINE
  8
RADIALES
 10
    -17.33
 20
    -14.41
 30
    0.00
 11
    -17.55
 21
    -14.05
 31
    0.00
  0
LINE
  8
RADIALES
 10
    -17.33
 20
    -14.41
 30
    0.00
 11
    -17.01
 21
    -14.55
 31
    0.00
  0
LINE
  8
RADIALES
 10
    -17.33
 20
    -14.41
 30
    0.00
 11
    -17.35
 21
    -14.42
 31
    0.00
  0
LINE
  8
RADIALES
 10
    -17.33
 20
    -14.41
 30
    0.00
 11
    -17.42
 21
    -14.30
 31
    0.00
  0
LINE
  8
CHEMINEMENTS
 10
    -17.33
 20
    -14.41
 30
    0.00
 11
    -16.96
 21
    -12.96
 31
    0.00
  0
CIRCLE
  8
POINTS
 10
    -16.96
 20
    -12.96
 30
    0.00
 40
    0.2
  0
LINE
  8
CONTOURS_LARGEURS
 10
    -17.51
 20
    -14.52
 30
    0.00
 11
    -17.26
 21
    -13.28
 31
    0.00
  0
LINE
  8
CONTOURS_LARGEURS
 10
    -17.33
 20
    -14.41
 30
    0.00
 11
    -16.96
 21
    -12.96
 31
    0.00
  0
TEXT
  8
STATIONS
 10
    -16.96
 20
    -12.96
 30
    0.00
 40
    0.4
  1
11.7
  0
LINE
  8
RADIALES
 10
    -16.96
 20
    -12.96
 30
    0.00
 11
    -16.96
 21
    -12.26
 31
    0.00
  0
LINE
  8
RADIALES
 10
    -16.96
 20
    -12.96
 30
    0.00
 11
    -17.13
 21
    -13.39
 31
    0.00
  0
LINE
  8
RADIALES
 10
    -16.96
 20
    -12.96
 30
    0.00
 11
    -17.01
 21
    -12.87
 31
    0.00
  0
LINE
  8
RADIALES
 10
    -16.96
 20
    -12.96
 30
    0.00
 11
    -17.32
 21
    -12.87
 31
    0.00
  0
LINE
  8
CHEMINEMENTS
 10
    -16.96
 20
    -12.96
 30
    0.00
 11
    -20.29
 21
    -14.04
 31
    0.00
  0
CIRCLE
  8
POINTS
 10
    -20.29
 20
    -14.04
 30
    0.00
 40
    0.2
  0
LINE
  8
CONTOURS_LARGEURS
 10
    -17.26
 20
    -13.28
 30
    0.00
 11
    -20.16
 21
    -14.42
 31
    0.00
  0
LINE
  8
CONTOURS_LARGEURS
 10
    -16.96
 20
    -12.96
 30
    0.00
 11
    -20.29
 21
    -14.04
 31
    0.00
  0
LINE
  8
CONTOURS_LARGEURS
 10
    -20.16
 20
    -14.42
 30
    0.00
 11
    -20.29
 21
    -14.04
 31
    0.00
  0
TEXT
  8
STATIONS
 10
    -20.29
 20
    -14.04
 30
    0.00
 40
    0.4
  1
11.8
  0
TEXT
  8
PROFONDEURS
 10
    -20.29
 20
    -14.04
 30
    0.00
 40
    0.6
  1
-129
  0
LINE
  8
CHEMINEMENTS
 10
    -16.72
 20
    -28.42
 30
    0.00
 11
    -16.72
 21
    -28.42
 31
    0.00
  0
CIRCLE
  8
POINTS
 10
    -16.72
 20
    -28.42
 30
    0.00
 40
    0.2
  0
LINE
  8
CONTOURS_LARGEURS
 10
    -16.72
 20
    -28.42
 30
    0.00
 11
    -16.72
 21
    -28.42
 31
    0.00
  0
LINE
  8
CONTOURS_LARGEURS
 10
    -16.72
 20
    -28.42
 30
    0.00
 11
    -16.72
 21
    -28.42
 31
    0.00
  0
LINE
  8
CONTOURS_LARGEURS
 10
    -16.72
 20
    -28.42
 30
    0.00
 11
    -16.72
 21
    -28.42
 31
    0.00
  0
TEXT
  8
STATIONS
 10
    -16.72
 20
    -28.42
 30
    0.00
 40
    0.4
  1
A11.0
  0
TEXT
  8
PROFONDEURS
 10
    -16.72
 20
    -28.42
 30
    0.00
 40
    0.6
  1
-168
  0
LINE
  8
CHEMINEMENTS
 10
    -14.37
 20
    -29.53
 30
    0.00
 11
    -16.72
 21
    -28.42
 31
    0.00
  0
CIRCLE
  8
POINTS
 10
    -16.72
 20
    -28.42
 30
    0.00
 40
    0.2
  0
LINE
  8
CONTOURS_LARGEURS
 10
    -14.69
 20
    -29.76
 30
    0.00
 11
    -16.72
 21
    -28.42
 31
    0.00
  0
LINE
  8
CONTOURS_LARGEURS
 10
    -14.37
 20
    -29.53
 30
    0.00
 11
    -16.72
 21
    -28.42
 31
    0.00
  0
TEXT
  8
STATIONS
 10
    -16.72
 20
    -28.42
 30
    0.00
 40
    0.4
  1
A11.0
  0
LINE
  8
CHEMINEMENTS
 10
    -14.17
 20
    -31.41
 30
    0.00
 11
    -14.37
 21
    -29.53
 31
    0.00
  0
CIRCLE
  8
POINTS
 10
    -14.37
 20
    -29.53
 30
    0.00
 40
    0.2
  0
LINE
  8
CONTOURS_LARGEURS
 10
    -14.17
 20
    -31.41
 30
    0.00
 11
    -14.69
 21
    -29.76
 31
    0.00
  0
LINE
  8
CONTOURS_LARGEURS
 10
    -13.22
 20
    -31.73
 30
    0.00
 11
    -14.37
 21
    -29.53
 31
    0.00
  0
TEXT
  8
STATIONS
 10
    -14.37
 20
    -29.53
 30
    0.00
 40
    0.4
  1
A11.1
  0
LINE
  8
CHEMINEMENTS
 10
    -16.50
 20
    -33.85
 30
    0.00
 11
    -14.17
 21
    -31.41
 31
    0.00
  0
CIRCLE
  8
POINTS
 10
    -14.17
 20
    -31.41
 30
    0.00
 40
    0.2
  0
LINE
  8
CONTOURS_LARGEURS
 10
    -16.89
 20
    -33.76
 30
    0.00
 11
    -14.17
 21
    -31.41
 31
    0.00
  0
LINE
  8
CONTOURS_LARGEURS
 10
    -16.50
 20
    -33.85
 30
    0.00
 11
    -13.22
 21
    -31.73
 31
    0.00
  0
TEXT
  8
STATIONS
 10
    -14.17
 20
    -31.41
 30
    0.00
 40
    0.4
  1
A11.2
  0
LINE
  8
CHEMINEMENTS
 10
    -16.17
 20
    -34.93
 30
    0.00
 11
    -16.50
 21
    -33.85
 31
    0.00
  0
CIRCLE
  8
POINTS
 10
    -16.50
 20
    -33.85
 30
    0.00
 40
    0.2
  0
LINE
  8
CONTOURS_LARGEURS
 10
    -16.17
 20
    -34.93
 30
    0.00
 11
    -16.89
 21
    -33.76
 31
    0.00
  0
LINE
  8
CONTOURS_LARGEURS
 10
    -15.91
 20
    -35.24
 30
    0.00
 11
    -16.50
 21
    -33.85
 31
    0.00
  0
TEXT
  8
STATIONS
 10
    -16.50
 20
    -33.85
 30
    0.00
 40
    0.4
  1
A11.3
  0
LINE
  8
CHEMINEMENTS
 10
    -16.77
 20
    -34.62
 30
    0.00
 11
    -16.17
 21
    -34.93
 31
    0.00
  0
CIRCLE
  8
POINTS
 10
    -16.17
 20
    -34.93
 30
    0.00
 40
    0.2
  0
LINE
  8
CONTOURS_LARGEURS
 10
    -16.94
 20
    -34.41
 30
    0.00
 11
    -16.17
 21
    -34.93
 31
    0.00
  0
LINE
  8
CONTOURS_LARGEURS
 10
    -16.61
 20
    -34.82
 30
    0.00
 11
    -15.91
 21
    -35.24
 31
    0.00
  0
TEXT
  8
STATIONS
 10
    -16.17
 20
    -34.93
 30
    0.00
 40
    0.4
  1
A11.4
  0
LINE
  8
CHEMINEMENTS
 10
    -16.17
 20
    -34.93
 30
    0.00
 11
    -20.58
 21
    -37.76
 31
    0.00
  0
CIRCLE
  8
POINTS
 10
    -20.58
 20
    -37.76
 30
    0.00
 40
    0.2
  0
LINE
  8
CONTOURS_LARGEURS
 10
    -15.91
 20
    -35.24
 30
    0.00
 11
    -20.12
 21
    -38.15
 31
    0.00
  0
LINE
  8
CONTOURS_LARGEURS
 10
    -16.17
 20
    -34.93
 30
    0.00
 11
    -20.73
 21
    -37.63
 31
    0.00
  0
TEXT
  8
STATIONS
 10
    -20.58
 20
    -37.76
 30
    0.00
 40
    0.4
  1
A11.5
  0
LINE
  8
CHEMINEMENTS
 10
    -20.58
 20
    -37.76
 30
    0.00
 11
    -20.66
 21
    -37.95
 31
    0.00
  0
CIRCLE
  8
POINTS
 10
    -20.66
 20
    -37.95
 30
    0.00
 40
    0.2
  0
LINE
  8
CONTOURS_LARGEURS
 10
    -20.12
 20
    -38.15
 30
    0.00
 11
    -20.43
 21
    -38.14
 31
    0.00
  0
LINE
  8
CONTOURS_LARGEURS
 10
    -20.73
 20
    -37.63
 30
    0.00
 11
    -20.66
 21
    -37.95
 31
    0.00
  0
TEXT
  8
STATIONS
 10
    -20.66
 20
    -37.95
 30
    0.00
 40
    0.4
  1
A11.6
  0
LINE
  8
CHEMINEMENTS
 10
    -20.66
 20
    -37.95
 30
    0.00
 11
    -24.29
 21
    -40.55
 31
    0.00
  0
CIRCLE
  8
POINTS
 10
    -24.29
 20
    -40.55
 30
    0.00
 40
    0.2
  0
LINE
  8
CONTOURS_LARGEURS
 10
    -20.43
 20
    -38.14
 30
    0.00
 11
    -24.09
 21
    -40.77
 31
    0.00
  0
LINE
  8
CONTOURS_LARGEURS
 10
    -20.66
 20
    -37.95
 30
    0.00
 11
    -24.29
 21
    -40.55
 31
    0.00
  0
TEXT
  8
STATIONS
 10
    -24.29
 20
    -40.55
 30
    0.00
 40
    0.4
  1
A11.7
  0
LINE
  8
CHEMINEMENTS
 10
    -24.29
 20
    -40.55
 30
    0.00
 11
    -26.09
 21
    -42.46
 31
    0.00
  0
CIRCLE
  8
POINTS
 10
    -26.09
 20
    -42.46
 30
    0.00
 40
    0.2
  0
LINE
  8
CONTOURS_LARGEURS
 10
    -24.09
 20
    -40.77
 30
    0.00
 11
    -26.09
 21
    -42.46
 31
    0.00
  0
LINE
  8
CONTOURS_LARGEURS
 10
    -24.29
 20
    -40.55
 30
    0.00
 11
    -26.35
 21
    -42.15
 31
    0.00
  0
TEXT
  8
STATIONS
 10
    -26.09
 20
    -42.46
 30
    0.00
 40
    0.4
  1
A11.8
  0
LINE
  8
CHEMINEMENTS
 10
    -26.09
 20
    -42.46
 30
    0.00
 11
    -28.37
 21
    -43.95
 31
    0.00
  0
CIRCLE
  8
POINTS
 10
    -28.37
 20
    -43.95
 30
    0.00
 40
    0.2
  0
LINE
  8
CONTOURS_LARGEURS
 10
    -26.09
 20
    -42.46
 30
    0.00
 11
    -28.17
 21
    -44.29
 31
    0.00
  0
LINE
  8
CONTOURS_LARGEURS
 10
    -26.35
 20
    -42.15
 30
    0.00
 11
    -28.37
 21
    -43.95
 31
    0.00
  0
TEXT
  8
STATIONS
 10
    -28.37
 20
    -43.95
 30
    0.00
 40
    0.4
  1
A11.9
  0
LINE
  8
CHEMINEMENTS
 10
    -28.37
 20
    -43.95
 30
    0.00
 11
    -29.35
 21
    -44.46
 31
    0.00
  0
CIRCLE
  8
POINTS
 10
    -29.35
 20
    -44.46
 30
    0.00
 40
    0.2
  0
LINE
  8
CONTOURS_LARGEURS
 10
    -28.17
 20
    -44.29
 30
    0.00
 11
    -29.35
 21
    -44.46
 31
    0.00
  0
LINE
  8
CONTOURS_LARGEURS
 10
    -28.37
 20
    -43.95
 30
    0.00
 11
    -29.55
 21
    -44.23
 31
    0.00
  0
TEXT
  8
STATIONS
 10
    -29.35
 20
    -44.46
 30
    0.00
 40
    0.4
  1
A11.10
  0
LINE
  8
CHEMINEMENTS
 10
    -29.35
 20
    -44.46
 30
    0.00
 11
    -29.97
 21
    -45.39
 31
    0.00
  0
CIRCLE
  8
POINTS
 10
    -29.97
 20
    -45.39
 30
    0.00
 40
    0.2
  0
LINE
  8
CONTOURS_LARGEURS
 10
    -29.35
 20
    -44.46
 30
    0.00
 11
    -29.27
 21
    -46.10
 31
    0.00
  0
LINE
  8
CONTOURS_LARGEURS
 10
    -29.55
 20
    -44.23
 30
    0.00
 11
    -29.97
 21
    -45.39
 31
    0.00
  0
TEXT
  8
STATIONS
 10
    -29.97
 20
    -45.39
 30
    0.00
 40
    0.4
  1
A11.11
  0
LINE
  8
CHEMINEMENTS
 10
    -29.97
 20
    -45.39
 30
    0.00
 11
    -33.15
 21
    -47.49
 31
    0.00
  0
CIRCLE
  8
POINTS
 10
    -33.15
 20
    -47.49
 30
    0.00
 40
    0.2
  0
LINE
  8
CONTOURS_LARGEURS
 10
    -29.27
 20
    -46.10
 30
    0.00
 11
    -33.09
 21
    -47.57
 31
    0.00
  0
LINE
  8
CONTOURS_LARGEURS
 10
    -29.97
 20
    -45.39
 30
    0.00
 11
    -33.27
 21
    -47.33
 31
    0.00
  0
TEXT
  8
STATIONS
 10
    -33.15
 20
    -47.49
 30
    0.00
 40
    0.4
  1
A11.12
  0
LINE
  8
CHEMINEMENTS
 10
    -33.15
 20
    -47.49
 30
    0.00
 11
    -35.86
 21
    -49.65
 31
    0.00
  0
CIRCLE
  8
POINTS
 10
    -35.86
 20
    -49.65
 30
    0.00
 40
    0.2
  0
LINE
  8
CONTOURS_LARGEURS
 10
    -33.09
 20
    -47.57
 30
    0.00
 11
    -35.49
 21
    -49.98
 31
    0.00
  0
LINE
  8
CONTOURS_LARGEURS
 10
    -33.27
 20
    -47.33
 30
    0.00
 11
    -36.24
 21
    -49.32
 31
    0.00
  0
TEXT
  8
STATIONS
 10
    -35.86
 20
    -49.65
 30
    0.00
 40
    0.4
  1
A11.13
  0
LINE
  8
CHEMINEMENTS
 10
    -35.86
 20
    -49.65
 30
    0.00
 11
    -36.94
 21
    -51.45
 31
    0.00
  0
CIRCLE
  8
POINTS
 10
    -36.94
 20
    -51.45
 30
    0.00
 40
    0.2
  0
LINE
  8
CONTOURS_LARGEURS
 10
    -35.49
 20
    -49.98
 30
    0.00
 11
    -36.94
 21
    -51.45
 31
    0.00
  0
LINE
  8
CONTOURS_LARGEURS
 10
    -36.24
 20
    -49.32
 30
    0.00
 11
    -37.29
 21
    -51.26
 31
    0.00
  0
TEXT
  8
STATIONS
 10
    -36.94
 20
    -51.45
 30
    0.00
 40
    0.4
  1
A11.14
  0
LINE
  8
CHEMINEMENTS
 10
    -36.94
 20
    -51.45
 30
    0.00
 11
    -38.71
 21
    -54.71
 31
    0.00
  0
CIRCLE
  8
POINTS
 10
    -38.71
 20
    -54.71
 30
    0.00
 40
    0.2
  0
LINE
  8
CONTOURS_LARGEURS
 10
    -36.94
 20
    -51.45
 30
    0.00
 11
    -38.71
 21
    -54.71
 31
    0.00
  0
LINE
  8
CONTOURS_LARGEURS
 10
    -37.29
 20
    -51.26
 30
    0.00
 11
    -39.54
 21
    -54.36
 31
    0.00
  0
TEXT
  8
STATIONS
 10
    -38.71
 20
    -54.71
 30
    0.00
 40
    0.4
  1
A11.15
  0
LINE
  8
CHEMINEMENTS
 10
    -38.71
 20
    -54.71
 30
    0.00
 11
    -39.09
 21
    -56.00
 31
    0.00
  0
CIRCLE
  8
POINTS
 10
    -39.09
 20
    -56.00
 30
    0.00
 40
    0.2
  0
LINE
  8
CONTOURS_LARGEURS
 10
    -38.71
 20
    -54.71
 30
    0.00
 11
    -39.09
 21
    -56.00
 31
    0.00
  0
LINE
  8
CONTOURS_LARGEURS
 10
    -39.54
 20
    -54.36
 30
    0.00
 11
    -39.22
 21
    -55.84
 31
    0.00
  0
TEXT
  8
STATIONS
 10
    -39.09
 20
    -56.00
 30
    0.00
 40
    0.4
  1
A11.16
  0
LINE
  8
CHEMINEMENTS
 10
    -39.09
 20
    -56.00
 30
    0.00
 11
    -40.92
 21
    -56.14
 31
    0.00
  0
CIRCLE
  8
POINTS
 10
    -40.92
 20
    -56.14
 30
    0.00
 40
    0.2
  0
LINE
  8
CONTOURS_LARGEURS
 10
    -39.09
 20
    -56.00
 30
    0.00
 11
    -40.95
 21
    -56.34
 31
    0.00
  0
LINE
  8
CONTOURS_LARGEURS
 10
    -39.22
 20
    -55.84
 30
    0.00
 11
    -40.89
 21
    -55.94
 31
    0.00
  0
TEXT
  8
STATIONS
 10
    -40.92
 20
    -56.14
 30
    0.00
 40
    0.4
  1
A11.17
  0
LINE
  8
CHEMINEMENTS
 10
    -40.92
 20
    -56.14
 30
    0.00
 11
    -43.28
 21
    -55.28
 31
    0.00
  0
CIRCLE
  8
POINTS
 10
    -43.28
 20
    -55.28
 30
    0.00
 40
    0.2
  0
LINE
  8
CONTOURS_LARGEURS
 10
    -40.95
 20
    -56.34
 30
    0.00
 11
    -43.29
 21
    -55.48
 31
    0.00
  0
LINE
  8
CONTOURS_LARGEURS
 10
    -40.89
 20
    -55.94
 30
    0.00
 11
    -43.25
 21
    -54.88
 31
    0.00
  0
TEXT
  8
STATIONS
 10
    -43.28
 20
    -55.28
 30
    0.00
 40
    0.4
  1
A11.18
  0
LINE
  8
CHEMINEMENTS
 10
    -43.28
 20
    -55.28
 30
    0.00
 11
    -43.58
 21
    -55.34
 31
    0.00
  0
CIRCLE
  8
POINTS
 10
    -43.58
 20
    -55.34
 30
    0.00
 40
    0.2
  0
LINE
  8
CONTOURS_LARGEURS
 10
    -43.29
 20
    -55.48
 30
    0.00
 11
    -43.42
 21
    -55.71
 31
    0.00
  0
LINE
  8
CONTOURS_LARGEURS
 10
    -43.25
 20
    -54.88
 30
    0.00
 11
    -43.81
 21
    -54.79
 31
    0.00
  0
TEXT
  8
STATIONS
 10
    -43.58
 20
    -55.34
 30
    0.00
 40
    0.4
  1
A11.19
  0
LINE
  8
CHEMINEMENTS
 10
    -43.58
 20
    -55.34
 30
    0.00
 11
    -46.47
 21
    -57.27
 31
    0.00
  0
CIRCLE
  8
POINTS
 10
    -46.47
 20
    -57.27
 30
    0.00
 40
    0.2
  0
LINE
  8
CONTOURS_LARGEURS
 10
    -43.42
 20
    -55.71
 30
    0.00
 11
    -46.36
 21
    -57.43
 31
    0.00
  0
LINE
  8
CONTOURS_LARGEURS
 10
    -43.81
 20
    -54.79
 30
    0.00
 11
    -46.47
 21
    -57.27
 31
    0.00
  0
TEXT
  8
STATIONS
 10
    -46.47
 20
    -57.27
 30
    0.00
 40
    0.4
  1
A11.20
  0
LINE
  8
CHEMINEMENTS
 10
    -46.47
 20
    -57.27
 30
    0.00
 11
    -49.46
 21
    -59.18
 31
    0.00
  0
CIRCLE
  8
POINTS
 10
    -49.46
 20
    -59.18
 30
    0.00
 40
    0.2
  0
LINE
  8
CONTOURS_LARGEURS
 10
    -46.36
 20
    -57.43
 30
    0.00
 11
    -49.32
 21
    -59.33
 31
    0.00
  0
LINE
  8
CONTOURS_LARGEURS
 10
    -46.47
 20
    -57.27
 30
    0.00
 11
    -49.46
 21
    -59.18
 31
    0.00
  0
TEXT
  8
STATIONS
 10
    -49.46
 20
    -59.18
 30
    0.00
 40
    0.4
  1
A11.21
  0
LINE
  8
CHEMINEMENTS
 10
    -49.46
 20
    -59.18
 30
    0.00
 11
    -51.56
 21
    -61.77
 31
    0.00
  0
CIRCLE
  8
POINTS
 10
    -51.56
 20
    -61.77
 30
    0.00
 40
    0.2
  0
LINE
  8
CONTOURS_LARGEURS
 10
    -49.32
 20
    -59.33
 30
    0.00
 11
    -51.56
 21
    -61.77
 31
    0.00
  0
LINE
  8
CONTOURS_LARGEURS
 10
    -49.46
 20
    -59.18
 30
    0.00
 11
    -51.70
 21
    -61.63
 31
    0.00
  0
TEXT
  8
STATIONS
 10
    -51.56
 20
    -61.77
 30
    0.00
 40
    0.4
  1
A11.22
  0
LINE
  8
CHEMINEMENTS
 10
    -51.56
 20
    -61.77
 30
    0.00
 11
    -52.61
 21
    -62.64
 31
    0.00
  0
CIRCLE
  8
POINTS
 10
    -52.61
 20
    -62.64
 30
    0.00
 40
    0.2
  0
LINE
  8
CONTOURS_LARGEURS
 10
    -51.56
 20
    -61.77
 30
    0.00
 11
    -52.60
 21
    -62.74
 31
    0.00
  0
LINE
  8
CONTOURS_LARGEURS
 10
    -51.70
 20
    -61.63
 30
    0.00
 11
    -52.63
 21
    -62.24
 31
    0.00
  0
TEXT
  8
STATIONS
 10
    -52.61
 20
    -62.64
 30
    0.00
 40
    0.4
  1
A11.23
  0
LINE
  8
CHEMINEMENTS
 10
    -52.61
 20
    -62.64
 30
    0.00
 11
    -53.20
 21
    -62.26
 31
    0.00
  0
CIRCLE
  8
POINTS
 10
    -53.20
 20
    -62.26
 30
    0.00
 40
    0.2
  0
LINE
  8
CONTOURS_LARGEURS
 10
    -52.60
 20
    -62.74
 30
    0.00
 11
    -53.17
 21
    -62.50
 31
    0.00
  0
LINE
  8
CONTOURS_LARGEURS
 10
    -52.63
 20
    -62.24
 30
    0.00
 11
    -53.22
 21
    -62.01
 31
    0.00
  0
TEXT
  8
STATIONS
 10
    -53.20
 20
    -62.26
 30
    0.00
 40
    0.4
  1
A11.24
  0
LINE
  8
CHEMINEMENTS
 10
    -53.20
 20
    -62.26
 30
    0.00
 11
    -54.00
 21
    -63.02
 31
    0.00
  0
CIRCLE
  8
POINTS
 10
    -54.00
 20
    -63.02
 30
    0.00
 40
    0.2
  0
LINE
  8
CONTOURS_LARGEURS
 10
    -53.17
 20
    -62.50
 30
    0.00
 11
    -53.63
 21
    -63.49
 31
    0.00
  0
LINE
  8
CONTOURS_LARGEURS
 10
    -53.22
 20
    -62.01
 30
    0.00
 11
    -54.25
 21
    -62.70
 31
    0.00
  0
TEXT
  8
STATIONS
 10
    -54.00
 20
    -63.02
 30
    0.00
 40
    0.4
  1
A11.25
  0
LINE
  8
CHEMINEMENTS
 10
    -54.00
 20
    -63.02
 30
    0.00
 11
    -54.81
 21
    -63.54
 31
    0.00
  0
CIRCLE
  8
POINTS
 10
    -54.81
 20
    -63.54
 30
    0.00
 40
    0.2
  0
LINE
  8
CONTOURS_LARGEURS
 10
    -53.63
 20
    -63.49
 30
    0.00
 11
    -54.77
 21
    -63.93
 31
    0.00
  0
LINE
  8
CONTOURS_LARGEURS
 10
    -54.25
 20
    -62.70
 30
    0.00
 11
    -54.81
 21
    -63.54
 31
    0.00
  0
TEXT
  8
STATIONS
 10
    -54.81
 20
    -63.54
 30
    0.00
 40
    0.4
  1
A11.26
  0
LINE
  8
CHEMINEMENTS
 10
    -54.81
 20
    -63.54
 30
    0.00
 11
    -56.30
 21
    -62.99
 31
    0.00
  0
CIRCLE
  8
POINTS
 10
    -56.30
 20
    -62.99
 30
    0.00
 40
    0.2
  0
LINE
  8
CONTOURS_LARGEURS
 10
    -54.77
 20
    -63.93
 30
    0.00
 11
    -56.49
 21
    -63.07
 31
    0.00
  0
LINE
  8
CONTOURS_LARGEURS
 10
    -54.81
 20
    -63.54
 30
    0.00
 11
    -56.12
 21
    -62.92
 31
    0.00
  0
TEXT
  8
STATIONS
 10
    -56.30
 20
    -62.99
 30
    0.00
 40
    0.4
  1
A11.27
  0
LINE
  8
CHEMINEMENTS
 10
    -56.30
 20
    -62.99
 30
    0.00
 11
    -55.70
 21
    -61.62
 31
    0.00
  0
CIRCLE
  8
POINTS
 10
    -55.70
 20
    -61.62
 30
    0.00
 40
    0.2
  0
LINE
  8
CONTOURS_LARGEURS
 10
    -56.49
 20
    -63.07
 30
    0.00
 11
    -55.74
 21
    -59.62
 31
    0.00
  0
LINE
  8
CONTOURS_LARGEURS
 10
    -56.12
 20
    -62.92
 30
    0.00
 11
    -55.66
 21
    -63.62
 31
    0.00
  0
TEXT
  8
STATIONS
 10
    -55.70
 20
    -61.62
 30
    0.00
 40
    0.4
  1
A11.28
  0
LINE
  8
CHEMINEMENTS
 10
    -33.15
 20
    -47.49
 30
    0.00
 11
    -33.15
 21
    -47.49
 31
    0.00
  0
CIRCLE
  8
POINTS
 10
    -33.15
 20
    -47.49
 30
    0.00
 40
    0.2
  0
LINE
  8
CONTOURS_LARGEURS
 10
    -33.09
 20
    -47.57
 30
    0.00
 11
    -33.01
 21
    -46.50
 31
    0.00
  0
LINE
  8
CONTOURS_LARGEURS
 10
    -33.27
 20
    -47.33
 30
    0.00
 11
    -33.18
 21
    -47.69
 31
    0.00
  0
TEXT
  8
STATIONS
 10
    -33.15
 20
    -47.49
 30
    0.00
 40
    0.4
  1
A12.0
  0
LINE
  8
CHEMINEMENTS
 10
    -33.15
 20
    -47.49
 30
    0.00
 11
    -32.85
 21
    -47.53
 31
    0.00
  0
CIRCLE
  8
POINTS
 10
    -32.85
 20
    -47.53
 30
    0.00
 40
    0.2
  0
LINE
  8
CONTOURS_LARGEURS
 10
    -33.01
 20
    -46.50
 30
    0.00
 11
    -31.95
 21
    -47.09
 31
    0.00
  0
LINE
  8
CONTOURS_LARGEURS
 10
    -33.18
 20
    -47.69
 30
    0.00
 11
    -32.85
 21
    -47.53
 31
    0.00
  0
TEXT
  8
STATIONS
 10
    -32.85
 20
    -47.53
 30
    0.00
 40
    0.4
  1
A12.1
  0
LINE
  8
CHEMINEMENTS
 10
    -32.85
 20
    -47.53
 30
    0.00
 11
    -34.34
 21
    -50.14
 31
    0.00
  0
CIRCLE
  8
POINTS
 10
    -34.34
 20
    -50.14
 30
    0.00
 40
    0.2
  0
LINE
  8
CONTOURS_LARGEURS
 10
    -31.95
 20
    -47.09
 30
    0.00
 11
    -34.08
 21
    -50.29
 31
    0.00
  0
LINE
  8
CONTOURS_LARGEURS
 10
    -32.85
 20
    -47.53
 30
    0.00
 11
    -34.60
 21
    -49.99
 31
    0.00
  0
TEXT
  8
STATIONS
 10
    -34.34
 20
    -50.14
 30
    0.00
 40
    0.4
  1
A12.2
  0
LINE
  8
CHEMINEMENTS
 10
    -34.34
 20
    -50.14
 30
    0.00
 11
    -34.34
 21
    -50.14
 31
    0.00
  0
CIRCLE
  8
POINTS
 10
    -34.34
 20
    -50.14
 30
    0.00
 40
    0.2
  0
LINE
  8
CONTOURS_LARGEURS
 10
    -34.08
 20
    -50.29
 30
    0.00
 11
    -34.34
 21
    -50.14
 31
    0.00
  0
LINE
  8
CONTOURS_LARGEURS
 10
    -34.60
 20
    -49.99
 30
    0.00
 11
    -34.34
 21
    -50.14
 31
    0.00
  0
LINE
  8
CONTOURS_LARGEURS
 10
    -34.34
 20
    -50.14
 30
    0.00
 11
    -34.34
 21
    -50.14
 31
    0.00
  0
TEXT
  8
STATIONS
 10
    -34.34
 20
    -50.14
 30
    0.00
 40
    0.4
  1
A12.2B
  0
TEXT
  8
PROFONDEURS
 10
    -34.34
 20
    -50.14
 30
    0.00
 40
    0.6
  1
-192
  0
LINE
  8
CHEMINEMENTS
 10
    -39.09
 20
    -56.00
 30
    0.00
 11
    -39.09
 21
    -56.00
 31
    0.00
  0
CIRCLE
  8
POINTS
 10
    -39.09
 20
    -56.00
 30
    0.00
 40
    0.2
  0
LINE
  8
CONTOURS_LARGEURS
 10
    -39.09
 20
    -56.00
 30
    0.00
 11
    -39.09
 21
    -56.00
 31
    0.00
  0
LINE
  8
CONTOURS_LARGEURS
 10
    -39.22
 20
    -55.84
 30
    0.00
 11
    -39.05
 21
    -56.09
 31
    0.00
  0
TEXT
  8
STATIONS
 10
    -39.09
 20
    -56.00
 30
    0.00
 40
    0.4
  1
A13.0
  0
LINE
  8
CHEMINEMENTS
 10
    -39.09
 20
    -56.00
 30
    0.00
 11
    -33.83
 21
    -53.92
 31
    0.00
  0
CIRCLE
  8
POINTS
 10
    -33.83
 20
    -53.92
 30
    0.00
 40
    0.2
  0
LINE
  8
CONTOURS_LARGEURS
 10
    -39.09
 20
    -56.00
 30
    0.00
 11
    -33.83
 21
    -53.92
 31
    0.00
  0
LINE
  8
CONTOURS_LARGEURS
 10
    -39.05
 20
    -56.09
 30
    0.00
 11
    -33.79
 21
    -54.01
 31
    0.00
  0
TEXT
  8
STATIONS
 10
    -33.83
 20
    -53.92
 30
    0.00
 40
    0.4
  1
A13.1
  0
LINE
  8
CHEMINEMENTS
 10
    -33.83
 20
    -53.92
 30
    0.00
 11
    -33.83
 21
    -53.92
 31
    0.00
  0
CIRCLE
  8
POINTS
 10
    -33.83
 20
    -53.92
 30
    0.00
 40
    0.2
  0
LINE
  8
CONTOURS_LARGEURS
 10
    -33.83
 20
    -53.92
 30
    0.00
 11
    -33.83
 21
    -53.92
 31
    0.00
  0
LINE
  8
CONTOURS_LARGEURS
 10
    -33.79
 20
    -54.01
 30
    0.00
 11
    -33.83
 21
    -53.92
 31
    0.00
  0
LINE
  8
CONTOURS_LARGEURS
 10
    -33.83
 20
    -53.92
 30
    0.00
 11
    -33.83
 21
    -53.92
 31
    0.00
  0
TEXT
  8
STATIONS
 10
    -33.83
 20
    -53.92
 30
    0.00
 40
    0.4
  1
A13.1B
  0
TEXT
  8
PROFONDEURS
 10
    -33.83
 20
    -53.92
 30
    0.00
 40
    0.6
  1
-193
  0
LINE
  8
CHEMINEMENTS
 10
    -43.58
 20
    -55.34
 30
    0.00
 11
    -43.58
 21
    -55.34
 31
    0.00
  0
CIRCLE
  8
POINTS
 10
    -43.58
 20
    -55.34
 30
    0.00
 40
    0.2
  0
LINE
  8
CONTOURS_LARGEURS
 10
    -43.42
 20
    -55.71
 30
    0.00
 11
    -43.63
 21
    -55.26
 31
    0.00
  0
LINE
  8
CONTOURS_LARGEURS
 10
    -43.81
 20
    -54.79
 30
    0.00
 11
    -43.53
 21
    -55.43
 31
    0.00
  0
TEXT
  8
STATIONS
 10
    -43.58
 20
    -55.34
 30
    0.00
 40
    0.4
  1
A14.0
  0
LINE
  8
CHEMINEMENTS
 10
    -43.58
 20
    -55.34
 30
    0.00
 11
    -38.58
 21
    -52.60
 31
    0.00
  0
CIRCLE
  8
POINTS
 10
    -38.58
 20
    -52.60
 30
    0.00
 40
    0.2
  0
LINE
  8
CONTOURS_LARGEURS
 10
    -43.63
 20
    -55.26
 30
    0.00
 11
    -38.63
 21
    -52.51
 31
    0.00
  0
LINE
  8
CONTOURS_LARGEURS
 10
    -43.53
 20
    -55.43
 30
    0.00
 11
    -38.53
 21
    -52.69
 31
    0.00
  0
TEXT
  8
STATIONS
 10
    -38.58
 20
    -52.60
 30
    0.00
 40
    0.4
  1
A14.1
  0
LINE
  8
CHEMINEMENTS
 10
    -38.58
 20
    -52.60
 30
    0.00
 11
    -38.58
 21
    -52.60
 31
    0.00
  0
CIRCLE
  8
POINTS
 10
    -38.58
 20
    -52.60
 30
    0.00
 40
    0.2
  0
LINE
  8
CONTOURS_LARGEURS
 10
    -38.63
 20
    -52.51
 30
    0.00
 11
    -38.58
 21
    -52.60
 31
    0.00
  0
LINE
  8
CONTOURS_LARGEURS
 10
    -38.53
 20
    -52.69
 30
    0.00
 11
    -38.58
 21
    -52.60
 31
    0.00
  0
LINE
  8
CONTOURS_LARGEURS
 10
    -38.58
 20
    -52.60
 30
    0.00
 11
    -38.58
 21
    -52.60
 31
    0.00
  0
TEXT
  8
STATIONS
 10
    -38.58
 20
    -52.60
 30
    0.00
 40
    0.4
  1
A14.1B
  0
TEXT
  8
PROFONDEURS
 10
    -38.58
 20
    -52.60
 30
    0.00
 40
    0.6
  1
-199
  0
LINE
  8
CHEMINEMENTS
 10
    -55.82
 20
    -65.83
 30
    0.00
 11
    -55.82
 21
    -65.83
 31
    0.00
  0
CIRCLE
  8
POINTS
 10
    -55.82
 20
    -65.83
 30
    0.00
 40
    0.2
  0
LINE
  8
CONTOURS_LARGEURS
 10
    -55.64
 20
    -66.90
 30
    0.00
 11
    -55.82
 21
    -65.83
 31
    0.00
  0
LINE
  8
CONTOURS_LARGEURS
 10
    -55.89
 20
    -65.40
 30
    0.00
 11
    -55.82
 21
    -65.83
 31
    0.00
  0
LINE
  8
CONTOURS_LARGEURS
 10
    -55.82
 20
    -65.83
 30
    0.00
 11
    -55.82
 21
    -65.83
 31
    0.00
  0
TEXT
  8
STATIONS
 10
    -55.82
 20
    -65.83
 30
    0.00
 40
    0.4
  1
2023.0
  0
TEXT
  8
PROFONDEURS
 10
    -55.82
 20
    -65.83
 30
    0.00
 40
    0.6
  1
-237
  0
LINE
  8
RADIALES
 10
    -55.82
 20
    -65.83
 30
    0.00
 11
    -54.98
 21
    -66.80
 31
    0.00
  0
LINE
  8
RADIALES
 10
    -55.82
 20
    -65.83
 30
    0.00
 11
    -56.02
 21
    -65.43
 31
    0.00
  0
LINE
  8
RADIALES
 10
    -55.82
 20
    -65.83
 30
    0.00
 11
    -55.74
 21
    -66.03
 31
    0.00
  0
LINE
  8
RADIALES
 10
    -55.82
 20
    -65.83
 30
    0.00
 11
    -55.84
 21
    -65.86
 31
    0.00
  0
LINE
  8
CHEMINEMENTS
 10
    -52.66
 20
    -65.31
 30
    0.00
 11
    -55.82
 21
    -65.83
 31
    0.00
  0
CIRCLE
  8
POINTS
 10
    -55.82
 20
    -65.83
 30
    0.00
 40
    0.2
  0
LINE
  8
CONTOURS_LARGEURS
 10
    -52.00
 20
    -65.94
 30
    0.00
 11
    -55.64
 21
    -66.90
 31
    0.00
  0
LINE
  8
CONTOURS_LARGEURS
 10
    -53.72
 20
    -64.27
 30
    0.00
 11
    -55.89
 21
    -65.40
 31
    0.00
  0
TEXT
  8
STATIONS
 10
    -55.82
 20
    -65.83
 30
    0.00
 40
    0.4
  1
2023
  0
LINE
  8
RADIALES
 10
    -52.66
 20
    -65.31
 30
    0.00
 11
    -53.79
 21
    -63.99
 31
    0.00
  0
LINE
  8
RADIALES
 10
    -52.66
 20
    -65.31
 30
    0.00
 11
    -52.77
 21
    -66.24
 31
    0.00
  0
LINE
  8
RADIALES
 10
    -52.66
 20
    -65.31
 30
    0.00
 11
    -53.87
 21
    -64.34
 31
    0.00
  0
LINE
  8
RADIALES
 10
    -52.66
 20
    -65.31
 30
    0.00
 11
    -52.62
 21
    -65.28
 31
    0.00
  0
LINE
  8
CHEMINEMENTS
 10
    -52.46
 20
    -63.86
 30
    0.00
 11
    -52.66
 21
    -65.31
 31
    0.00
  0
CIRCLE
  8
POINTS
 10
    -52.66
 20
    -65.31
 30
    0.00
 40
    0.2
  0
LINE
  8
CONTOURS_LARGEURS
 10
    -52.12
 20
    -64.05
 30
    0.00
 11
    -52.00
 21
    -65.94
 31
    0.00
  0
LINE
  8
CONTOURS_LARGEURS
 10
    -52.77
 20
    -63.68
 30
    0.00
 11
    -53.72
 21
    -64.27
 31
    0.00
  0
TEXT
  8
STATIONS
 10
    -52.66
 20
    -65.31
 30
    0.00
 40
    0.4
  1
2023.1
  0
LINE
  8
RADIALES
 10
    -52.46
 20
    -63.86
 30
    0.00
 11
    -52.06
 21
    -63.81
 31
    0.00
  0
LINE
  8
RADIALES
 10
    -52.46
 20
    -63.86
 30
    0.00
 11
    -52.83
 21
    -63.83
 31
    0.00
  0
LINE
  8
RADIALES
 10
    -52.46
 20
    -63.86
 30
    0.00
 11
    -52.71
 21
    -63.80
 31
    0.00
  0
LINE
  8
RADIALES
 10
    -52.46
 20
    -63.86
 30
    0.00
 11
    -52.36
 21
    -64.23
 31
    0.00
  0
LINE
  8
CHEMINEMENTS
 10
    -50.34
 20
    -62.22
 30
    0.00
 11
    -52.46
 21
    -63.86
 31
    0.00
  0
CIRCLE
  8
POINTS
 10
    -52.46
 20
    -63.86
 30
    0.00
 40
    0.2
  0
LINE
  8
CONTOURS_LARGEURS
 10
    -49.58
 20
    -62.01
 30
    0.00
 11
    -52.12
 21
    -64.05
 31
    0.00
  0
LINE
  8
CONTOURS_LARGEURS
 10
    -51.78
 20
    -62.62
 30
    0.00
 11
    -52.77
 21
    -63.68
 31
    0.00
  0
TEXT
  8
STATIONS
 10
    -52.46
 20
    -63.86
 30
    0.00
 40
    0.4
  1
2023.2
  0
LINE
  8
RADIALES
 10
    -50.34
 20
    -62.22
 30
    0.00
 11
    -50.77
 21
    -61.40
 31
    0.00
  0
LINE
  8
RADIALES
 10
    -50.34
 20
    -62.22
 30
    0.00
 11
    -49.67
 21
    -62.69
 31
    0.00
  0
LINE
  8
RADIALES
 10
    -50.34
 20
    -62.22
 30
    0.00
 11
    -51.48
 21
    -61.21
 31
    0.00
  0
LINE
  8
RADIALES
 10
    -50.34
 20
    -62.22
 30
    0.00
 11
    -50.47
 21
    -62.04
 31
    0.00
  0
LINE
  8
CHEMINEMENTS
 10
    -51.76
 20
    -62.06
 30
    0.00
 11
    -50.34
 21
    -62.22
 31
    0.00
  0
CIRCLE
  8
POINTS
 10
    -50.34
 20
    -62.22
 30
    0.00
 40
    0.2
  0
LINE
  8
CONTOURS_LARGEURS
 10
    -51.76
 20
    -62.06
 30
    0.00
 11
    -49.58
 21
    -62.01
 31
    0.00
  0
LINE
  8
CONTOURS_LARGEURS
 10
    -51.76
 20
    -62.06
 30
    0.00
 11
    -51.78
 21
    -62.62
 31
    0.00
  0
TEXT
  8
STATIONS
 10
    -50.34
 20
    -62.22
 30
    0.00
 40
    0.4
  1
2023.3
  0
LINE
  8
RADIALES
 10
    -54.98
 20
    -65.65
 30
    0.00
 11
    -55.80
 21
    -66.19
 31
    0.00
  0
LINE
  8
RADIALES
 10
    -54.98
 20
    -65.65
 30
    0.00
 11
    -54.05
 21
    -66.04
 31
    0.00
  0
LINE
  8
RADIALES
 10
    -54.98
 20
    -65.65
 30
    0.00
 11
    -54.97
 21
    -65.61
 31
    0.00
  0
LINE
  8
RADIALES
 10
    -54.98
 20
    -65.65
 30
    0.00
 11
    -55.74
 21
    -63.80
 31
    0.00
  0
LINE
  8
RADIALES
 10
    -54.98
 20
    -65.65
 30
    0.00
 11
    -54.57
 21
    -66.70
 31
    0.00
  0
LINE
  8
CHEMINEMENTS
 10
    -51.76
 20
    -62.06
 30
    0.00
 11
    -50.92
 21
    -59.81
 31
    0.00
  0
CIRCLE
  8
POINTS
 10
    -50.92
 20
    -59.81
 30
    0.00
 40
    0.2
  0
LINE
  8
CONTOURS_LARGEURS
 10
    -51.76
 20
    -62.06
 30
    0.00
 11
    -51.26
 21
    -59.55
 31
    0.00
  0
LINE
  8
CONTOURS_LARGEURS
 10
    -51.76
 20
    -62.06
 30
    0.00
 11
    -50.78
 21
    -59.92
 31
    0.00
  0
TEXT
  8
STATIONS
 10
    -50.92
 20
    -59.81
 30
    0.00
 40
    0.4
  1
2023.A
  0
LINE
  8
RADIALES
 10
    -50.92
 20
    -59.81
 30
    0.00
 11
    -51.30
 21
    -59.59
 31
    0.00
  0
LINE
  8
RADIALES
 10
    -50.92
 20
    -59.81
 30
    0.00
 11
    -50.77
 21
    -59.92
 31
    0.00
  0
LINE
  8
RADIALES
 10
    -50.92
 20
    -59.81
 30
    0.00
 11
    -51.00
 21
    -59.55
 31
    0.00
  0
LINE
  8
RADIALES
 10
    -50.92
 20
    -59.81
 30
    0.00
 11
    -50.91
 21
    -59.91
 31
    0.00
  0
LINE
  8
CHEMINEMENTS
 10
    -50.92
 20
    -59.81
 30
    0.00
 11
    -48.03
 21
    -57.73
 31
    0.00
  0
CIRCLE
  8
POINTS
 10
    -48.03
 20
    -57.73
 30
    0.00
 40
    0.2
  0
LINE
  8
CONTOURS_LARGEURS
 10
    -51.26
 20
    -59.55
 30
    0.00
 11
    -48.85
 21
    -57.35
 31
    0.00
  0
LINE
  8
CONTOURS_LARGEURS
 10
    -50.78
 20
    -59.92
 30
    0.00
 11
    -47.59
 21
    -57.94
 31
    0.00
  0
TEXT
  8
STATIONS
 10
    -48.03
 20
    -57.73
 30
    0.00
 40
    0.4
  1
2023.B
  0
LINE
  8
RADIALES
 10
    -48.03
 20
    -57.73
 30
    0.00
 11
    -47.63
 21
    -58.04
 31
    0.00
  0
LINE
  8
RADIALES
 10
    -48.03
 20
    -57.73
 30
    0.00
 11
    -48.18
 21
    -57.55
 31
    0.00
  0
LINE
  8
RADIALES
 10
    -48.03
 20
    -57.73
 30
    0.00
 11
    -49.36
 21
    -57.58
 31
    0.00
  0
LINE
  8
RADIALES
 10
    -48.03
 20
    -57.73
 30
    0.00
 11
    -47.98
 21
    -57.79
 31
    0.00
  0
LINE
  8
CHEMINEMENTS
 10
    -48.03
 20
    -57.73
 30
    0.00
 11
    -48.23
 21
    -54.50
 31
    0.00
  0
CIRCLE
  8
POINTS
 10
    -48.23
 20
    -54.50
 30
    0.00
 40
    0.2
  0
LINE
  8
CONTOURS_LARGEURS
 10
    -48.85
 20
    -57.35
 30
    0.00
 11
    -48.49
 21
    -54.45
 31
    0.00
  0
LINE
  8
CONTOURS_LARGEURS
 10
    -47.59
 20
    -57.94
 30
    0.00
 11
    -46.80
 21
    -54.80
 31
    0.00
  0
TEXT
  8
STATIONS
 10
    -48.23
 20
    -54.50
 30
    0.00
 40
    0.4
  1
2023.C
  0
LINE
  8
RADIALES
 10
    -48.23
 20
    -54.50
 30
    0.00
 11
    -48.21
 21
    -53.81
 31
    0.00
  0
LINE
  8
RADIALES
 10
    -48.23
 20
    -54.50
 30
    0.00
 11
    -48.12
 21
    -54.65
 31
    0.00
  0
LINE
  8
RADIALES
 10
    -48.23
 20
    -54.50
 30
    0.00
 11
    -46.95
 21
    -51.65
 31
    0.00
  0
LINE
  8
RADIALES
 10
    -48.23
 20
    -54.50
 30
    0.00
 11
    -48.35
 21
    -56.68
 31
    0.00
  0
LINE
  8
CHEMINEMENTS
 10
    -48.23
 20
    -54.50
 30
    0.00
 11
    -48.21
 21
    -54.46
 31
    0.00
  0
CIRCLE
  8
POINTS
 10
    -48.21
 20
    -54.46
 30
    0.00
 40
    0.2
  0
LINE
  8
CONTOURS_LARGEURS
 10
    -48.49
 20
    -54.45
 30
    0.00
 11
    -48.21
 21
    -54.46
 31
    0.00
  0
LINE
  8
CONTOURS_LARGEURS
 10
    -46.80
 20
    -54.80
 30
    0.00
 11
    -48.21
 21
    -54.46
 31
    0.00
  0
TEXT
  8
STATIONS
 10
    -48.21
 20
    -54.46
 30
    0.00
 40
    0.4
  1
2023.D
  0
LINE
  8
RADIALES
 10
    -46.41
 20
    -51.02
 30
    0.00
 11
    -45.76
 21
    -51.75
 31
    0.00
  0
LINE
  8
RADIALES
 10
    -46.41
 20
    -51.02
 30
    0.00
 11
    -46.46
 21
    -50.84
 31
    0.00
  0
LINE
  8
RADIALES
 10
    -46.41
 20
    -51.02
 30
    0.00
 11
    -45.95
 21
    -51.59
 31
    0.00
  0
LINE
  8
RADIALES
 10
    -46.41
 20
    -51.02
 30
    0.00
 11
    -46.43
 21
    -51.70
 31
    0.00
  0
LINE
  8
RADIALES
 10
    -46.41
 20
    -51.02
 30
    0.00
 11
    -45.84
 21
    -52.69
 31
    0.00
  0
LINE
  8
RADIALES
 10
    -51.76
 20
    -62.06
 30
    0.00
 11
    -52.00
 21
    -61.55
 31
    0.00
  0
LINE
  8
RADIALES
 10
    -51.76
 20
    -62.06
 30
    0.00
 11
    -51.41
 21
    -62.94
 31
    0.00
  0
LINE
  8
RADIALES
 10
    -51.76
 20
    -62.06
 30
    0.00
 11
    -51.38
 21
    -62.32
 31
    0.00
  0
LINE
  8
RADIALES
 10
    -51.76
 20
    -62.06
 30
    0.00
 11
    -51.96
 21
    -60.00
 31
    0.00
  0
LINE
  8
CHEMINEMENTS
 10
    -54.98
 20
    -65.65
 30
    0.00
 11
    -51.76
 21
    -62.06
 31
    0.00
  0
CIRCLE
  8
POINTS
 10
    -51.76
 20
    -62.06
 30
    0.00
 40
    0.2
  0
LINE
  8
CONTOURS_LARGEURS
 10
    -54.72
 20
    -63.26
 30
    0.00
 11
    -51.76
 21
    -62.06
 31
    0.00
  0
LINE
  8
CONTOURS_LARGEURS
 10
    -55.09
 20
    -66.65
 30
    0.00
 11
    -51.76
 21
    -62.06
 31
    0.00
  0
TEXT
  8
STATIONS
 10
    -51.76
 20
    -62.06
 30
    0.00
 40
    0.4
  1
2023.4
  0
LINE
  8
RADIALES
 10
    -54.98
 20
    -65.65
 30
    0.00
 11
    -54.79
 21
    -65.76
 31
    0.00
  0
LINE
  8
RADIALES
 10
    -54.98
 20
    -65.65
 30
    0.00
 11
    -54.74
 21
    -63.93
 31
    0.00
  0
LINE
  8
RADIALES
 10
    -54.98
 20
    -65.65
 30
    0.00
 11
    -56.18
 21
    -63.36
 31
    0.00
  0
LINE
  8
RADIALES
 10
    -54.98
 20
    -65.65
 30
    0.00
 11
    -56.11
 21
    -65.13
 31
    0.00
  0
LINE
  8
CHEMINEMENTS
 10
    -56.26
 20
    -63.39
 30
    0.00
 11
    -54.98
 21
    -65.65
 31
    0.00
  0
CIRCLE
  8
POINTS
 10
    -54.98
 20
    -65.65
 30
    0.00
 40
    0.2
  0
LINE
  8
CONTOURS_LARGEURS
 10
    -56.26
 20
    -63.39
 30
    0.00
 11
    -54.72
 21
    -63.26
 31
    0.00
  0
LINE
  8
CONTOURS_LARGEURS
 10
    -56.26
 20
    -63.39
 30
    0.00
 11
    -55.09
 21
    -66.65
 31
    0.00
  0
TEXT
  8
STATIONS
 10
    -54.98
 20
    -65.65
 30
    0.00
 40
    0.4
  1
2023.5
  0
LINE
  8
RADIALES
 10
    -56.26
 20
    -63.39
 30
    0.00
 11
    -55.89
 21
    -63.66
 31
    0.00
  0
LINE
  8
RADIALES
 10
    -56.26
 20
    -63.39
 30
    0.00
 11
    -56.86
 21
    -62.69
 31
    0.00
  0
LINE
  8
RADIALES
 10
    -56.26
 20
    -63.39
 30
    0.00
 11
    -57.07
 21
    -63.38
 31
    0.00
  0
LINE
  8
RADIALES
 10
    -56.26
 20
    -63.39
 30
    0.00
 11
    -57.05
 21
    -64.55
 31
    0.00
  0
LINE
  8
CHEMINEMENTS
 10
    -56.26
 20
    -63.39
 30
    0.00
 11
    -57.84
 21
    -66.57
 31
    0.00
  0
CIRCLE
  8
POINTS
 10
    -57.84
 20
    -66.57
 30
    0.00
 40
    0.2
  0
LINE
  8
CONTOURS_LARGEURS
 10
    -56.26
 20
    -63.39
 30
    0.00
 11
    -57.69
 21
    -66.72
 31
    0.00
  0
LINE
  8
CONTOURS_LARGEURS
 10
    -56.26
 20
    -63.39
 30
    0.00
 11
    -58.33
 21
    -66.06
 31
    0.00
  0
TEXT
  8
STATIONS
 10
    -57.84
 20
    -66.57
 30
    0.00
 40
    0.4
  1
2023.AA
  0
LINE
  8
RADIALES
 10
    -57.84
 20
    -66.57
 30
    0.00
 11
    -57.68
 21
    -66.72
 31
    0.00
  0
LINE
  8
RADIALES
 10
    -57.84
 20
    -66.57
 30
    0.00
 11
    -58.41
 21
    -66.28
 31
    0.00
  0
LINE
  8
RADIALES
 10
    -57.84
 20
    -66.57
 30
    0.00
 11
    -58.41
 21
    -66.15
 31
    0.00
  0
LINE
  8
RADIALES
 10
    -57.84
 20
    -66.57
 30
    0.00
 11
    -57.81
 21
    -66.75
 31
    0.00
  0
LINE
  8
CHEMINEMENTS
 10
    -57.84
 20
    -66.57
 30
    0.00
 11
    -61.08
 21
    -68.05
 31
    0.00
  0
CIRCLE
  8
POINTS
 10
    -61.08
 20
    -68.05
 30
    0.00
 40
    0.2
  0
LINE
  8
CONTOURS_LARGEURS
 10
    -57.69
 20
    -66.72
 30
    0.00
 11
    -60.80
 21
    -68.28
 31
    0.00
  0
LINE
  8
CONTOURS_LARGEURS
 10
    -58.33
 20
    -66.06
 30
    0.00
 11
    -61.49
 21
    -67.70
 31
    0.00
  0
TEXT
  8
STATIONS
 10
    -61.08
 20
    -68.05
 30
    0.00
 40
    0.4
  1
2023.AB
  0
LINE
  8
RADIALES
 10
    -61.08
 20
    -68.05
 30
    0.00
 11
    -60.92
 21
    -68.37
 31
    0.00
  0
LINE
  8
RADIALES
 10
    -61.08
 20
    -68.05
 30
    0.00
 11
    -61.24
 21
    -67.93
 31
    0.00
  0
LINE
  8
RADIALES
 10
    -61.08
 20
    -68.05
 30
    0.00
 11
    -61.16
 21
    -67.50
 31
    0.00
  0
LINE
  8
CHEMINEMENTS
 10
    -61.08
 20
    -68.05
 30
    0.00
 11
    -61.29
 21
    -68.83
 31
    0.00
  0
CIRCLE
  8
POINTS
 10
    -61.29
 20
    -68.83
 30
    0.00
 40
    0.2
  0
LINE
  8
CONTOURS_LARGEURS
 10
    -60.80
 20
    -68.28
 30
    0.00
 11
    -60.41
 21
    -69.07
 31
    0.00
  0
LINE
  8
CONTOURS_LARGEURS
 10
    -61.49
 20
    -67.70
 30
    0.00
 11
    -61.29
 21
    -68.83
 31
    0.00
  0
LINE
  8
CONTOURS_LARGEURS
 10
    -60.41
 20
    -69.07
 30
    0.00
 11
    -61.29
 21
    -68.83
 31
    0.00
  0
TEXT
  8
STATIONS
 10
    -61.29
 20
    -68.83
 30
    0.00
 40
    0.4
  1
2023.AC
  0
TEXT
  8
PROFONDEURS
 10
    -61.29
 20
    -68.83
 30
    0.00
 40
    0.6
  1
-212
  0
LINE
  8
RADIALES
 10
    -61.29
 20
    -68.83
 30
    0.00
 11
    -60.91
 21
    -68.69
 31
    0.00
  0
LINE
  8
RADIALES
 10
    -61.29
 20
    -68.83
 30
    0.00
 11
    -60.27
 21
    -68.44
 31
    0.00
  0
LINE
  8
RADIALES
 10
    -61.29
 20
    -68.83
 30
    0.00
 11
    -61.31
 21
    -68.96
 31
    0.00
  0
LINE
  8
RADIALES
 10
    -61.29
 20
    -68.83
 30
    0.00
 11
    -61.14
 21
    -68.76
 31
    0.00
  0
LINE
  8
RADIALES
 10
    -56.26
 20
    -63.39
 30
    0.00
 11
    -55.80
 21
    -63.82
 31
    0.00
  0
LINE
  8
RADIALES
 10
    -56.26
 20
    -63.39
 30
    0.00
 11
    -56.27
 21
    -62.73
 31
    0.00
  0
LINE
  8
RADIALES
 10
    -56.26
 20
    -63.39
 30
    0.00
 11
    -58.48
 21
    -65.26
 31
    0.00
  0
LINE
  8
CHEMINEMENTS
 10
    -56.24
 20
    -61.25
 30
    0.00
 11
    -56.26
 21
    -63.39
 31
    0.00
  0
CIRCLE
  8
POINTS
 10
    -56.26
 20
    -63.39
 30
    0.00
 40
    0.2
  0
LINE
  8
CONTOURS_LARGEURS
 10
    -56.07
 20
    -61.56
 30
    0.00
 11
    -56.26
 21
    -63.39
 31
    0.00
  0
LINE
  8
CONTOURS_LARGEURS
 10
    -56.30
 20
    -61.11
 30
    0.00
 11
    -56.26
 21
    -63.39
 31
    0.00
  0
TEXT
  8
STATIONS
 10
    -56.26
 20
    -63.39
 30
    0.00
 40
    0.4
  1
2023.6
  0
LINE
  8
RADIALES
 10
    -56.24
 20
    -61.25
 30
    0.00
 11
    -56.38
 21
    -61.06
 31
    0.00
  0
LINE
  8
RADIALES
 10
    -56.24
 20
    -61.25
 30
    0.00
 11
    -55.95
 21
    -61.52
 31
    0.00
  0
LINE
  8
RADIALES
 10
    -56.24
 20
    -61.25
 30
    0.00
 11
    -55.88
 21
    -60.89
 31
    0.00
  0
LINE
  8
RADIALES
 10
    -56.24
 20
    -61.25
 30
    0.00
 11
    -56.12
 21
    -61.27
 31
    0.00
  0
LINE
  8
CHEMINEMENTS
 10
    -55.70
 20
    -61.62
 30
    0.00
 11
    -56.24
 21
    -61.25
 31
    0.00
  0
CIRCLE
  8
POINTS
 10
    -56.24
 20
    -61.25
 30
    0.00
 40
    0.2
  0
LINE
  8
CONTOURS_LARGEURS
 10
    -55.74
 20
    -59.62
 30
    0.00
 11
    -56.07
 21
    -61.56
 31
    0.00
  0
LINE
  8
CONTOURS_LARGEURS
 10
    -55.66
 20
    -63.62
 30
    0.00
 11
    -56.30
 21
    -61.11
 31
    0.00
  0
TEXT
  8
STATIONS
 10
    -56.24
 20
    -61.25
 30
    0.00
 40
    0.4
  1
2023.7
  0
LINE
  8
CHEMINEMENTS
 10
    -48.21
 20
    -54.46
 30
    0.00
 11
    -46.41
 21
    -51.02
 31
    0.00
  0
CIRCLE
  8
POINTS
 10
    -46.41
 20
    -51.02
 30
    0.00
 40
    0.2
  0
LINE
  8
CONTOURS_LARGEURS
 10
    -48.21
 20
    -54.46
 30
    0.00
 11
    -46.52
 21
    -50.96
 31
    0.00
  0
LINE
  8
CONTOURS_LARGEURS
 10
    -48.21
 20
    -54.46
 30
    0.00
 11
    -45.27
 21
    -51.62
 31
    0.00
  0
LINE
  8
CONTOURS_LARGEURS
 10
    -46.52
 20
    -50.96
 30
    0.00
 11
    -45.27
 21
    -51.62
 31
    0.00
  0
TEXT
  8
STATIONS
 10
    -46.41
 20
    -51.02
 30
    0.00
 40
    0.4
  1
2023.E
  0
TEXT
  8
PROFONDEURS
 10
    -46.41
 20
    -51.02
 30
    0.00
 40
    0.6
  1
-185
  0
TEXT
  8
ECHELLE
 10
    -61.49
 20
    -74.26
 30
    0.00
 40
    1.7
  1
0
  0
TEXT
  8
ECHELLE
 10
    -38.89
 20
    -74.26
 30
    0.00
 40
    1.7
  1
20 m
  0
LINE
  8
ECHELLE
 10
    -59.76
 20
    -72.53
 30
    0.00
 11
    -39.76
 21
    -72.53
 31
    0.00
  0
LINE
  8
ECHELLE
 10
    -39.76
 20
    -72.53
 30
    0.00
 11
    -39.76
 21
    -74.26
 31
    0.00
  0
LINE
  8
ECHELLE
 10
    -39.76
 20
    -74.26
 30
    0.00
 11
    -59.76
 21
    -74.26
 31
    0.00
  0
LINE
  8
ECHELLE
 10
    -59.76
 20
    -74.26
 30
    0.00
 11
    -59.76
 21
    -72.53
 31
    0.00
  0
SOLID
  8
ECHELLE
 10
    -59.76
 20
    -72.53
 30
    0.00
 11
    -57.76
 21
    -72.53
 31
    0.00
 12
    -59.76
 22
    -73.40
 32
    0.00
 13
    -57.76
 23
    -73.40
 33
    0.00
  0
SOLID
  8
ECHELLE
 10
    -57.76
 20
    -73.40
 30
    0.00
 11
    -55.76
 21
    -73.40
 31
    0.00
 12
    -57.76
 22
    -74.26
 32
    0.00
 13
    -55.76
 23
    -74.26
 33
    0.00
  0
SOLID
  8
ECHELLE
 10
    -55.76
 20
    -72.53
 30
    0.00
 11
    -53.76
 21
    -72.53
 31
    0.00
 12
    -55.76
 22
    -73.40
 32
    0.00
 13
    -53.76
 23
    -73.40
 33
    0.00
  0
SOLID
  8
ECHELLE
 10
    -53.76
 20
    -73.40
 30
    0.00
 11
    -51.76
 21
    -73.40
 31
    0.00
 12
    -53.76
 22
    -74.26
 32
    0.00
 13
    -51.76
 23
    -74.26
 33
    0.00
  0
SOLID
  8
ECHELLE
 10
    -51.76
 20
    -72.53
 30
    0.00
 11
    -49.76
 21
    -72.53
 31
    0.00
 12
    -51.76
 22
    -73.40
 32
    0.00
 13
    -49.76
 23
    -73.40
 33
    0.00
  0
SOLID
  8
ECHELLE
 10
    -49.76
 20
    -73.40
 30
    0.00
 11
    -39.76
 21
    -73.40
 31
    0.00
 12
    -49.76
 22
    -74.26
 32
    0.00
 13
    -39.76
 23
    -74.26
 33
    0.00
  0
ENDSEC
  0
EOF
